<?xml version="1.0" encoding="utf-8"?>
<!-- Generator: Adobe Illustrator 21.0.2, SVG Export Plug-In . SVG Version: 6.00 Build 0)  -->
<svg version="1.1" id="Layer_1" xmlns="http://www.w3.org/2000/svg" xmlns:xlink="http://www.w3.org/1999/xlink" x="0px" y="0px"
	 viewBox="0 0 595.3 841.9" style="enable-background:new 0 0 595.3 841.9;" xml:space="preserve">
<style type="text/css">
	.st0{fill:#FFCC29;}
	.st1{fill:#C6393B;}
</style>
<g id="__x0023_Layer_x0020_3">
	<path class="st0" d="M503.4,496v13.4L383.3,628.1h-171l-8.4-8.5L329.1,496H503.4z M503.4,220.4v108l-2.3-2.3
		c-2.2-2.3-5.3-3.6-8.4-3.6c-0.1,0-0.1,0-0.1,0l0,0c-3.2,0-6.2,1.3-8.5,3.5l-26.9,26.7H276.5l115.8-114.4c4.8-4.6,4.8-12.2,0.1-17
		l-0.8-0.8H503.4z M503.4,345.5v7.1h-29.1l18.3-18.2L503.4,345.5z M259.5,352.6H97.7v-26l107.6-106.2h169.6l9,9.3L259.5,352.6z
		 M97.7,309.7v-89.3h90.5L97.7,309.7z M114.2,496l-16.5,16.2V496H114.2z M97.7,526.5c2.3-0.5,4.4-1.7,6.1-3.2l27.6-27.3H312
		L195.5,611.1c-4.6,4.6-4.8,12.2-0.1,17h0.1H97.7V526.5z M503.4,526.3v101.8H400.3L503.4,526.3z"/>
	<path class="st1" d="M99,517.1c-1.7,0-3.1-0.6-4.3-1.8L1.8,421.3c-2.3-2.3-2.3-6.2,0.1-8.5l288.6-285.1c1.2-1,2.6-1.7,4.3-1.7l0,0
		c1.5,0,3.1,0.6,4.3,1.8l92.8,93.9c2.4,2.4,2.3,6.2,0,8.5L103.2,515.3C102.1,516.5,100.5,517.1,99,517.1L99,517.1z M300.5,715.9
		c-1.7,0-3.1-0.6-4.3-1.8l-92.9-93.9c-2.3-2.4-2.3-6.2,0.1-8.5l288.6-285.1c1.2-1.2,2.6-1.8,4.3-1.8l0,0c1.5,0,3.1,0.6,4.3,1.8
		l92.9,94.1c2.3,2.3,2.2,6.2-0.1,8.5L304.7,714.3C303.6,715.3,302,715.9,300.5,715.9L300.5,715.9z"/>
</g>
</svg>
