<?xml version="1.0" encoding="utf-8"?>
<!-- Generator: Adobe Illustrator 21.0.2, SVG Export Plug-In . SVG Version: 6.00 Build 0)  -->
<svg version="1.1" id="Layer_1" xmlns="http://www.w3.org/2000/svg" xmlns:xlink="http://www.w3.org/1999/xlink" x="0px" y="0px"
	 viewBox="0 0 612 792" style="enable-background:new 0 0 612 792;" xml:space="preserve">
<style type="text/css">
	.st0{fill:#522B1C;}
	.st1{fill:#D1A238;}
</style>
<g id="__x0023_Layer_x0020_3">
	<g id="_908021792">
		<path class="st0" d="M606,396v250.5c0,27.2-22.4,49.5-49.5,49.5H55.5C28.4,696,6,673.6,6,646.5V536.1
			c31.2-88.4,74.7-175.8,207.7-94.5C407.2,559.8,478,568.3,606,396z"/>
		<path class="st0" d="M55.5,96h500.9c27.2,0,49.5,22.4,49.5,49.5v115.3c-58.3,174.4-155.1,132.4-282.7,46.2
			C186,214.2,79.9,261.4,6,414.1V145.5C6,118.4,28.4,96,55.5,96z"/>
		<path class="st1" d="M6,414.1c73.9-152.7,180-199.9,317.3-107.1c127.6,86.2,224.4,128.2,282.7-46.2V396
			c-128,172.3-198.8,163.8-392.3,45.5C80.7,360.3,37.2,447.7,6,536.1V414.1z"/>
	</g>
</g>
</svg>
