<?xml version="1.0" encoding="utf-8"?>
<!-- Generator: Adobe Illustrator 21.0.2, SVG Export Plug-In . SVG Version: 6.00 Build 0)  -->
<svg version="1.1" id="Layer_1" xmlns="http://www.w3.org/2000/svg" xmlns:xlink="http://www.w3.org/1999/xlink" x="0px" y="0px"
	 viewBox="0 0 612 792" style="enable-background:new 0 0 612 792;" xml:space="preserve">
<style type="text/css">
	.st0{fill:#008A9F;stroke:#008A9F;stroke-width:6.9449;}
</style>
<g id="__x0023_Layer_x0020_3">
	<path class="st0" d="M454.4,246c0,29.8-0.7,55.5-1.1,81.5C343,349.7,300.5,465.1,212.1,522C-42.4,646.7-11.5,183.3,255.4,381.8
		c-5.7,8.8-11.3,19.3-17,28c-254.4-169-193,264.5,12.3,19.9C305.5,357.1,334.9,243.3,454.4,246z M337.3,431.6
		c0,0-14.8,18.4-22.5,26.8c244.6,257,366.7-133.9,140.8-126.8c0.4,11.3,0.5,27.5,0.2,77.8C544.4,427.3,494.1,593.6,337.3,431.6z"/>
</g>
</svg>
