<?xml version="1.0" encoding="utf-8"?>
<!-- Generator: Adobe Illustrator 21.0.2, SVG Export Plug-In . SVG Version: 6.00 Build 0)  -->
<svg version="1.1" id="Layer_1" xmlns="http://www.w3.org/2000/svg" xmlns:xlink="http://www.w3.org/1999/xlink" x="0px" y="0px"
	 viewBox="0 0 612 792" style="enable-background:new 0 0 612 792;" xml:space="preserve">
<style type="text/css">
	.st0{fill:#701E72;}
</style>
<path class="st0" d="M118.3,121c58.1,0,105.2,47.2,105.2,105.4s-47.1,105.2-105.2,105.2S12.9,284.5,12.9,226.4S60.1,121,118.3,121z
	 M332.7,121h60.8L274.6,671h-60.9L332.7,121z M587.3,121L294.6,671l119.1-550H587.3z M20.8,671l292.7-550L194.5,671H20.8z
	 M493.7,460.4c58.1,0,105.4,47.1,105.4,105.2S551.9,671,493.7,671s-105.2-47.2-105.2-105.4S435.6,460.4,493.7,460.4z"/>
</svg>
