<?xml version="1.0" encoding="utf-8"?>
<!-- Generator: Adobe Illustrator 21.0.2, SVG Export Plug-In . SVG Version: 6.00 Build 0)  -->
<svg version="1.1" id="Layer_1" xmlns="http://www.w3.org/2000/svg" xmlns:xlink="http://www.w3.org/1999/xlink" x="0px" y="0px"
	 viewBox="0 0 612 792" style="enable-background:new 0 0 612 792;" xml:space="preserve">
<style type="text/css">
	.st0{fill:#00A651;stroke:#00A651;stroke-width:6.9449;}
	.st1{fill:#FED519;stroke:#FED519;stroke-width:6.9449;}
</style>
<g id="__x0023_Layer_x0020_3">
	<g id="_908021056">
		<path class="st0" d="M435.8,199.6L355.2,96c-100,0.5-198.7,1-298.7,1.6c-23.9,3-34.3,12.7-37.3,38.8c0,101.6,0,191.1,0,292.6
			C53.5,563,338,650.1,382.1,446.9c-97.4,145.5-248.7,35.3-257-17.7c0-60-0.1-117.7-0.1-177.6c4.8-33,24.7-47.9,53-51.8L435.8,199.6
			z"/>
		<ellipse class="st1" cx="302.1" cy="400.9" rx="88.3" ry="88.5"/>
		<path class="st0" d="M176.1,592.5L256.8,696c100-0.8,198.7-1.4,298.7-2c23.9-3,34.3-12.8,37.3-39c-0.1-101.6-0.3-191.1-0.4-292.6
			c-34.6-133.8-319.2-220.6-363-17.3c97.1-145.6,248.6-35.6,257,17.4c0.1,59.9,0.3,117.5,0.5,177.4c-4.8,33-24.7,48-53,51.9
			L176.1,592.5z"/>
	</g>
</g>
</svg>
