<?xml version="1.0" encoding="utf-8"?>
<!-- Generator: Adobe Illustrator 21.0.2, SVG Export Plug-In . SVG Version: 6.00 Build 0)  -->
<svg version="1.1" id="Layer_1" xmlns="http://www.w3.org/2000/svg" xmlns:xlink="http://www.w3.org/1999/xlink" x="0px" y="0px"
	 viewBox="0 0 612 792" style="enable-background:new 0 0 612 792;" xml:space="preserve">
<style type="text/css">
	.st0{fill:url(#SVGID_1_);}
	.st1{fill:#202D14;stroke:#373435;stroke-width:3;}
	.st2{fill:#EFF1BF;}
</style>
<g id="__x0023_Layer_x0020_3">
	<g id="_908022176">
		
			<linearGradient id="SVGID_1_" gradientUnits="userSpaceOnUse" x1="-414.6734" y1="-1663.0087" x2="8895.9824" y2="-7781.4062" gradientTransform="matrix(7.200000e-02 0 0 -7.200000e-02 0 57.024)">
			<stop  offset="0" style="stop-color:#B97A19"/>
			<stop  offset="0.6314" style="stop-color:#F1F29B"/>
			<stop  offset="1" style="stop-color:#B97A19"/>
		</linearGradient>
		<path class="st0" d="M275.4,67.5L274.7,28h60.7l-0.1,39.3H376l0.1,79l79.7,0.1l42.5,50l-22.2,0.5L455.4,228l15.3,0.3v28.2
			l28.3,0.1l0.1,37.6l28.2-0.1v51c14.4-0.4,24.8,4.6,30,20.9c27.5-1.8,43.8,31.7,52.2,66.5l-19.4-8.7l-66.1-0.3l-6.2,12.7l28.3-0.1
			l0.3,25h21.9l0.1,28.6h-22.3l0.1,18.8l-34.6,0.4V521l-28.2,0.4l-0.1,141.8l-119.7,0.1l-0.1,56.4h-25.2v44.2l-66.2,0.1v-44.2H247
			v-56.7L127.1,663l0.3-141.8l-28.5-0.1l0.5-12.5l-35.1-0.1l-0.1-18.9l-21.8-0.3l-0.1-28.2h21.9l0.1-24.9l30.7-0.1l-5.9-12.9
			l-62-0.4c-8.8,1-16.8,4.3-24.7,10.2C7,406.2,15.8,368.9,53.9,366c3.3-11.9,10.9-22.3,29.5-21.4L83,294.1l28.7,0.1l-0.1-37.8
			l28.1-0.1l0.1-25.2l15.5-0.1l-21.8-34.5h-21.6l43.9-47.3h78.4V67.7L275.4,67.5z"/>
		<polygon class="st1" points="300.4,338.4 300.5,370.3 269,351 269,193.6 247.2,160.5 246.9,83.2 287.9,83.2 287.9,42.2 
			322.7,42.4 322.4,83.7 363.7,83.7 363.7,160.5 341.7,193.4 341.8,350.9 313.2,369.9 313.5,338.3 322.5,328.2 322.9,102.2 
			288.2,102.2 288,329 		"/>
		<polygon class="st1" points="149.4,177.8 158.9,165.2 237.4,165.2 256.4,199.8 256.6,363.3 297.3,388.9 297.5,499.1 250.1,499.1 
			250.3,395.1 199.6,347.2 199.5,225.1 171.2,177.9 		"/>
		<polygon class="st1" points="152.4,196.8 165.3,196.8 187.6,234.6 187.3,344.6 174.9,344.6 174.7,234.4 		"/>
		<polygon class="st1" points="149.4,313.2 161.7,313.4 162,344.7 149.3,344.9 		"/>
		<path class="st1" d="M29.7,407.5C32,397,39,385.9,48.4,382.8l21.5-0.1c-1.4-9.4,1.6-16.4,10.2-22l113.2-0.3l41.2,41.2l-0.1,97.8
			l-37.8-0.3l-59.9-91.1L29.7,407.5z"/>
		<polygon class="st1" points="108.2,423.5 127.1,423.5 177.6,498.8 155.8,499.1 		"/>
		<polygon class="st1" points="98.9,467.7 99.2,479.9 127.2,480.1 117.5,467.6 		"/>
		<polygon class="st1" points="461,177.8 451.6,165.2 372.9,165.2 354,199.8 353.9,363.3 313.1,388.9 313,499.1 360.3,499.1 
			360.2,395.1 410.7,347.2 410.9,225.1 439.1,177.9 		"/>
		<path class="st1" d="M581.3,407.3c-2.5-10.5-9.3-21.6-18.8-24.8l-21.5-0.1c1.4-9.4-1.6-16.4-10.2-21.9l-113.2-0.4l-41.3,41.4
			l0.3,97.6l37.6-0.3l60.1-91.1L581.3,407.3z"/>
		<polygon class="st1" points="503.4,423.8 484.4,423.7 433.9,499.1 455.6,499.2 		"/>
		<polygon class="st1" points="511.5,467.9 511.8,480.2 483.7,480.3 492.9,467.7 		"/>
		<polygon class="st1" points="262.6,662.9 262.9,704.1 288,704.1 287.9,748 322.9,748 322.8,704.1 348,703.9 347.7,663.1 
			322.7,663.1 322.5,687.8 288.2,688.1 287.9,663 		"/>
		<polygon class="st1" points="139.8,515 140.2,647 470.7,647.1 470.6,515 		"/>
		<polygon class="st1" points="448.6,313.2 461,313.4 461.1,344.7 448.4,344.9 		"/>
		<polygon class="st1" points="458.3,196.8 445.3,196.8 423,234.6 423.2,344.6 435.7,344.6 435.8,234.4 		"/>
		<g>
			<path class="st2" d="M410,600.5v1.6c0,2.9,0.8,4.9,2.4,6c0.9,0.5,2.1,0.9,3.4,0.9c1,0,2-1,2.8-3.3c0.1-0.5,0.3-1,0.5-1.7
				c0.1-0.7,0.4-0.9,0.7-0.9c0.4,0,0.5,0.4,0.5,1c0,0.3,0,0.7-0.1,1.3c-0.1,0.5-0.3,0.9-0.3,1.3c-0.9,4.2-2.2,7.3-3.7,9.7
				c-1.4,2.2-2.9,3.4-4.5,3.4c-2.4,0-4.1-1-5-3.1c-0.9-2.1-1.3-4.9-1.3-8.1L410,600.5z"/>
			<path class="st2" d="M418.5,635.3c0.3,0.7,0.1,1.4-0.1,2.2c-0.3,0.9-0.7,1.8-1.2,2.8c-0.5,1-1.3,2-2.2,2.9
				c-0.7,0.5-1,0.8-1.4,0.8c-0.3,0-0.7-0.3-1.4-0.9c-0.8-0.7-1.4-1.2-2.1-1.7c-0.7-0.4-1.2-0.8-1.6-1.3c-0.5-0.4-0.7-0.8-0.7-1
				c0.4-0.9,0.8-1.6,0.9-2.1c0.8-1.6,1.3-2.6,1.7-3.4c0.7-1,1.3-2.1,2-3.1c0.1-0.3,0.4-0.5,0.7-1c0.3,0.3,0.4,0.4,0.7,0.5
				c0.3,0.1,0.5,0.4,0.9,0.5c1.4,1.2,2.5,2.1,3,2.8C418.1,633.8,418.4,634.6,418.5,635.3z"/>
			<path class="st2" d="M410,600.5c-0.7,1.8-1.2,3.5-1.8,5.4c-0.8,1.8-1.7,2.8-2.8,2.8c0-0.8,0.4-4.5,1.2-10.9
				c0.8-6.6,1.4-11.5,2-15c0-0.3,0.7-1.7,1.7-4.3c1.2-2.6,2-4.6,2.6-5.9c0.1-0.1,0.4-0.1,0.5-0.3c0,0.3,0,0.8-0.1,1.7l-0.5,2.8
				l-1.8,12.9c-0.4,2.6-0.5,4.9-0.8,6.7C410,598.2,410,599.5,410,600.5z"/>
			<path class="st2" d="M388.9,600.5v1.6c0,2.9,0.8,4.9,2.4,6c1,0.5,2.1,0.9,3.4,0.9c1,0,2-1,2.8-3.3c0.1-0.5,0.3-1,0.5-1.7
				c0.1-0.7,0.4-0.9,0.7-0.9c0.4,0,0.5,0.4,0.5,1c0,0.3,0,0.7-0.1,1.3c-0.1,0.5-0.1,0.9-0.3,1.3c-0.9,4.2-2.1,7.3-3.5,9.7
				c-1.6,2.2-3,3.4-4.6,3.4c-2.4,0-4.1-1-5-3.1c-0.9-2.1-1.3-4.9-1.3-8.1L388.9,600.5z"/>
			<path class="st2" d="M397.1,553.6c0.1,0.7,0.1,1.4-0.1,2.2c-0.3,0.8-0.7,1.7-1.2,2.8c-0.5,1-1.3,2-2.2,2.8
				c-0.7,0.7-1,0.9-1.4,0.9c-0.3,0-0.7-0.4-1.4-1c-0.8-0.5-1.4-1-2.1-1.6c-0.7-0.4-1.2-0.9-1.6-1.3c-0.5-0.4-0.7-0.8-0.7-1
				c0.4-0.9,0.8-1.6,0.9-2.1c0.8-1.6,1.3-2.6,1.7-3.4c0.7-1,1.3-2.1,2-3.3c0.1-0.1,0.4-0.5,0.7-0.9c0.1,0.3,0.4,0.4,0.7,0.5
				c0.1,0.1,0.5,0.3,0.8,0.5c1.6,1.2,2.6,2.1,3.1,2.8S397,552.7,397.1,553.6z"/>
			<path class="st2" d="M388.9,600.5c-0.3,0.8-0.4,1.7-0.7,2.6s-0.5,1.8-1,2.9c-0.4,1-0.9,1.8-1.6,2.2c-0.5,0.5-1,0.7-1.3,0.4
				c0-1.6,0.1-3.4,0.4-5.5c0.3-2.1,0.4-3.4,0.5-4.1l0.1-1c0-0.3-0.1-0.4-0.1-0.5c-0.1,0-0.3,0-0.5,0.3c-0.3,0.4-0.7,0.9-1.3,1.8
				c-1.4,1.8-2.5,3.1-3.1,4.1c-2.2,2.6-4.9,5.1-8.1,7.5c-3.4,2.4-6.8,4.2-10.6,5.5c-3.7,1.3-7.9,2.5-12.6,3.4s-9.6,1.4-14.7,1.4
				h-1.7c-3.1,0-5.6-0.3-7.6-0.5c-3.1-0.7-5.4-1.6-6.4-2.9c-1.2-1.2-1.7-3.3-1.7-5.9c0-2.2,0.1-4.6,0.4-7c0.4-2.4,0.8-3.5,1.4-3.5
				c0.3,0,0.4,0.7,0.5,2c0.1,1.4,0.7,2.6,1.6,3.7c2,2.1,6.7,3.1,14.3,3.1c4.2,0,7.5-0.1,10-0.3c12.1-1,21.8-3.8,29.4-8.4
				c3.5-2,6.4-4.5,8.4-7.2c1.6-2.2,2.8-4.9,3.7-7.9l1.6-5.9c0.1-0.7,0.9-2.5,2.4-5.4c0.9-2,1.6-3.1,1.8-3.7s0.7-1,1.2-1.4
				c0,0.5,0,1,0,1.6c-0.4,1.6-0.7,2.8-0.8,3.5l-2.4,11.1c-0.4,3-0.8,5.8-0.9,8.3C389,597.3,388.9,599.1,388.9,600.5z"/>
			<path class="st2" d="M397.8,562.6c1.6-1.7,5-4.6,10.2-8.7c4.7-3.5,9.3-7.2,14-10.9c3.4-2.6,6.6-5.4,9.7-8.1c2.1-2,5-4.6,8.7-8
				c5.4-5,8.1-7.6,8.1-7.7c0,0.3,0,0.7-0.1,0.9c-0.3,0.9-0.9,2.5-2.1,4.5s-2.2,3.4-3,4.3c-1.2,1.6-2.4,3-3.8,4.5
				c-1.3,1.4-2.4,2.5-3.1,3.3c-1.2,1-3,2.8-5.6,5c-2,1.7-5,4.2-8.9,7.3c-2.8,2.2-5.2,4.2-7.3,5.8c-3,2.2-5.9,4.3-8.8,6.4l-7.6,5.8
				c-1,0.8-2.1,1.6-3.1,2.4c-0.9,0.8-1.6,1-1.7,0.8c0.7-1.6,1.3-3,2-4.2C396,564.5,396.8,563.5,397.8,562.6z"/>
			<path class="st2" d="M300.2,603.1c1.6-1.6,2.5-2.5,2.8-2.9c1.2-1.2,2.1-2.8,2.8-4.5c0.8-1.7,1.4-4.1,2-7.1
				c0.5-2.9,0.8-5.2,0.8-6.7c0-2,0-3.9,0-6c0.1-2.1,0.3-4.2,0.4-6.3c0.1-2,0.1-3.3,0.1-3.8c0-0.4,0-0.7-0.1-0.8
				c-0.1,0-0.4,0.1-0.5,0.3l-3.9,9.3c-0.3,0.7-0.4,1.6-0.5,2.8c-0.1,1.3-0.1,2.8-0.1,4.3l0.1,7.1c0,2.9-0.4,5.1-1,6.7
				c-0.4,0.8-0.8,1.4-1.3,2.1c-0.5,0.5-0.9,1-1.3,1.2V603.1z"/>
			<path class="st2" d="M313.3,557.4c1.7-1.7,5.1-4.6,10.4-8.7c4.7-3.7,9.3-7.2,14-10.9c3.3-2.6,6.6-5.4,9.6-8.1
				c2.2-2,5.1-4.6,8.7-8c5.5-5.1,8.3-7.6,8.3-7.7c0,0.3-0.1,0.7-0.3,0.9c-0.1,0.9-0.9,2.5-2.1,4.5c-1,2-2.1,3.4-2.9,4.3
				c-1.2,1.6-2.5,3-3.8,4.5c-1.3,1.4-2.4,2.5-3.3,3.3c-1,1-2.9,2.8-5.5,5c-2,1.7-5,4.1-8.9,7.3c-2.8,2.2-5.2,4.2-7.5,5.8
				c-2.9,2.2-5.8,4.3-8.7,6.4l-7.6,5.8c-1,0.8-2.1,1.6-3.1,2.4c-0.9,0.7-1.6,0.9-1.7,0.8c0.7-1.6,1.3-3,2-4.2
				C311.6,559.4,312.4,558.4,313.3,557.4z"/>
			<path class="st2" d="M300.2,603.1l-0.7,0.5c-1.2,0.7-2.1,1-2.5,1.2c-0.4,0.1-0.8,0.4-1.2,0.8c-0.4,0.3-0.9,0.8-1.4,1.3
				c-0.3,0.1-0.8,0.4-1.3,0.4c-0.7,0.1-1,0.3-1.4,0.5c-0.4,0.3-1,0.7-2,1.4s-1.7,1.3-2.2,1.4c-0.3,0-0.8,0-1.2,0c-0.5,0-1,0-1.6-0.1
				c-1.3,0-2.9,1.6-5,4.6c-2.1,3.1-4.5,4.7-7.2,4.7c-3.3,0-5.6-2-7-5.6c-0.1-0.5-0.4-1.4-0.5-2.6c-0.1-1.3-0.3-2.2-0.3-3l4.7-8.1
				c0,2.2,0.4,4.1,1.2,5.4c1.3,2.1,3.4,3.3,6.6,3.3c1.7,0,3.1-0.5,4.3-1.3c1.6-1.2,3.1-2.2,4.7-3.4c0.9,0.1,1.8,0.3,3,0.3
				c0.8,0,1.7-0.4,2.6-1.3c0.4-0.4,0.9-0.9,1.4-1.4c0.3,0.4,0.7,0.4,1.3,0.3c0.8-0.3,1.6-0.9,2.2-1.7c0.4-0.5,0.8-1,1.2-1.6
				c0.5,0.1,1,0.3,1.4,0.1c0.3-0.1,0.5-0.3,0.7-0.3c0.1,0.4,0.3,0.7,0.5,1c0.1,0.4,0.1,0.8,0.1,1.3c0,0.3,0,0.5-0.1,0.9
				C300.5,602.4,300.4,602.7,300.2,603.1z"/>
			<path class="st2" d="M284.1,555.1c0.1,0.7,0,1.4-0.3,2.2c-0.3,0.8-0.7,1.7-1.2,2.8c-0.5,1-1.3,2-2.2,2.8c-0.7,0.5-1,0.9-1.4,0.9
				c-0.3,0-0.7-0.4-1.4-1c-0.8-0.7-1.4-1.2-2.1-1.6c-0.7-0.5-1.2-0.9-1.6-1.3c-0.5-0.4-0.7-0.8-0.7-1c0.4-0.9,0.8-1.7,0.9-2.1
				c0.8-1.6,1.3-2.8,1.7-3.4c0.7-1,1.3-2.1,2-3.3c0.1-0.3,0.4-0.5,0.7-0.9c0.3,0.1,0.4,0.4,0.7,0.5s0.5,0.3,0.9,0.5
				c1.4,1.2,2.5,2.1,3,2.8S283.8,554.2,284.1,555.1z M295.4,554.4L295.4,554.4c0.1,0.7,0,1.4-0.3,2.2c-0.3,0.8-0.7,1.7-1.2,2.8
				s-1.3,2-2.2,2.8c-0.5,0.7-1,0.9-1.4,0.9c-0.3,0-0.7-0.4-1.4-1c-0.8-0.5-1.4-1.2-2.1-1.6c-0.7-0.4-1.2-0.9-1.6-1.3
				c-0.4-0.4-0.7-0.8-0.7-1c0.4-0.9,0.8-1.6,0.9-2.1c0.8-1.6,1.3-2.8,1.7-3.4c0.7-1,1.3-2.1,2-3.3c0.1-0.1,0.4-0.5,0.7-0.9
				c0.3,0.3,0.4,0.4,0.7,0.5c0.3,0.1,0.5,0.3,0.9,0.5c1.4,1.2,2.5,2.1,3,2.8C294.9,552.9,295.1,553.5,295.4,554.4z M289.6,541.3
				L289.6,541.3c-0.1-0.8-0.5-1.6-0.9-2.2c-0.5-0.7-1.6-1.6-3.1-2.8c-0.4-0.1-0.7-0.4-0.8-0.5c-0.3-0.1-0.5-0.3-0.7-0.5
				c-0.4,0.5-0.5,0.8-0.8,1c-0.7,1-1.3,2.1-2,3.1c-0.3,0.8-0.9,1.8-1.6,3.4c-0.3,0.5-0.5,1.2-1,2.1c0,0.3,0.3,0.7,0.7,1
				c0.5,0.5,1,0.9,1.7,1.4c0.5,0.5,1.3,1,2,1.6c0.8,0.7,1.3,0.9,1.6,0.9c0.3,0,0.8-0.3,1.4-0.8c0.9-0.9,1.6-1.8,2.2-2.9
				c0.5-0.9,0.9-1.8,1.2-2.8C289.7,542.8,289.7,542,289.6,541.3z"/>
			<path class="st2" d="M269.5,600.5c-0.7,1.8-1.2,3.5-1.8,5.4c-0.8,1.8-1.7,2.8-2.9,2.8c0-0.8,0.4-4.5,1.3-10.9
				c0.8-6.6,1.4-11.5,2-15c0-0.3,0.7-1.7,1.7-4.3c1-2.6,2-4.6,2.6-5.9c0.1-0.1,0.3-0.1,0.4-0.3c0.1,0.3,0.1,0.8,0,1.7l-0.5,2.8
				l-1.8,12.9c-0.4,2.6-0.7,4.9-0.8,6.7C269.5,598.2,269.5,599.5,269.5,600.5z"/>
			<path class="st2" d="M258.9,606.1l-1.6,3.9c-0.7,1.4-1.4,2.8-2.4,3.9c-0.9,1.3-1.7,2.1-2.2,2.5c-0.5,0.4-1.7,0.8-3.3,1.4
				c-0.8,0.3-1.6,0.5-2.4,0.8c-1.7,0.5-2.9,0.9-3.4,1.2c-1.7,0.5-2.9,0.7-3.5,0.7l-0.4-0.1c0-0.5,1.3-1.6,3.9-3.1l4.2-3
				c0.8-0.4,1.6-1,2.5-1.7c0.8-0.8,1.7-1.6,2.8-2.8c0.9-1,1.7-2.1,2-3.1c0-0.1,0.1-0.4,0.1-0.7l-2.9,0.1c-1.3,0-2.4-0.4-3.3-1.2
				c-0.8-0.8-1.2-1.7-1-2.6c0.1-0.7,0.3-1.3,0.5-2.1c0.3-0.8,1-2.1,2-4.2c0.7-1.3,1.3-2.5,2-3.4c1-1.2,2-1.8,2.8-1.8
				c1.4,0,2.8,0.7,3.8,1.8c1.2,1.2,1.7,2.6,1.7,4.3c0,0.8-0.1,1.6-0.3,2.5c-0.1,0.8-0.3,1.6-0.4,2.2c0,0.7-0.3,1.3-0.4,2.2
				C259.4,604.8,259.2,605.6,258.9,606.1z"/>
			<path class="st2" d="M240.3,592.1c0,0.9-0.1,2.2-0.5,4.2c-0.4,2-0.8,3.8-1,5.2l-1.3,5.1c-0.8,2-1.3,3.4-1.8,4.3
				c-0.7,1.3-1.2,2.5-1.8,3.3c-0.5,0.8-1,1.4-1.7,2c-0.5,0.4-1.4,1-2.9,1.7l-3.9,1.6c-0.4,0.1-1.2,0.4-2.6,0.7
				c-1.3,0.3-2.2,0.4-2.5,0.4c-0.4,0-0.7-0.1-0.7-0.4c-0.1-0.1,0-0.5,0.1-0.8c0.4-0.7,1.3-1.6,2.9-2.8c1.4-1,2.9-2.1,4.3-3.1
				c1.7-1.6,3-2.8,3.8-3.5c1.2-1.2,2.2-2.6,3.3-4.3c0.3-0.4,0.5-1,0.9-2.1c0.4-1.2,1-2.9,2-5.4l1.3-3.8c0.1-0.5,0.3-1.2,0.7-2.1
				c0.3-0.8,0.7-1.2,1-1.2C240.2,591.5,240.3,591.9,240.3,592.1z"/>
			<path class="st2" d="M219,592.9c0,0.9-0.1,2.4-0.5,4.3c-0.4,2-0.8,3.7-1,5.1l-1.3,5.1c-0.8,2-1.3,3.4-1.8,4.3
				c-0.7,1.3-1.2,2.5-1.8,3.3c-0.5,0.9-1,1.6-1.7,2c-0.5,0.5-1.6,1-2.9,1.7l-3.9,1.6c-0.4,0.1-1.3,0.4-2.6,0.7
				c-1.3,0.3-2.2,0.4-2.5,0.4c-0.4,0-0.7-0.1-0.7-0.3c-0.1-0.3,0-0.7,0.1-0.9c0.4-0.7,1.3-1.6,2.9-2.6c1.4-1.2,2.9-2.2,4.3-3.3
				c1.7-1.6,3-2.6,3.8-3.5c1.2-1.2,2.2-2.6,3.3-4.3c0.1-0.3,0.5-1,0.9-2.1c0.4-1.2,1-2.9,2-5.4l1.3-3.8c0.1-0.5,0.3-1.2,0.7-2
				c0.3-0.9,0.7-1.3,1-1.3C218.9,592.3,219,592.7,219,592.9z"/>
			<path class="st2" d="M226.7,569c0.1,0.8,0,1.6-0.3,2.4c-0.3,0.8-0.7,1.7-1.2,2.8c-0.5,0.9-1.3,2-2.2,2.8c-0.5,0.5-1,0.8-1.4,0.8
				c-0.3,0-0.7-0.3-1.4-0.9c-0.8-0.7-1.4-1.2-2.1-1.6c-0.7-0.5-1.2-0.9-1.6-1.3c-0.4-0.5-0.7-0.8-0.7-1c0.4-0.9,0.8-1.7,0.9-2.1
				c0.8-1.6,1.3-2.8,1.7-3.4c0.7-1,1.3-2.2,2-3.3c0.1-0.3,0.4-0.5,0.7-0.9c0.3,0.1,0.4,0.4,0.7,0.5s0.5,0.3,0.9,0.5
				c1.4,1.2,2.5,2.1,3,2.8C226.1,567.4,226.4,568.2,226.7,569z"/>
			<path class="st2" d="M211,560.1c-0.1,0.8-0.4,1.6-0.7,2.5c-0.3,0.8-0.8,1.8-1.4,3.3s-1.2,2.4-1.3,2.5c-0.5,0.9-1,1.3-1.4,1.3
				c-0.4-0.3-0.7-0.4-0.9-0.7c-0.3-0.1-0.4-0.3-0.7-0.3c-0.9,0-2.1,0.4-3.5,1c-1.4,0.8-2.9,1.8-4.5,3.3c-2,1.6-3.4,3.1-4.5,4.5
				c-0.9,1.3-1.4,2.2-1.4,2.8s0.3,1.2,0.8,1.8l2,0.9c0.5,0.1,0.9,0.4,1.3,0.5c0.4,0.1,0.8,0.4,1.2,0.7c1.2,0.8,1.7,2.2,1.7,4.6
				c0,3.1-0.7,6.8-1.8,10.9c-1.2,4.2-2.9,7.7-5,10.8c-0.9,1.4-2.2,2.8-3.5,4.2c-1.4,1.4-2.9,2.6-4.5,3.5c-3.1,2-6.7,3-10.6,3
				c-4.7,0-8.1-1.4-10.2-4.5c-1-1.4-1.8-3-2.4-4.7c-0.4-1.6-0.7-3.1-0.7-4.6c0-2,0.3-3.8,0.5-5.6c0.3-1.7,0.7-3.5,1.3-5.4
				c0.9-3,2.1-5.8,3.4-8.5c1.3-2.8,2.4-5,3.1-6.7l2.5-5.1c0.3-0.5,0.7-1.2,0.9-1.7c0.4-0.5,0.7-0.8,0.8-0.8c0.5,0,0.8,0.3,0.8,0.9
				c0,0.5,0,0.8-0.1,1.2c-0.5,1-0.8,1.8-1,2.5c-0.3,0.7-0.8,1.8-1.6,3.4c-0.5,0.9-1.2,2.4-2,4.3c-0.5,0.9-0.9,2-1.3,2.9
				c-2.2,5.4-3.3,9.3-3.3,12.1s1,5,3.1,6.7c2.1,1.6,5,2.5,8.8,2.5c3.1,0,6.2-0.8,9.2-2.1c2.1-1,3.9-2.4,5.4-3.9
				c1.6-1.4,2.6-2.9,3.4-4.2c0.8-1.4,1.2-2.6,1.2-3.7c0-0.5-0.5-1-1.6-1.4c-1-0.3-1.7-0.5-2.2-0.5c-0.4-0.1-0.9-0.4-1.4-0.7
				c-1.2-0.5-2-1-2.6-1.8c-0.5-0.8-0.8-1.8-0.8-3.1c0-2.1,0.7-4.7,2.1-7.7c1.3-3.1,3.3-6.3,5.8-9.3c2-2.5,3.9-4.5,5.5-6
				c0.9-0.7,2.1-1.6,3.4-2.6c1.4-1,2.8-1.8,4.1-2.6c1.6-0.9,2.9-1.4,3.8-1.6c0.4,0.3,0.7,0.4,0.8,0.7
				C211,559.5,211.2,559.8,211,560.1z"/>
		</g>
	</g>
</g>
</svg>
