<?xml version="1.0" encoding="utf-8"?>
<!-- Generator: Adobe Illustrator 21.0.2, SVG Export Plug-In . SVG Version: 6.00 Build 0)  -->
<svg version="1.1" id="Layer_1" xmlns="http://www.w3.org/2000/svg" xmlns:xlink="http://www.w3.org/1999/xlink" x="0px" y="0px"
	 viewBox="0 0 612 792" style="enable-background:new 0 0 612 792;" xml:space="preserve">
<style type="text/css">
	.st0{fill:#E7930F;}
	.st1{fill:none;}
</style>
<g id="__x0023_Layer_x0020_3">
	<g id="_908019680">
		<path class="st0" d="M368.7,356.8c-19.6-14.8-30.5-29.8-38.4-54.7c-96.7,38.4-200.9,78-297.6,116.3l0.2,71l192.6-94.7l-192.7,151
			v123.7l226.5-221.1L103.1,670.3h85.3L368.7,356.8z"/>
		<path class="st0" d="M328.5,295c-4.7-27.2-0.1-46.9,9.5-66.3c-99-41.3-140.2-66.2-236.1-107.6h-69l-0.1,55.7l166.6,45.7
			L32.9,204.5l-0.2,64.6l174.2,5.9L32.4,299.9l0.4,76.4L328.5,295z"/>
		<path class="st0" d="M450.3,372.6c-28.6,5.3-47.9,3.2-75.2-11.7c-42.3,98.5-89,213.2-131.4,308.6h75.9l50.9-179.8l-5,180.2
			l52.3,0.4l9-183.1l35,183.2h68.4L450.3,372.6z"/>
		<path class="st0" d="M516,320.8c-11.1,22.2-33,41.8-58.6,49.7c36.2,100.9,88.2,201.8,122.2,300.5l-0.5-148.6l-54.2-88.9l54.1,47.9
			l0.2-57.1L544,381.6l35.1,21.3v-40.4L516,320.8z"/>
		<path class="st0" d="M522.1,244c7,25.8,6.7,45.3-3.2,70.4l60.2,30.8V307l-15.6-7.1l15.6-3.6l-0.2-30.6l-25.8-5l26.2-7.6l-0.1-33.4
			L522.1,244z"/>
		<path class="st0" d="M469.3,184.3c21,10.9,35.4,22.8,48.5,48.8l61.3-25.1v-40.5l-44.9,22.7l45.1-43.3l-0.2-26h-24.9l-50,52.4
			l29.6-52.4h-41L469.3,184.3z"/>
		<path class="st0" d="M391.7,181.2c24.5-8.7,46.9-8.2,68.6-0.6l21.6-57.9l-27-1.7l-14.8,23.8l-3-23.8h-25l-7.4,29.2l-8-29.2H379
			L391.7,181.2z"/>
		<path class="st0" d="M341.3,222.8c11.4-18.3,24.1-28.7,42.4-38.2L365.8,121h-38.9l17.8,41.1L310.4,121h-36.3l51.9,70l-75-70h-94.2
			L341.3,222.8z"/>
		<circle class="st1" cx="426.7" cy="275.1" r="99.8"/>
	</g>
</g>
</svg>
