<?xml version="1.0" encoding="utf-8"?>
<!-- Generator: Adobe Illustrator 21.0.2, SVG Export Plug-In . SVG Version: 6.00 Build 0)  -->
<svg version="1.1" id="Layer_1" xmlns="http://www.w3.org/2000/svg" xmlns:xlink="http://www.w3.org/1999/xlink" x="0px" y="0px"
	 viewBox="0 0 612 792" style="enable-background:new 0 0 612 792;" xml:space="preserve">
<style type="text/css">
	.st0{fill:#2F3394;stroke:#2F3394;stroke-width:6.9449;}
</style>
<g id="__x0023_Layer_x0020_3">
	<g id="_908022816">
		<ellipse class="st0" cx="305.9" cy="396.1" rx="121.3" ry="117.6"/>
		<polygon class="st0" points="318.1,193.4 514.5,193.4 514.5,280.8 470.5,237.2 273.1,237.2 		"/>
		<polygon class="st0" points="511.2,403.6 513.8,596.9 425,598.1 468.7,554 466.1,360 		"/>
		<polygon class="st0" points="98.1,385.4 98.9,192.1 187.7,192.5 143.2,235.8 142.4,429.8 		"/>
		<polygon class="st0" points="292.3,595.6 95.8,595.1 96,507.9 140.1,551.4 337.4,551.9 		"/>
		<path class="st0" d="M446.6,543.6c-41.3,41.6-79.6,78.3-120.9,119.8c-10.8,8.7-22.4,10.5-33.1,2.5l-46.9-45.2l62.5-0.6l138-138.6
			L446.6,543.6z"/>
		<path class="st0" d="M459.6,258.9c42,40.8,79.2,78.5,121.3,119.4c8.7,10.6,10.5,22,2.3,32.4l-46.1,46l-0.4-61.4L396.2,259
			L459.6,258.9z"/>
		<path class="st0" d="M152.5,533.8c-42.1-40.7-79.3-78.4-121.4-119.2c-8.7-10.6-10.5-22.2-2.3-32.5l46.1-46l0.4,61.4l140.6,136.2
			L152.5,533.8z"/>
		<path class="st0" d="M166.3,247.7c41.6-41.3,80-77.9,121.4-119.2c10.9-8.6,22.6-10.4,33.1-2.3l46.8,45.5l-62.5,0.4l-138.7,138
			L166.3,247.7z"/>
	</g>
</g>
</svg>
