<?xml version="1.0" encoding="utf-8"?>
<!-- Generator: Adobe Illustrator 21.0.2, SVG Export Plug-In . SVG Version: 6.00 Build 0)  -->
<svg version="1.1" id="Layer_1" xmlns="http://www.w3.org/2000/svg" xmlns:xlink="http://www.w3.org/1999/xlink" x="0px" y="0px"
	 viewBox="0 0 612 792" style="enable-background:new 0 0 612 792;" xml:space="preserve">
<style type="text/css">
	.st0{fill:#F16139;}
	.st1{fill:#F16136;}
	.st2{fill:#FFFFFF;}
</style>
<g>
	<path class="st0" d="M538.6,669.3v-57.5v-2.5v-1.3h1.1h2.5h10.9h2.5h1.3v1.3v2.5v52.7c0,2.4,0.6,4,1.7,5.2c1.3,1.1,3.1,1.5,5.6,1.7
		c2.4,0,4.3,0,6-0.1c1.7,0,3.1,0,4.3,0c2.2-0.1,3.6-1,4.3-2.1c0.8-1.1,1.1-2.8,1.1-4.6l0,0l-0.1-23.6v-1.3h1.3h16h1.3v1.3v27.2
		c0,6-2.4,11.3-6.1,15.2c-3.9,3.9-9.2,6.3-15.1,6.3h-15.9c-7,0-12.7-1.7-16.7-5.3C540.6,681,538.6,676,538.6,669.3z M49.9,623.5
		h17.4V641H49.9V623.5z M559.6,694.6h17.4V712h-17.4V694.6z M477.9,623.5h17.4V641h-17.4V623.5z M321.8,691.5h-19.7
		c-2.5,0-5-0.7-7.1-1.8c-1.8-0.8-3.5-2.1-4.7-3.6c-1.4,1.5-3.1,2.8-5,3.8c-2.1,1-4.7,1.7-7.5,1.7h-8.9c-3.3,0-6.3-0.6-8.9-1.5
		c-2.5-0.8-4.6-2.2-6.8-4.2c-4,3.8-9.1,5.6-14.1,5.6c-5.2,0-10.6-2-15.1-5.6c-4.3,3.8-9.9,5.6-15.3,5.6c-5.4,0-10.7-1.8-14.9-5.4
		l0,0c-1.5,1.4-4.9,3.8-9.5,3.8h-9.8h-2.7h-61.9l0,0h-0.8c-4,0-8.4,0-12.1-1.8c-0.1,0.4-0.3,0.8-0.4,1.3c-0.3,1-0.6,2-0.8,2.9
		c-0.7,1.8-1.5,3.6-2.7,5.3c-1,1.5-2.1,3.1-3.3,4.5l0,0l-0.3,0.4c-1.4,1.5-2.9,2.9-4.6,4.2c-1.7,1.3-3.3,2.2-5.2,3.1
		c-1.8,0.8-3.8,1.4-5.7,1.8s-4,0.7-6.1,0.7h-1.3h-7.8h-8.9c-2.1,0-4.2-0.3-6.1-0.7s-3.9-1-5.7-1.8c-1.8-0.8-3.5-1.8-5.2-3.1
		c-1.5-1.3-3.1-2.7-4.6-4.2l-0.3-0.4l0,0c-1.3-1.4-2.4-2.9-3.3-4.5c-1-1.7-2-3.5-2.7-5.3c-0.7-2-1.1-3.8-1.5-5.7
		c-0.3-2.1-0.6-4-0.6-6.1v-36.7V641v-1.3h1.3h2.5h10.7h2.5h1.1v1.3v2.5v37.8c0,1,0.1,1.8,0.3,2.7c0.1,0.8,0.4,1.5,0.8,2.2
		c0.3,0.8,0.7,1.5,1.3,2.1c0.4,0.7,1,1.3,1.7,2c0.7,0.6,1.4,1.1,2.2,1.5l0,0c0.7,0.4,1.4,0.7,2.2,1c0.8,0.3,1.7,0.6,2.7,0.7
		c0.8,0.1,1.8,0.3,2.8,0.3h6.8h7c1.1,0,2-0.1,2.9-0.3c0.8-0.1,1.7-0.4,2.5-0.7c0.8-0.3,1.5-0.6,2.4-1l0,0c0.7-0.4,1.4-1,2.1-1.5
		c0.7-0.7,1.3-1.3,1.8-2c0.4-0.6,0.8-1.3,1.3-2.1c0.3-0.7,0.6-1.4,0.7-2.2c0.1-0.8,0.3-1.7,0.3-2.7v-37.8V641v-1.3h1.3h2.4h10.7h2.5
		h1.3v1.3v2.5v20.8c0,7.1,4.6,7.1,11,7.1h0.6l0,0h30.6l-16.2-16.2l0,0l-2.1-2.1L110.3,642l-1.3-1.3l1.3-0.7l11.2-11l20.5-20.5
		l0.3-0.4h0.6h22.3h3.1l-2.1,2.2L135.2,641l30.3,30.4h8.8h1.3l0,0h4.2c1.7,0,3.1-0.6,4-1.5c1-1.1,1.5-2.7,1.5-4.3v-7.4V641v-1.3h1.3
		h2.4h9.1h1.8h2.5h1.3v1.3v2.5v24.4l0,0l0,0c0,0.4,0,0.7,0,1.1c0.1,0.3,0.1,0.6,0.3,0.8c0.1,0.3,0.3,0.6,0.6,0.8
		c0.1,0.3,0.4,0.4,0.6,0.7h0.1l0,0c0.3,0.3,0.6,0.6,0.8,0.7c0.3,0.1,0.7,0.4,1,0.4c0.3,0.1,0.8,0.3,1.4,0.3c1,0.1,2.1,0.1,2.7,0.1
		c0.8,0,1.4,0,2-0.1c0.4-0.1,0.8-0.4,1.1-0.6c0.1-0.1,0.3-0.4,0.4-0.8c0.1-0.4,0.1-0.8,0.1-1.5V641v-1.3h1.3h2.5h10.7h2.5h1.3v1.3
		v23.9v2.9c0,0.4,0,0.8,0,1.1c0.1,0.3,0.1,0.7,0.3,0.8c0.1,0.3,0.3,0.6,0.6,0.8c0.1,0.3,0.4,0.6,0.7,0.8h0.1v0.1l0,0
		c0.3,0.1,0.6,0.4,0.8,0.6c0.3,0.1,0.6,0.4,0.8,0.4c0.3,0.1,0.8,0.3,1.4,0.3c1,0.1,2.1,0.1,2.7,0.1c0.8,0,1.5,0,2-0.1
		c0.6-0.1,0.8-0.4,1.1-0.6c0.1-0.1,0.3-0.4,0.4-0.8c0.1-0.4,0.1-0.8,0.1-1.5l0,0v-5l0,0V641v-1.3h1.3h2.5l0,0h10.6h0.1h2.5h1.3v1.3
		v25.8c0,2.4,0.3,4,1.3,4.9c0.8,1,2.4,1.4,4.5,1.5l0,0h12.6c1.3,0,2.8-0.1,3.9-0.8c1-0.7,1.7-2,1.8-4V668v-12.3
		c0-4.3,1.8-8.4,4.6-11.3c2.9-2.9,7-4.7,11.3-4.7h19.7c4.5,0,8.4,1.8,11.3,4.7s4.7,7,4.7,11.3v19.7c0,4.3-1.8,8.4-4.7,11.3
		S326.2,691.5,321.8,691.5z M307.8,674.6h8.2c1.4,0,2.5-0.6,3.5-1.5c0.8-1.1,1.4-2.5,1.4-4V660c0-1.5-0.6-2.9-1.4-3.9
		c-1-1-2.1-1.7-3.5-1.7h-8.2c-1.3,0-2.5,0.7-3.3,1.7c-1,1-1.5,2.4-1.5,3.9v9.1c0,1.5,0.6,2.9,1.5,4
		C305.3,674,306.5,674.6,307.8,674.6z M435.3,653.1L424,642l-1.1-1.3l1.3-0.7l11-11l20.5-20.5l0.4-0.4h0.6H479h2.9l-2.1,2.2L449,641
		l30.4,30.4h13h1.1l0,0h4.3c1.7,0,2.9-0.6,3.8-1.5c1.1-1.1,1.5-2.7,1.5-4.3v-7.4l0,0c0-0.8,0-4.6,0-7.7c0-2,0-3.6,0-4
		c0-0.8-0.1-1.4-0.1-2c0-0.8,0-0.8,0-1V641v-1.3h1.3h2.5h11.2h2.4h1.3v1.3v2.5v24.7c0,6.1-2,11.6-5.4,15.5c-3.3,3.8-8.2,6-14.1,6
		h-9.6h-2.7H374.1c-5.9,0-10.6-2.4-13.8-6c-3.6-4-5.6-9.6-5.6-15.5v-16.5v-2.5v-1.1h1.3h15.8h1.3v1.1v2.5v14.9c0,2,0.3,3.2,0.8,3.8
		c0.6,0.7,1.7,1,3.6,1h76.2l-16.2-16.2l0,0L435.3,653.1z"/>
	<g>
		<path class="st1" d="M595.3,21H16.7v578.7h578.7V21z"/>
		<rect x="99.4" y="103.7" class="st2" width="413.2" height="413.2"/>
		<polygon class="st1" points="496.7,393 496.7,304 306,227.7 115.3,304 115.3,393 306,316.8 		"/>
	</g>
</g>
</svg>
