<?xml version="1.0" encoding="utf-8"?>
<!-- Generator: Adobe Illustrator 21.0.2, SVG Export Plug-In . SVG Version: 6.00 Build 0)  -->
<svg version="1.1" id="Layer_1" xmlns="http://www.w3.org/2000/svg" xmlns:xlink="http://www.w3.org/1999/xlink" x="0px" y="0px"
	 viewBox="0 0 612 792" style="enable-background:new 0 0 612 792;" xml:space="preserve">
<style type="text/css">
	.st0{fill:#DF931B;}
	.st1{fill:#1E8910;}
	.st2{fill:none;stroke:#000000;stroke-miterlimit:10;}
	.st3{stroke:#000000;stroke-miterlimit:10;}
</style>
<g>
	<circle class="st0" cx="302.6" cy="393.6" r="84.8"/>
	<path class="st1" d="M362.4,192.6l-55.8-51.9c-54.3,52-116,109.6-158.7,148.1c-28.3,23.5-77.6,14-77.6,14
		c20.2,42.3,82.2,85.5,145.7,36.1L362.4,192.6z"/>
	<path class="st1" d="M248.6,596.3l57.8,54.7c55.4-50.9,117.7-113.3,161.2-151c25.3-20.2,76.2-11.4,76.2-11.4
		c-19.1-40.7-85.5-88.7-144.7-36.9L248.6,596.3z"/>
	<path class="st1" d="M519,451.8l58.4-55.6c-54.2-52.2-119-110.8-159.2-151.8c-21.2-24-13.5-73-13.5-73
		c-46.2,17-94.8,85.3-30.4,144.5L519,451.8z"/>
	<path class="st1" d="M93.6,339.9l-57.4,56c54,52.3,123.3,115.9,163.5,157.2c17.2,26.7,7.4,67.1,7.4,67.1
		c50.8-21.3,92.6-87.7,34.6-142.5L93.6,339.9z"/>
	<path class="st2" d="M129.8,288.7C188.5,232.8,247.2,176.9,306,121l60.5,57.3 M422.3,231.2L596.2,396l-61.6,58.4 M476.4,509.5
		L306,671l-58.9-55.8 M178.1,549.8L15.8,396l66.4-63"/>
	<path class="st3" d="M153.8,260.1l-31.9,30.2c2.5,2.1,4.5,3.1,10.4,1.9l27.9-26.7L153.8,260.1z"/>
	<path class="st3" d="M452.1,253.6l-31.6-30.6c-2.1,2.6-3,4.6-1.5,10.4l28.1,26.6L452.1,253.6z"/>
	<path class="st3" d="M452.1,537.1l32.6-29.4c-2.4-2.2-4.2-3.2-10.2-2.1l-27.9,26.6L452.1,537.1z"/>
	<path class="st3" d="M149.2,525.9l30.6,31.6c2.1-2.5,3-4.4,1.7-10.2l-28.1-26.5L149.2,525.9z"/>
</g>
</svg>
