<?xml version="1.0" encoding="utf-8"?>
<!-- Generator: Adobe Illustrator 21.0.2, SVG Export Plug-In . SVG Version: 6.00 Build 0)  -->
<svg version="1.1" id="Layer_1" xmlns="http://www.w3.org/2000/svg" xmlns:xlink="http://www.w3.org/1999/xlink" x="0px" y="0px"
	 viewBox="0 0 612 792" style="enable-background:new 0 0 612 792;" xml:space="preserve">
<style type="text/css">
	.st0{fill:none;}
	.st1{fill:#EDEDED;stroke:#000000;}
	.st2{fill:#FFF6B1;}
	.st3{fill:#373435;}
	.st4{fill:#EB0915;}
	.st5{fill:#E50510;}
	.st6{fill:#FFF481;}
	.st7{fill:#FEA91B;}
	.st8{fill:#FEFEFE;}
</style>
<polygon class="st0" points="8.4,-24.9 603.6,-24.9 603.6,816.9 8.4,816.9 "/>
<g>
	<ellipse class="st1" cx="308" cy="409" rx="177.8" ry="249"/>
	<path class="st2" d="M519.8,201.4c-1.5,0.8-5.3,4.9-14.8,7.2c-9.5,2.3-30.7,12.1-45.5,23.9c-3.4,2.7-10.6,8.3-14.4,10.2
		c-27.3-36-33.4-48.1-75.4-73.9c-50-23.5-86.4-20.1-129.2,3.8C201,197.2,196.9,207.9,173,242c-6.8-5.3-17.1-15.9-23.5-21.6
		c-12.1-10.2-30.7-16.7-42.1-27.7c6.4-5.3,18.6-14.4,29.6-29.9c10.2-15.9,19-28.8,29.6-43.2c22.7-33,74.3-51.5,105-63.3
		c16.7-8.7,33-14.8,37.1-35.2c8,24.3,20.8,26.5,33.4,34.5c10.6,4.9,18.6,9.5,29.9,14c21.6,9.1,48.9,22,65.6,34.5
		C475.1,130.9,483,185.5,519.8,201.4z"/>
	<path class="st3" d="M414.5,608.4c-2.7,1.5-2.7,2.7-4.5,3.8c-64.4,0-140.2,0-204.7,0c-2.3-1.1-1.5-2.7-3.4-3.8
		C271.6,608.4,344.8,608.4,414.5,608.4z"/>
	<path class="st4" d="M375.5,366.2c3.4,12.9,3,26.9,2.7,39.4c-3.8,28.4-23.9,53.8-44.7,69.7c8.7,8.3,28.8,6.1,39.8,7.6
		c-8.7,12.9-42.8,6.1-58,7.6c-1.9,7.2-1.9,8.3-6.8,13.6c-4.9-4.9-6.4-8-7.6-13.6c-15.5,0-46.2,4.9-57.6-8.3
		c12.9,0.4,27.3-1.5,40.2-6.8c-31.1-21.6-53.1-61.8-46.6-99.7c3.8-22.7,19-45.5,37.5-58.7c-9.1,19-17.8,41.7-16.3,62.9
		c0.4,28,14.4,59.9,37.1,74.7c-0.4-47-1.9-86.4-2.3-132.7c5.7-3,9.9-7.6,14.4-12.5l0.4,0.4c4.9,4.2,9.5,8.7,14.8,11.7
		c-0.4,44.3-2.3,89.8-1.5,134.2c52.7-36.8,36.4-112.9,19.7-139.5C356.9,327.2,370.6,347.3,375.5,366.2z"/>
	<path class="st4" d="M339.9,285.5c3.4,22.7-14.4,29.6-31.5,19.7c-3.8,3-15.2,5.7-20.1,3.8c-9.5-2.3-13.6-15.5-11.7-23.9h1.9
		c1.9,3.8,2.7,9.9,10.2,14.4c14.4,3,14.4-3.8,18.6-8.7h2.7c3.8,5.3,6.8,9.9,15.5,9.1c9.1-0.4,8.7-11.4,11.7-14.4H339.9z"/>
	<path class="st4" d="M264.8,314.7c-0.8,3.8-4.5,5.3-6.8,8c-11,11-28.4,31.5-32.2,46.2c-6.4,18.6-8.3,73.9,11.7,98.9
		c-1.1,0.8-2.3,2.3-3.8,1.1c-10.2-5.7-16.7-16.3-22.7-26.2c-12.9-20.8-15.9-43.2-9.5-69C207.2,346.5,238.3,320,264.8,314.7z"/>
	<path class="st3" d="M398.2,622.8c-2.3,1.5-3.4,2.7-4.9,3.8c-53.8,0-116.7,0-170.6,0c-1.9-1.1-2.7-2.7-4.5-3.8
		C276.6,622.8,340.2,623.2,398.2,622.8z"/>
	<path class="st3" d="M379.3,636.5c-1.9,1.1-1.9,2.3-3,3.8c-42.8,0-92.9,0-135.7,0c-1.5-1.1-1.9-2.7-3-3.8
		C283.8,636.1,333,636.5,379.3,636.5z"/>
	<path class="st4" d="M350.1,314.7c0.4,3.8,4.2,5.3,6.8,8c10.6,11,28.4,31.5,32.2,46.2c6.4,18.6,8,73.9-12.1,98.9
		c1.1,0.8,2.7,2.3,3.8,1.1c10.2-5.7,16.7-16.3,23.1-26.2c12.9-20.8,15.5-43.2,9.5-69C407.3,346.5,376.6,320,350.1,314.7z"/>
	<path class="st5" d="M403.9,184.7c0.4-0.8,1.5-1.9,3.8-3c2.3-1.5,3.4-2.3,3.8-1.9c0.8,0,1.5,1.1,1.9,3c0.4,1.9,0.4,3,0.4,3.8
		c-0.8,0.8-1.9,1.9-3.8,3c-1.9,0.8-3.4,1.1-3.8,1.1c0-0.4-0.4-1.1-0.8-2.3c-0.8-1.1-1.1-2.3-1.5-2.7
		C403.5,185.1,403.5,184.7,403.9,184.7z"/>
	<path class="st5" d="M413.4,163.8c1.9-2.3,3.4-3.8,4.5-4.5c1.5-0.8,2.3-1.1,3-1.1l-1.1,1.9c-1.1,2.7-1.1,4.5-0.4,6.1
		c0.4,1.1,1.1,1.5,1.9,1.9c1.1,0,1.9,0,2.7-0.4s1.5-1.1,1.9-1.9c0.8-0.8,1.5-1.1,1.5-0.8c0.4,0,0.4,0.4,0,1.1
		c-0.4,0.8-1.5,2.7-3.4,4.5c-1.5,1.9-3.4,3.4-5.3,4.5c-1.9,1.1-3.4,1.1-4.9,0.4c-1.5-0.8-2.3-2.3-2.7-4.2c0-2.3,0.8-4.5,2.3-7.2
		V163.8z"/>
	<path class="st5" d="M420.6,158.9c-0.8,1.1-1.1,1.9-1.9,2.7c-0.4,0.8-1.1,1.5-1.5,1.9c-0.8,0.8-1.5,0.8-1.9,1.1
		c-0.8,0-1.1-0.4-1.9-0.8c1.1-1.9,3-5.3,5.3-9.1c2.3-3.8,5.3-8,8.3-12.5c1.1-1.1,3.4-3,6.4-6.1c0.4-0.4,0.8-0.4,0.8,0c0,0,0,0,0,0.4
		c-0.8,1.9-3,4.9-6.1,9.5c-3,4.9-4.9,8-6.1,9.9C421.4,157.8,420.6,158.5,420.6,158.9z"/>
	<path class="st5" d="M403.2,111.1c0.4-0.4,1.9-1.1,4.2-2.3c2.3-1.1,3.8-1.5,4.2-1.1c0.8,0,1.1,1.1,1.1,3c0.4,1.9,0,3.4-0.4,3.8
		c-0.4,0.8-1.9,1.9-4.2,2.7c-1.9,0.8-3,0.8-3.4,0.4c-0.4,0-0.4-0.8-0.8-2.3c-0.4-1.1-0.8-2.3-1.1-2.7
		C402.8,111.9,402.8,111.5,403.2,111.1z"/>
	<path class="st5" d="M384.2,158.9c1.9-2.3,3.4-3.8,4.5-4.5c1.5-0.8,2.3-1.1,2.7-1.1l-0.8,1.9c-1.1,2.3-1.1,4.5-0.4,6.1
		c0.4,0.8,1.1,1.5,1.9,1.5c1.1,0.4,1.9,0,2.7-0.4c0.8-0.4,1.1-0.8,1.9-1.5c0.8-0.8,1.1-1.1,1.5-1.1c0.4,0.4,0.4,0.8,0,1.1
		c-0.4,1.1-1.5,2.7-3.4,4.5c-1.9,2.3-3.4,3.8-5.3,4.5c-1.9,1.1-3.4,1.5-4.9,0.8c-1.9-0.8-2.7-2.3-2.7-4.5c0-1.9,0.8-4.2,2.3-6.8
		V158.9z"/>
	<path class="st5" d="M417.2,127.1c1.5,0,4.2,0.4,8,0.8c1.5,0.4,5.3,0.8,11,1.9c5.7,0.8,10.2,1.1,14,1.1c3.8,0,5.7,0.4,6.1,0.4
		c0,0,0,0.4-0.4,0.4c-0.8,0.4-1.9,0.8-3,1.1c-0.8,0.4-1.9,0.8-3,0.8c-1.1,0.4-2.3,0.4-3.4,0.4c-1.5,0-3,0-4.9,0
		c-1.9,0-5.7-0.8-11-1.5c-5.3-0.8-9.5-1.5-12.9-2.3c-3.4-0.8-5.3-1.1-5.3-1.5s0.8-0.8,2.7-1.1C415.7,127.1,416.4,127.1,417.2,127.1z
		"/>
	<path class="st5" d="M392.9,152.8c-0.4,0.4-2.3,2.3-2.7,3c-0.4,0.4,0,0-0.4,0c-0.4,0.8,0,0.4-1.1,1.1c-1.1,0.8-1.9,1.1-2.7,1.1
		c-1.1,0.4-1.9,1.1-1.9,0.8c1.1-1.5,2.7-4.2,3.8-5.7c1.1-1.9,2.3-3.4,3.4-4.5c0-0.4,0-0.4,0-0.4c0-0.4,0-0.4-0.4-0.4
		c-1.1,0.8-1.9,1.1-2.3,1.1c-1.9,0.8-3.4,1.5-4.9,2.3c-3.4,1.1-7.2,1.9-11.4,2.3c-4.2,0.8-8.3,0.4-12.5-0.4
		c-4.2-0.8-8.3-1.9-13.3-3.4c-4.5-1.5-9.1-3.8-14-6.4l-1.1-1.1c-2.7-1.5-4.9-3-6.8-4.5c-2.3-1.9-3.8-4.2-3.8-6.1
		c-0.4-1.5,0-3.8,1.5-6.4c1.1-1.9,2.7-4.2,4.2-6.4c1.9-1.9,3-2.7,3.4-2.3c0,0.4,0,1.1-0.8,2.3c-0.8,1.5-0.8,2.7-0.8,4.2
		c0.8,3,4.5,6.4,11.4,10.6c3.4,2.3,6.4,3.8,8.7,4.9c11.4,5.7,21.6,8,31.1,8c4.2,0,6.4,0.4,9.9-1.1c2.7-1.1,5.3-2.7,8-5.3l4.5-4.9
		c0.8-0.4,2.3-1.5,5.3-3.4c0.8-0.8,1.5-1.1,2.3-1.5c0.8-0.4,1.1-0.8,1.5-1.1c0.4,0,0.4,0,0.8,0c0,0,0,0.4-0.4,1.1
		c-0.8,1.1-1.9,1.9-2.7,2.7c-7.2,8.3-10.6,12.5-12.1,15.2C395.2,150.2,393.7,151.7,392.9,152.8z"/>
	<path class="st5" d="M255,150.9c0,0,0.8,0.4,1.9,0.8c1.1,0.4,2.3,0.8,2.7,1.1c0.8,0,1.1,0.4,1.5,0c1.1-0.4,1.5-2.7,2.3-6.8
		c0.8,0.4,1.9,0.8,3,1.5c1.5,0.4,2.3,0.8,2.7,0.4c0.4,0,1.1-1.1,1.5-3.4c0.8-1.9,0.8-3.8,0-4.9c-0.4-1.1-1.1-1.9-2.7-2.7
		c-1.9-0.8-3-1.1-3.8-0.8c-0.4,0-0.4,1.1-0.8,2.7c-0.4,1.5-0.8,3-0.8,4.5c-0.8-0.8-1.9-1.1-3.4-1.9c-1.5-0.8-2.3-0.8-3-0.4
		c0,0-0.4,1.5-0.8,4.5C255,148.7,254.6,150.6,255,150.9z"/>
	<path class="st5" d="M251.6,108.9c1.1,6.1,1.1,9.9,0,11.7c-1.9,2.3-3,3.8-3.4,4.5s-0.4,1.1-0.4,1.5c-0.4,1.1-0.4,2.3-0.4,3.8
		c0.4,3,0.8,5.3,0.8,6.8c0,2.7-0.8,4.5-1.9,6.4c-0.8,0.8-1.9,1.5-3.4,2.7c-1.1,1.1-2.3,1.9-3,2.3c-0.8,0.4-1.5,0.4-1.9,0.4
		c0-0.4,0-0.8,0.4-1.5c0.4-0.4,0.4-1.1,0.8-1.9c0.8-1.1,1.5-2.7,2.7-4.9c1.1-1.5,1.5-2.3,1.5-2.3c1.1-2.3,1.5-3.8,1.9-4.9
		c0-0.4,0-1.9-0.4-5.3c0-3,0-5.3,0.4-6.4c0-1.1,0.4-2.3,1.5-3.8c0.4-0.4,0.8-1.5,1.9-2.7c0.8-1.1,1.1-1.9,1.5-2.7
		c0-0.4,0.4-1.5,0.4-2.7c0-1.5,0-2.3,0.4-2.7C251.2,107.4,251.6,108.1,251.6,108.9z"/>
	<path class="st5" d="M223.9,116.1c0.8,1.9,1.5,3.8,1.9,5.7c0.8,1.5,1.1,3,1.5,4.2c0.8,2.7,1.1,5.3,1.1,7.2c0,2.3,0,3.8-0.4,4.5
		c0,0.8-0.4,1.5-0.4,1.9c-0.4,0.4-0.4,0.8-0.8,0.8c0-0.4-0.4-0.4-0.4-0.8c0,0,0-0.8-0.4-2.7c-0.4-1.9-0.8-3.8-1.1-5.3
		c-0.8-1.5-1.5-3.8-2.7-6.8c-1.1-3-1.9-5.3-2.3-6.8c-0.4-0.8-0.4-1.9-0.4-3c-0.4-1.1-0.4-2.3-0.4-3c0-1.1,0-2.3,0.4-3
		c0-1.1,0-1.9,0-2.7c0.4-0.8,0.4-0.8,0.8-0.8c0,0,0.4,0,0.4,0.4c0,0,0,0.8,0.4,1.5c0.4,1.1,0.4,1.9,0.8,3c0.4,1.1,0.8,2.3,1.1,3
		C223.5,114.6,223.9,115.3,223.9,116.1z"/>
	<path class="st5" d="M210.2,133.1c6.1,9.1,9.1,18.6,9.1,28s-3,16.7-9.1,21.2c-3.4,2.3-6.8,3.4-10.2,2.7c-3.4-0.8-6.4-2.7-9.5-6.1
		c-4.2-5.7-6.8-13.3-8-22.7c-0.4-1.9-0.4-2.7,0.4-2.3c0.4,0.4,0.8,1.1,1.1,1.5c1.1,6.8,3,12.1,5.3,15.5c2.3,2.7,4.5,3.8,7.6,4.2
		c2.7,0,5.7-1.1,8.7-3c3.8-2.7,6.4-6.4,8.3-10.6c1.5-4.9,1.9-9.5,0.4-14c-0.4-1.5-1.5-3.4-3-5.7c-0.8-0.8-1.5-1.9-2.3-3
		c-1.1-1.1-1.5-2.3-1.9-2.7c-1.1-1.5-1.9-3.4-2.7-6.1c-0.8-2.3-1.5-3.8-1.5-4.9c-0.4-1.1-0.4-1.9,0-1.9c0.4-0.4,0.4,0,0.8,0.4
		c0.4,0.4,0.8,1.1,1.5,2.7C206.5,127.4,208,129.7,210.2,133.1z"/>
	<path class="st5" d="M201.9,146.8c0.4,0.4,0.8,1.1,1.1,1.9c0,1.1,0.4,1.9,0.4,3c0,1.1,0,2.7-0.4,3.8c-0.4,0.8-0.8,1.1-0.8,1.5
		c-0.4,0-0.8,0-1.9-0.4c-0.8,0-1.9,0-2.7-0.4c-0.8,0-1.5,0-1.9-0.4c-0.8,0-1.1,0-1.1-0.4c0-1.1-0.4-1.9-0.4-2.3c0-1.9-0.4-3-0.4-4.2
		c0-1.1,0-2.7,0-4.9c0.8,0.4,1.9,0.4,3,0.8c1.1,0,2.3,0,3,0.4C200.8,145.6,201.1,146,201.9,146.8z"/>
	<path class="st5" d="M262.9,94.8c0.8,1.9,1.1,4.2,1.5,5.7c0.4,1.9,0.8,3.4,1.1,4.5c0.4,2.7,0.8,5.3,0.4,7.2c0,2.3-0.4,3.8-0.8,4.5
		c0,0.8-0.4,1.5-0.4,1.9c-0.4,0.4-0.8,0.4-0.8,0.4c-0.4,0-0.4,0-0.4-0.4c0,0,0-1.1-0.4-3c0-1.9-0.4-3.4-0.8-5.3
		c-0.4-1.5-0.8-3.8-1.9-6.8c-0.8-3-1.5-5.3-1.9-7.2c0-0.8,0-1.9,0-3c0-0.8,0-1.9,0-3c0-1.1,0.4-2.3,0.4-3c0.4-1.1,0.4-1.9,0.4-2.7
		c0.4-0.4,0.4-0.8,0.8-0.8c0.4,0,0.4,0.4,0.4,0.4c0,0.4,0,1.1,0.4,1.9c0,0.8,0.4,1.9,0.4,3c0.4,1.1,0.8,2.3,0.8,3.4
		C262.6,93.3,262.9,94.1,262.9,94.8z"/>
	<path class="st5" d="M313.3,74.8v1.5c0,4.9,1.5,7.6,4.5,7.6c0.4-1.9,1.1-3.8,1.9-6.1c1.9,0.4,2.7,1.9,3,4.2c0,2.7-0.8,5.7-1.5,8.3
		c-1.5,3.4-3.8,5.3-6.1,5.3c-1.5,0-2.7-0.8-3.8-2.3c-0.8-1.1-1.1-1.9-1.5-2.7c0,0.4-0.4,0.8-0.8,1.1c-1.1,2.3-1.9,3.8-1.9,4.5
		c0,0.4,0.8,0.8,1.5,1.5l4.9,4.2c2.3,1.9,3.4,4.2,3.4,6.4c0,1.9-0.8,4.5-1.5,8.3c-2.3,9.5-6.4,16.7-12.1,21.6
		c-3.4,3-6.8,4.5-10.6,4.5c-4.2,0-7.2-1.5-9.1-4.2c-2.3-3-3.4-6.4-3.4-11.4c0-6.1,1.9-13.3,4.9-21.2c0.4-0.8,2.3-4.9,5.3-12.1
		c1.5-2.7,2.3-4.2,2.3-3.8c0.4,0,0.4,0.4,0.4,1.1s-0.4,1.5-0.8,3c-5.3,13.6-8,22-8,25c0,3.4,1.1,6.4,3,8.3c1.9,1.9,4.5,2.7,8,2.7
		c3.8,0,7.6-1.1,10.2-3c3.4-2.3,5.7-5.7,6.8-9.9c0-0.8,0.4-1.9-2.3-3.4c-0.8-0.4-1.1-1.1-1.9-1.5c-1.1-1.1-5.3-5.3-5.3-6.8
		s0.4-3.4,0.8-5.3l2.3-6.8c0.8-2.3,1.9-4.9,3-8v-1.1v-1.1l0,0l0.4-6.1c0.4-5.7,0.4-8.3,2.7-13.6c0.4-0.8,1.1-0.8,1.5,0.4
		C313.7,64.9,313.7,73.6,313.3,74.8z"/>
	<path class="st6" d="M157.9,643.7c10.6,4.5,20.5,8,32.2,14c6.8,4.2,11.7,8.3,17.8,14c9.5,10.2,25,29.9,35.2,38.7
		c-5.3-0.4-22-6.8-33.4-10.6c-11.4-4.2-22.4-7.2-28-11.4c-8-5.7-11.4-13.3-15.5-22C162.9,658.1,157.2,649.3,157.9,643.7z"/>
	<path class="st7" d="M189,628.5c0.4-5.3,1.5-4.2,3.8-0.4c8,12.9,15.5,16.3,26.9,23.5c13.3,11,19.3,37.5,26.2,53.8
		c-11.7-11-20.8-23.1-34.1-37.9c-7.2-8.3-9.9-8-18.2-18.2C188.3,641,188.3,637.6,189,628.5z"/>
	<path class="st7" d="M164.4,679.3c6.4,21.2,67.8,33.7,83.8,37.9c8.3,1.5,20.8,3,27.3,4.2c-4.2,1.9-10.6,1.5-17.1,1.9
		c-15.2-0.8-54.6,6.8-78.5-8.7c-15.2-7.6-27.3-24.3-44.3-26.2C140.1,685,153,677,164.4,679.3z"/>
	<path class="st3" d="M154.5,654.7c-11.4,0.4-34.1-15.9-51.5-27.3c-9.1-7.6-15.2-17.4-19.7-28c-5.7-15.2-14.4-26.9-31.1-33
		c15.9-1.5,30.7-4.2,44.3,1.1c0.4-11.7,2.7-29.9,5.7-36c3.4-6.1,23.5,22,26.5,24.6c0-5.3,6.8-20.8,10.2-24.6c3.8-4.2,6.8,0,8,3.4
		c2.7,9.5,4.9,17.8,7.6,26.5c2.3,8.7,6.8,8,11.7,22.7c4.9,14.8,5.7,40.2,3.4,57.2c-5.7-2.3-13.3-3.8-19-4.9
		C149.6,642.1,152.3,648.2,154.5,654.7z"/>
	<path class="st6" d="M106,536c4.9,11,15.2,15.9,22.4,28.4c4.9,9.9,6.1,11.7,9.5,28.8c3,22,8,27.7,11.4,42.4
		c-5.7-4.2-13.3-11.7-22-20.5c-8.3-7.6-14.4-17.1-19-23.1c-5.7-9.9-8-19.7-6.8-30.7C103,550.4,102.6,542.1,106,536z"/>
	<path class="st7" d="M95,572.8c-0.4,18.6,28.8,44.7,39.4,57.6c6.8,6.8,15.5,12.9,17.1,19c-3.4,1.1-9.5-3.8-12.1-5.3
		c-11.7-6.8-36-19.7-44-32.6c-8.7-14-12.1-34.5-26.5-41.3C74.6,569.4,90.5,568.6,95,572.8z"/>
	<path class="st7" d="M140.1,540.2c2.7-6.1,2.7-4.5,4.2,3c5.3,15.9,4.2,22.4,11.7,31.5c10.2,15.9,12.1,54.2,8.3,63.7
		c-3-0.8-7.6-1.9-10.2-8.7c-6.1-13.3-8-34.9-11-43.2c-2.3-9.9-8-14-9.1-25.4C134.4,547,137.9,544.4,140.1,540.2z"/>
	<path class="st3" d="M98.8,539.4c-11-1.5-27.7-15.9-40.2-34.5c-8-10.6-11.4-20.1-13.6-31.5c-2.3-15.9-3.4-20.5-18.6-29.9
		c14-1.1,26.2-1.1,37.5,5.7c1.9-12.1,8.7-41.7,12.9-43.6c8.3,2.3,21.2,35.6,22.7,42.4c-0.4-8.3,6.4-21.2,11-27.3
		c4.9-5.7,8.3,0.8,8.3,4.5c-2.7,10.2-1.9,18.2,1.9,26.9c3.4,9.1,5.7,14,5.7,28.4c-0.4,14.8-6.1,40.2-14.4,54.6
		c-3.4-2.3-4.5-3.4-8.7-6.1C101.5,532.6,100.3,534.9,98.8,539.4z"/>
	<path class="st6" d="M78.3,415.1c9.1,7.6,12.5,23.5,17.4,36.8c8,23.9,0.8,48.9,6.1,73.2c-4.9-3-15.9-17.4-21.2-26.2
		c-4.9-10.2-9.1-20.8-10.2-27.7C66.6,454.9,72.7,429.9,78.3,415.1z"/>
	<path class="st7" d="M62.4,454.5c-2.3,19,11,48.1,21.2,60.6c5.3,6.4,14.4,11.4,17.1,18.2c-4.5,1.9-8-1.1-12.9-4.2
		c-12.5-8.7-20.8-19.3-29.2-32.6c-9.1-14.4-6.8-39-18.6-48.5C45.8,448.1,57.5,450,62.4,454.5z"/>
	<path class="st7" d="M112.8,427.2c0.4,1.1,0.4,2.3-0.8,6.4c-1.5,15.9,4.2,12.9,8,32.2c3.4,17.8-4.2,55.7-10.2,62.9
		c-3.8-17.1-1.9-42.1-2.7-55.3c-1.5-7.6-4.2-20.1-2.3-28.8C106.8,437.5,109.8,433.3,112.8,427.2z"/>
	<path class="st3" d="M68.5,425.7c-9.1-7.6-17.8-15.5-24.3-35.6c-4.2-12.5-5.7-20.1-4.9-33c0-14.4,0.8-21.6,0.4-36.4
		c11.4,1.1,17.8,14.8,25.8,25.4c2.7-14,25.4-36.8,32.6-37.1c2.7,6.1,0.4,32.6,0.8,40.2c3.8-6.4,8.7-11.4,15.2-14.8
		c6.4-3.8,9.1,0.8,9.5,7.2c0,9.1-1.1,15.9-1.5,25c-0.4,9.9-2.3,16.3-8,29.6c-5.7,13.3-9.1,25.8-17.8,39
		c-1.5-4.9-12.1-27.7-19.7-30.7C73.8,407.2,70,421.6,68.5,425.7z"/>
	<path class="st6" d="M94.3,316.6c0.8,18.6-1.5,42.1-5.3,59.1c-2.3,14.4-1.5,22.7-3.8,36.8c-2.3-3.4-5.3-9.1-9.9-9.1
		c-5.3-9.5-7.6-22.4-7.2-40.2c0.8-9.1,2.3-18.6,6.1-25.4C80.2,327.9,87.1,320,94.3,316.6z"/>
	<path class="st7" d="M61.7,351.8c-0.8,14.8-2.7,32.2,3,45.5c2.3,6.1,4.2,8.7,7.6,14c0,1.1-2.3,6.1-2.7,8.3
		c-9.5-2.7-22.4-31.8-24.3-42.1c-2.7-13.3-0.4-33-0.4-49.3C49.5,330.2,59.4,343.9,61.7,351.8z"/>
	<path class="st7" d="M117.8,338.2c1.9,4.9,0,32.2-5.7,47c-4.9,12.1-12.5,36-18.2,42.4c-1.9-3.4-3-5.3-4.5-8.7
		c1.5-12.1,5.3-32.6,6.8-41.7c1.1-6.1,1.9-14.8,4.9-21.6C102.6,350.7,112.8,338.2,117.8,338.2z"/>
	<path class="st3" d="M79.1,322.3c-8.3-5.3-12.9-18.6-13.3-30.7c-0.4-12.1,3.8-27.3,6.8-38.7c3.8-11.4,11.4-26.9,15.9-38.3
		c7.6,3,15.2,16.3,15.9,29.2c6.1-10.6,21.2-22,27.3-21.2c1.5,5.7-3,40.2-3.8,46.6c3.4-6.4,12.1-12.9,19.3-14
		c6.8-1.1,9.9,1.1,7.6,8.7c-4.2,5.7-12.9,26.9-17.8,34.5c-6.8,11-17.8,23.9-36.8,23.9c-0.8-4.5,0-9.5-1.9-14.4
		C93.9,308.2,81,318.8,79.1,322.3z"/>
	<path class="st7" d="M99.6,248c-8.3,12.5-12.1,30.7-12.9,46.2c-0.4,8.3,0,12.5,0.8,18.6c-1.5,2.3-2.7,3-5.3,4.5
		c-14.8-7.6-11-37.1-8-51.9c3.4-16.3,10.2-28.4,16.3-42.4C99.2,229.8,99.2,237,99.6,248z"/>
	<path class="st6" d="M126.5,229.4c0.4,11-2.7,23.9-3.4,35.2c-0.4,2.7-0.8,9.9-3,18.2c-2.7,6.8-6.1,12.1-9.1,18.2
		c-3.8,5.7-4.9,8.3-10.2,12.9c-1.1-1.1-0.8-5.3-1.9-6.8c-1.1-1.5-3.4,1.5-5.7,1.9c-1.1-1.9-1.9-9.9-1.5-14.4
		c1.1-10.6,2.7-20.1,5.7-28.8c3-9.1,8-14.4,13.3-21.2C114.7,239.3,121.2,230.5,126.5,229.4z"/>
	<path class="st7" d="M148.8,264.3c-6.1,9.5-8.3,20.5-14.8,30.3c-3,4.5-5.7,7.6-10.6,13.3c-5.3,4.9-10.6,8.7-20.1,9.1
		c11.4-6.4,19.7-22.4,23.9-33.7c2.7-5.7,4.2-13.3,9.9-17.4C140.5,263.5,155.3,254,148.8,264.3z"/>
	<path class="st6" d="M240.2,748.3c-12.9,3.4-22.7,1.9-39.4,0.8c7.2,3,8.3,3,12.9,6.4c-2.3,3.8-4.9,7.2-6.4,10.2
		c14.4,1.5,28.8,0.4,42.8-0.4C273.9,763.1,248.1,755.1,240.2,748.3z"/>
	<path class="st6" d="M285.3,732.7c6.8-1.1,6.4,2.7,2.3,7.6c-9.1,10.2-29.9,2.3-31.5,12.1c-6.8-4.9-12.5-6.8-16.7-14.8
		C256.9,735.4,268.2,737.7,285.3,732.7z"/>
	<g id="_179641696">
		<path class="st6" d="M377.4,752.8c12.5,3.4,22.7,1.5,39.4,0.8c-7.2,3-8.3,3-12.9,6.1c2.3,4.2,4.5,7.6,6.4,10.6
			c-14.8,1.5-29.2,0.4-43.2-0.4C343.7,767.6,369.1,759.6,377.4,752.8z"/>
		<path class="st6" d="M332.3,737.3c-6.8-1.5-6.4,2.7-2.7,7.6c9.5,10.2,30.3,2.3,31.8,12.1c6.4-5.3,12.1-6.8,16.3-15.2
			C360.7,739.9,349.3,742.2,332.3,737.3z"/>
	</g>
	<path class="st6" d="M360.3,693.7c-4.2,4.9-20.8,19.3-25.8,25c-1.5-0.8-4.9-6.4-6.1-7.2c-1.1-3.4,0-6.1,6.8-11.4
		c6.4-4.9,8.3-6.8,14.8-11.7c4.5-3.8,3-6.8-3.8-3.4c-3.8,3-6.8,4.5-9.9,6.4c-9.9,6.1-12.5-3.4-29.6-3.4c-16.7,0-19,8-25.4,3
		l-9.9-7.2c-2.7-2.3-8-1.9-5.7,3c2.3,1.9,4.2,4.2,8.3,7.6c3.8,3.4,10.6,9.9,14.8,15.2c-0.4,0.4-3,8.3-3.8,9.5
		c-9.1-6.1-15.5-11.7-26.5-17.8c0-8.3,0.4-15.2,0.4-23.5c8.7-0.4,19.7-0.4,28.8-0.8c6.1-3,10.6-7.2,19-7.2c9.9,0,13.3,7.2,22.7,7.2
		c7.6,0,22.7,0.8,31.1,0C360.7,684.6,360.7,688,360.3,693.7z"/>
	<path class="st8" d="M294.4,708.9c-1.9-4.2-3.8-7.6-7.6-10.6c17.1-6.4,25.8-6.1,41.7,0c-2.3,3-3.8,6.1-4.9,10.6
		c-3-2.3-8.3-3-12.1,0c-2.7,1.1-4.5,0.8-6.4,0C300.5,706.6,297.8,706.6,294.4,708.9z"/>
	<path class="st6" d="M324.7,724.8c-1.5,7.6-4.9,14.4-16.7,10.2c-7.6,2.3-9.9,2.3-14.8-3.8c-3-5.7-2.7-13.6,3-17.8
		c4.9-3,7.2,2.7,14-0.4C320.9,709.6,325.8,717.2,324.7,724.8z"/>
	<path class="st3" d="M335.3,725.1c6.4,7.6,26.2,7.2,38.7,6.4c13.3,8.7,25,3.4,36,2.7c6.8,1.5,10.2,3,15.9,3
		c10.2,0.8,19-7.2,22-16.7c6.8,0.4,9.9,1.1,14.8-0.8c5.3-7.6,12.9-11,17.8-8.7c-0.4-5.7-1.1-8-1.1-10.6c-8-2.3-17.8-3.8-23.1-3.8
		c0.4-3.4,0.8-9.1,3.4-11.7c4.9-0.4,8.3-9.5,8-15.2c3.8-6.1,4.5-6.4,6.8-11.4c1.5-3.4,0.8-9.1-4.2-10.2c-3.4,0.4-11.4,2.3-21.6,7.2
		c-7.2,3.4-14,2.3-19.7,5.7c1.9-11.7,1.1-15.5,0.4-25.4c0,0-13.6-3.4-20.8,10.6c-8.3,1.9-20.5,9.1-25.8,14
		c-0.4,7.2-1.5,9.1-4.9,16.3c-2.3,4.5-3.4,6.4-5.3,11.7c-2.3,15.5-9.9,16.3-14.8,24.3c-4.5,1.1-8.7,2.7-13.3,4.2L335.3,725.1z"/>
	<path class="st7" d="M424.4,640.2c0.8,6.1,1.1,15.2,0,19s-2.7,3.8-2.7,8.7c-3.4-3.4-6.1-4.9-11.7-2.3c-6.1,2.7-6.4,5.7-7.6,14.8
		c-2.7,0.8-6.8,0-9.5,1.5c-3,1.9-3.8,6.1-4.9,9.5c-2.3,6.8-10.6,12.9-18.2,15.5c4.5-4.5,6.1-4.9,7.6-15.9c3-11.7,8.7-13.3,10.2-27.7
		c7.2-5.3,16.7-12.1,24.6-12.5C413.8,645.6,418.3,640.2,424.4,640.2z"/>
	<path class="st6" d="M462.7,666.8c-0.8,7.2,0.4,11-6.8,15.2c-3.8,2.7-3,8.3-4.9,12.9c-3.8-0.4-11.7-2.3-17.1-1.1
		c-4.9,1.9-4.5,8.3-4.9,13.6c-1.9,0.4-1.5,0.4-6.1,1.5c-3-6.4-6.8-8.3-13.3-7.6c-5.7,1.5-7.6,3.4-13.6,6.4
		c-15.9,9.1-20.1,8-37.9,10.2c13.3-3.8,19.3-4.9,28.4-13.3c3-3,6.1-7.2,7.6-11c0.8-2.3,0.4-4.2,1.9-6.1c3-2.7,8,0.4,11.4-0.4
		c0.8-3,1.1-8,2.7-11c1.5-3,3.8-6.8,8.3-1.5c11.7,1.1,10.2-3,8.7-8c3.4-0.8,9.1-0.8,12.1-1.1c6.1-0.4,7.2-7.6,14-6.1
		c4.2-0.8,8.7-3,12.5-5.3C473.3,650.1,468.7,663.4,462.7,666.8z"/>
	<path class="st7" d="M474.4,705.1c-8.7,1.5-9.1,3.8-14.8,9.9c-6.4-0.4-12.9-0.4-16.3,3c-1.9,1.9-0.4,5.3-7.2,9.5
		s-11.4,6.1-25.8,1.1c-14.4,2.7-24.6,4.5-35.2-1.9c-6.1,0-16.3,0.8-24.3-0.8c9.9-1.5,27.7,0,42.8-8.7c6.1-3.8,9.9-6.4,16.3-9.1
		c6.8-1.5,8,3,8.7,7.6c15.2,0,16.7-4.2,17.8-14.8C451.7,699.4,461.2,701.3,474.4,705.1z"/>
	<path class="st3" d="M429.3,659.6c10.2-0.8,21.2-4.5,32.2-10.2c17.1-11.4,26.5-16.3,36.8-19.7c6.8-0.4,17.4,1.1,23.1,0.8
		c-0.4-6.1-0.4-13.3,4.5-15.5c4.2-2.3,5.7-6.8,4.9-9.9c-4.5-6.1-6.1-13.3,0.8-10.6c10.2-1.1,11.7-10.6,16.7-15.9
		c1.1-12.5-0.8-14.4,8-18.6c-4.5-1.9-6.8-3.4-13.3-4.2c-8.3,0.4-10.2,2.7-15.2,3.8c3.4-20.1-1.1-20.1-14.4-15.2
		c-10.2,4.5-13.6,6.8-20.1,10.2c-2.7-11.7-11-12.9-15.5-21.2c-8,1.9-10.2,2.7-11.4,18.6c-2.7,1.9-9.1,8.3-10.2,11
		c3.8,3.4,3.4,8.3,1.5,12.5c-8.7,5.3-18.2,11.4-17.1,18.6c6.1,7.6,9.1,29.6-2.7,37.5c-3,4.9-4.2,10.6-6.8,14.4L429.3,659.6z"/>
	<path class="st6" d="M524.1,547c2.3,4.2-1.5,6.8-1.1,14.8c-5.7,1.1-10.6,2.3-12.5,12.5c-1.1,5.3,0.8,16.7-1.5,19.7
		c-10.6,1.5-14,1.5-22.7,3.4c-5.3,3.4-0.4,15.2-4.5,18.2c-4.5,3-4.5,1.9-8.7,7.2c-3.8,5.3-6.8,6.4-11.4,10.2
		c-9.5,8-15.2,14-15.9,13.6c7.6-9.1,9.5-11,15.2-22.7c3-6.4,3.4-9.5,4.2-15.5c1.5-4.5,3.8-5.3,6.8-8c0.8-4.2,1.1-8.7,0-11
		c-1.9-2.3-2.7-1.9-4.9-3.4c1.5-1.9,3.4-5.7,4.9-6.1c0.8-3.8,1.1-6.1,3.4-7.6c8.7,1.5,12.9-3,18.6-9.9c1.5-2.3,6.8-4.5,10.2-6.1
		c4.5-2.3,7.6-3.8,12.1-6.4C519.9,547.8,521.8,545.5,524.1,547z"/>
	<path class="st7" d="M475.6,538.7c0.8,5.7,11.7,6.8,12.5,15.2c-0.4,3.8-0.8,5.3-4.2,9.5c-3.4,3.4-6.1,3-12.1,1.5
		c-2.7,4.2-4.2,7.2-5.3,11c-3,5.3-15.9,11-1.5,17.1c1.1,7.6-1.5,6.8-4.5,10.6c-3,3.4-3,7.6-3.4,12.1c-3,9.5-12.9,25-20.8,31.8
		c0.8-3.8,4.2-8.3,5.7-12.1c5.3-3.8,7.2-7.2,8.7-13.6c-1.1-12.9,2.3-17.8-4.5-29.2c-0.4-6.1,9.1-8.3,14.4-13.3
		c3-3,6.1-10.6,1.9-16.3c3-3.8,4.9-5.3,8.7-8C472.5,548.5,470.3,542.8,475.6,538.7z"/>
	<path class="st7" d="M546.4,561.8c-4.5,4.2-0.4,9.5-3,14.8c-3.4,3.8-4.9,8.3-8.7,11.7c-4.5,2.7-7.6-0.4-10.6,2.7
		c-6.4,9.1,6.1,14.8,1.1,18.2c-7.2,4.5-7.2,9.5-8.3,15.9c-19.7-1.5-26.5,1.1-37.5,7.6c-7.6,1.5-20.1,15.5-29.2,18.2
		c9.9-9.1,30.3-26.5,39.8-34.1c1.9-7.2-1.5-6.4,0.4-12.9c12.1-1.9,20.1-2.3,23.1-2.3c4.2-10.2,3.4-19.3,3.8-28.4
		c1.1-5.3,9.1-6.8,11.7-8C536.6,561.8,540,559.9,546.4,561.8z"/>
	<path class="st3" d="M493.8,553.8c6.8-4.5,21.6-11.4,33.4-11.7c6.1-5.3,8.3-6.4,11.4-9.5c8.3-0.8,12.1-0.8,16.3-4.2
		c4.2-7.2,7.2-6.4,12.5-7.2c5.7-3,7.6-9.9,6.4-18.6c-0.4-3.4-2.7-6.8-4.2-8.7c0.8-3,8.7-4.5,10.2-8.7c0.8-1.9,1.1-4.9-0.4-8.7
		c-0.8-12.9,3-20.1,3.4-29.9c-5.3-0.8-14.4,1.1-19.3,12.5c0.4-4.2,0.4-11.7-4.9-16.3c-4.5-4.2-6.1-8.7-8.3-12.5
		c-12.1,2.3-19.3,11.4-23.9,17.1c-2.3-9.5-14-12.5-20.8-19.3c-1.1,8-1.1,13.6-0.8,19.3c-1.1,1.5-6.1,0.8-8,7.6
		c-2.3,4.5-0.4,9.1,3.8,11.7c-14.8,6.4-10.2,31.5-6.1,34.9c12.5,15.9,3,36.4-2.3,48.1L493.8,553.8z"/>
	<path class="st7" d="M522.6,456.8c-6.8,9.1-13.3,8.3-14.8,15.2c-0.8,3.8,2.7,5.7,4.2,9.1c-3,3.8-5.3,2.7-5.7,6.8
		c0.4,8.7,3.8,20.1,4.5,31.8c1.1,9.9-4.2,28.4-13.3,30.7c6.4-11.7,9.5-23.1,7.6-37.1c-0.8-4.9-3.4-11.4-8-16.7
		c-4.2-6.1-1.5-14,1.5-22c2.7-5.3,6.1-2.7,8-6.4c1.5-4.2-5.3-4.5-5.7-9.1c0.8-5.3,1.1-6.4,8.3-7.6c0.8-4.5,0.8-7.2,0.8-13.6
		C516.9,442.4,526.3,447.3,522.6,456.8z"/>
	<path class="st6" d="M558.6,453.8c-1.1,7.6-3.4,20.8-4.5,25.8c-4.2,3.4-9.1,3.8-10.6,8.3c-1.9,3.8,1.9,8,0.4,11.7
		c-2.3,6.1-8.3,6.8-11.7,11.7c-4.5,4.5-6.8,10.2-10.2,16.3c-4.2,6.1-4.9,9.1-9.9,14c3-8,5.7-12.5,6.4-21.2
		c1.1-9.5-6.8-22.7-4.9-32.2c2.3-1.1,5.7-1.5,6.1-6.4c-0.8-3.4-3.4-6.4-4.2-8.7c2.7-6.1,11.7-7.6,14-12.1c1.1-4.5-1.1-6.8,1.1-10.6
		c0.8-0.8,16.3-14.4,17.1-14.4C549.8,444.7,556.3,446.2,558.6,453.8z"/>
	<path class="st7" d="M577.1,452.6c-0.8,7.2-3.8,21.6-2.3,31.1c-4.9,3.8-10.6,3.8-10.6,11.4c3,4.9,8,8.3,1.9,20.8
		c-3,1.9-9.1-0.8-15.2,8.7c-4.9,3.8-12.1,2.7-14.8,2.7c-5.3,5.3-7.6,8-13.3,11.4c5.7-14,17.8-26.2,27.7-36c2.3-5.3-1.5-8.7,1.1-13.6
		c4.2-1.9,7.6-2.3,9.1-7.2C562.4,470.1,567.3,455.3,577.1,452.6z"/>
	<path class="st3" d="M526.3,447.3c4.9-6.4,12.1-12.5,22.7-17.4c6.1-8,16.7-17.8,23.1-23.9c1.1-8.3,5.7-15.9,12.1-16.7
		c1.5-6.8,2.3-11.7-1.5-17.1c-1.9-2.3-4.9-3-7.2-4.2c0-5.3,0.8-5.7,4.2-13.6c0.4-12.5-3.8-23.5-9.9-32.6c-4.5,3.4-9.9,11-16.3,20.5
		c-3-5.3,2.7-19-3.4-21.6c-2.3-7.2-8.7-9.5-11.4-9.5c-7.2,14.8-16.3,24.6-20.5,31.8c-8.7-3-9.9-11.4-16.7-6.8
		c-4.5,5.3,1.5,9.5,1.9,17.8c1.5,17.4-12.5,26.9,0.4,40.9c1.9,28.4,15.2,24.6,17.8,45.1L526.3,447.3z"/>
	<path class="st6" d="M554,382.1c-0.8,4.9-3.8,11-5.3,15.5c-6.1,13.3-10.2,28.8-15.9,40.9c1.5-9.5,0.8-22.7,0.8-32.2
		c-3.4-4.2-6.8-7.2-8.3-12.5c1.5-3,3.8-5.7,4.2-10.2c-4.9-8.7-7.2-10.6-6.1-22c3-0.4,7.2-1.9,9.1-5.3c0-4.2-7.6-8-9.1-11.7
		c1.9-3,13.6-19,17.4-27.7c2.3,0.8,3.8,3.8,4.9,5.3c1.1,0.8,2.7,1.1,3,4.9c-0.4,3.4-0.8,12.9-1.1,18.6c0,7.2,5.7,10.2,6.8,15.9
		c-1.5,2.3-8.7,5.3-8,9.5C547.2,374.6,552.9,378.7,554,382.1z"/>
	<path class="st7" d="M579,375.7c0.4,3,0.8,6.4,0.8,10.2c-5.3,1.9-10.6,8-12.1,17.1c-7.6,6.1-13.6,13.3-22,23.5
		c2.3-8,8.7-25.8,13.3-34.5c3.4-9.9,0.8-17.1-4.9-21.2c1.5-3,5.7-3.8,7.2-6.8c1.5-7.2-6.1-11.4-5.3-17.8c5.3-5.7,7.6-9.1,12.9-15.5
		c4.9,8.3,6.1,14,6.1,22c-2.7,4.2-4.5,11.4-4.2,17.8C573,371.9,576.8,374.2,579,375.7z"/>
	<path class="st7" d="M526.7,410.2c0.8,11,1.9,21.6-0.4,28c-0.8-6.1-3.8-12.5-6.8-17.1c-7.2-11.4-10.6-14.4-10.6-29.9
		c-9.1-4.2-1.9-15.9-0.8-22.7c1.5-6.4,1.1-20.1-2.3-28c0-0.8,0.4-0.8,1.1,0c3.4,7.6,11,5.7,17.1,13.6c-16.7,7.2-3.8,26.2-2.3,31.5
		c-0.8,2.3-3.4,4.5-4.2,9.1C519.1,399.6,523.7,406,526.7,410.2z"/>
	<path class="st3" d="M527.9,328.7c3.8-5.7,4.9-6.8,10.2-17.8c0.4-1.1,2.3,1.1,5.3,0.8c5.3-9.1,11-23.1,13.3-28.8
		c-1.9-12.1-14-11-3.8-23.5c-0.8-7.2-8-13.6-7.6-22c-10.2,4.2-11-22.7-23.9-23.1c-2.3,4.5-0.4,12.9-10.6,20.8
		c-0.8-0.8-1.5-1.9-2.3-2.7c-7.2-3.8-13.6-6.1-18.6-6.4c-3.4,9.1-4.2,11.7-3.8,22c-4.2-3.4-17.8-1.9-27.3-2.7
		c1.1,6.8,8.3,20.5,13.3,27.3c-4.5,12.1,5.3,20.5,14,25c3,3.8,3.4,10.2,8,13.6c2.7,1.1,6.8,0.4,10.6,1.5
		C510,315.1,516.1,320,527.9,328.7z"/>
	<path class="st6" d="M527.5,277.5c0,13.6,2.7,23.1,3.4,36.8c-4.2-6.1-13.3-16.7-20.5-22c0-3.8-1.1-9.5-1.1-12.9
		c-6.4,0-20.5-6.1-11.4-15.2c2.3-3.4,1.9-5.3,1.1-9.1c-10.6-6.4-7.6-12.5-6.8-25c5.3,2.3,7.6,2.3,12.9,4.9c0.8,8,4.9,9.5,7.2,11.7
		c3.8,4.2,8.7,3,12.1,8.3C527.1,262,518.4,265.4,527.5,277.5z"/>
	<path class="st7" d="M528.6,323.4c-8.7-5.7-14.8-12.5-23.9-15.5c-6.8-0.4-8.3,1.9-11-6.1c-1.5-4.2-1.9-4.9-3.4-8.3
		c-5.3-2.3-17.8-8-12.5-22c-4.9-6.4-8.3-12.5-11-20.8c4.2,0.8,10.2,0,14.8,0.8c5.7,1.9,6.4,3.4,10.6,8c-1.1,3.8-4.5,4.5-4.9,11
		c0,9.5,9.1,12.1,15.2,14.8c1.5,3.4,1.9,6.8,1.1,9.5C508.5,302.2,528.2,313.5,528.6,323.4z"/>
	<path class="st7" d="M543.4,270c2.3,5.3,4.9,5.7,7.6,12.5c-5.7,12.9-4.9,14-14.4,27.3c-0.8-17.8-0.4-29.9-5.3-40.2
		c-1.9-5.3,0-12.9,0-16.3c-2.3-6.1-13.6-11-17.1-14.4c5.3-6.4,9.1-7.6,11-17.4c6.8,6.4,4.9,20.5,15.2,20.8
		c0.8,5.3,5.3,10.6,6.8,17.1C546.4,262.7,541.1,263.9,543.4,270z"/>
</g>
</svg>
