<?xml version="1.0" encoding="utf-8"?>
<!-- Generator: Adobe Illustrator 21.0.2, SVG Export Plug-In . SVG Version: 6.00 Build 0)  -->
<svg version="1.1" id="Layer_1" xmlns="http://www.w3.org/2000/svg" xmlns:xlink="http://www.w3.org/1999/xlink" x="0px" y="0px"
	 viewBox="0 0 612 792" style="enable-background:new 0 0 612 792;" xml:space="preserve">
<style type="text/css">
	.st0{fill:#605D5C;}
	.st1{fill:url(#SVGID_1_);stroke:#000000;stroke-miterlimit:10;}
	.st2{fill:none;}
	.st3{fill:#CF253A;stroke:#000000;}
	.st4{fill:#CF253A;stroke:#000000;stroke-miterlimit:10;}
</style>
<g>
	<path class="st0" d="M235.6,590.2c0,7.6,0,15.3,0,22.9c7.6,0,15.3,0,22.9,0c2.6,0.1,4.9-2.2,4.7-4.7c0.1-6.2,0.1-12.2,0-18.2
		c0.1-2.6-2.2-4.9-4.7-4.7c-6-0.1-12.2-0.1-18.2,0C237.7,585.4,235.4,587.7,235.6,590.2z M170.6,538.3c4.9-3.7,11-4,16.8-3.9
		c0,23.1,0,46.2,0.1,69.3c-0.1,4.9,4,9.3,8.9,9.5c4.3,0,8.5,0,12.6,0c2.4,0,4.6-2.3,4.6-4.7c0-4.9,0-9.6,0-14.5c0-2-0.1-4.2,0.3-6.3
		c0.3-0.3,0.4-0.7,0.3-1.1c0.9-6.2,5.6-11.6,11.3-14.1c2.6-1.3,5.6-1.7,8.5-1.9c8.6,0,17.2,0,25.8,0c3.4,0.1,7.2-0.1,10.6,0.7
		c7.6,2,13.8,8.9,14.6,16.8c0.4,3.7,0.1,7.3,0.3,11c-0.1,3.7,0,7.6-0.1,11.3c-0.3,6.3-4,12.3-9.5,15.6c-3.2,1.9-6.7,3-10.5,3
		c-6,0-12,0-18.2,0c-5.3,0-10.9-1.9-14.8-5.9c-2.9,3.6-7.5,5.9-12.2,5.9c-10,0-19.9,0-30,0c-5.3,0-10.6-2-14.6-5.4
		c-2.9,2.4-6.2,4.2-9.9,4.9c-2,0.6-4.2,0.6-6.3,0.6c-5.6,0-11.3,0-16.9,0c-5,0-10-2.2-13.9-5.4c-3.9,3.3-8.9,5.4-13.9,5.4
		c-27.2,0-54.3,0-81.5,0c-3.3,0-6.6-0.9-9.5-2.4h-0.1c-4.9-2.7-8.7-7.6-9.9-13.2v-0.6c0.1-0.4,0-0.9-0.3-1.1c-0.3-1.7-0.1-3.3-0.1-5
		c0-12,0-24.1,0-36.1c5.7-0.1,11.9,1,16.6,4.7c3.2,2.3,5.3,5.9,5.9,9.8c0,5.2,0,10.2,0,15.3c0,1.3,0,2.6,0.3,3.9
		c0.3,4.7,4.6,8.9,9.3,8.9c19.8,0,39.4,0,59.1,0c1.4,0,2.9,0,4.2-0.4c3.7-1.1,6.5-4.7,6.6-8.6c0-3.7,0-7.3,0-10.9c0-4-0.3-8,1-11.9
		c1.3-4.4,5.2-7.6,9.5-9.2c3.9-1.6,8.2-1.6,12.3-1.6c0.1,9.6,0,19.2,0,29c0.1,4.6-0.6,9.3-2.3,13.6c6.6,0,13.2,0,19.8,0
		c5-0.1,9.3-4.6,9.2-9.5c0-17.2,0-34.3,0-51.5c0-1.3,0.1-2.6,0.3-3.9c0.3-0.3,0.4-0.7,0.4-1.1C165.5,543.6,167.9,540.5,170.6,538.3z
		"/>
	<path class="st0" d="M434.5,540.8c3.3-3.9,8.3-5.9,13.2-6.2c2-0.1,4-0.1,6.2-0.1c0,21.8,0,43.6,0,65.5c0,2.6-0.3,5.3,0.9,7.7
		c1.6,3.3,5,5.4,8.6,5.4c5.3,0,10.5,0,15.6,0c2.3,0,4.4-1.9,4.7-4.2c0.4-1.6,0.3-3.3,0.3-4.9c0-6.5,0-13,0-19.5
		c0.4-3.7,2.2-7.3,5.2-9.6c2.4-2,5.4-3.4,8.5-3.7c0.4,0,0.9-0.1,1.3-0.3c2.4-0.6,5-0.4,7.6-0.4c0,12.5,0,25,0,37.4
		c0.1,3-0.3,6.2-1.6,9c-3,7-10.2,11.9-17.9,12c-10.3,0-20.8,0-31.3,0c-4.9-0.1-9.9-2-13.5-5.3c-0.4-0.4-0.6-0.4-0.9,0.1
		c-3.7,3.3-8.9,5.2-13.9,5.2c-25.1,0-50,0-75.1,0c-2.7,0-5.4,0.1-8.2-0.6c-6.6-1.6-12.2-6.9-14.2-13.3c-0.9-2.4-1-5.2-1-7.7
		c0-12.2,0-24.5,0-36.9c5.4-0.1,11.2,0.9,15.8,4c3.6,2.3,6.2,6.2,6.7,10.5c0,5.6,0,11,0,16.5c0,1,0.1,1.9,0.3,2.9
		c0.4,4.7,4.6,8.7,9.5,8.7c19.2,0,38.4,0,57.8,0c2,0,4,0.1,5.9-0.7c3-1,5.3-3.9,6-6.9c0.6-2.2,0.3-4.3,0.3-6.5c0-16.8,0-33.6,0-50.3
		C431.6,545.9,432.5,542.9,434.5,540.8z"/>
	<path class="st0" d="M525.1,534.5c3.9,0,7.7-0.1,11.5,1.1c4.3,1.4,8.5,4.4,10,8.7c1.4,3.6,1.4,7.5,1.3,11.2c0,15.9,0,31.8,0,47.8
		c-0.1,3.9,2.2,7.6,5.7,9c2.2,1,4.4,0.9,6.9,0.9c4.2,0,8.3,0,12.6,0c1,0,2-0.6,3-0.9c0.4-0.1,0.7-0.4,0.9-0.9
		c0.1-0.9,0.6-1.7,0.9-2.4c0.4-2,0.1-4.2,0.1-6.2c0.1-6.2,0-12.3,0.1-18.6c0.6-6.9,7-12.2,13.6-12.9c0.4,0,0.9,0,1.1-0.3
		c0.3-0.1,1-0.1,1.3-0.3c2,0,4-0.1,5.9,0.1c0.7,0.1,0.4,1,0.4,1.6c0,12.2,0,24.5,0,36.7c0.1,5.3-2.3,10.6-6,14.3h-0.3
		c-0.6,0-0.9,0.3-1,0.9v0.3c-3.6,2.7-8,4.4-12.5,4.4c-11.9,0-23.7,0-35.6,0c-3.9,0-7.9-1.1-11-3.3c-5.6-3.6-9-10-9-16.6
		C525.1,584.4,525.1,559.4,525.1,534.5z"/>
	<path class="st0" d="M478.2,540.6c1.3-0.9,3-0.4,4,0.7c3.4,3.3,6.7,6.7,10.2,10c1.1,1.3,1.1,3.3-0.1,4.4
		c-3.3,3.4-6.7,6.7-10.2,10.2c-1.1,1.3-3.4,1.3-4.6,0c-3.3-3.3-6.6-6.5-9.8-9.8c-0.9-0.7-1.6-1.7-1.4-2.7c0-1.7,1.6-2.7,2.6-3.7
		C472.1,546.8,474.9,543.5,478.2,540.6z"/>
	<path class="st0" d="M61.9,550.8c0.7-0.9,1.7-1.4,2.9-1.4c1.1,0,2.2,0.9,2.9,1.7c2.9,2.9,5.9,5.7,8.7,8.7c2.7-2.6,5.4-5.4,8.2-8
		c1-1,1.9-2.3,3.3-2.4c1.1-0.1,2.2,0.4,2.9,1.3c3.3,3.3,6.6,6.6,9.9,9.9c1.3,1.1,1.4,3.3,0.1,4.4c-3.4,3.4-6.9,6.9-10.3,10.3
		c-1.1,1.3-3.3,1.1-4.4,0c-3-3-6.2-6-9.2-9.2c0-0.1-0.1-0.4-0.3-0.6c-0.1,0.1-0.3,0.3-0.4,0.4c-2.9,3.2-6,6.2-9,9.2
		c-1.3,1.4-3.4,1.4-4.7,0c-3.4-3.3-6.7-6.7-10.2-10c-1.1-1.1-1.3-3.3-0.1-4.4C55.3,557.4,58.6,554.1,61.9,550.8z"/>
	<path class="st0" d="M385.6,553.4c2-1.4,4.4-1.3,6.7-1.3c2.4,0,4.9,0,7.2,0c-1.6,3.3-3.2,6.5-4.7,9.6c1.7,0.3,3.6,0.1,5.3,0.1
		c1.9,0.6,3.4,2.3,3.3,4.3c0.1,2.4-1.1,4.6-2.2,6.7c-0.9,1.7-1.4,3.6-2.7,4.9c-1.3,1.6-3.3,2.3-5.3,2.3c-3.3,0.1-6.6,0.1-10,0.1
		c1.6-3.2,3.2-6.2,4.7-9.2c0.1-0.1,0.3-0.4,0.3-0.4c-1.9-0.1-3.7-0.1-5.6-0.1c-1.9-0.6-3.3-2.4-3.3-4.3c0-2.3,1.1-4.3,2.2-6.3
		C382.4,557.5,383.3,554.8,385.6,553.4z"/>
	<path class="st0" d="M561.2,636.7c1.3-1.3,3.4-1.3,4.6,0c3.4,3.4,6.7,6.7,10.2,10.2c1.3,1.1,1.3,3.4,0,4.6
		c-3.3,3.3-6.6,6.6-9.9,9.9c-0.7,0.9-1.9,1.6-3.2,1.3c-1.1-0.1-1.9-1.1-2.6-1.9c-3.2-3.2-6.3-6.3-9.5-9.5c0,0,0,0-0.1-0.1
		c-1.1-1.1-0.9-3.3,0.4-4.4C554.5,643.4,558,640,561.2,636.7z"/>
	<path class="st0" d="M88.9,681c0,4,0,8.2,0,12.3c0,1.1,0.7,2.2,1.9,2.4c0.6,0.3,1.1,0.4,1.9,0.3c4.3,0,8.7,0,13,0
		c0.6,0.1,1.3,0,1.9-0.3c1-0.1,2.2-1,2-2.2c0.1-3.4,0.1-7,0-10.5c0-1.4-1.3-2.3-2.6-2.2C100.9,681,94.9,681,88.9,681z M77.1,653.3
		c3.3-0.1,6.9,0.3,9.3,2.6c1.9,1.6,2.4,4.2,2.4,6.6c0,4.6,0,9.2,0,13.9c1.1-1.4,2.7-2.6,4.4-3c3.4-1.1,7.2-0.6,10.6-0.7
		c4,0.1,8.3-0.6,12,1.3c2.7,1.3,4.7,4,5.2,7c0.4,2.7,0.3,5.6,0.3,8.5c0,3,0.3,6.2-1,8.9c-0.1,0.1-0.3,0.6-0.4,0.7
		c-0.4,1.3-1.6,2.2-2.7,2.9c-2.3,1.6-5.2,2.2-7.9,2.2c-7,0-14.1,0-21.1,0c-3.4-0.1-7-1.3-9.2-4.2c-1.6-2-2-4.6-2-7
		C77.1,679.7,77.1,666.5,77.1,653.3z"/>
	<path class="st0" d="M227.8,653.3c3.2-0.1,6.6,0.1,9.2,2.4c1.9,1.4,2.6,3.9,2.6,6.3c0,7.3,0,14.8,0,22.1c3.3,0,6.9,0.6,10-1
		c4.3-2,6.9-6.3,8.6-10.5c3.4,0,7,0,10.5,0c-0.4,5.3-4.2,9.8-8.3,12.6c2.9,1.1,5.4,3.2,6.7,6c2,4,1.3,8.5,1.4,12.8
		c-3.9,0-7.9,0-11.8,0c0-3,0-6.2-0.1-9.2c0.1-1.3-1-2.4-2.3-2.4c-4.9-0.1-9.9,0-14.8,0c0,3.9,0,7.7,0,11.6c-3.9,0-7.9,0-11.8,0
		C227.8,687.2,227.8,670.3,227.8,653.3z"/>
	<path class="st0" d="M424,653.3c2.9-0.1,5.9,0.1,8.3,1.7c1.7,1.1,3,3,3.2,5.2c0,14.5,0.1,29.1,0,43.6c-3.9,0-7.7,0-11.6,0
		C424.2,687,424,670.1,424,653.3z"/>
	<path class="st0" d="M445.5,653.6c1.1,0,2.3-0.1,3.6-0.1c2.4,0.3,5,1.6,6.5,3.6c1.1,1.6,1.4,3.6,1.4,5.4c0,13.8,0,27.5,0,41.3
		c-3.9,0-7.7,0-11.5,0C445.4,687,445.4,670.4,445.5,653.6z"/>
	<path class="st0" d="M519.8,662.2c3.3,0,6.9,0.3,9.5,2.7c2.2,2,2.4,5,2.3,7.7c1.9,0,3.7,0,5.6,0c0,2.7,0,5.4,0,8.3
		c-1.9,0-3.7,0-5.6,0c0.1,4.3-0.1,8.7,0.1,13c0.6,2.4,3.6,1.7,5.4,1.7c-0.1,2.9,0,5.6-0.1,8.3c-3.7-0.1-7.7,0.6-11.3-1.1
		c-3.4-1.3-5.7-4.7-5.9-8.5c-0.1-4.4,0-9,0-13.5c-1.9,0-3.6,0-5.3,0c-0.1-2.9-0.1-5.6,0-8.3c1.7,0,3.6,0,5.3,0
		C519.8,669.3,519.8,665.8,519.8,662.2z"/>
	<path class="st0" d="M309.1,676c2.3-2.7,6-3.4,9.3-3.3c3.6,0.1,7.3-0.4,10.8,0.6c2,0.4,3.9,1.6,5.3,3c2.4-2.9,6.5-3.9,10.2-3.6
		c4.3,0.3,8.9-0.7,13,1.1c2.9,1.3,5.2,3.9,5.6,7c0.1,7.7,0,15.3,0,23.1c-3.9,0-7.6,0-11.5,0c0-6,0-11.9,0-17.9
		c0-1.3,0.1-2.6-0.3-3.9c-0.4-0.6-1-1-1.7-1.1c-1.9-0.6-4-0.3-6-0.3c-2.4,0-4.9-0.3-7.2,0.1c0.3,2,0.1,4,0.1,6
		c0,5.7,0.1,11.5,0,17.2c-3.9,0-7.7,0-11.8,0c0-6.9,0-13.8,0-20.6c0.1-1.1-0.7-2.2-1.9-2.4c-4.3-0.3-8.6-0.1-13-0.1
		c-0.3,0.6-0.1,1.3-0.1,1.9c0,7,0,14.1,0,21.1c-3.9,0-7.6,0-11.5,0c0-10.3,0-20.5,0-30.8c1.3,0,2.6,0,4,0c2.2,0.3,4.4,1.3,5.9,3.2
		C308.7,676.6,308.9,676.6,309.1,676z"/>
	<path class="st0" d="M141.1,681c-0.7,0.3-1.4,0.9-1.7,1.6c-0.6,1.7-0.1,3.7-0.3,5.6c0.1,2-0.3,4.2,0.3,6c0.4,0.7,1,1.3,1.7,1.6
		c1,0.4,2.3,0.3,3.4,0.3c5.2,0,10.3,0,15.5,0c0.3-3.3,0.1-6.7,0.1-10c0-1.1,0.1-2.4-0.3-3.4c-0.3-0.7-1-1.3-1.7-1.6
		c-0.6-0.3-1.1-0.4-1.9-0.4c-4.4,0.1-9,0-13.5,0C142.2,680.6,141.5,680.7,141.1,681z M129.5,676.9c2-2.9,5.7-4,9.2-4.2
		c7.2,0,14.3,0,21.5,0c2.4,0,5,0.6,7.2,1.9c2.2,1.4,3.6,3.6,4,6c0.4,2.2,0.3,4.4,0.3,6.7c0.1,5.6,0.1,11.2,0.1,16.8
		c-3.6,0.1-7.7-0.3-10-3.3c0-0.1-0.3-0.4-0.3-0.6c-0.1,0.1-0.3,0.4-0.4,0.6c-1.7,2.3-4.9,3-7.6,3.3c-4.9,0-9.6,0-14.3,0
		c-3.7,0-7.6-1.3-9.8-4.4c-0.6-1-1.3-2-1.3-3.2c0.1-0.4,0-0.9-0.4-1.1c0-3.7,0-7.6-0.1-11.3C127.5,681.4,127.9,678.9,129.5,676.9z"
		/>
	<path class="st0" d="M179.1,672.7c3.6,0,7.3,1,9.8,3.7c2-2.6,5.3-3.6,8.5-3.7c3.9,0,7.6,0,11.5,0c2.9,0,5.9,0.7,8.2,2.6l0,0
		c1.7,1.4,2.9,3.4,3.3,5.6c0,7.6,0,15.3,0,22.9c-3.9,0-7.7,0-11.5,0c-0.1-6.7,0-13.5-0.1-20.4c0.1-1.1-0.7-2.2-1.9-2.4
		c-1.3-0.3-2.6-0.3-4-0.3c-4,0-8,0-12,0c-0.3,7.7,0,15.3-0.1,23.1c-3.9,0-7.7-0.1-11.6,0C179.2,693.5,179.1,683.2,179.1,672.7z"/>
	<path class="st0" d="M385,681c-2.2,0.4-2,3-1.9,4.9c6.5,0,12.9,0,19.4,0c2.6,0.4,3-4,1-4.9c-1.3-0.6-2.6-0.3-4-0.3
		c-3.4,0-7,0-10.5,0C387.7,680.7,386.3,680.4,385,681z M377.1,673.8c2.9-1.3,5.9-1.1,8.9-1.1c6.5,0,12.9,0,19.5,0
		c3.3,0,6.9,1.4,9,4.3c1.9,2.6,2.2,6,1.7,9c-0.4,2.7-3,4.9-5.7,4.9c-6.7,0-13.5,0-20.2,0c-2.7,0.1-5.7-0.7-7.2-3.2c0,2-0.1,4,0,6
		c0.1,1,1,1.7,1.9,2c1.4,0.4,3,0.3,4.4,0.3c6.2,0,12.5,0.1,18.6,0c3.7,0.7,7.2,4,7.2,8c-10.5,0-20.9,0-31.4,0c-2.4,0-5-0.3-7.2-1.4
		c-2.6-1.1-4.6-3.6-5-6.3c-0.1-5.3-0.1-10.6,0-15.8C372.1,677.6,374.4,675,377.1,673.8z"/>
	<path class="st0" d="M479.2,681c-1,0.3-1.9,1-1.7,2.2c0,3.4-0.1,7,0,10.5c0,1.1,0.9,1.9,1.7,2.2c0.9,0.4,1.7,0.3,2.7,0.3
		c5.4,0,10.9,0.1,16.2,0c0.1-3.4,0-6.9,0.1-10.5c0-0.9,0-1.9-0.3-2.6c-0.3-1-1-1.9-2-2c-1.1-0.4-2.3-0.3-3.6-0.3c-3.3,0-6.7,0-10,0
		C481.2,680.7,480.2,680.6,479.2,681z M466.9,677.9c1.9-3.4,5.9-5,9.5-5.2c6.5,0,12.8,0,19.1,0c3,0,6-0.1,8.7,1.3
		c3.4,1.4,5.6,5,5.6,8.7c0,7,0,14.2,0,21.4c-3.7,0.1-7.9-0.6-10.3-3.6c-2,2.6-5.4,3.6-8.7,3.6c-4.6,0-9.2,0-13.9,0
		c-3.7-0.1-7.7-1.6-9.8-4.9c-1.9-3.2-1.3-7-1.4-10.6C465.7,685,465,681.2,466.9,677.9z"/>
	<g>
		
			<linearGradient id="SVGID_1_" gradientUnits="userSpaceOnUse" x1="4983.936" y1="-4552.2026" x2="3426.8823" y2="-2940.9148" gradientTransform="matrix(7.200000e-02 0 0 -7.200000e-02 0 57.024)">
			<stop  offset="0" style="stop-color:#FFD88B"/>
			<stop  offset="7.843140e-02" style="stop-color:#FFD88B"/>
			<stop  offset="0.4902" style="stop-color:#FFD55D"/>
			<stop  offset="1" style="stop-color:#FFD22E"/>
		</linearGradient>
		<path class="st1" d="M245.8,326.8c0,31.4,25.5,56.9,57.1,56.9c31.4,0,56.9-25.5,56.9-56.9l0,0c0-31.5-25.5-57.1-56.9-57.1
			C271.3,269.8,245.8,295.3,245.8,326.8z"/>
		<path class="st2" d="M359.8,326.8c0-31.5-25.5-57.1-56.9-57.1c-31.5,0-57.1,25.5-57.1,57.1c0,31.4,25.5,56.9,57.1,56.9
			C334.3,383.8,359.8,358.3,359.8,326.8z"/>
		<g>
			<path class="st3" d="M289.2,108.9l-88.9,52.5c-23.1,9.5-18.4,34.7-18.4,34.7l0,0l-0.4,191.3l47.8-27.2
				c-24.8-93.8,59.9-109.7,59.9-109.7l0,0v-75c1.4-23.4,18.4-8.9,18.4-8.9l0,0l117.9,67.5l-0.7-36.6c0.7-30.4-17.4-35.1-17.4-35.1
				l0,0l-90.5-53.5c-4.7-3.6-9.5-4.7-13.6-4.7C295.1,104.1,289.2,108.9,289.2,108.9L289.2,108.9z"/>
			<path class="st4" d="M313.6,197.3L481,294.1c0,0,24.4,8.7,21.2,33.3l1.9,103.1c0,0,2.9,16.8-13.8,23.8l-91.6,50.8
				c0,0-13,13.2-39.3-2.7L327,484.4l117.6-67.3c0,0,21.1-7.2,1.1-20.2l-65.5-37.9c0,0,28.1-81-66.4-107L313.6,197.3z"/>
			<path class="st3" d="M313.6,197.3L481,294.1c0,0,24.4,8.7,21.2,33.3l1.9,103.1c0,0,2.9,16.8-13.8,23.8l-91.6,50.8
				c0,0-13,13.2-39.3-2.7L327,484.4l117.6-67.3c0,0,21.1-7.2,1.1-20.2l-65.5-37.9c0,0,28.1-81-66.4-107L313.6,197.3z"/>
			<path class="st4" d="M417.3,402.9L249.1,498c0,0-19.9,16.6-39.4,1.6l-89.8-50.8c0,0-15.9-5.9-13.6-23.8l2.7-104.8
				c0,0-4.7-17.9,22.4-32.6l31.8-18.8l-1.6,135.5c0,0-4.6,21.8,16.8,11.3l65.8-37.4c0,0,55.6,65.2,125.9-2.9L417.3,402.9z"/>
		</g>
	</g>
</g>
</svg>
