<?xml version="1.0" encoding="utf-8"?>
<!-- Generator: Adobe Illustrator 21.0.2, SVG Export Plug-In . SVG Version: 6.00 Build 0)  -->
<svg version="1.1" id="Layer_1" xmlns="http://www.w3.org/2000/svg" xmlns:xlink="http://www.w3.org/1999/xlink" x="0px" y="0px"
	 viewBox="0 0 612 792" style="enable-background:new 0 0 612 792;" xml:space="preserve">
<style type="text/css">
	.st0{fill:#050007;stroke:#050007;stroke-width:6.9449;}
	.st1{fill:#98110F;stroke:#98110F;stroke-width:6.9449;}
</style>
<g id="__x0023_Layer_x0020_3">
	<g id="_908018784">
		<path class="st0" d="M305.9,116.1c-16.1,48.7-26.7,98.3-55.1,144.9c13.6,22.4,25.3,38.3,29.4,77.7c18.8-12,30.9-11.5,50.5-0.3
			c2.8-36.8,13.7-53.8,30.5-77.1C329.9,212.5,320,166.9,305.9,116.1z"/>
		<path class="st1" d="M77.4,178.6l7.6,21.2c-17.3,9.9-38.1,30.6-41.8,51.1v439.2l226.8-0.1c0-56.6,0-113.4,0-170
			c-77.6-19.7-105.2-94.4-91.9-163.8c29.9,7.8,45,28.8,58.3,48.9c3.7-25.6,14.2-39.4,24.8-54.4c25.9,21.2,36.2,80.1,34.7,122.2v248
			l-278.4-0.1c0-156.7,0-319.3,0-476.2C18.8,219.8,41.1,177.1,77.4,178.6z"/>
		<path class="st0" d="M158.2,382C138.3,263,118.9,194.7,39,128.4c120.1,18.7,185.1,116.1,218.3,205.9
			c-20.6-6.3-44.1-11.4-56.6,15.1C183.8,335.3,164.3,322.6,158.2,382z"/>
		<path class="st0" d="M171.1,174.7c-21.8-20.5-64.3-35.7-66-53.8c-1.8-18.1,6.6-25.3,34.2-22.9c10.2-10.2,35.9-13.1,35.7,10
			C174.7,131.1,174.5,145.1,171.1,174.7z"/>
		<path class="st1" d="M199.9,107.2c-2.2,25.3-5.7,45.9-17.5,80.8c20.5,23.3,27.3,31.5,54.2,63.4c12.6-26.6,18.1-40,30.2-64
			C240.9,167.2,223.8,140,199.9,107.2z"/>
		<path class="st0" d="M452.4,381.8c19.9-118.8,39.3-187.2,119.2-253.4c-120.1,18.7-185.1,116.1-218.3,205.9
			c20.6-6.4,44.1-11.5,56.6,15.1C426.9,335.2,446.3,322.6,452.4,381.8z"/>
		<path class="st1" d="M411.2,107c2.2,25.3,5.7,46,17.5,80.8c-20.5,23.3-27.3,31.5-54.2,63.4c-12.6-26.6-18.1-39.9-30.2-64
			C370.3,167.1,387.3,139.9,411.2,107z"/>
		<path class="st0" d="M269.1,168.6c-22.4-27.8-49.9-55.9-51.1-67.5c-1.3-11.7-3.3-24.1,31.1-19.7c4.5-14.8,34.5-14.6,36.3,6.7
			C287.2,109.6,284.5,138.2,269.1,168.6z"/>
		<path class="st0" d="M342.8,169c22.4-27.8,49.8-55.9,51.1-67.5c1.2-11.7,3.3-23.9-31.1-19.7c-4.5-14.8-34.7-14.6-36.3,6.9
			C324.7,110,327.4,138.7,342.8,169z"/>
		<path class="st0" d="M440.3,174.6c21.8-20.5,64.3-35.7,66-53.8c1.8-18.1-6.6-25.3-34.4-23c-10-10-35.7-13.1-35.6,10
			C436.6,130.9,436.9,144.8,440.3,174.6z"/>
		<path class="st1" d="M534.6,178.7l-7.6,21.1c17.3,9.9,38.1,30.8,41.8,51.3v439.2L342,690.1c0-56.8,0-113.4,0-170
			c77.6-19.7,105.2-94.4,91.9-163.8c-29.9,7.8-45,28.7-58.3,48.9c-3.7-25.6-14.2-39.4-24.8-54.4c-25.9,21.2-36.2,80.1-34.7,122.2
			v248l278.4-0.1c0-156.9,0-319.3,0-476.2C593.2,220,570.9,177.1,534.6,178.7z"/>
	</g>
</g>
</svg>
