<?xml version="1.0" encoding="utf-8"?>
<!-- Generator: Adobe Illustrator 21.0.2, SVG Export Plug-In . SVG Version: 6.00 Build 0)  -->
<svg version="1.1" id="Layer_1" xmlns="http://www.w3.org/2000/svg" xmlns:xlink="http://www.w3.org/1999/xlink" x="0px" y="0px"
	 viewBox="0 0 612 792" style="enable-background:new 0 0 612 792;" xml:space="preserve">
<style type="text/css">
	.st0{fill:#FFFFFF;}
	.st1{fill:#F0C239;}
</style>
<g>
	<path class="st0" d="M466.7,380c-6.8-9.8,2.8-26.6,15.2-24.3c-2.2,4.2-8.2,2.8-11.1,6.3c-2.2,2.7-1.7,7,0.1,9.8
		c2.3,2.2,5.5,2.7,8.3,3.9C476,379,471.5,383.2,466.7,380 M474.8,364.3c0.7-1.8,2.9-2.1,4.2-3.2c0,2.8,0.1,5.7,0.2,8.5
		c4.2,0,5.6-4,7.1-7.2c4.4-0.5,8.8-0.2,13.1,0.7c-5.9,3-11.6,6.6-17.8,9C477.9,371.9,472.8,368.5,474.8,364.3L474.8,364.3z"/>
	<path class="st1" d="M25.5,0.9c78.7-0.6,157.4-0.1,236.1-0.3c42.6,0.2,85.1-0.4,127.7,0.3c-0.7,4.3-1.5,8.5-2.4,12.7
		c-119.7,0.2-239.5,0.2-359.2,0C26.8,9.4,26.1,5.1,25.5,0.9 M28.9,20.4c8.5-0.5,16.9-0.3,25.4-0.3c102.6,0,205.1,0,307.7,0
		c7.9,0,15.8-0.1,23.7,0.3c-6,37.3-11.8,74.7-17.6,112c-13.2-0.5-22.9-13.2-24.1-25.6c3.4-5.2,8.5-9.5,10.2-15.8
		c1.6-6.3,2-12.7,3.5-19c1.7-7.3,5.7-13.7,7.7-20.9c-2.5,1-5,2-7,3.9c-6.8,6-13.4,12.3-18.8,19.6c-8.2-8.8-16.4-17.8-26.2-24.9
		c-0.5,6.2,4.1,11.2,5.7,16.9c3.6,8.7,2.4,18.5,6.2,27c2.1,4.8,6.1,8.5,8.6,13.1c-0.6,10.8-8.1,21.3-18.5,24.9
		c-10.1,2.5-22,1.5-29.5-6.4c-5.6-4.9-5.6-13.6-12-17.8c-2.2,11.1,5.3,21.2,14.2,26.9c15.3,9.6,38.3,4.4,46.7-11.9
		c4.4-5.7,2.8-12.9,3.2-19.5c1.3,1.2,2.9,2.2,3.8,3.8c-0.5,4.8-2,10,0.9,14.4c4.6,9.6,14.2,15.4,24.1,18.1c-0.4,3.1-0.9,6.2-1.3,9.4
		c-81.9,0.5-163.9,0.1-245.8,0.2c-23.5-0.2-46.9,0.5-70.4-0.4c-0.5-3.2-1-6.4-1.4-9.6c8.1-3.7,16.2-8.5,20.5-16.6
		c3.4-4.9,2.6-11,1.2-16.4c1.4-0.8,2.8-1.7,4.2-2.5c-0.2,5.7-1.3,11.9,1.9,17c5.1,11.3,17.2,19.2,29.7,18.7
		c16.6,1.1,34-13.8,32.5-31c-1,0.4-3.1,1.1-4.1,1.5c-2.8,9.7-8.9,19.4-19.1,22.3c-8.2,1.5-17.6,1.9-24.7-3.3
		c-7.8-5.2-12-14.4-12.8-23.5c3.9-2.9,7.5-6.5,9.3-11.1c3.7-8.2,2.7-17.6,5.8-25.9c1.9-6,5.3-11.5,7-17.6c-2.3,1-4.7,2-6.5,3.7
		C85.3,60.4,78.5,67.4,72,74.7c-7.2-8.9-15-18-25.2-23.6c1.3,7.3,5.3,13.7,7.1,20.8c1.8,6.7,2,13.7,3.9,20.3
		c1.8,5.7,6.6,9.7,9.8,14.6c-1.1,11.6-9.5,22.3-20.8,25.6C40.8,95.1,34.5,57.8,28.9,20.4 M70.2,33c-1.5,6.6-0.2,13.2-0.4,19.9
		c-2.2-4.4-2.7-9.9-6-13.6c-1.4-0.1-4.1-0.3-5.4-0.4c-0.2,7.6,5.5,13.3,10,18.7c1.7-0.8,3.4-1.7,5.1-2.5c1.1-6.1,3.3-12.2,2.9-18.4
		C76.3,33.5,72.4,33.9,70.2,33 M135.3,36.6c0.2,6.5,1.8,12.9,1.7,19.5c1,0,2.9,0.1,3.9,0.1c-0.2-6.6,1.2-13,1.4-19.5
		C142.3,32.5,135.5,32.5,135.3,36.6 M202.6,33.5c-2.1,7.2,0.1,14.6,1.6,21.7c1.8,0.7,3.5,1.5,5.3,2.2c4.8-5.1,10.3-10.8,10.1-18.2
		c-1.5-0.1-4.4-0.2-5.9-0.2c-2,5.1-3.8,10.3-5.9,15.4c0.1-6.8,0.8-13.6,0.7-20.4C206.5,33.9,204.5,33.7,202.6,33.5 M269.8,33.2
		c-2.5,7.5,1.2,15.1,1.1,22.7c2.6-0.1,6.1,2,8.1-0.6c3.9-4.4,7.2-9.6,8.6-15.4c-1.4-0.4-4.3-1.1-5.7-1.5c-3.2,4.9-4.6,10.7-6.9,16.1
		c-0.4-6,0.9-11.9,1.2-17.8C275.7,33.5,272.2,33.9,269.8,33.2 M335.6,34.1c-0.4,7.2,1.4,14.2,2.7,21.2c1.7,0.9,3.4,1.8,5.1,2.8
		c4.6-5.3,9.1-11,10.8-17.9c-1.7-0.7-3.5-1.4-5.2-2.1c-3.6,4.4-4.7,10.1-7.1,15.1c-0.6-6.6,1.1-13.3-0.3-19.9
		C339.6,33.6,337.6,33.8,335.6,34.1 M75.8,57C82.1,53.5,86,46.5,87,39.5c-1.5-0.2-4.4-0.6-5.9-0.7C78.3,44.5,75.8,50.5,75.8,57
		 M124,39.8c2.1,6.8,5.4,14.3,12.1,17.7c-0.9-6.7-2.5-13.4-6.4-19.1C128.3,38.8,125.5,39.5,124,39.8 M146.5,40.9
		c-2.8,5.2-4,11-5,16.7c6.6-3.7,10.7-11,12.1-18.3C151.3,39.6,147.6,37.9,146.5,40.9 M190.8,39.5c1.2,6.9,4.9,13.9,11.1,17.4
		c0.3-6.5-2.4-12.5-5.3-18.2C195.2,38.9,192.3,39.3,190.8,39.5 M257.9,39.2c1.5,6.7,4.6,15.6,12,17.4c-1.1-5.4-2.2-10.8-4.8-15.7
		C263.9,38.1,260.1,39.6,257.9,39.2 M324.6,39.5c1.3,7,5,14,11.3,17.5c0-6.5-2.3-12.6-5.3-18.3C329.1,38.9,326.1,39.3,324.6,39.5
		 M51.6,42.3c-1.1,1.8-2.2,3.6-3.3,5.5c5.1,5.7,10.8,10.8,17.6,14.3C62.8,54.4,58.5,46.9,51.6,42.3 M90.2,43.4
		c-4.1,5.9-8.9,11.5-10.7,18.6c5.8-3.9,11.6-7.9,16-13.3c0.1-1.8,0.1-3.6,0.1-5.4C93.8,43.3,92,43.3,90.2,43.4 M115.3,43.2
		c0,2.9,0.6,5.9,2,8.5c-1.6,0-3.3,0-4.9,0c2.7,6.9,6.2,13.4,8,20.6c1.4,6.3,1.6,12.9,3.5,19.1c1.6,5.9,6,10.3,9.8,14.9
		c3.1-0.7,6.3-0.8,9.5-0.1c3.3-3.1,6.7-6.3,8.6-10.4c3.6-7.2,3.4-15.5,5.2-23.2c1.7-7.4,5.7-14,7.8-21.2
		c-11,4.7-17.9,15.2-26.1,23.4c-6.4-8-14.9-14.1-21-22.4c4.5,2.6,8.4,6.1,12.4,9.3c0-0.9,0.1-2.8,0.1-3.7c-2.7-5-5.9-9.9-9.9-14
		C118.8,43.4,117.1,43.3,115.3,43.2 M156.9,43.4c-4.3,5.4-8.5,10.9-11,17.4c6.1-2.2,11.2-6.5,15.4-11.4c1.8-1.7,0.1-4.2-0.2-6.2
		C160.1,43.2,158,43.3,156.9,43.4 M182.4,43.1c-0.2,1.1-0.6,3.3-0.8,4.4c1.1,1.6,2.3,3.3,3.4,4.9c-2.2-0.5-4.4-0.9-6.6-1.4
		c3.3,8,7.4,15.7,9.2,24.3c1.2,5.8,0.8,11.9,3.3,17.4c2.2,5.7,6.9,10,9.1,15.6c-1.5,10.4-8.5,19.8-18.5,23.4
		c-8.9,2-19.4,1.9-26.7-4.4c-6.9-5-8.8-13.7-12.9-20.7c-1.3,2.9-2.7,6.2-1.5,9.4c3.1,10.6,12.2,19.1,22.7,22.1
		c9.5,2,20.1,1.1,28.1-4.8c7.1-4.2,10.2-12.1,14.4-18.7c3.7,7.1,7.4,14.9,14.7,19.2c7.8,5.5,17.8,6.1,27,4.6
		c10.6-2.6,19.8-10.7,23.4-21c1.2-4.4,0.3-9,0.2-13.5c2.5,0.9,5.7,3.8,7.8,0.7c8.3-6.5,10.2-17.4,11.4-27.2
		c0.9-9.2,5.7-17.4,8.9-25.9c-1.7,0.2-3.4,0.4-5.1,0.6c0.8-1.9,1.7-3.8,2.6-5.7c-0.4-0.7-1.3-2.2-1.7-2.9c-0.9-0.1-2.8-0.2-3.7-0.2
		c-4.4,5.2-8.7,10.8-10.8,17.5c4.8-2.2,8.8-5.6,13.2-8.4c-1.2,3.3-4,5.5-6.4,7.7c-5.1,4.5-9.7,9.5-14.1,14.6
		c-5.7-6.6-12.5-12.3-17.8-19.3c3.7,2.2,7.1,4.6,10.8,6.8c-2-7.1-7-12.7-11.1-18.6c-1.9,0-3.7-0.1-5.6-0.2c0.2,3.3,1.1,6.5,2.6,9.5
		c-2.1-1-4.1-2-6.2-3c2.2,7,6.1,13.4,8.1,20.5c2.6,8.1,1.8,16.9,5.6,24.6c2.1,4.6,6.3,7.8,8.4,12.4c-1.3,12-10.6,24.1-23.2,25.3
		c-7,0.7-14.7,0.5-20.7-3.7c-7.5-4.4-11.5-12.7-13.4-20.8c-0.6-3.2,2.9-4.9,4.5-7.2c5.9-6,6.9-14.8,8.1-22.8
		c0.9-9.5,5.6-18,9.1-26.8c-1.7,0.2-3.4,0.4-5.2,0.6c1-2,1.9-4,2.9-6c-1.7-0.9-3.3-3.3-5.5-2.4c-5.7,4.8-9.5,11.5-12.1,18.4
		c4.7-3,9.1-6.3,13.6-9.7c0,0.6,0.1,1.9,0.1,2.5c-7.6,5.6-14.5,12.2-20,19.9c-6.4-7.6-14.1-14-20.5-21.7c4.7,2.8,8.9,6.2,13.5,9.2
		c-2-7.1-7-12.7-11.1-18.7C185.7,43.4,184.1,43.2,182.4,43.1 M316,43.2c-0.1,1.8-0.1,3.7,0,5.5c4.5,5.4,10.3,9.6,16.2,13.4
		c-1.7-7.2-7.1-12.6-10.9-18.7C319.5,43.3,317.8,43.3,316,43.2 M345.8,61.9c6.5-3.8,12.4-8.5,17.4-14.2c-1.1-1.8-2.2-3.7-3.2-5.5
		C353,46.9,349,54.5,345.8,61.9 M65.9,61.8c1.7,3.4,4.1,6.4,7.2,8.6c1.8-2.2,3.8-4.2,5.1-6.8c-0.7-1.9-1.5-4-3.3-5.2
		C71.4,57.4,68.6,60.2,65.9,61.8 M135.5,57.8c-0.5,2.4-2.3,4.7-1.7,7.2c1.5,2.2,3.4,4,5.1,6c1.9-2.8,5.5-5.2,5.5-8.9
		C143,58.2,138.9,58.2,135.5,57.8 M198.8,63.4c1.9,2.3,3.9,4.5,5.8,6.8c2.5-2.1,4.8-4.3,7.1-6.6c-2.1-2.2-3.6-6.6-7.4-5.3
		C201.6,58.5,200.6,61.8,198.8,63.4 M268.8,59.6c-4.1,3.6,0.5,7.9,2.8,11c2.5-2.2,4.9-4.5,7.2-6.8C276.9,60.1,272.6,55.7,268.8,59.6
		 M334.9,60.3c-3.4,3.8,1.4,7.2,3.6,10c2.4-2.2,4.8-4.6,7.1-6.9C343.4,60,338.2,55.3,334.9,60.3 M51.5,156c3-0.2,6.1-0.4,9.2-0.5
		c88.8,0,177.5,0,266.3,0c12.1,0.3,24.3-0.6,36.4,0.6c0.1,1.1,0.4,3.4,0.5,4.5c-104.3,0.1-208.6,0.1-312.9,0
		C51.1,159.5,51.4,157.2,51.5,156 M51.7,164.7c103.8,0,207.6-0.1,311.4,0c-12.5,77.7-24.4,155.4-36.7,233.1
		c-6.1,29.2-8.6,60.3,1.2,89c5.9,18.5,19.9,34.6,38.1,41.7c14,5.4,27.3,13.5,36.8,25.3c5.2,6.5,9.2,14.6,8.5,23.1
		c-0.1,8-6.6,14.9-14,17.1c-7.7,1.4-16,1.6-23.2-1.8c-18.2-6.6-39.6-10.3-57.4-0.6c-11.5,5.6-19.5,18.3-17.5,31.3
		c3,20,21,36.4,40.8,38.9c87,0.1,174-0.1,260.9,0.1c0,5.2,0,10.3,0,15.5c-29,0.9-58.1,0.1-87.1,0.4c-168.7-0.1-337.3,0.2-506-0.1
		c-0.2-5.3-0.2-10.5,0.2-15.8c72.9,0,145.9,0,218.8,0c8.3-0.1,16.8,0.6,25-1c-1.5-0.9-3.1-1.6-4.8-2c-37-4.6-71-25.2-94.3-54
		c-26-31.7-39.9-71.4-47.7-111.2C86.7,384,69.7,274.3,51.7,164.7 M188.5,254.8c-0.1,14.3-0.7,28.5-0.3,42.7
		c6.7-1.4,13.6-2.3,20.5-2.9c4.4-11.7,8.2-23.7,12.7-35.4c1.5-3.5,2.3-8.1-0.9-11c-5.2-4.7-12.9-3.9-19.5-3.8
		C195.1,244.3,187.9,248,188.5,254.8 M151.9,261.5c-2.8,3.5-1.8,8.2,0.2,11.9c5.3,10.6,10.3,21.3,15.5,31.9c6-2.1,11.6-5.1,17.4-7.8
		c-0.6-14,0-28.1-1-42.1c-0.9-6.2-8.4-4.8-12.9-4.3C164.1,252.8,156.7,255.7,151.9,261.5 M231.5,251.6c-4,1.8-5,6.3-6.4,9.9
		c-3.8,11-8.5,21.7-11.9,32.9c6,1.4,12.1,2.9,18.2,4c7.2-7.4,12.8-16.2,19.5-24.1c3.2-3.9,7.3-8.6,5.1-14
		C251.9,251.9,240.2,247.6,231.5,251.6 M257.6,273.1c-7.8,8.4-14.3,17.8-21.6,26.6c4,3.9,7.8,7.9,11.3,12.2c9-4.7,18-9.4,26.9-14.3
		c4.9-2.8,9.6-7.9,8.9-14c-1.8-6.1-6-11.6-11.4-14.9C266.5,266.8,260.9,269.2,257.6,273.1 M130.9,277.2c-5.8,5-7.4,12.8-7.8,20.1
		c9.4,8.9,19.8,16.7,29,25.7c4.2-4.7,8.2-9.5,12.3-14.2c-4.2-12.7-11.3-24.2-16.7-36.3C141.9,272.8,135.7,273.6,130.9,277.2
		 M104.3,321c4.1,4.3,10,6.1,15.2,8.8c8.5,3.6,16.2,9,25.2,11.3c2-4.8,3.9-9.6,5.7-14.5c-7.2-6.8-15.1-12.9-22.4-19.5
		c-3.5-2.8-6.9-6.6-11.5-7.1C106,298.4,99.6,312.9,104.3,321 M183.4,305.7c-6.1,2.9-5.4,10.9-3.2,16.2c3.7,8.6,9.9,16.6,17.9,21.5
		c4.9-0.6,9.3-3.2,14-4.8c-0.5-8.4-4.4-16.2-4.1-24.7c0-4.1-0.1-8.2-0.7-12.3C199.2,301.8,190.9,302.5,183.4,305.7 M213.3,303.7
		c-0.8,11.5-2.3,24.9,5.4,34.5c5.3,1,10.8,0.3,16.1,0.2c0.4-8.1,2.9-15.9,6.8-23C235.6,306.1,223.8,302.7,213.3,303.7 M153.9,332
		c-1.9,5.7,3.6,10.4,7.7,13.4c7.9,5.2,16.8,10.6,26.5,10.4c2.7-2.7,4.8-5.9,7-8.9c-4.9-5.2-10.6-9.8-14.6-15.8
		c-3.6-5.5-6.6-11.3-9.9-16.9C162.2,316.5,157,324.4,153.9,332 M101.3,330.5c-4.8,3-6,8.9-6.6,14.1c-0.4,3.5-0.1,8,3.3,10
		c9.6,3.8,20,3.4,30,5.6c4.9,1.1,9.9,1.8,14.9,2.6c0.1-5.6,0.5-11.1,0.6-16.7c-9.9-4.8-20-9.1-30.1-13.4
		C109.6,331.3,105.5,329.2,101.3,330.5 M151.2,342.3c-3,8.6-2.6,18-0.6,26.8c1.1,4.1,2.8,8.5,6.7,10.8c10.4,1.2,20.6-1.7,31-2.1
		c-0.2-5.9-0.3-11.9-0.1-17.9C174.6,357.2,160.8,352.8,151.2,342.3 M202.3,350.2c-7.2,5.5-9.5,15.5-7.4,24
		c1.2,5.8,5.3,10.4,9.2,14.6c7.3,7.7,13.8,16,21.1,23.7c26.9,28.1,53.4,58,68.3,94.5c10.6,27.2,13.3,56.9,12.9,85.9
		c5.3-3.6,10.7-7.5,17-8.9c8.7-2.8,18.1-2.1,27-0.9c-6-13.6-8.4-28.4-12.6-42.6c-9.1-29.6-19.7-58.9-35-85.9
		c-18.4-29.1-41.6-54.9-58.4-85c-4.6-8.1-7.1-17-9.2-26C223.9,342.3,211.7,343.3,202.3,350.2 M102.9,365.5c-4.8,4.6-4.5,12-3.5,18
		c1.6,5.1,7.9,4.8,12.2,4.9c13.4-0.6,26.8-0.5,40.1-0.5c-3.2-6.8-6.9-13.5-8.9-20.8c-9.2-1.7-18.7-2.3-28-3
		C110.9,364,106.5,363.5,102.9,365.5 M162.8,384.2c-5.8,7.1,3,18.7,11.4,16.5c9-0.9,17.6-3.9,26.5-5.2c-3.8-4.8-7.4-9.8-11.6-14.2
		C180.3,380.4,171.7,383.9,162.8,384.2 M127.6,393.3c-6.4,0.6-13.1,0.3-19,3.4c-2.8,0.9-2.6,4.1-2.1,6.4c1.3,5,4.8,9.2,9.1,12
		c16.1-1.2,31.8-5.7,47.3-10.3c-3.9-4.5-6.8-9.6-10.1-14.4C144.2,390.1,136,392.7,127.6,393.3 M177.8,404c-2.5,0.8-6,2.2-5.4,5.5
		c0.3,7.2,7.7,14.2,15.1,11.8c9.6-2.5,19.3-4.5,28.5-8.3c-3.6-4.9-7.5-9.5-11.7-13.9C195.4,400.1,186.6,402.3,177.8,404
		 M133.5,417.2c-4.1,1.4-9.5,1.4-12.1,5.5c-0.9,5.3,2.4,10.7,6.8,13.3c3.8,2.9,8.5,0,12.5-0.9c11.5-3.8,23.2-6.8,34.7-10.3
		c-5-3.8-8.8-9-10.5-15.1C154.3,411.3,144,415,133.5,417.2 M196.8,422.7c-3.2,1.1-8.1,2.2-8,6.5c-0.9,5.2,3.5,9.9,8.1,11.7
		c4.6,0.1,8.9-2.1,13.4-3.1c7.7-2.4,15.7-3.4,23-6.9c-4.4-4.4-7.7-10.2-13.3-13.2C212,418.1,204.4,420.8,196.8,422.7 M150.8,437
		c-4.4,1.3-9.6,1.5-12.7,5.3c-2.6,6.9,4.1,15.7,11.5,13.5c13.8-3.8,27.5-7.7,41.1-12.2c-5.7-3-8.3-9-9.3-15.1
		C171,430.8,160.9,434.1,150.8,437 M207,442.6c-5,3.7-2.8,12,1.9,14.9c4.5,1.8,9.5,0.4,14-0.7c8.4-2.6,16.7-5.1,25.2-7.6
		c-3.4-5.4-7.7-10.2-12.4-14.4C226.2,437.6,216.5,439.9,207,442.6 M158.3,457.5c-6.5,1-6.1,9.4-2.8,13.5c3,4.5,9.1,3.3,13.5,2.2
		c12-3.5,23.9-7.1,35.9-10.6c-4.1-4.4-7-9.6-9.1-15.2C183,449.6,170.8,454.1,158.3,457.5 M220.1,462.1c-2.8,4.9-1,12.7,4.6,14.7
		c4,1.5,8.1-0.3,12-1.3c8.6-2.9,17.5-4.8,25.9-8.3c-3.7-5-7.8-9.7-12.1-14.2C240.2,455.4,229.9,458.1,220.1,462.1 M168.4,477.5
		c-0.1,4.1-1.5,9.1,1.6,12.5c3,4.1,8.8,2.9,13.1,2c12.3-3.4,24.3-7.5,36.7-10.6c-4.7-4.3-7.8-9.8-10.6-15.4
		C195.5,469.2,182,473.5,168.4,477.5 M233.2,480.3c-1.5,5.2-1.4,11.5,3.5,14.9c4.9,1.8,10.3,0.4,15-1.4c7.7-2.9,15.9-4.1,23.2-7.7
		c-2.7-5.4-5.9-10.5-9.4-15.5C254.7,473.7,244.1,477.4,233.2,480.3 M182.4,496.3c-2.8,5.3-1,12.5,4.7,15.1
		c5.4,1.3,10.6-1.4,15.7-2.7c9.7-3.3,19.8-5.2,29.3-9.2c-4.4-4.4-6.7-10.2-6.3-16.5C211.4,487.8,196.6,491,182.4,496.3 M246.4,499.5
		c-6.1,3.2-3,11.6,1.5,14.9c4.9,2.3,10.3,0.5,15.1-1.2c6.6-2.4,13.4-3.9,20-6.1c0.4-0.5,1.1-1.6,1.4-2.1c-1.4-5.5-4.5-10.3-7.2-15.3
		C267,493.3,256.5,495.7,246.4,499.5 M199.9,513.4c-2.6,1-6,1.4-7.3,4.3c-2.1,4.4,0.7,9.6,4.4,12.3c3.4,2.1,7.5,0.8,11.1,0
		c11.8-3.6,23.8-7,35.7-10.4c-4.3-4.8-7.5-10.6-7.1-17.2C224.6,506.6,212.2,509.7,199.9,513.4 M260.1,517.9
		c-3.2,0.9-7.8,2.2-7.5,6.4c-1.2,7,6.5,14.2,13.3,11.1c8.6-2.8,17.2-5.6,25.8-8.3c-0.8-5.9-2.5-11.5-4.9-16.9
		C277.7,512.1,269.1,515.5,260.1,517.9 M206.2,534.2c-7.1,1.8-5.4,12.6-0.1,15.5c4.3,2,9.2,0.6,13.6-0.5
		c11.5-3.6,23.1-6.9,34.7-10.3c-2.4-2.1-5.2-4-7-6.8c-1.3-2.9-1.3-6.1-1.9-9.2C232.3,526.3,219.4,530.8,206.2,534.2 M261,541.3
		c-4.5,5.9,0.7,16.9,8.5,15.4c9.3-1.1,17.9-5.5,27.1-7.5c-0.8-6-2.2-12-3.4-18C282.6,534.9,271.5,537.3,261,541.3 M215.7,554.7
		c-2.6,1.2-6.6,1.4-7.1,4.9c-1.3,5.3,2.2,12.9,8.4,12.8c5.5-0.1,10.6-2.4,15.9-3.7c8.8-2.9,17.9-4.8,26.4-8.5
		c-4.2-4.5-6.9-10.2-6.7-16.5C240.4,547.7,228,551.2,215.7,554.7 M270.8,560.7c-2.5,1.1-6.1,1.9-5.9,5.3c-1.7,6.8,5.2,14.4,12.2,12
		c7.5-2,14.7-4.9,22.1-7.2c-0.6-6-1.5-12-2.6-17.9C288.2,556,279.5,558.1,270.8,560.7 M221.9,575.7c-3.1,1.1-8.4,1.8-8.1,6.1
		c-1,5.1,2.7,9.9,7,12.1c3.8,0.5,7.4-1.1,11-2.2c11.4-3.7,23-6.5,34.3-10.3c-5.4-3.6-8.1-9.6-8.3-16
		C245.6,568.2,234,572.8,221.9,575.7 M271.5,583.7c-9.4,3.1-2.9,18.9,6,17.1c7.4-1.7,14.4-5,21.8-7c0.2-6.2,0.3-12.4,0.1-18.5
		C290.1,578,280.7,580.4,271.5,583.7 M233.7,595.2c-6.1,1.8-12.4,2.9-17.9,6.1c0.4,3.7-0.5,8.1,2.3,11.1c2.3,2.3,5.7,4.6,9.1,3.3
		c14-4,28-8.2,42-12.4c-2.3-1.6-5-2.9-6.8-5.1c-1.7-3.2-1.9-6.9-2.6-10.4C251,589.7,242.4,592.8,233.7,595.2 M272.1,606.4
		c-7.4,3.2-3.2,14,2.9,16.2c5.2,1.3,10.2-1.2,15-2.8c2.1-0.9,5-1.7,5.4-4.3c1.4-5.8,2.3-11.8,4.3-17.4
		C290.7,601.4,281,602.9,272.1,606.4 M221.4,621.4c-8.6,3.5-2.8,16.9,5.2,16.9c2.9-0.1,5.6-1.1,8.4-1.9c11.5-3.8,23.5-6.1,34.7-10.8
		c-5.7-3.2-8-9.1-8.3-15.3C247.9,613.5,234.8,618,221.4,621.4 M406,333.8c13.6-9,30.6-11.3,46.6-9.5c6,0.7,11.6,3.1,16.5,6.4
		c-4.7,2.6-7.8,6.9-10.7,11.3c-6,1.1-6.8-7.8-12.2-8.9c-7.1-1.2-14.3,1.3-20.7,4.3c-4.7,2.4-9.8,6.8-8.9,12.7
		c1.2,7.8,6.3,15,13.3,18.7c1.9,0.9,5,3.3,2.1,5.1c-7.7,7.1-14.9,17.1-11.7,28.2c1.4,5.1,7.6,4.3,11.6,5.2c-0.2,1.3-0.4,2.6-0.5,3.9
		c-3.5,1.8-6.8,3.8-10,5.9c1.6,6.6,7.2,10.4,12.6,13.8c-3.6,0.4-7.1,0.7-10.7,1c0.4,3.6,0.3,7.7,3.1,10.4c3.2,4.3,8.7,5.2,13.7,6
		c-2.6,2-7,3.2-6.9,7.1c3.3,7.6,12.9,5.2,19.5,5.9c-1.6,2.5-3.2,4.9-4.7,7.4c6,1.7,12.3,2.1,18.5,2.9c4.3,35.5,6.5,71.2,10.7,106.7
		c0.8,10.6,1.3,21.3,3.6,31.7c-9.7-3.6-19.8-6.4-30.2-7c-10.7-2.4-21.7-2.6-32.6-2.9c3.5-11.4,5.6-23.6,2-35.3
		c-3.5-11.9-12-22.1-22.5-28.4c-17.8-11.2-40.5-14.7-55.2-30.8c-9.7-9.8-12.6-24-12.8-37.4c0.8-30.8,12.4-60.6,29.4-86.1
		C371.5,363.7,386.9,346.3,406,333.8 M472.5,336.4c4.2-2.4,9.6-0.8,12.8,2.5c8.4,8,21.1,11.9,25.6,23.5c-7-4.7-14-9.3-21.3-13.5
		c-5.2-4.2-12.5-4.9-18.6-2.8c-8.3,4.9-12.1,14.5-19.2,20.7c-4.6,2.6-10.7,2.2-15.6,0.5c-7-3.9-12.4-11.4-13.1-19.4
		c4-5.3,10.3-9.6,17.2-8.6c6.9-0.2,10.8,6.3,14.8,10.9C461.8,347,466.3,340.6,472.5,336.4 M459.6,374.4c0.2-10.7,8.3-24.1,20.4-22.7
		c3.8-0.3,5.5,3.5,7.6,5.9c7.6,0.2,16,1.9,20,9.2c-6.4,0.7-13.4,1-18.8,5.1c-5.8,3.7-9,10.3-14.8,14.1
		C466.9,388.6,458.4,382,459.6,374.4 M466.7,380c4.8,3.2,9.3-1,12.6-4.2c-2.8-1.2-6.1-1.7-8.3-3.9c-1.8-2.8-2.4-7.1-0.1-9.8
		c2.8-3.5,8.9-2.1,11.1-6.3C469.4,353.4,459.9,370.2,466.7,380 M474.8,364.3c-1.9,4.1,3.1,7.6,6.8,7.8c6.2-2.4,11.9-6,17.8-9
		c-4.3-1-8.7-1.2-13.1-0.7c-1.5,3.2-2.9,7.1-7.1,7.2c-0.1-2.8-0.1-5.7-0.2-8.5C477.6,362.2,475.4,362.6,474.8,364.3 M429.2,385.6
		c5.4-7.8,14.3-12.4,23.3-14.8c-4.3,22.3-0.8,46.6,11.8,65.7c4.7,7.5,11.8,13,18.1,19.2c-4.3,6-11,9.7-18.4,10.4
		c-0.6-0.5-1.8-1.5-2.5-1.9c1.2-3.8,2.9-7.4,4.3-11c-6.9,1.1-13.8,2.9-20.8,3.1c3.5-5.5,8.9-10.5,8.4-17.6c-6,2.3-12.6,3.6-18.9,1.7
		c4.7-4.7,11.7-8.5,12.5-15.8c-5.6-0.6-11.2-1.4-16.7-2.5c4.9-6.4,11.5-12.5,11.2-21.3c-5.1,0.2-10.2,0.2-15.2-1
		C426.5,395,426.2,389.7,429.2,385.6 M495,373.5c5.4-2.7,11.6-1.9,17.4-1.6c-6.4,2-14,1-19.2,5.9c-7.5,6.4-4.8,18.1-11.7,25.1
		c-3.8,4.7-10.2,4.3-15.5,3.4c0.2-3.6-1.1-8,1.7-10.9c4.1-4.5,9.5-7.4,14-11.4C486.1,380.5,489.9,376.1,495,373.5 M504.8,376.5
		c11.1-4.4,21.6,3.6,32.6,4.5c-0.4,5-1.5,10-3.3,14.7c-5.3-3.5-7.3-10-12.3-13.9C517.1,377.9,510.6,377.9,504.8,376.5 M500.8,387.2
		c5.6-4.5,15-5.1,19.9,0.7c3.9,4.1,5.3,9.8,6.4,15.1c-7,1.6-13.9,3.5-20.8,5.6c-7.9,2.4-16.2,1.7-24.3,2.2
		C489.3,403.9,492.5,393.4,500.8,387.2 M508.1,413.8c7.6-1,14.2-5.2,21.4-7.5c-2.6,7.5-6.8,14.3-12.3,20.1c-2.8-2.9-5.2-7.6-9.9-7.1
		c-9.6-0.4-20.4-1.1-28.7,4.6c-6.3,5.1-3,15.7,4.4,17.5c5.8,1.1,12,1.4,17.8-0.1c5.2-3.2,8.7-8.7,14.1-11.6
		c-2.9,6.2-7.9,11.4-9.4,18.3c-1.1,3.4-1.2,7.4-3.8,10.1c-3.5,4.3-9.9,3.5-14.5,1.8c-2.2-3.2-2.5-7.2-4.1-10.6
		c-4.2-3.7-9.7-6.3-12.3-11.5c-3.4-5.7-2.6-14.5,3.7-17.9C484.7,414.1,497,416.4,508.1,413.8 M482.6,427c7-4,15.5-3.4,23-1.5
		c3.2,0.4,1.2,4.5,1.5,6.5C499.4,428.3,491,427.4,482.6,427 M332,601c14-7.3,30.6-3.5,44.9,0.9c8.5,3.1,17.6,2,26.4,3.3
		c12.7,2.5,25.9,1.8,38.6,4.4c12.5,0.6,25,2.3,36.9,6.4c9.1,3.4,18.8,3.9,28.4,3.6c7.6,0.3,13.1-6.4,20.6-6.8
		c4.8-0.7,8.8,3.4,13.6,2.9c3.1,0.1,6.9-0.8,9.3,1.8c2.6,3.5,4,7.7,6.5,11.3c4.3,3.2,10.6,3.8,13.7,8.6c3.6,5.4,6.6,11.2,8.7,17.4
		c-1.4,0.1-4.1,0.2-5.5,0.3c-7.5-8.5-15.2-16.8-22.2-25.7c-1.9-2.5-4.2-4.6-6.6-6.6c0.4,4,1.7,7.7,3.2,11.4
		c-4.4-4-8.3-8.5-12.7-12.6c-2.1-2.5-5.7-1.6-8.6-2c-0.9,7.9,8,12,7.7,19.6c-7.8-0.4-13.8-6-21-8.4c-8.8-3-18.2-3.8-27.5-3.8
		c-6.7,0.2-12.5-3.8-18.7-5.5c-13.3-3.6-27.1-5.1-40.9-5.8c-15.1-2.4-30.4-1.1-45.6-1.8c-10.8-0.3-20.9-5.5-31.7-5.7
		c-5.9,0.9-12.3,2.1-16.7,6.4c-6,6.7-4.5,17.5,1.1,23.9c5.2,5.9,13.2,8.1,20.7,9.5c15.2,1.4,30.5-0.1,45.7,0.3
		c15.5,0.4,30.7-2.5,46.2-2.1c11-0.6,21.9,0,32.9,0.4c-0.4-0.9-1.3-2.6-1.8-3.4c-8.3-3.6-17.4-4.1-26.3-4.4
		c-24.9-0.5-49.9-0.5-74.8-0.3c-8.5,0.1-18.7,2.3-25.2-4.6c-3.7-3.1-4.7-9.6-1-13c10.4-3.4,21.5-0.7,32.1,0.3
		c16,3.3,32.5,1.1,48.6,4.3c13.9,1.4,27.7,3.9,41.4,7.1c17.9,3.9,38.3,1.1,53.4,13.4c4.4,4.1,9.9,6.3,16,5.7
		c0.1-4.3,0.4-8.5,0.9-12.7c5.2,1.3,10.2,3.2,15.2,5c6.1,2.2,9.6,8.2,12,13.9c-70.9,1-141.8,0-212.7-0.1
		c-11.5-1.2-23.9-3.3-32.9-11.2c-8.3-7.1-11.3-19.3-8.3-29.6C318.3,609.3,325.1,604.2,332,601 M7.2,685.3c0.7-4.2,5.7-3.2,8.9-3.6
		c180.7,0,361.4,0,542.1,0c14.1,0.4,28.3-0.9,42.4,0.9c0,1,0.1,2.9,0.2,3.8c-195.4,0.3-390.9-0.1-586.3,0.2
		C12,686.3,9.1,687.2,7.2,685.3 M519.8,699.5c2.1,0.2,4.2,0.4,6.3,0.6c1.1,3,1.2,6.2,0.5,9.4c-2.9-0.1-5.8-0.2-8.7-0.3
		C516.9,705.7,517.7,702.4,519.8,699.5 M56.7,703.7c5.4-0.1,10.8-0.1,16.2-0.2c0.6,12.9-0.9,25.8,1,38.6c8.8,1.4,17.8,1.3,26.7,0.6
		c20.6,0.4,41.3,1.2,61.9-0.2c-0.1-1.1-0.2-3.2-0.3-4.3c-2.8-1.5-5.6-3.3-8.9-3.1c-17.6-0.1-35.2,0.1-52.7,0
		c-4.7-0.4-10.6,0.1-13.6-4.4c-3.8-5.6-1.5-12.7-1.2-19c-1.3,1-2,2.4-2.1,4c-0.3,5.7,0.5,11.5,1.5,17.1
		c-12.4-3.5-10.3-21.6-0.8-27.3c5.4-4.6,12.6-1.3,18.8-0.8c-1.3,2.9-2.8,5.9-3.1,9.1c1.4,2.7,3.8,5.1,7.1,4.8
		c18.1,0.5,36.3-0.3,54.4,0.3c6.8,0.1,13.2,4.4,16.5,10.2c2.9,8.2,1.5,17.2,1.8,25.7c-4.5,0.5-9.1,1.1-13.7,1c-25.5-0.1-51,0-76.5,0
		c-9.5,0-19.3,0.7-28.5-2.3c-3.7-1.4-4.6-5.8-4.4-9.3C56.6,730.8,56.5,717.2,56.7,703.7 M547.6,703.5c5.5,0,10.9,0,16.4,0
		c0.2,12.6-0.1,25.2,0.2,37.9c8,2.5,16.3,2.1,24.5,0.9c0.7-7.7,0.5-15.5,0.3-23.3c5.3-0.2,10.6-0.2,15.9-0.1
		c0.1,12.1,0.6,24.2-0.3,36.3c-10.1,1.3-20.3,0.7-30.5,0.8c-7,0.1-14.1-0.3-21-1.9c-5.3-0.7-5.4-7.1-6.1-11.2
		C546.4,729.7,546.3,716.6,547.6,703.5 M211.8,703.9c5.6-0.4,11.2-0.4,16.8,0c0.7,12.7-0.1,25.4,0.5,38.1c3.4,0.4,6.8,0.8,10.2,1.1
		c0.8-8.1,0.8-16.2-0.2-24.3c5.3,0,10.6,0,15.9,0.3c2.5,7.5,2.3,15.5,2.3,23.3c2.5,0.1,5,0.2,7.5,0.4c0.9-8,0.9-16.2-0.8-24.1
		c5.5,0,11.1,0.1,16.6,0.4c1.7,7.5,1.1,15.2,1.2,22.8c2.8,0,5.7,0,8.5,0c0-7.7,0.3-15.5-0.9-23.2c5.3,0.1,10.8-0.6,15.9,0.9
		c2.2,2.9,1.7,6.7,1.9,10.2c0,8.4-0.1,16.7,0,25.1c-9.8,1.5-19.8,0.9-29.7,0.9c-16.5-0.2-33,0.3-49.5-0.2c-5.9-0.8-15.1-0.4-16-8.3
		C210.8,733,211.6,718.4,211.8,703.9 M312.8,703.8c5.5-0.3,10.9-0.3,16.4,0c0.5,12.5,0.2,24.9,0.2,37.4c10.5,1.9,21.2,0.8,31.8,0.8
		c0.2-7.6,0.2-15.3,0-22.9c5.4-0.3,10.9-0.3,16.3-0.1c-0.2,12-0.1,24-0.1,36c-10.3,1.5-20.8,0.8-31.2,0.9c-9.5,0-19.3,0.6-28.5-2.2
		c-4.1-1.7-4.9-6.8-4.9-10.8C312.5,729.9,312.5,716.8,312.8,703.8 M417.5,709c3.4-4.1,9.3-3.7,14-4.9c-2.6,4.6-4.7,9.9-0.7,14.4
		c19.1,0.7,38.2-0.1,57.3,0.4c7.3-0.2,14.5,4.1,18,10.4c1.7,4,1.5,8.4,1.9,12.6c5.7,0.3,11.4,0.3,17.1,0c0.2-7.7,0.2-15.3,0-22.9
		c5.5-0.2,11-0.2,16.6,0c-0.1,12,0,24-0.1,36c-8.3,1-16.7,1.6-25,0.5c-3.1-0.4-5.5-2.6-7.8-4.4c-1.9,2.6-4.4,5.2-8,4.8
		c-25,0.1-50-0.1-75,0.1c-5.3,0.1-10.5-0.3-15.7-0.9c0-4,0-8,0-11.9c16.4,0.1,32.8-0.3,49.2,0c10.5-0.7,21.1,0.4,31.5-1.1
		c0-1-0.1-2.9-0.2-3.9c-2.8-1.5-5.6-3.3-9-3.1c-17.6-0.1-35.2,0.1-52.7,0c-4.8,0-10.2-0.4-13.3-4.5
		C409.7,724.6,412.4,714.7,417.5,709 M13.5,719.1c8.8-0.9,17.7-1.1,26.5-0.3c5.8,0.3,10.1,5.9,10.5,11.4c0.6,8.2,0.1,16.5,0.2,24.8
		c-10.4,1.4-21,0.9-31.4,0.8c-4-0.4-8.5-0.5-11.7-3c-2.4-3.7-1.8-8.4-2.3-12.6c9.9,2.9,20.5,2.1,30.7,1.5c-0.6-2.4-1.5-5-4.1-5.7
		c-6.1-1.4-12.4-0.3-18.3,1.1C13.3,731.2,13.3,725.1,13.5,719.1 M190.5,718.7c5.3-0.3,10.6-0.4,15.8-0.2c0.3,11.8,0.3,23.6,0.2,35.4
		c0.3,6.5-5,11.4-10.5,14c-5.4,3.1-11.9,2.1-17.7,0.7c3.1-2.5,6.6-4.6,9.2-7.7c2.9-3.8,3.1-8.8,3.1-13.4
		C190.6,738,190.5,728.4,190.5,718.7 M338.3,760.3c3.9-0.7,7.7,0.1,10.8,2.6c2.7-2.3,7.4-4.9,9.9-1.1c2.3,2.8-0.2,5.7-2.2,7.9
		c-2.9,0.7-5.4-1.3-7.9-2.5c-3.1,1.8-6.6,2.8-10.3,2.5C338.5,766.5,338.4,763.4,338.3,760.3 M363.4,759.9c2.4,0,4.7,0,7.1,0.1
		c0.9,3.2,0.8,6.5-0.5,9.6c-2.1,0.1-4.2,0.2-6.3,0.3C361.4,766.7,361.2,763.2,363.4,759.9 M580.6,760.4c3.1-0.1,6.1-0.1,9.2-0.1
		c0,3-0.2,6.1-0.3,9.1c-2.9-0.3-7.2,1.6-8.5-2C579.8,765.3,580.8,762.7,580.6,760.4 M7.2,786.5c197.8-0.1,395.6,0,593.3,0
		c0,1.6,0,3.3,0,4.9c-197.8,0-395.6,0.1-593.4,0C7.2,789.8,7.2,788.1,7.2,786.5L7.2,786.5z"/>
</g>
</svg>
