<?xml version="1.0" encoding="utf-8"?>
<!-- Generator: Adobe Illustrator 21.0.2, SVG Export Plug-In . SVG Version: 6.00 Build 0)  -->
<svg version="1.1" id="Layer_1" xmlns="http://www.w3.org/2000/svg" xmlns:xlink="http://www.w3.org/1999/xlink" x="0px" y="0px"
	 viewBox="0 0 612 792" style="enable-background:new 0 0 612 792;" xml:space="preserve">
<style type="text/css">
	.st0{fill:#008840;stroke:#008840;stroke-width:6.9449;}
</style>
<g id="__x0023_Layer_x0020_3">
	<path class="st0" d="M394,132.5c13.7,17.9,25,39,41.8,61.1c7.3,6.9,16.2,9.7,35.3,13.3c26.8,5.1,38.1,21.2,52.3,36.7L490.9,275
		c-22.2-23.5-43.7-56.8-73.2-56.4c-10.5-2.2-37.1-13.5-46.7-26.5c-14-19.4-33.5-43.9-53.6-71.1c-14.8,0.5-29.4,1-44.2,1.6
		c31.8,42.1,56,93.4,95.9,98.9c47.6,5.5,67.5,52.3,93.9,79.8c-12.9,12.3-25.9,24.6-38.8,36.7c-32.7-40.8-65.8-102-104.9-104.2
		c-54.8-12.9-74.8-62.6-103.6-99.8l-32.2,11.5c44.5,53.9,49.4,79.4,99.3,90.2c52.2,14.4,87.5,86.3,117.7,124.6
		c-14,13.3-28.4,26.9-42.4,40.1c-36.9-58.2-80-136.5-116-149.2c-66.7-10.6-77.4-49-105.5-81.1c-10.1,6.7-20.1,14.1-30.3,21.8
		c20.8,23.7,33.2,38.3,55.3,47.7c18,7.6,35.7,11.5,48.4,20.4c49.4,36,73.5,92.6,123.6,164c-16.3,15.6-32.7,31-49,46.6
		c-41.5-66-78.3-160.2-132.5-203c-18.8-14.9-28.4-9.9-44.1-14.8c-13.6-4.2-25.9-14.3-37.3-25.4c0,0-131.7,132.7-17.4,313.6
		C171.6,708.2,436,724,568.8,530.3c33.1-46.2,63.6-170.8-2.7-272.8C534.5,208.7,482.8,156.7,394,132.5z"/>
</g>
</svg>
