<?xml version="1.0" encoding="utf-8"?>
<!-- Generator: Adobe Illustrator 21.0.2, SVG Export Plug-In . SVG Version: 6.00 Build 0)  -->
<svg version="1.1" id="Layer_1" xmlns="http://www.w3.org/2000/svg" xmlns:xlink="http://www.w3.org/1999/xlink" x="0px" y="0px"
	 viewBox="0 0 612 792" style="enable-background:new 0 0 612 792;" xml:space="preserve">
<style type="text/css">
	.st0{fill:#004B83;}
</style>
<g id="__x0023_Layer_x0020_3">
	<g id="_908021312">
		<path class="st0" d="M62.2,221.4l166.6,1.1v2.5c-106.6,38-146.6,176.1-27.9,249.5c70.8,0,141.5,0,212.4,0
			c101.8-55,104.4-188.4-23.4-249.3v-2.5l162.2-0.1c36,48.6,82.5,158.3-0.8,268.5c-161.5,0-321.2,0.5-482.7,0.5
			C-1.6,409.3-4.2,301.7,62.2,221.4z"/>
		<path class="st0" d="M158.5,146H334c49.8,74.6,79.9,155.2,2.8,271.8c-52,0-103.8,0-155.7,0C313.9,347.5,285.9,193.5,158.5,146z"/>
		<circle class="st0" cx="304.3" cy="576.4" r="69.6"/>
	</g>
</g>
</svg>
