<?xml version="1.0" encoding="utf-8"?>
<!-- Generator: Adobe Illustrator 21.0.2, SVG Export Plug-In . SVG Version: 6.00 Build 0)  -->
<svg version="1.1" id="Layer_1" xmlns="http://www.w3.org/2000/svg" xmlns:xlink="http://www.w3.org/1999/xlink" x="0px" y="0px"
	 viewBox="0 0 612 792" style="enable-background:new 0 0 612 792;" xml:space="preserve">
<style type="text/css">
	.st0{fill:#4B4B4D;}
	.st1{fill:#29166F;}
</style>
<path id="_x31_0" class="st0" d="M152.4,38.4c0.3,0,0.6,0.1,0.8,0.4c0.3,0.2,0.4,0.5,0.4,0.9c0,0.3-0.1,0.6-0.4,0.8
	c-0.2,0.3-0.5,0.4-0.8,0.4c-0.4,0-0.6-0.1-0.9-0.4c-0.2-0.2-0.3-0.5-0.3-0.8c0-0.4,0.1-0.6,0.3-0.9
	C151.8,38.5,152.1,38.4,152.4,38.4z"/>
<g>
	<path class="st1" d="M305.3,200.6c47.1,0,86.3,33.3,95.5,77.7V111.1c-13.7-48.9-49-72.1-109.7-63.7c29-14.6,68.7-24.9,109.7-26.3
		V21h6h28.3c79.8,0,145.2,65.3,145.2,145.3v404.1H400.8V318c-9.1,44.5-48.4,77.7-95.5,77.7s-86.5-33.3-95.6-77.7v162.4
		c13.7,48.9,49.2,72.1,109.7,63.7c-29,14.6-68.6,24.9-109.7,26.2v0.1h-5.9h-28.3c-80,0-145.3-65.3-145.3-145.2V21h179.5v257.3
		C218.9,233.9,258.3,200.6,305.3,200.6z"/>
	<path class="st1" d="M540,756.3c0.3,1.4-0.4,3.7-1.7,6.3c-1.6,3.1-3.1,4.8-4.6,4.8c-1-0.9-2.5-2-4.3-3.4c-2-1.4-2.9-2.5-2.9-3
		l0.3-0.5c0.5-1.2,1.6-3.4,3-6.5c0.4-0.8,1.2-2.3,2.6-4.7l0.7-0.8c0.3,0.4,0.9,0.9,1.8,1.4c1.7,1.2,2.7,2.1,3.1,2.7
		C539.1,753.8,539.6,755.1,540,756.3z M534.1,697.3v2c0,6,2.3,9,7.2,9c1.4,0,2.9-2.2,4-6.4c0.3-0.8,0.5-1.2,0.8-1.2
		c0.5,0,0.7,0.4,0.7,1.3c0,0.7-0.1,1.7-0.5,3.4c-2.5,11.1-5.7,16.7-10,16.7c-5.2,0-7.8-4.7-7.8-14.3c0-6.1,1.3-17.2,3.9-33.3
		c0.7-2.3,2.5-6.8,5.5-13l0.5-0.3c0.1,0.3,0,0.9-0.1,2.1l-0.5,3.5l-2.3,16.6C534.5,689.2,534.1,693.8,534.1,697.3z M112.3,714
		c-0.8,3.7-1.4,6.3-2.1,7.8c-4.3,13.6-11.6,23.1-21.9,28.7c-3.9,2.2-8.3,3.3-13.4,3.3c-5.6,0-9.9-1.7-13-5.2
		c-3-3.5-4.6-8.1-4.6-13.7c0-9,3.8-20,11.5-33.1c0.9-1.6,1.6-2.2,2.1-2.2c0.1,0.1,0.1,0.7,0.1,1.6c-0.3,0.9-0.4,1.6-0.5,2.2
		l-4.6,9.8c-2.1,4.7-3.1,8.7-3.1,12.1c0,9.5,5.2,14.2,15.7,14.2c11.1,0,20-5.1,26.5-15.1c2.1-3.1,3.1-6.8,3.3-11l0.3-9.8
		c0.1-2.6,0.8-5.9,2.2-9.5l2.7-5.3c0.8-1.4,1.3-2.3,1.8-2.7c0.4,0.4,0.7,0.9,0.5,1.7l-0.7,4.7l-0.8,6.8
		C114.3,703.2,113.6,708.1,112.3,714z M95,707c0.1,0.4,0.1,0.9,0.1,1.6c0,1.6-0.5,3.1-1.6,4.7c-2.2,3-3.8,4.7-4.7,4.8
		c-0.3,0-0.7-0.1-1.3-0.7c-2.1-1.4-3.1-2.2-3.3-2.5c-1.3-0.9-2.1-1.3-2.2-1.3c-0.9-0.7-1.4-1.3-1.6-1.8l3.1-7c1-1.8,1.8-3.1,2.6-4.3
		l0.8-1.2c0.7,0.3,1.6,0.8,2.9,1.6c1.6,1.2,2.6,2,3.3,2.6C94.3,704.6,95,705.8,95,707z M131.6,671.3c0.3-0.4,0.7-1,1.2-2.1
		c0.1-0.1,0.4-0.4,0.8-0.8c0.3,0.4,0.4,0.8,0.4,1l-0.7,4.6l-0.9,7.6l-1.4,12.1c-0.7,5-1.7,9-3.3,12.3l-3.1,6.5
		c-1.8,3.8-3.4,5.7-4.4,5.7l-0.4-0.9c2.7-9.5,4.6-17.3,5.2-23.5l1-8.6l1.4-4.2L131.6,671.3z M156.8,759.9c0.3,1.4-0.3,3.7-1.6,6.3
		c-1.7,3.1-3.3,4.8-4.7,4.8c-0.9-0.9-2.3-2-4.3-3.4c-1.8-1.4-2.9-2.5-2.9-3l0.3-0.5c0.7-1.2,1.6-3.4,3-6.5c0.4-0.8,1.3-2.3,2.7-4.7
		l0.5-0.8c0.4,0.4,1,0.9,2,1.4c1.7,1.3,2.7,2.1,3,2.7C155.9,757.4,156.5,758.7,156.8,759.9z M170.7,759c0.3,1.6-0.3,3.7-1.7,6.4
		c-1.6,3.1-3.1,4.7-4.6,4.7c-1-0.8-2.5-2-4.3-3.4c-2-1.4-2.9-2.3-2.9-2.9l0.3-0.7c0.5-1.2,1.6-3.3,3-6.4c0.4-0.8,1.3-2.3,2.7-4.8
		l0.5-0.7c0.4,0.4,0.9,0.8,1.8,1.4c1.8,1.2,2.7,2.1,3.1,2.6C169.8,756.7,170.5,757.8,170.7,759z M171.7,681.1
		c-2.1,7.8-4.6,12.4-7.4,13.8l-5.2,2.6c-2.2,1-4.2,3.4-5.9,7c-1.3,3-2.5,6-3.7,9c-1.7,3.1-3.9,5.2-6.5,6.4c-1.7,0.8-4.3,1.4-7.8,1.8
		c-1.3,0.3-2.3,0.3-3.1,0.3c-1,0-1.8-0.3-2.1-0.8c-0.1-0.7,1.6-2.1,5-4.3c0.7-0.5,2.3-1.4,4.7-3.1c1.7-1,2.7-1.8,3.3-2.1
		c2.6-2,4.4-3.5,5.3-5c0.9-1.3,2.1-3.7,3.4-6.9c1.4-3.3,2.3-5.5,3-6.4c1.2-1.7,2.9-3.3,5.2-4.8c2.7-1.3,4.6-2.3,5.5-2.9
		c0.9-0.7,2.2-2.1,3.8-4.3c1.6-1.8,2.3-2.7,2.5-2.7C172,678.8,172,679.7,171.7,681.1z M188.2,671.3c0.3-0.4,0.7-1,1.3-2.1
		c0-0.1,0.3-0.4,0.7-0.8c0.3,0.4,0.4,0.8,0.4,1l-0.7,4.6l-0.9,7.6l-1.4,12.1c-0.7,5-1.7,9-3.3,12.3l-3.1,6.5
		c-1.8,3.8-3.4,5.7-4.4,5.7l-0.4-0.9c2.7-9.5,4.6-17.3,5.2-23.5l1-8.6l1.4-4.2L188.2,671.3z M239,679c0.3,1.6-0.3,3.7-1.6,6.4
		c-1.6,3.1-3.1,4.7-4.6,4.7c-1-0.8-2.5-2-4.3-3.4c-2-1.4-2.9-2.3-2.9-3l0.3-0.5c0.5-1.2,1.6-3.3,3-6.5c0.3-0.7,1.2-2.2,2.6-4.7
		l0.7-0.7c0.3,0.4,0.9,0.8,1.8,1.3c1.7,1.3,2.7,2.2,3.1,2.7C238.2,676.7,238.7,677.9,239,679z M252.9,678.3c0.3,1.6-0.3,3.7-1.6,6.4
		c-1.7,3.1-3.1,4.7-4.7,4.7c-0.9-0.8-2.3-2-4.3-3.4c-1.8-1.4-2.7-2.5-2.7-3l0.3-0.5c0.5-1.2,1.4-3.4,2.9-6.5
		c0.4-0.7,1.3-2.2,2.7-4.7l0.5-0.7c0.4,0.4,1,0.8,2,1.3c1.7,1.3,2.7,2.2,3.1,2.7C252,675.9,252.7,677.1,252.9,678.3z M229.2,707.7
		c15.4,0,28-2,37.8-6c5.1-2.1,8.3-4.4,10-6.9c0-0.1,0.4-0.7,1-1.8c0.8-1,1.2-1.6,1.4-1.6c0.3,0.7,0.4,1.2,0.4,1.4
		c-0.5,4.3-2.3,8.6-5.5,13c-5.6,7.8-18.1,12.9-37.6,15.3c-5.2,0.7-10,0.9-14.5,0.9c-5.5,0-9.7-0.1-12.4-0.7
		c-8.5-1.3-12.8-5-12.8-10.8c0-1.7,0.5-5.3,1.7-10.8c0.5-3.3,1.2-4.8,1.8-4.8c0.5,0,0.9,1.6,1.2,4.7
		C202.3,705.1,211.4,707.7,229.2,707.7z M296.1,671.3c0.1-0.4,0.5-1,1.2-2.1c0.1-0.1,0.4-0.4,0.8-0.8c0.3,0.4,0.4,0.8,0.4,1
		l-0.8,4.6l-0.8,7.6l-1.4,12.1c-0.7,5-1.7,9-3.3,12.3l-3.1,6.5c-1.8,3.8-3.4,5.7-4.4,5.7l-0.4-0.9c2.7-9.5,4.6-17.3,5.2-23.5
		l0.9-8.6l1.6-4.2L296.1,671.3z M326.7,698.7l-2.2,6.4c-3.3,6.8-8.3,11.9-15.1,15.3c-2.1,1-4.3,1.8-6.4,2.5
		c-0.4,0.1-0.8,0.3-1.2,0.3h-0.9c0.3-1,0.7-1.8,1.3-2.3c1.7-1.8,3.8-3.4,5.9-4.8l7.4-6.5c3.1-2.7,5.2-5,6.3-6.8l2.9-5
		c0.9-1.8,1.7-2.7,2.2-2.7c0.3,0,0.4,0.4,0.3,1.3C327.1,697.2,327,698,326.7,698.7z M334.4,689.1c0-0.4,0.5-1.7,1.6-3.9l3.7-8
		c0.3-0.5,0.8-1.3,1.4-2.2c3.9,3.1,6.3,5.9,7,7.8c1.3,2.3,2,5,2,8.1c0,9.7-3.8,18-11.5,25.3c-1.6,1.2-3.8,2.6-6.5,4.3
		c-1.8,0.9-2.9,1.3-3.1,1l0.1-1.2c0.3-0.7,1.7-2.2,4.2-4.8l4.2-4.4l2.9-3.8c1.6-2.7,2.3-5,2.3-6.7
		C342.7,697.3,339.9,693.5,334.4,689.1z M407.3,694.2c0-1.7-1.4-2.5-4.4-2.5c-1.7,0-3.4,1.3-5.1,3.8l-4,6.4c2.6,0.5,5.3-0.1,8.1-2
		C405.5,697.6,407.3,695.6,407.3,694.2z M363.7,697.3L363.7,697.3L363.7,697.3c0,8.1,3,12.3,9,12.3c3.3,0,5.7-1.3,7.4-3.9
		c2.2-3.7,4-5.3,5.3-5c2.1,0.8,3.5,1.3,4.4,1.3c0.9,0,2.1-1.4,3.8-4.3c0.5-0.8,1.4-2.5,2.9-4.8c3.4-5.2,6.7-8,10-8
		c3.4,0,5.1,1.6,5.1,4.7c0,4.6-2,9.4-5.9,14.3c-4.6,5.6-9.7,8.5-15.3,8.5c-2.9,0-5.7-0.9-8.6-2.5c-0.5-0.1-2,1.6-4.3,5.5
		c-2.7,4.4-6.1,6.7-10.2,6.7c-6.3,0-9.4-4.7-9.4-14.3l0,0c0-6.1,1.3-17.2,3.9-33.3c0.7-2.3,2.3-6.8,5.3-13l0.5-0.3
		c0.1,0.3,0.1,0.9-0.1,2.1l-0.5,3.5l-2.2,16.6C364,689.2,363.7,693.8,363.7,697.3z M519.1,648.5c2.1-2.3,6.4-6,12.5-11l17.3-14
		c3.3-2.7,7.3-6.3,11.9-10.4c1.3-1.2,4.8-4.6,10.7-10.3c6.3-6,9.7-9.4,10.2-9.9c0,0.4-0.1,0.8-0.3,1.2c-1.2,5.3-6.1,12.4-14.7,21.1
		c-4,3.9-10,9.3-18,15.9c-0.4,0.3-7,5.5-20.1,15.7l-9.3,7.3c-3.8,3-5.7,4.3-6,4C514.8,654.3,516.8,651,519.1,648.5z M507.9,697.3
		v0.1l0.1-0.1v2c0,6,2.3,9,7.2,9c1.6,0,2.9-2.2,4-6.4c0.3-0.8,0.5-1.2,0.8-1.2c0.5,0,0.7,0.4,0.7,1.3c0,0.7-0.1,1.7-0.5,3.4
		c-2.5,11.1-5.7,16.7-10,16.7c-5.2,0-7.8-4.7-7.8-14.2c0,0,0,0,0-0.1c0-1.2,0.1-3.7,0.5-7l0.7-6.7c0-0.3,0-0.5-0.1-0.5
		c-0.3-0.1-1.2,0.9-2.9,3.1c-0.5,0.9-1.6,2.5-3.1,4.7c-5.9,7.8-14.5,13.7-25.7,17.6c-9.7,3.5-20,5.2-31.3,5.2h-2
		c-9.1,0-14.9-1.4-17.3-4.3c-1.4-1.7-2.2-4.3-2.2-7.6c0-9,0.8-13.6,2.3-13.6c0.4,2,1.3,4.4,2.6,7.3c2.3,2.7,8.3,4,17.6,4
		c5,0,9.1-0.1,12.4-0.4c12-1,22.2-3.5,30.7-7.6c11.2-5.3,18.1-12.8,20.5-22.4l1.8-7.7c0.1-0.5,1-2.7,3-6.9c0.7-1.6,2-3.7,3.7-6.5
		v2.1c-0.1,0.3-0.4,1.8-0.9,4.6l-2.9,14.2c-0.4,1.8-0.8,5.3-1.2,10.6C508,693,507.9,695.5,507.9,697.3z M528.3,673
		c0.3,1.6-0.3,3.7-1.6,6.4c-1.7,3.1-3.1,4.7-4.6,4.7c-1-0.8-2.5-2-4.4-3.4c-1.8-1.4-2.7-2.5-2.7-3l0.3-0.5c0.5-1.2,1.4-3.3,3-6.5
		c0.3-0.7,1.2-2.2,2.6-4.7l0.5-0.7c0.4,0.4,1,0.8,2,1.3c1.7,1.3,2.7,2.2,3.1,2.7C527.3,670.7,528,671.9,528.3,673z"/>
</g>
</svg>
