<?xml version="1.0" encoding="utf-8"?>
<!-- Generator: Adobe Illustrator 21.0.2, SVG Export Plug-In . SVG Version: 6.00 Build 0)  -->
<svg version="1.1" id="Layer_1" xmlns="http://www.w3.org/2000/svg" xmlns:xlink="http://www.w3.org/1999/xlink" x="0px" y="0px"
	 viewBox="0 0 612 792" style="enable-background:new 0 0 612 792;" xml:space="preserve">
<style type="text/css">
	.st0{fill:#7CD0F5;}
	.st1{fill:#02AAE8;}
	.st2{fill:#006FB8;}
	.st3{fill:#024B8F;}
</style>
<g>
	<path class="st0" d="M348.4,138.7c0.9-0.9,2.2-2.8,3.6-1.6c10.6,12.6,18.4,27.7,21.5,43.9c3-1.2,5.6-3.2,8.6-4.5
		c19.4-9.8,40.1-16.4,61.1-21.7c0.7-0.2,1.4-0.2,2.1-0.3c-0.3,9.8-1.5,19.6-3.3,29.2c-2.2,11.9-5.4,23.7-10.1,35
		c-0.6,1.5-1.4,3-1.7,4.6c23.4,0.5,46.3,7.3,67.7,16.5c0.1,0.1,0.2,0.3,0.2,0.4c-14.7,18.7-30.6,36.7-49.3,51.5
		c-2.3,1.9-4.8,3.6-7.1,5.6c14.3,12.1,24.4,28.5,31.3,45.8c-21.3,9-43.5,16.7-66.5,20.1c0.7,6.5,1,13,0.5,19.5
		c-0.7,6.7-1.9,13.4-3.8,19.9c-0.5,1.5-0.7,3.2-1.6,4.5c-12.5-1.1-24.9-2.7-37.1-5.8c-3.8-1-7.6-2-11.2-3.4
		c-0.8-0.3-1.7-0.5-2.5-0.6c-3.6,7.3-8.5,14-14.3,19.9c-2.4,2.4-4.8,5-7.6,7c-0.7,0.4-1.5,0-2.1-0.4c-9.1-6-18.2-12.3-25.7-20.2
		c-1-1.1-2-2.2-3.2-3.1c-7.3,5.1-15.8,8.2-24.3,10.3c-1,0.2-2,0.3-3,0.4c-4.4-7.2-8.5-14.7-11.3-22.7c-0.8-1.9-1-4.2-2.2-6
		c-8.6,0.9-17.3-0.3-25.6-2.8c-1.3-7.5-1.3-15.2-1-22.8c0.3-1.9,0.3-3.9,0.8-5.7c4.5,1.4,9.2,2.5,14,2.3c4,0.2,8-0.5,12-1
		c-1.7,9.9-2.6,20.2,0.1,29.9c9.6-0.9,17.7-6.6,25.4-12c2.9,9.9,7,19.7,13.4,27.9c0.6,0.8,1.6,1.9,2.7,1.3
		c4.7-3.2,8.2-7.9,11.3-12.7c2.8-4,4.7-8.5,6.8-12.8c9,9.1,19.5,17.2,31.4,22.1c0.8,0.4,1.7,0.4,2.6,0.6c2.5-5.7,4-11.9,4.1-18.1
		c0.2-6.5,0.1-13.1-1.1-19.5c17,4.1,34.8,6.8,52.2,4c-1.6-10.1-6.7-19.1-12.7-27.2c-3.1-4.4-6.8-8.3-10.4-12.3
		c9.5-2.5,18.8-5.7,27.9-9.4c10.7-4.4,21-9.9,30.3-16.8c-5.4-5.2-12.2-8.7-19-11.7c-10.5-4.1-21.3-7.4-32.5-9c0-0.2,0.1-0.6,0.1-0.8
		c6.2-5.9,12.3-12,17.7-18.7c6.9-8.1,13.4-16.6,18.3-26.1c1.3-2.5,2.8-5,3.7-7.7c-5.4-0.3-10.8,0.1-16.2,0.7
		c-8.2,0.9-16.2,3.1-24.2,5.2c-7.7,2.2-15.1,4.9-22.5,7.8c3.4-10.1,5.7-20.6,7.2-31.2c0.6-5.6,1.1-11.3,0.5-17
		c-0.2-2.5-0.3-5.1-1.2-7.6c-8.1,4.7-16,10.1-22.9,16.4c-8.7,7.5-16.8,15.6-24.2,24.4c-1.7-5.4-3-10.9-5.5-16
		c-3.4-7.7-7.5-15.7-14.6-20.6c-4.9,7.2-9,14.9-12.4,22.9c-3.4,8-6.3,16.2-8.4,24.7c-8.6-6.8-18.6-13.1-30-13.2
		c-1.4,5.9-1.8,11.9-1.6,17.9c0.1,7.4,1.1,14.8,2.3,22.1c-9.3-0.4-19.1,0.2-27.4,4.9c-1,0.4-0.7,1.6-0.6,2.4
		c2.2,8.6,7,16.2,12.3,23.3c0.5,0.9,2,1.8,1.3,3c-7.9,4.5-16,9.7-20.8,17.6c3,3.3,6.2,6.4,10.2,8.5c3.9,2.5,8.2,4.2,12.4,6
		c-5.6,7.6-10.4,16.2-11.9,25.7c-5.9-2.3-11.2-5.8-16.2-9.6c-1.9-1.4-3.5-3.2-5.5-4.6c2-9.2,5.8-18,10.7-26
		c-1.7-2.6-3.8-4.9-5.3-7.6c-3.6-5.7-6.6-11.9-9-18.2c1.3-2.1,3-4,4.7-5.8c3.5-3.7,7.1-7.4,11.2-10.4c1.7-1.2,3.4-2.3,5.1-3.6
		c0-2.2-0.7-4.3-1-6.5c-1.9-10.3-2-20.8-1.7-31.3c1.3-0.4,2.5-0.9,3.7-1.5c8.4-3.9,17.6-6.2,27-6.4c3.2-16.6,9.5-32.3,16.1-47.8
		c8.5,0.7,16.7,3.2,24.4,6.7c3.7,1.8,7.2,4.1,10.5,6.5c4.3-5.7,8.5-11.5,13.2-16.9c5.8-7,12.3-13.3,18.6-19.8
		C341.5,145.2,344.8,141.8,348.4,138.7L348.4,138.7z"/>
	<path class="st1" d="M350.4,197.7c7-6.3,14.8-11.7,22.9-16.4c0.9,2.4,1,5,1.2,7.6c0.6,5.7,0.1,11.4-0.5,17
		c-1.4,10.6-3.8,21-7.2,31.2c7.4-2.9,14.9-5.6,22.5-7.8c8-2.1,16-4.3,24.2-5.2c5.4-0.5,10.8-1,16.2-0.7c-0.8,2.7-2.3,5.2-3.7,7.7
		c-4.9,9.5-11.4,18-18.3,26.1c-5.5,6.6-11.6,12.7-17.7,18.7c0,0.2-0.1,0.6-0.1,0.8c11.2,1.6,22,4.9,32.5,9c6.8,3,13.6,6.5,19,11.7
		c-9.3,6.8-19.6,12.4-30.3,16.8c-9.1,3.7-18.4,7-27.9,9.4c3.6,4,7.3,7.9,10.4,12.3c6,8.1,11.1,17.1,12.7,27.2
		c-17.4,2.7-35.2,0.1-52.2-4c1.1,6.4,1.3,13,1.1,19.5c-0.2,6.3-1.7,12.4-4.1,18.1c-0.9-0.1-1.8-0.2-2.6-0.6
		c-12-4.9-22.4-13-31.4-22.1c-2.1,4.4-4,8.8-6.8,12.8c-3.1,4.8-6.5,9.5-11.3,12.7c-1.1,0.7-2.1-0.5-2.7-1.3
		c-6.4-8.2-10.5-17.9-13.4-27.9c-7.7,5.4-15.8,11.1-25.4,12c-2.7-9.8-1.8-20.1-0.1-29.9c-4,0.6-7.9,1.2-12,1
		c-4.8,0.2-9.5-0.8-14-2.3l0-0.1c1.5-9.5,6.3-18,11.9-25.7c-4.2-1.8-8.5-3.5-12.4-6c-3.9-2.1-7.2-5.2-10.2-8.5
		c4.9-7.9,12.9-13.1,20.8-17.6c0.7-1.2-0.8-2.1-1.3-3c-5.2-7-10.1-14.7-12.3-23.3c-0.1-0.8-0.4-2,0.6-2.4c8.3-4.6,18.1-5.2,27.4-4.9
		c-1.2-7.3-2.2-14.7-2.3-22.1c-0.2-6,0.2-12.1,1.6-17.9c11.3,0.1,21.4,6.4,30,13.2c2.1-8.4,5-16.7,8.4-24.7
		c3.4-8,7.4-15.7,12.4-22.9c7.1,4.9,11.2,12.9,14.6,20.6c2.5,5.1,3.8,10.7,5.5,16C333.6,213.3,341.7,205.2,350.4,197.7 M316.5,234.6
		c-2.5,3.7-5.1,7.5-7.2,11.5c-2.3,3.5-3.8,7.3-5.8,10.9c-2.1-3.5-3.7-7.3-6.2-10.6c-3.5-4.9-7.3-9.6-12.1-13.2
		c-3,11.2-4.6,22.8-4.1,34.4c-0.8-0.3-1.7-0.6-2.4-1c-6.2-3.5-13.2-5.5-20.2-6.4c-0.8-0.1-1.6-0.1-2.4,0c1,3,1.6,6.2,2.6,9.2
		c1.9,6.1,4.6,11.8,7.8,17.3c-6.6,0.3-13,1.9-19.2,4.2c-1.7,0.7-3.5,1.2-4.9,2.4c3.9,4.2,8,8.3,12.9,11.3c2,1.4,4.2,2.4,6.2,3.8
		c-7,4.5-13,10.3-18.1,16.8c0.6,0.3,1.3,0.7,2,0.9c4.5,1.2,9,2.2,13.6,2.4c2.5,0,4.9,0,7.4,0c-1.4,3.3-3.3,6.3-4.6,9.6
		c-1.7,4.6-3.7,9.3-4.2,14.3c6.4-1,12.4-3.4,18.1-6.5c1.4-0.9,2.8-1.8,4.3-2.4c-0.2,6.5-0.2,13.2,1.2,19.6c0.5,2.3,0.7,4.8,1.7,7
		c2-1.6,3.9-3.4,5.6-5.2c4.5-4.3,8-9.5,11.1-14.9c1.3,1.3,1.8,3.1,2.7,4.6c3.7,6.9,8.4,13.3,13.9,18.8c0.7,0.8,1.2-0.5,1.4-1.1
		c2.9-8.5,5.1-17.5,4.8-26.5c0.1-0.1,0.4-0.4,0.5-0.5c9.4,6.3,19.9,10.7,30.8,13.7c0.1-2.3-0.6-4.5-1.1-6.7
		c-1.3-5.7-3.6-11.1-6-16.4c-1.2-2.7-3-5.1-4.2-7.7c13.5,0.9,27.1-1.1,40.2-4.3c-0.2-0.5-0.4-1-0.8-1.3c-8.5-8.2-18.4-15-29.4-19.4
		c0.3-0.9,1.3-1.2,2-1.7c10.8-5.5,20.8-12.6,29.9-20.6c1.7-1.4,3.6-2.6,4.9-4.4c-9.8-1.5-19.8-2.1-29.8-1.2
		c-4.2,0.1-8.2,1.1-12.4,1.4c0.8-1.6,1.9-3,2.9-4.5c2.5-3.8,5-7.7,6.9-11.9c2.8-5,5.1-10.1,7.2-15.4c0.8-2.5,2.1-4.9,2.4-7.5
		c-5.7,2.5-11.5,5.1-16.9,8.2c-7.4,4.2-14.7,8.8-21.2,14.4c-0.2-2,0.1-4,0.3-6c0.6-9.5,0.1-19-2-28.3c-0.2-1.1-0.4-2.2-1-3.1
		C322.5,226.3,319.7,230.6,316.5,234.6L316.5,234.6z"/>
	<path class="st2" d="M316.5,234.6c3.2-4,6-8.2,9.3-12.1c0.6,0.9,0.8,2,1,3.1c2,9.3,2.6,18.8,2,28.3c-0.2,2-0.6,4-0.3,6
		c6.5-5.6,13.8-10.1,21.2-14.4c5.5-3.1,11.2-5.7,16.9-8.2c-0.3,2.6-1.6,5-2.4,7.5c-2.1,5.3-4.4,10.5-7.2,15.4
		c-1.9,4.2-4.4,8.1-6.9,11.9c-1,1.5-2.1,2.9-2.9,4.5c4.2-0.3,8.2-1.3,12.4-1.4c9.9-0.8,19.9-0.3,29.8,1.2c-1.3,1.8-3.2,3-4.9,4.4
		c-9.1,8-19.1,15.1-29.9,20.6c-0.8,0.4-1.7,0.8-2,1.7c11,4.3,20.9,11.2,29.4,19.4c0.4,0.3,0.7,0.8,0.8,1.3
		c-13.1,3.3-26.6,5.2-40.2,4.3c1.2,2.7,2.9,5.1,4.2,7.7c2.4,5.3,4.7,10.7,6,16.4c0.5,2.2,1.3,4.4,1.1,6.7
		c-10.9-3-21.4-7.4-30.8-13.7c-0.1,0.1-0.4,0.4-0.5,0.5c0.3,9.1-1.8,18-4.8,26.5c-0.2,0.5-0.7,1.9-1.4,1.1
		c-5.5-5.6-10.2-12-13.9-18.8c-0.9-1.5-1.4-3.3-2.7-4.6c-3.1,5.4-6.6,10.6-11.1,14.9c-1.8,1.9-3.7,3.6-5.6,5.2c-1-2.2-1.2-4.6-1.7-7
		c-1.4-6.4-1.4-13.1-1.2-19.6c-1.5,0.7-2.9,1.6-4.3,2.4c-5.6,3.1-11.7,5.4-18.1,6.5c0.4-5,2.5-9.7,4.2-14.3c1.2-3.3,3.1-6.4,4.6-9.6
		c-2.5,0-4.9,0.1-7.4,0c-4.6-0.1-9.2-1.2-13.6-2.4c-0.7-0.2-1.3-0.5-2-0.9c5.1-6.5,11.2-12.3,18.1-16.8c-2-1.4-4.2-2.4-6.2-3.8
		c-4.9-3-9-7.1-12.9-11.3c1.4-1.2,3.2-1.7,4.9-2.4c6.2-2.3,12.6-3.8,19.2-4.2c-3.2-5.5-6-11.2-7.8-17.3c-1.1-3-1.6-6.1-2.6-9.2
		c0.8-0.1,1.6-0.1,2.4,0c7,0.9,14,2.9,20.2,6.4c0.8,0.4,1.6,0.8,2.4,1c-0.5-11.6,1.1-23.2,4.1-34.4c4.8,3.7,8.6,8.3,12.1,13.2
		c2.5,3.3,4,7.1,6.2,10.6c2-3.6,3.5-7.4,5.8-10.9C311.5,242,314,238.3,316.5,234.6 M303.5,257.9c-3.6,8.1-6.1,16.7-6.9,25.5
		c-3.1-4.7-6.8-9-11.3-12.3c-1.3-0.9-2.4-2.1-3.9-2.5c0.3,6.5,1.6,13,4,19.1c0.4,1,0.8,2,1.5,2.9c-0.3-0.1-0.9-0.2-1.2-0.2
		c-5.8-2.5-12.3-3.7-18.6-3.4c3.5,5.5,7.9,10.5,13.5,13.9c0.1,0.2,0.2,0.5,0.2,0.7c-6.6,0.8-13,3.4-18.6,6.8
		c5.9,2.6,12.3,4.4,18.8,4.4c-0.2,0.3-0.5,0.6-0.8,0.9c-5.2,4-9.5,9-13,14.5c6.7-0.4,13.3-2.7,19.2-5.9c-3.3,6.3-5.3,13.4-5.8,20.5
		c5.9-4,11-9,14.8-15.1c0.2,7.3,1.8,14.5,4.7,21.1c0.2-0.1,0.5-0.3,0.6-0.4c3.2-6.6,5.6-13.6,6.1-20.9c4,6.7,9.5,12.3,15.9,16.7
		c0-7.8-1.8-15.5-5.1-22.6c7.7,3.7,16.1,5.7,24.6,6.1c-4.5-6.9-10.6-12.9-17.7-17.1c9.3-0.8,18.3-3.7,26.7-7.7
		c0-0.1,0.1-0.3,0.1-0.4c-8.2-3.2-17.1-4.9-25.9-4.6c8.4-5.5,15.2-13,21.4-20.8c-7.7,1.3-15.2,3.9-22.2,7.4c-1.7,0.8-3.2,1.9-5,2.6
		c4.5-8.2,7.4-17.3,8.5-26.6c-7.4,6.1-14,13.3-19.1,21.5C308.5,273.7,306.9,265.4,303.5,257.9L303.5,257.9z"/>
	<path class="st3" d="M116.7,456.6c5.3-2.6,10.6-5.3,15.9-7.9c0,17.5,0,35.1,0,52.6c0,2.6-0.2,5.3,0.9,7.8c1.3,3.6,4.6,6.5,8.3,7.3
		c2.2,0.5,4.4,0.2,6.6,0.3c2.7,0,5.5,0.3,8-0.8c1.8-0.7,3.1-2.3,4.5-3.6c6.5-7,12.8-14.1,19.3-21.1c2.7-3.1,6.5-5.3,10.6-6
		c4.8-0.8,9.7,1.2,13.3,4.3c1.9,1.7,3.7,3.4,5.5,5.2c2.3,2.3,4.7,4.3,6.7,6.9c4.1,5.3,5.5,12.6,3.7,19c-1.5,5.7-5.4,10.7-10.5,13.6
		c-6.2,3.5-14,3.8-20.3,0.7c-4.5-2-7.5-5.9-11-9.2c-1.3-1.4-2.7-2.7-4.1-4.1c-1.1,1.2-2.2,2.4-3.3,3.6c-4.8,5.4-12.2,8.2-19.4,7.8
		c-6.5-0.3-13.3,1-19.5-1.6c-8.9-3.3-15.4-12.4-15.4-21.9C116.7,491.8,116.5,474.2,116.7,456.6 M191.6,503.6
		c-2.1,0.8-3.2,2.8-4.8,4.2c-0.5,0.7-1.7,1.3-1.3,2.2c3,3.1,6.1,6.1,9.2,9.2c2.6,2.4,7.1,1.8,8.9-1.2c1.5-2.1,1.3-5.1-0.4-7
		c-1.6-1.8-3.4-3.4-5-5.1C196.6,504.3,194.1,502.8,191.6,503.6 M228.6,456.7c5.4-2.6,10.7-5.5,16.2-7.9c0,18.7,0,37.4,0,56.1
		c-0.1,6.1,5.1,11.7,11.2,11.9c29.6,0,59.2,0,88.8,0c0.2,5.4,0.1,10.8,0,16.2c-31.1-0.1-62.3,0-93.4,0c-9-0.3-17.6-6.3-20.9-14.7
		c-1.3-3.1-1.9-6.4-1.9-9.8C228.6,491.2,228.7,473.9,228.6,456.7 M460.9,456.7c5.4-2.6,10.7-5.5,16.2-8c-0.1,18.5,0,37.1,0,55.6
		c-0.3,5.2,3.3,10.2,8.2,11.8c2.2,0.8,4.5,0.6,6.7,0.6c13.7,0,27.4,0,41.1,0c0,5.4,0,10.8,0,16.2c-14.6,0-29.1,0-43.7,0
		c-3.4,0-6.9,0.3-10.2-0.6c-5.4-1.2-10.1-4.6-13.6-8.8c-4.3,3.6-9.2,6.7-14.7,8.1c-5.9,1.9-12.1,1.3-18.1,1.4c-24,0-48,0-72,0
		c0-5.4,0-10.8,0-16.2c27,0,54,0,81,0c5.3-0.1,10.5-2.6,13.8-6.8c3.6-4.4,4.9-10.2,5.2-15.7C460.9,481.7,460.8,469.2,460.9,456.7
		 M540.9,456.6c5.4-2.6,10.7-5.3,16-8c0.2,18.9,0,37.8,0.1,56.7c0.1,5.9,5.2,11.1,11.1,11.3c12.3,0,24.6,0,36.9,0v16.2
		c-13.6,0-27.3,0-40.9,0c-9.7-0.1-18.8-6.9-21.9-16.1c-1.8-4.9-1.3-10.3-1.4-15.4C540.9,486.4,540.8,471.5,540.9,456.6 M88.7,467.9
		c5.3-2.7,10.7-5.5,16.1-8.1c-0.1,12.8,0,25.7,0,38.5c-0.3,9.1-4.2,17.9-10.7,24.2c-5.6,5.5-13,9.1-20.8,10.1
		c-2.7,0.3-5.4,0.2-8,0.2c-8.9,0-17.9,0-26.8,0c-4.3-0.1-8.7,0.4-12.9-1c-9.2-2.7-16.1-11.3-16.9-20.7v-34.5
		c5.4-2.6,10.7-5.4,16-7.9c0,12,0,24.1,0,36.1c-0.1,6.1,5.1,11.7,11.2,11.9c10.1,0,20.2,0,30.3,0c2.2,0,4.4,0.1,6.6-0.4
		c6.7-1.4,12.5-6.5,14.7-13c1.1-2.9,1.2-6,1.2-9.1C88.6,485.4,88.7,476.7,88.7,467.9 M409.1,466c3.2-1.5,6.3-3.4,9.6-4.6
		c0,3.1-0.1,6.2,0,9.3c-3.2,1.6-6.4,3.3-9.6,4.7c2.9,0,6.2,0.1,8.5,2.2c4.2,3.7,3.4,11.4-1.5,14.1c-4.5,2.3-8.9,4.5-13.5,6.6
		c0-3.1,0-6.3,0-9.4c3.2-1.5,6.3-3.3,9.6-4.6c-2.8-0.1-6-0.1-8.3-2.1c-4-3-4.1-9.8-0.3-13.1C405.1,467.5,407.3,467,409.1,466
		 M55.4,469.2c0.5-0.6,1.3-0.4,2-0.5c3.6,3.6,7.2,7.2,10.9,10.8c0.9,0.8,0.5,2.1-0.3,2.8c-3.1,3.1-6.3,6.2-9.4,9.4
		c-0.5,0.6-1.3,0.9-2,1.3c-0.7-0.4-1.4-0.8-1.9-1.4c-3.1-3.1-6.2-6.2-9.3-9.4c-0.9-0.7-1-2.2,0-2.9C48.6,476,52,472.6,55.4,469.2
		 M507.8,469.2c0.4-0.6,1.2-0.4,1.9-0.5c3.6,3.5,7.2,7.1,10.7,10.7c0.9,0.8,0.8,2.2-0.1,2.9c-3.3,3.4-6.7,6.8-10.1,10.1
		c-0.3,0.2-0.9,0.5-1.2,0.6c-1.5-0.4-2.4-1.8-3.5-2.8c-2.6-2.6-5.2-5.2-7.8-7.8c-0.8-0.7-1.2-2.1-0.3-2.8
		C500.9,476.1,504.3,472.6,507.8,469.2 M576.1,545c0.7-0.1,1.5-0.3,2.1,0.3c2.6,2.4,5.1,5.1,7.6,7.5c1.1,1.2,2.3,2.1,3.2,3.5
		c0.2,0.8,0,1.6-0.7,2.1c-3.4,3.3-6.7,6.7-10.1,10c-0.7,0.7-1.8,0.8-2.5,0c-3.4-3.4-6.7-6.7-10.1-10.1c-0.8-0.6-1-1.9-0.2-2.7
		C568.9,552.1,572.6,548.6,576.1,545 M63.4,592.9c2.1-6.8,8.8-11.8,15.9-12c7.6-0.1,15.2,0,22.8,0c-2.9,3.1-5.9,6-8.9,9
		c-4.5,0-9,0-13.5,0c-3.3,0-6.4,2.3-7.7,5.3c-1.6,3.6-0.3,8.2,3,10.4c3.4,2.5,7.9,1.4,11.8,1.6c5.7-0.4,11.7,1.6,15.4,6.1
		c5.1,5.8,5.6,15,1.2,21.3c-2.8,4.2-7.5,7.1-12.6,7.7h-24c0-3,0-5.9,0-8.9c7.3,0.1,14.6,0,21.9,0c4.3,0.1,8.3-3.5,8.6-7.8
		c0.6-4.6-3.1-9.1-7.7-9.4c-3.9-0.2-7.7,0.1-11.6-0.2c-4.3-0.4-8.4-2.6-11.3-5.8C62.8,605.5,61.5,598.7,63.4,592.9 M505.1,626.5
		c0-15.2,0-30.4,0-45.6c3,0,6,0,9.1,0c0,12.2,0,24.4,0,36.6c7.8-7.9,15.7-15.7,23.5-23.5c4.2,0,8.3-0.1,12.5,0
		c-7.8,8-15.8,15.7-23.6,23.8c8.2,8.1,16.3,16.3,24.5,24.4h-12.6c-8.1-8.1-16.2-16.2-24.3-24.3c0,8.1,0,16.2,0,24.3h-9
		C505,637,505.2,631.8,505.1,626.5 M350.7,642.2c-0.1-20.1-0.1-40.2,0-60.2c7.3,0.1,14.7,0,22,0c5.3,0.1,10.5,2.9,13.5,7.3
		c4.5,6.1,4.1,15.1-0.8,20.9c3.2,2.2,6,5.2,7.2,9c2.1,5.7,0.9,12.5-3.1,17.1c-2.8,3.3-6.9,5.4-11.2,5.9H350.7 M359.3,590.7
		c0,5.7,0,11.3,0,17c4.5,0.1,8.9,0.1,13.4,0c4.6-0.2,8.5-4.8,7.9-9.4c-0.4-4.1-4.2-7.6-8.3-7.6C367.9,590.7,363.6,590.7,359.3,590.7
		 M359.3,616.5c0,5.7,0,11.3,0,17c5.8,0,11.6,0,17.4,0c3.9-0.1,7.4-3.1,8-6.9c1.1-4.9-3-10-8-10.1
		C370.9,616.4,365.1,616.5,359.3,616.5 M126,594c5.7,0,11.3,0,16.9,0c3.4-0.1,7,1,9.5,3.4c2.9,2.5,4.4,6.2,4.4,10
		c0,11.6,0,23.2,0,34.8h-30.3c-4-0.5-7.8-2.6-10.3-5.7c-4.7-5.6-4.4-14.6,0.6-19.9c2.8-3.2,7.1-5.2,11.4-5.1c6.6,0,13.1,0,19.7,0
		c0-1.7,0.1-3.4-0.7-5c-1-2.2-3.4-3.7-5.8-3.6c-8.1,0-16.2,0-24.2,0C120,599.8,123.1,597,126,594 M126.2,620.7
		c-2.6,0.9-4.6,3.6-4.4,6.3c0,3.4,3,6.4,6.4,6.3c6.6,0,13.1,0,19.7,0c0-4.3,0.1-8.7,0-13c-5.5,0.1-11.1,0-16.6,0.1
		C129.6,620.4,127.9,620.2,126.2,620.7 M174.2,594c12.8,0,25.7,0,38.5,0c2.3,0,4.6,0.2,6.6,1.3c4.4,2.1,7.5,6.7,7.5,11.6
		c0,11.8,0,23.6,0,35.4h-8.9c0-10.1,0-20.2,0-30.3c0-1.8,0.2-3.8-0.8-5.5c-1.1-2-3.2-3.5-5.5-3.4c-3.7,0-7.4,0-11.1,0
		c-0.1,13.1,0,26.2,0,39.3h-8.9c0-13.1,0-26.2,0-39.2c-5.8,0-11.6,0-17.4,0c0,13.1,0,26.2,0,39.3h-8.9c0-13.2,0-26.3,0-39.5
		C168.3,599.8,171.2,596.9,174.2,594 M247.2,594c5.8,0,11.6,0,17.4,0c3.2,0,6.4,1,8.8,3c3.2,2.6,4.9,6.7,4.8,10.8
		c0,11.4,0,22.9,0,34.3h-30.1c-7.2-0.6-13.3-6.9-13.8-14.1c-0.9-8.2,5.9-16.2,14.1-16.5c6.9-0.1,13.9,0,20.8,0
		c0-1.7,0.2-3.5-0.7-5.1c-1.1-2.2-3.5-3.6-5.9-3.5c-8,0-16,0-24,0C241.4,599.8,244.4,597,247.2,594 M243.4,625.6
		c-1,3.7,2.3,7.8,6.1,7.8c6.6,0,13.2,0.1,19.8,0c0-4.3,0-8.6,0-13c-6.4,0-12.9,0-19.3,0C246.9,620.3,243.9,622.5,243.4,625.6
		 M295.6,594c6.2,0,12.3,0,18.5,0c3,0,6.1-0.1,8.8,1.2c4.5,2,7.8,6.7,7.7,11.7c0,11.8,0,23.6,0,35.4h-8.8c0-10.9,0-21.9,0-32.8
		c0-3.3-2.8-6.4-6.2-6.4c-6.7,0-13.3,0-20,0c0,13.1,0,26.2,0,39.3h-8.9c0.1-13.1-0.1-26.2,0.1-39.3C289.6,599.7,292.8,597,295.6,594
		 M412.8,594.4c0.6-0.7,1.5-0.4,2.3-0.5c5.6,0.1,11.1-0.1,16.7,0.1c6.6,0.3,12.2,6.2,12.3,12.8c0,11.8,0,23.6,0,35.3h-30.2
		c-5.1-0.5-9.8-3.8-12.1-8.4c-2.3-4.7-2.2-10.6,0.7-15c2.7-4.5,7.9-7.4,13.2-7.3c6.5,0,13,0,19.5,0c0.1-2.1,0-4.4-1.3-6.1
		c-1.2-1.5-3.1-2.6-5-2.5c-8.1,0-16.3,0-24.4,0C407.2,600.1,410,597.2,412.8,594.4 M409.1,627.1c-0.1,3.4,3.1,6.4,6.5,6.3
		c6.5,0,13,0,19.6,0c0-4.3,0.1-8.7-0.1-13c-6.7,0.1-13.3,0-20,0.1C411.8,620.5,408.8,623.7,409.1,627.1 M461.3,594
		c7.2,0,14.3,0,21.5,0c3.3,0,6.6,1,9.1,3.2c2.9,2.5,4.6,6.3,4.6,10.2c0,11.6,0,23.2,0,34.8h-8.9c0-10.9,0-21.9,0-32.8
		c0.1-3.4-2.9-6.5-6.3-6.4c-6.6,0-13.3,0-19.9,0c0,13.1,0,26.2,0,39.3h-8.7c-0.2-13.2-0.1-26.4-0.1-39.6
		C455.6,599.8,458.5,596.9,461.3,594L461.3,594z"/>
</g>
</svg>
