<?xml version="1.0" encoding="utf-8"?>
<!-- Generator: Adobe Illustrator 21.0.2, SVG Export Plug-In . SVG Version: 6.00 Build 0)  -->
<svg version="1.1" id="Layer_1" xmlns="http://www.w3.org/2000/svg" xmlns:xlink="http://www.w3.org/1999/xlink" x="0px" y="0px"
	 viewBox="0 0 612 792" style="enable-background:new 0 0 612 792;" xml:space="preserve">
<style type="text/css">
	.st0{fill:#3C59A5;stroke:#3C59A5;stroke-width:6.9449;}
	.st1{fill:#FFFFFF;stroke:#3C59A5;stroke-width:6.9449;}
</style>
<path class="st0" d="M7.2,98.7L6.8,696l597.8-0.1l0.5-599.7L426.8,96L306.8,216.5L190.1,98.7H7.2z"/>
<polygon class="st1" points="66.7,160.7 66.5,637.9 545.5,638.2 545.2,157.3 455.6,157.9 343.8,269.4 422.1,347.6 535.3,347.3 
	490,392.7 404.3,393.4 308.4,297.4 216.5,389.9 175,348.5 268.7,255.7 176,160.5 "/>
<polygon class="st0" points="75.2,455.6 133,398.3 219,398.4 308.9,488.1 405.8,397.8 441.7,433.4 305.3,571.2 190,455.3 "/>
</svg>
