<?xml version="1.0" encoding="utf-8"?>
<!-- Generator: Adobe Illustrator 21.0.2, SVG Export Plug-In . SVG Version: 6.00 Build 0)  -->
<svg version="1.1" id="Layer_1" xmlns="http://www.w3.org/2000/svg" xmlns:xlink="http://www.w3.org/1999/xlink" x="0px" y="0px"
	 viewBox="0 0 612 792" style="enable-background:new 0 0 612 792;" xml:space="preserve">
<style type="text/css">
	.st0{fill:#0093DD;}
	.st1{fill:#1793D8;}
	.st2{fill:#FFFFFF;}
</style>
<g>
	<g>
		<path class="st0" d="M306,35.8c168.4,0,305.9,135.8,305.9,302.4c0,105.5-55.3,198.8-138.6,252.9l1.8,1.4
			c14.6-2.1,28.7-6,42.5-10.7l6.3-12.8c17.6-7.9,33-0.4,39.9,21.5c-11.8,21.2-25.5,51.4-37.3,76.5c-10.6,22.8-19.3,41.3-30.2,44.8
			c-17.3,7.9-34.7,12.2-52,12.7c-22.8-2.8-35-12-36.6-27.8c-60.1-25.9-121.9-28-188.3,1.8c-10.5,31.2-41.8,34.4-87.1,16.2
			c-4.3-3.2-8.2-6.6-11.5-9.8L61.2,598.5c4.3-24.1,22.3-32.8,37.7-25.8l3.5,10.5l38.4,13.5l3.9-1.9l-0.6-0.4l0,0
			C57.7,540.9,0.1,445.9,0.1,338.2C0.1,171.6,137.6,35.8,306,35.8z"/>
		<path class="st1" d="M450.1,578.5c-0.1-0.3-0.1-0.4-0.3-0.6c6.3-2.7,6.3-2.7,15.4-8.8c0-2.2,0.3-4.3,0.4-6.3
			c18.6-10.1,18.6-10.1,19.3-11.3c-1.2-0.3-2.1-0.4-3-0.6c0-1.2,0-2.1,0-3c8.4-3.4,14.5-7.6,20.3-15.1c-0.9-0.6-0.9-0.6-1.3-2.8
			c14-12.9,23.7-26.5,35.9-41.7c-0.9-0.1-1.6-0.4-2.2-0.6c0-10,31.8-45.8,27.3-59.4c4.3-5.4,10-18.3,11-24.9c-1-0.4-2.2-0.6-3.1-0.9
			c3.4-14.2,3.4-14.2,8.3-28.3c-1,0-1.9,0-2.8,0c1.6-8.4,3.4-16.8,5.2-24.9c-1.2-0.5-2.3-0.8-3.4-0.9c1-9.7,2.2-19.3,3.4-28.7
			c-1.6-0.3-3.2-0.4-4.5-0.6c0-8.8,0-17.6,0-26.3c-1.3,0-2.5,0-3.6,0c-0.9-8.5-1.6-16.8-2.2-25.2c-1.4-0.3-2.7-0.5-3.9-0.5
			c-1.8-9.8-2.1-17.3-2.2-24.7c-1.7,0-3.2,0-4.5,0c-0.8-7.8-4.8-15-6.1-20.5c-1.8-0.1-3.6-0.4-5.3-0.6c-4.3-9.1-6.5-14.4-7.4-21.9
			c-8.2-1.6-11.1-15.4-12.7-20.3c-1.6-0.3-3.1-0.5-4.5-0.6c-4-7-9.2-15.1-10.9-21.2c-9.7-2.7-13.3-11.4-16.4-17.6
			c-1.8,0-3.6,0-5.2,0c-5.8-6.9-27.3-32.8-31.6-32.1c-1.4,3.8-1.4,3.8-3.2,5.4c-7-4.5-12.4-9.1-18-9.7c0.4,3.8,1,7.9,1.8,11.9
			c-7.2-2.1-13.2-3.6-18.4-3.1c0,6.1,10.2,12.4,10.2,18.3c-2.7,1.6-5.2,3.4-7.8,5.2c0,0.5,0.3,1.2,0.5,1.8
			c2.1,0.5,13.6,5.2,15.8,9.7c-0.9,0.3-1.6,0.6-2.2,1.2c6.1,3,15.9,8.2,19.8,16.1c-1.2,0.6-1.2,0.6-1.3,2.2
			c6.7,5.2,12.4,6.1,12.4,14.2c3.1,1.8,19.5,13.6,22.1,18.8c-0.8,0.6-1.2,1.3-1.7,2.2c4.5,5.7,8.4,11.1,15.9,16.8
			c-0.9,1-1.7,2.2-2.3,3.5c1.6,1.7,23.9,38.2,23,41.8c-1.6,0.3-3.1,0.8-4.5,1.2c2.3,2.7,8.4,8.5,7.8,14.6c-1.2,0.3-2.3,0.8-3.2,1.2
			c3.9,8.8,8.5,26.7,8.5,39.4c-0.4,0.3-0.9,0.4-1,0.6c0.9,7.6,1.8,15.4,2.7,23.3c-1.4,0.1-2.7,0.4-4.1,0.6
			c2.5,14.5,2.5,14.5,2.3,19.2c-1.2,0-2.1,0.3-3,0.5c0,10.9-12.7,71.3-21.9,72.2c-0.8,9.7-5.7,16.3-8.4,26c-1.3,0-2.5,0.3-3.6,0.4
			c0,5.2-4.7,13.3-8.8,17.5c-1.6-1.7-1.6-1.7-1.8-3.9c-1.3,0-2.7,0-3.8,0c-0.8,10.6-10.2,16.1-10.2,25.5
			c-12.8,1.6-15.1,17.5-22.8,19.3c-3.9-1.7-3.9-1.7-5.4-1.2c-4.3,8.8-8.4,12.4-18.1,13.1c-6.7,9.7-19.8,19.4-24.3,28.5
			c-3.9-0.8-7.8-1.6-11.7-2.3c-0.5-0.1-1.2-0.3-1.7-0.4c-48.5-9.3-102.4-12-150.8-0.6c-8.5,2.2-16.8,4.8-25.2,7.9
			c-10.4,3.5-11.7,4.1-15.8,4.7c-8.5-17.7-18.5-28.9-30.7-40.1c-26.8-19.4-24.9-14.9-39.7-40c-25.2-29.4-35.7-56.7-45.6-92.6
			c-1.2,0-2.1,0-3,0c2.2-24.5-6.3-53.3-0.6-72.4c-1.2-0.3-2.3-0.4-3.2-0.6c1.9-9.7,11.4-58.4,15.8-64.9c-0.6,0-1,0-1.6,0
			c-0.3-1.2-0.3-2.1-0.3-3c10.2-10.1,33.9-41.7,33.9-54.1c11.5-10.9,21.7-22.9,30.7-35.5c3.2-3,8.9-5.7,9.6-6.9
			c-3.4-3.4-11.3-2.7-14.2-2.8c0-6.3,15.8-13.3,14.2-29.1c-11.1-2.1-24.9,11.7-31.2,18.5c-1.6-4.8-3.1-9.6-4.5-14.2
			c-1.8-0.3-3.4-0.5-4.9-0.5c-11.5,18.8-31.5,29-36.2,51.8c-0.8,0-1.6,0-2.2,0c0.3,0.9,0.6,1.8,1.2,3c-4.3,4.1-8.4-2.6-9.7,5.2
			c-16.7,19.4-22.9,28.2-24.9,55c-1.2,0.8-1.2,0.8-4.3-0.9c0,1.2-0.8,2.6-2.6,3.9c2.1,7.5-8.8,32.5-11.3,43.6c0,1.6,1.8,33-0.4,34.8
			c-1.2-0.8-2.1-1.2-3-1.7c0.3,27.2-1.8,46.1,8.5,73.9c6.1,9.1,6.1,9.1,6.9,11.3c-3.9,0-7-1.6-9.3,0.6c14,23,18.1,53.6,42.5,72.4
			c-0.3,0.4-0.4,1.2-0.4,1.8c-4.3,0.3-7.2,0.6-10.2,2.7c0,2.5,16.3,16.6,21.9,24.1c7.1,17.6,12.7,19.9,30.8,30.8
			c-0.3,0.9-0.5,1.9-0.6,3.1c-0.8,0.3-1.4,0.5-1.8,0.6c1.2,3.1,33.7,25,44.3,34.3c-41.2-24.1-75.6-58.3-100.2-99
			c-25.4-42.2-40-91.4-40-143.9c0-77.7,32-148.3,83.6-199.5s123-82.8,201.6-82.8c78.4,0,149.8,31.7,201.4,82.8
			s83.6,121.8,83.6,199.5c0,50.1-13.3,97.2-36.6,138.1c-23.8,41.9-58.4,77.4-99.8,102.7C453.1,579.8,451.7,579.2,450.1,578.5z"/>
	</g>
	<g>
		<path class="st2" d="M401.3,426.6c-0.3-0.9-0.5-1.8-0.5-2.7c57.5-71.8,40.8-174.1-35.6-227.4c82.2,15.3,125.3,100.1,88.3,178.6
			C440.4,396.1,423.7,416.6,401.3,426.6z"/>
		<path class="st2" d="M305.5,477.6l-12.7-19.8c-28.3,3.5-51.8,3.5-78.7-8.5c14.6,2.6,55.8,1,61.4-7.2
			c-81.9-45.6-114.2-174.4-21-244c-47,76.1-36.6,156.2,33,219.5l-6.3-208.9l20.3-14.2l19.8,14.5l1.2,2.7
			c-0.3,68-0.3,135.9-0.3,204.1c76.6-69,69.4-136.2,58.3-164.7l-28.2-56.4c83.6,71.1,76,183.6-16.2,245c2.2,9.7,55.9,8.5,65.2,9.1
			c-24.2,13.3-56.4,11.5-81.3,9.7l-11.3,19.2C307.6,477.6,306.4,477.6,305.5,477.6z"/>
		<path class="st2" d="M164.1,718.6c-10.6-2.1-19.4-5.2-27.3-8.5c-0.3-0.9-0.5-1.6-0.8-2.3c8.8-1.6,14-7.9,14.6-15.4
			c-6-15.1-31.5-69.8-43-98.1c3.9-0.1,8.8,2.5,13.3,11.5l53.5,108.9C172.7,715.8,171.5,718,164.1,718.6z"/>
		<path class="st2" d="M465.1,584.1C547.3,532,601.9,441,601.9,337.7C601.9,176.5,469,45.1,306,45.1S10.1,176.5,10.1,337.7
			c0,105.9,57.5,199,143.2,250.4l2.1,1.2l5.4-2.6c-42.5-24.7-78.1-59.7-103.3-101.5c-25.8-43-40.6-92.9-40.6-146.4
			c0-79,32.6-150.7,85-202.7c52.6-52,124.9-84.3,204.8-84.3c79.7,0,152.1,32.2,204.7,84.3c52.4,52,85,123.8,85,202.7
			c0,51-13.6,98.9-37.2,140.5c-24.2,42.3-55.9,76.8-97.3,102.3L465.1,584.1z"/>
		<path class="st2" d="M121.8,692.2l-51.9-96.7c6.2-10.7,11.7-14.8,19.9-15l47.9,104.7C132.9,685.8,126.2,689.5,121.8,692.2z"/>
		<path class="st2" d="M127.1,704.4c-0.3-1.8-0.5-3.4-0.5-4.9c5.2-6,7.2-6.6,14.9-8.7C143.5,701.4,136.6,702.3,127.1,704.4z"/>
		<path class="st2" d="M178.8,699.4c-3.6-6.6-47.6-80-46.1-90.6c82.8-62.1,269.5-84.4,346.5,3.6c0.8,6-32.8,72.5-39.9,82.2
			c-3.1,3.2-4.3,3.6-7,4.1c-64.6-52.9-186.3-42.7-251.4,0.6C180.1,699.4,179.5,699.4,178.8,699.4z"/>
		<path class="st2" d="M502.9,690.8c-5.6-3.5-8.8-4.4-12.8-5.6l41.3-111.8c17.1,1.9,23,5.7,20.6,16.2l-46.7,101.2
			C504.3,690.8,503.5,690.8,502.9,690.8z"/>
		<path class="st2" d="M455.5,715.7c-1.4-0.6-2.7-1-3.9-1.6l50.9-109.8c5.3-11.7,6.9-12.2,10.7-11l-11.9,35.5c-0.9,0,0.1,0-0.5,0
			L481,679.7c-3.5,9.1-10.9,16.1,8.5,25.9c-0.3,0.6-0.4,1.3-0.6,2.2C477.1,711.9,466.5,715.7,455.5,715.7z"/>
		<path class="st2" d="M492.9,700.5c-7-3.4-7.1-4-7.1-8.5c5.6-1.8,12.8-2.2,15.8,6.7C499.3,701,495.5,700.4,492.9,700.5z"/>
		<path class="st2" d="M167,577c-16.7-7-29.8-18.8-42.6-26.7c0-0.9,0.1-1.8,0.4-2.7c11.4,0.9,23.2,12.7,45.2,28.2
			C169.3,577,169.3,577,167,577z"/>
		<path class="st2" d="M177.6,577c-16.4-9.7-39-26.3-42.2-42.5c26.9,4.9,36.6,13.7,55.8,35c-7.6,6-33.7-22.5-39.2-20.7
			c8.2,11.1,19.9,18.3,35,24.2c0,0.6,0,1.3,0,2.2C185.1,576.4,185.1,576.4,177.6,577z"/>
		<path class="st2" d="M442.6,573.9c0-0.3,0-0.8,0-1.7c2.1-1.3,4.1-2.7,6.1-3.8c-1.6-0.5-1.6-0.5-8.3,0.9c0-1.2,0-2.3,0-3.2
			c7-1.2,13.5-1.9,22.5-2.2c-1.2,6.5-12.3,10.2-18.4,10.7C443.9,574.4,443.2,574.2,442.6,573.9z"/>
		<path class="st2" d="M429.1,568.7c0.4-4.7,6.2-8.5,5.2-10.7c-6,1.2-9.1,6.9-14.2,7.5c4.3-12.8,13.3-12.8,24.9-14.2
			c-2.8,10-4.3,16.3-14.6,17.9C429.9,569,429.5,568.9,429.1,568.7z"/>
		<path class="st2" d="M453.8,561.6c0-0.9,0-1.6,0-2.2c6.9-1.8,6.9-1.8,7.5-3c-5.2-0.4-5.2-0.4-8.3,0.6c-0.3-0.9-0.3-1.6-0.3-2.2
			c11.3-5.8,10.4-9.4,25.2-5.7C469.8,556.2,464.6,560.7,453.8,561.6z"/>
		<path class="st2" d="M406.5,561c0.3-2.2,0.3-2.2,1.4-3c0.4,0.3,0.9,0.5,1.6,0.8c1.8-4.5,0.6-3.2,5.4-3.9c-0.5,0.9-0.8,1.8-0.9,2.7
			c-1.2,0-2.1,0.3-3,0.4c-0.6,0.8-1.2,1.7-1.6,2.6C408.3,560.6,407.4,560.7,406.5,561z"/>
		<path class="st2" d="M418.5,554.9c1.3-6.1,5.2-15.8,12.2-15.8c0.9,1.6,0.9,1.6,0.3,10.6c-3.5,2.5-3.5,2.5-5.7,3
			c-0.3-1.2-0.5-2.1-0.6-3c-0.5,0.4-0.9,0.9-1.2,1.6c-0.5-0.9-0.9-1.6-1.2-2.2c-0.6,1.6-1.3,3.4-2.1,5.2
			C419.5,554.4,418.9,554.6,418.5,554.9z"/>
		<path class="st2" d="M453.2,551.3c1.2-3.4,7.8-11.8,7.5-12.8c-5.4,0-11.5,10.4-13.6,5.2c3.6-4.1,16.3-16.7,21.9-9.1
			c-2.5,2.5-3.6,1.6-2.7,6.1c-2.8,3-5.6,4.5-7.6,5.2C458.6,549.1,455.9,550,453.2,551.3z"/>
		<path class="st2" d="M175.4,547.6c-20.1-10-28-7.6-30.3-30.3c10.2,3.9,25.1,19,34.8,28.1C178.4,546.1,176.7,546.7,175.4,547.6z"/>
		<path class="st2" d="M472.6,546.3c-0.1-0.9-0.4-1.8-0.6-2.7c4.5-2.3,9.1-4.5,13.6-6.9c-2.3-0.4-8.4,1.2-14.2,1.7
			c0-0.9,0-1.7,0-2.3c9.1-0.9,11.9-5.2,23.9-4.5c0,0.6,0.3,1.4,0.4,2.3C487.7,542.7,482.8,544,472.6,546.3z"/>
		<path class="st2" d="M435.2,542.2c1-6.7,4.3-15.1,11.9-15.1c1.8,4.5,1.8,4.5,1.8,9.1c-3.9,3.9-3.9,3.9-6.3,4.5c0-1.6,0-3.1,0-4.5
			c-1,0.3-2.2,0.5-3.4,0.6C437.9,540.3,437,540.9,435.2,542.2z"/>
		<path class="st2" d="M119.6,540.9c-19-8.2-21.5-18.8-29.8-33.4c-6-6.6-17.2-14.5-18.1-18.1c13.1-7.2,27.1,24.9,36.6,34.3
			c17.3,12,17.3,12,18,13.1c-0.1,0.3-0.4,0.8-0.6,1.2c-9.8-5.8-23.9-11.1-11-2.7c1.8,1.3,4.1,2.8,7.1,5
			C120.9,540.4,120.2,540.7,119.6,540.9z"/>
		<path class="st2" d="M126.3,534c-22.8-16.8-32.2-28-36.8-55c7,1.3,53.3,47,43.6,52.6c-10.2-9.2-24.2-30.9-31.7-34.6
			c-0.1,0.5-0.4,0.9-0.4,1.4c2.7,4.3,29.1,35.6,29.1,35.6C128.9,534,127.5,534,126.3,534z"/>
		<path class="st2" d="M475.8,532.2c1.3-4.7,5.2-8.9,5.8-12.6c-4.8,0.9-4,1.3-6.7,4.7c-1.2-0.6-2.1-1-3-1.6c6.7-4.3,10-8.2,18.1-9.2
			C487.7,522.5,484.4,528.5,475.8,532.2z"/>
		<path class="st2" d="M454.6,529.4c0.9-10.6,6.5-15.1,12.8-21.9c1.2,0,2.3,0,3.4,0c0,6.1-0.4,12.8-5.4,19.5c-0.4-0.1-0.8-0.4-1-0.6
			c-0.5,0.6-0.9,1.4-1.4,2.3c0-4.8,0.9-7.1,2.3-11.4c-1.2,0.3-2.1,0.5-3,0.8C461.6,519.9,457.3,528.5,454.6,529.4z"/>
		<path class="st2" d="M492.9,529.4c1.2-5.2,6.3-7.8,10-11.3c-4.9,0-6.1,0.9-10,2.2c-0.1-0.9-0.4-1.6-0.4-2.2
			c6.5-3.9,10.6-6.2,20.1-5.4C507,518.3,499.8,527.1,492.9,529.4z"/>
		<path class="st2" d="M133.2,513.7c-3.9-7-3.9-7-5.4-7.6c0,2.3,0,2.3,2.1,5.2c-0.8,0.3-1.4,0.6-1.8,1.2
			c-14.8-21.5-23.8-21.2-22.7-43.9C114.2,468.5,133.8,514.5,133.2,513.7z"/>
		<path class="st2" d="M495.3,511.9c0.6-5.2,1.8-5.8,4.5-8.9c0.4,0.1,0.9,0.4,1.6,0.9C500.7,507.5,498,510,495.3,511.9z"/>
		<path class="st2" d="M487.7,508.5c-7-1.6,14-14.9,16.6-15.3C504.1,499.1,494.1,508.5,487.7,508.5z"/>
		<path class="st2" d="M508.8,509.1c0.8-4.1,5.2-6.6,8.3-9.1c-4.8,0-6.7,1.6-10.6,3c1.6-9.7,13.3-15,24.2-13.6
			C524.8,495.7,516.9,507.5,508.8,509.1z"/>
		<path class="st2" d="M482.6,503.9c-0.3-1.8-0.3-3.6-0.3-5.4c-0.4,0.1-0.9,0.4-1,0.9c-0.9-5.4,1.8-13.6,7.1-12.3
			C488.4,501.6,484,497.8,482.6,503.9z"/>
		<path class="st2" d="M512,491.6c0.6-6.5,3.4-11,5.8-15.8c-5.4,1.4-7.4,6.3-10.7,10.6c1.3-9.4,7-13.7,15.3-17.3
			C522.3,476.3,518.7,485.5,512,491.6z"/>
		<path class="st2" d="M497.5,490.6c-0.4-2.6-0.4-2.6,1.6-9.6c-1,0-2.2,0-3.4,0.3c-0.4,2.3-0.9,4.5-1,7c-1.4,0-2.7,0.3-3.9,0.5
			c2.7-6.9,6.1-11.4,8.5-17.5C506.1,476.4,500.7,492.5,497.5,490.6z"/>
		<path class="st2" d="M528.4,484.9c1.4-4.9,3-7.5,6.1-11.3c-0.9-0.3-1.6-0.5-2.2-0.5c-2.5,1.7-4.8,3.2-7,5
			c0-8.8,13.1-15.8,20.6-16.6C544.7,467.3,534.7,482.7,528.4,484.9z"/>
		<path class="st2" d="M79.6,478.5c-2.1-1.8-4-3.4-5.8-4.9c3.1,0,4,2.1,9.1,3.4C81.1,478.5,81.1,478.5,79.6,478.5z"/>
		<path class="st2" d="M83.5,475.4c-22.4-16.3-24.5-43.9-23.3-68c0.6-0.3,1.4-0.5,2.3-0.5C73.3,423,92.9,449,90.9,471.8
			c-0.9-0.3-1.6-0.5-2.2-0.5c-8.5-18-15.4-32.9-21-49.7c-3.9,11.5,11,39,17.6,51.4C84.8,474.5,84.8,474.5,83.5,475.4z"/>
		<path class="st2" d="M512.6,466.7c-0.6-0.6-1.2-1.3-1.6-1.8c0.9-1,1.8-2.2,3-3.4c0.4,3,0.4,3-0.3,5.2
			C513.2,466.7,512.9,466.7,512.6,466.7z"/>
		<path class="st2" d="M64.7,466.1c-8.5-16.1-19.2-37.3-23.4-51.9c22.1,4.3,16.4,28.9,25.6,52.2C66,466.1,65.4,466.1,64.7,466.1z"/>
		<path class="st2" d="M519.5,464.1c-0.3-0.9-0.5-1.8-0.5-2.6c4.5-6.1,10-14.9,17-16.4c-0.3,4.9-1.6,10.9-3.6,16.1
			c-0.9,0-1.6,0.3-2.2,0.4c0.1-2.2,0.4-4.5,0.6-6.5c-0.9,0-1.6,0-2.3,0C526.2,457.9,523,462.7,519.5,464.1z"/>
		<path class="st2" d="M505.9,463.9c0-7.2,4.3-14,6.7-20.3c0.6,0,1.4,0,2.3,0c0.4,4.3,0.4,10.1-0.5,15.8c-1.2,0.6-1.2,0.6-2.7,0
			c-0.4,0.6-0.9,1.3-1.2,2.2c-0.4-0.6-0.9-1-1-1.6C508.1,461.2,507,462.5,505.9,463.9z"/>
		<path class="st2" d="M542.6,459.4c1.2-4.5,5-10.6,4.5-12c-2.5,0.9-4.9,1.8-7.4,3c2.5-7.5,8.8-14.5,17.3-16.4
			C554.2,442,550.1,453.7,542.6,459.4z"/>
		<path class="st2" d="M97.1,457c-1.7-5.6-2.1-6.5-4.5-8.3c-0.8,0.4-1.4,0.9-2.1,1.6c-2.5-11.9-28-43.1-10.9-47.4
			c2.1,15.3,14.8,34,18.5,54.1C97.7,457,97.2,457,97.1,457z"/>
		<path class="st2" d="M518.7,445.8c2.5-14.2,2.5-14.2,6-27.1c0.9,0.3,1.8,0.4,2.7,0.6c1.6,3.1,6.5,12.8-1.2,17.3
			c-0.6-0.9-0.6-0.9-3.9-1.6c-0.9,3.4-1.6,6.9-2.2,10.2C519.6,445.4,519.2,445.5,518.7,445.8z"/>
		<path class="st2" d="M530.7,442c0-10.7,6.5-18.4,12.4-25.6c1,0,2.2,0,3.4,0c-0.3,6.3,0.9,16.1-4.9,22c0-3.6,0.1-7.2,0.4-10.6
			c-1.2,0.1-2.1,0.4-3,0.6c-1,2.1-2.2,4-3.1,6.1c0.3,0.4,0.4,0.9,0.9,1.3C533.6,440.2,533.6,440.2,530.7,442z"/>
		<path class="st2" d="M557.1,427.3c-0.6-0.6-1.2-1.2-1.6-1.6c1.3-2.7,2.8-5.4,4.5-7.9c-1.4-0.3-2.7-0.3-3.9-0.3
			c-1.4,2.1-3.6,4.9-6.1,6.3c0-8.4,9.2-16.1,16.7-18.1C566.2,408.4,561.4,426.3,557.1,427.3z"/>
		<path class="st2" d="M530.7,419.4c-2.5-9.7-2.5-15.1-2.3-23.3c6.3,0.9,9.3,6.1,10.2,14.2c-0.9,0.5-1.6,0.9-2.3,1.6
			c-0.9-1.9-1.8-3.8-2.7-5.6c-1,0-1.9,0-2.8,0.3c1.3,2.6,2.7,7.6,1.2,12.8C531.4,419.4,531,419.4,530.7,419.4z"/>
		<path class="st2" d="M53.4,408.5c-14.8-29.5-9.1-46.7-1.6-77.3c0.8,0.3,1.7,0.5,2.8,0.8c6,11.9,14.9,58.3,6.1,69.3
			c-4.4-5.6-3.4-42.1-6.7-48.7c-1.2,0.6-1.2,0.6-2.2,0c-2.6,14.4,4.5,43.4,3.4,55.5C54.5,408.1,53.8,408.4,53.4,408.5z"/>
		<path class="st2" d="M541.3,409c1.8-9.3,5.2-14.5,9.7-22c0.9,0,1.8,0,3,0c0.1,0.5,0.4,0.9,0.8,1.4c-0.8,0.6-1.6,1.3-2.2,2.2
			c2.5,4.8,2.5,4.8,2.2,6.6c-1.6,0-3.1,0-4.4,0C548.1,401.2,545.3,406.7,541.3,409z"/>
		<path class="st2" d="M550.4,409c0.1-3.2,0.4-6.1,0.9-9.1c1-0.5,2.2-0.6,3.5-0.9c0,3.1-2.5,5.2-1.6,7.9
			C551,407.6,551,407.6,550.4,409z"/>
		<path class="st2" d="M69.9,404.5c0.6-6.3,1.4-12.7,2.3-19c-0.8,0.3-1.2,0.5-1.7,0.9c-8.3-11.7-9.2-41.9-0.6-53.3
			c0.6-0.1,1.4-0.1,2.3-0.1c0.4,23.4,7.9,45.8,0,71.1C71.3,404,70.5,404.2,69.9,404.5z"/>
		<path class="st2" d="M43.5,402.9c-12.2-23.3-10.6-47.5-11.3-71.7c6.1,0,8.8,5.3,11.7,12.3c-3.4,22.8-4.7,35,1.4,59.4
			C44.1,403.6,44.1,403.6,43.5,402.9z"/>
		<path class="st2" d="M563,402.1c1.2-4.4,2.5-8.9,3.9-13.5c-4.5,0-3.4,2.2-6.7,2.8c-0.5,2.3-0.5,2.3-1.7,3
			c-0.1-1.3-0.4-2.5-0.4-3.6c3.4-4.3,7.2-11.9,14-10.6C569.9,387.5,568,396.1,563,402.1z"/>
		<path class="st2" d="M535.3,395c-3.9-9.6,0.9-16.6,2.8-23.8c4.4,4.3,7.2,10.6,7.2,18.8c-0.9,0.6-1.8,1.4-2.7,2.3
			c-1-0.8-1-0.8-2.8-10.5c-1.4,0.3-2.7,0.5-3.9,0.8c1.2,8.3,1.2,8.3,0.4,11.9C535.9,394.5,535.4,394.8,535.3,395z"/>
		<path class="st2" d="M556.2,383.2c0-3.9,0-7.8,0-11.3c-1.2-0.5-2.1-0.9-3-1.2c0-5,0.3-9.3,3.4-11.5c0.8,0.4,1.4,0.9,2.3,1.3
			C559.2,366.5,563.5,379.6,556.2,383.2z"/>
		<path class="st2" d="M566.8,375.7c0.3-2.2,0.3-2.2,6.1-15.1c-1.2-0.1-2.2-0.4-3.1-0.6c-1.8,4.1-3.9,8.2-7.5,9.1
			c0-7.2,6.7-13.3,13.6-14.5C575.3,358.4,572.9,374.7,566.8,375.7z"/>
		<path class="st2" d="M541.3,369c-1.4-3.9-1.4-3.9-3.9-22.7c3.9,1.2,19.2,16.1,10.4,20.3c-1-2.5-1.9-4.9-2.8-7.1
			c-1.2-0.3-2.1-0.3-3-0.3c0.3,3.1,0.6,6.3,1.2,9.7C542,369.7,542,369.7,541.3,369z"/>
		<path class="st2" d="M560.8,356.1c-0.9-4.7-1.6-9.4-2.3-14.1c-1.6-0.9-3.1-1.7-4.4-2.3c0.4-2.2,1-4.5,1.7-6.7
			c5.3,1.9,5.3,8.3,7.2,15.8c0.3-0.3,0.8-0.5,1.2-0.6c-0.3,1.8-0.4,3.8-0.6,5.8C562.6,354.5,561.7,355.2,560.8,356.1z"/>
		<path class="st2" d="M552.6,352.7c-0.4-2.5,0.3-9.2,1.4-10.7c0.1,0.1,0.6,0.4,1,0.6c-0.3,2.8-0.4,5.8-0.6,9.1
			C553.8,351.8,553.1,352.3,552.6,352.7z"/>
		<path class="st2" d="M570.7,348.7c0.4-3.9,0.9-7.6,1.3-11.3c-1.2,0.1-2.2,0.4-3.4,0.6c-1.2,1.8-2.1,3.6-3,5.4
			c-4.9-5,4.8-14,7.9-16.7C576.5,329.7,575.3,344.1,570.7,348.7z"/>
		<path class="st2" d="M542,343.6c-1.2-3.4-1.2-3.4-3-19.2c4.3,2.1,10.2,4.8,11.5,13.6c-0.6,0.6-1.3,1.3-1.8,2.2
			c-1.9-2.2-1.9-2.2-3.4-5.8c-0.9-0.3-1.8-0.3-2.7-0.3c1.2,4.8,0.5,5.4,0.5,9.3C542.6,343.5,542.2,343.5,542,343.6z"/>
		<path class="st2" d="M45.7,329c-3.8-22.8,3-66.4,24.9-73.7c-1.6,15.4,0.9,63.6-13.5,72.5c-0.5-0.1-0.9-0.4-1.4-0.6
			c-0.6-18.5,8.2-40.4,6.9-52.8c-0.9,0-1.8,0.3-2.7,0.4c-4.4,15.8-10.6,36.6-10.6,53.6c-0.9,0.4-1.8,0.9-2.7,1.6
			C46.2,329.5,45.9,329.3,45.7,329z"/>
		<path class="st2" d="M39.9,327.8c-13.3-24.3,6.7-54.9,8.2-77c15.5,3.9-3.6,37-7.2,45.2C40.1,300.3,41.3,327.7,39.9,327.8z"/>
		<path class="st2" d="M551.7,326.8c0.6-7.2,1.4-14.5,2.3-21.7c3.4,0,4.3,4,5.6,9.7c-0.6,0.5-1.3,0.9-1.8,1.6
			c-0.6-0.4-1.2-0.6-1.6-0.9C556.2,318,555.3,325,551.7,326.8z"/>
		<path class="st2" d="M569,323.8c0.3-2.3,0.5-4.5,0.8-6.7c-1.2-0.3-2.1-0.5-3-0.8c-0.3,0.8-0.5,1.7-0.6,2.6
			c-0.9-0.5-1.8-0.9-2.7-1.2c0-6.6,4-15.8,9.4-17.2C572.9,306.9,575,318,569,323.8z"/>
		<path class="st2" d="M542.6,322.7c-2.7-5.6-2.7-5.6-2.8-7.9c0.6,0,1.3,0,2.2,0.3c2.5,4.9,2.5,4.9,2.5,7.2
			C543.3,323.2,543.3,323.2,542.6,322.7z"/>
		<path class="st2" d="M69.2,319.6c-0.9-0.3,5.2-47.5,5.2-50c4-2.7,4-3.6,9.7-4.5C83.2,268.9,75.1,323.3,69.2,319.6z"/>
		<path class="st2" d="M546.5,316.6c-3.6-3.6-4.9-2.7-7.5-3.4c-0.4-2.3-0.6-4.5-0.9-6.7c2.7,0.4,5.7,2.6,9.6,6.1c0,1,0,2.5,0,3.8
			C547.2,316.3,546.8,316.3,546.5,316.6z"/>
		<path class="st2" d="M548.7,306c-2.2-9.1,0-16.4,1.7-23.4c3.8,0.9,15,18.6,7.6,18.6c-1.4-4-2.7-7.9-4-11.7
			c-0.9-0.3-1.7-0.3-2.3-0.3c0,4.3,0.3,10.1-1.2,15.8C549.9,305.3,549.2,305.6,548.7,306z"/>
		<path class="st2" d="M538.1,300.1c-4.5-7-4.5-11.8-5.8-17.6c0.3,0,20.1,7,10.4,12.6c-1-1.8-2.2-3.6-3.4-5.2c-1.2,0-2.2,0-3.4,0
			c3.4,5.2,3.4,5.2,4.9,9.7C539.9,299.6,539,299.9,538.1,300.1z"/>
		<path class="st2" d="M566.8,295.1c0-2.2,0-4.5,0-6.7c-1.2,0-2.1,0-3,0c-0.6,1.2-1.3,2.5-1.9,3.9c-3.6-3.6,2.2-15.4,4.9-17.5
			c1.8,1.8,1.8,14.2,1.8,19C568,294.2,567.2,294.7,566.8,295.1z"/>
		<path class="st2" d="M536.8,280.5c-3.9-2.5-2.5-3.6-3.2-5.7c2.1,0.6,3.2,1.8,5.4,5C538.1,279.9,537.5,280.2,536.8,280.5z"/>
		<path class="st2" d="M544.2,273.7c-2.2-8.2-1.7-13.9-1.6-20.6c3.6,0.6,3.6,0.9,6.9,5.4c-1.4,1.6-1.4,1.6-3.6,1.9
			c0.4,4.3,0.9,8.7,1.3,12.9C546,273.5,545.1,273.5,544.2,273.7z"/>
		<path class="st2" d="M538.1,273c-5.2-2.7-9.2-2.7-9.7-8.5c7.9,0.4,9.3-1.3,11.5,8.2C538.9,273.5,538.9,273.5,538.1,273z"/>
		<path class="st2" d="M551.7,271.9c-1.2-1.7-1.2-1.7-2.2-6.9c0.6,0,1.3,0,2.2,0c0.3,2.3,0.6,4.5,1.2,6.9
			C552.3,271.9,552,271.9,551.7,271.9z"/>
		<path class="st2" d="M560.8,269.2c-0.6-1.2-1.2-2.3-1.6-3.5c-1.4,0.5-2.6,1.2-3.6,1.8c0-7,0.1-11.3,4.5-15.9
			C560.5,252.9,565,272,560.8,269.2z"/>
		<path class="st2" d="M537.5,264c-9.2-4.5-14.5-15.4-15.8-22.3c8.5,0.9,9.1,0,14.2,8.9c-0.5,0.1-0.9,0.6-1.4,1
			c-5.3-2.8-5.3-2.8-6.7-2.5C528.7,250.2,541.6,259.9,537.5,264z"/>
		<path class="st2" d="M73.8,259c-5.4-18.3,21.2-37.7,14.9-50.4c-9.1,11.3-13.7,29.8-23,43.6c-12.2-12.2,25.1-55.4,35.2-58.8
			C100.8,206.2,83.7,255.9,73.8,259z"/>
		<path class="st2" d="M554,249.3c0-2.5,0-4.9,0-7.5c-2.3,0.8-2.3,0.8-4.5,3.6c-1.8-7.4,0.1-12.4,0.9-18c0.9,0.3,1.8,0.6,2.8,1.2
			c1.6,5.2,5.2,14,3,20.7C555.3,249.3,554.7,249.3,554,249.3z"/>
		<path class="st2" d="M93.2,246.5c-1.4-0.6-2.5-1.2-3.6-1.6c0-7.5,5.7-15.4,8.5-21.2c3.4-15.5,2.5-14.2,17.6-16.7
			C109.2,220.4,103.2,234.1,93.2,246.5z"/>
		<path class="st2" d="M536.8,246.5c-3.4-8.5-3.6-11.8-3.9-18.3c3,0.9,3,0.9,6.1,4c-0.9,0.5-1.8,1.2-2.5,1.8
			c-0.3,2.3,1.2,5.4,2.1,12.2C537.5,247.1,537.5,247.1,536.8,246.5z"/>
		<path class="st2" d="M54.7,241.8c0.9-13.7,14.2-48.3,26.4-50.5c1.8,18.3-14.4,30-20.7,49.7C58.4,241.1,56.6,241.4,54.7,241.8z"/>
		<path class="st2" d="M526.8,240.5c-9.1-4.5-16.3-10.9-17.6-19c8.2-0.9,10.9,0.8,17.6,7.5c-0.3,0.3-0.4,0.6-0.6,1.2
			c-5.2-1.6-5.2-1.6-7.5-1.2c7.5,6.3,7.5,6.3,10.5,10.4C528.4,240.5,528.4,240.5,526.8,240.5z"/>
		<path class="st2" d="M540.4,239.2c-1.2-1.2-1.2-1.2-1.2-3.5c0.3-0.1,0.5-0.4,0.6-0.6c1.2,1.2,2.3,2.3,3.6,3.6
			C542.5,238.6,541.3,238.9,540.4,239.2z"/>
		<path class="st2" d="M539.8,229.6c-0.8-0.4-1.4-0.9-2.1-1.3c-0.3-7.2-0.3-14.2-0.3-21.2c0.6,0.3,1.4,0.4,2.3,0.6
			c2.5,7,5.6,11.1,6.2,20.6c-0.6,0.4-1,0.9-1.6,1.3c-0.4-2.7-0.6-5.4-0.9-8.2c-1,0-2.2,0-3.1,0c0,2.7,0.3,5.4,0.4,8.2
			C540.4,229.6,539.9,229.6,539.8,229.6z"/>
		<path class="st2" d="M525.5,223.5c-6.1-8.8-6-13.1-6.9-21c6.1,2.5,10.9,8.5,14.5,16.7c-0.5,0.3-0.9,0.4-1.2,0.6
			c-2.2-2.8-4.5-5.6-6.5-8.3c-0.9,0-1.7,0-2.3,0c1.6,3.1,4.1,6.5,4.1,12.2C526.2,224.4,526.2,224.4,525.5,223.5z"/>
		<path class="st2" d="M510.4,217.2c-7-4.5-13.1-11.3-14.2-16.1c4.5,0.3,20.7,0.5,19.4,10.9c-7.2,0-10-6.7-13.6-5.6
			c3.9,4,8.4,7,11.3,10.1C512.6,217.2,512.6,217.2,510.4,217.2z"/>
		<path class="st2" d="M532.3,204.3c-1.3-1.8-1.3-1.8-2.2-6.3c-0.9,0-1.7,0-2.3,0c-0.4,5.4-0.4,5.4-1.6,6.1
			c-3.6-5.2-1.8-13.6-0.6-18C533.2,188.6,534.7,206.8,532.3,204.3z"/>
		<path class="st2" d="M103.2,200.2c1-13.3,17.6-26.5,26.1-36.8c-1.2-0.3-2.1-0.4-3-0.6c-11.3,7.4-15.3,22.8-29.3,27.1
			c0-11.9,33.1-44.3,44-41.6c-0.6,8.2-8.7,29.4-17,33.4c-0.3,0.9-0.5,1.8-0.5,2.7c-0.9,0.3-1.8,0.8-2.5,1.2
			C121.1,189.8,106.8,199.6,103.2,200.2z"/>
		<path class="st2" d="M512,199.8c-5.4-6.7-5.7-10.4-6.7-15.4c5.2,0.8,12.8,3.9,14.2,12.4c-6,0-7.1-7.4-10.6-6.3
			C509.5,191.4,515.1,199.2,512,199.8z"/>
		<path class="st2" d="M497.5,198.4c-8.5-5.8-17.9-11.9-19.2-19.2c8.4,0,14,1.6,23,8.5c0.3,3.5,0.3,3.5-0.9,4.4
			c-4.8-2.1-8.4-4.8-12-3.9c4.5,3,9.1,6.1,13.6,9.2C501.3,198.4,501.3,198.4,497.5,198.4z"/>
		<path class="st2" d="M124.8,193.5c0-7.6,13.6-24.3,17.3-33c3.9,0,6.6-1.9,12,0.8C144.8,171.3,136.3,184.7,124.8,193.5z"/>
		<path class="st2" d="M520.1,184.9c-2.3-4.8-3.4-7.2-6.1-8.7c-0.5,0.8-0.9,1.4-1.4,2.3c-1.2-5.4-1.2-5.4-0.6-13.6
			c0.6,0,1.3,0,2.2,0.3c2.7,4.9,7.8,11,7.8,19.2C520.8,185.3,520.8,185.3,520.1,184.9z"/>
		<path class="st2" d="M89.6,183.8c2.7-17.2,23.4-33.7,33.9-46.7c0.6,0,1.3,0,2.2,0c0.9,3.6,2.5,6.7,1.8,13.6
			c-14.2,6.7-21.5,17.3-31.2,28.2c-1.3-0.5-2.7-0.9-3.8-1.2c-0.5,1.8-0.9,3.6-1.2,5.4C90.7,183.4,90,183.5,89.6,183.8z"/>
		<path class="st2" d="M497.5,182.6c-6.3-7.9-8.3-10.4-9.7-18.5c8.8,2.7,13.3,3.2,18.4,14.5c-0.9,0-1.8,0-2.6,0.3
			c-3.6-3.6-7-8.8-10.6-7.9c2.1,2.8,5.7,5.6,5.7,11.3C498.2,182.2,497.7,182.5,497.5,182.6z"/>
		<path class="st2" d="M478,175.9c-7.6-1.6-14.2-7.9-15.1-11.8c4.8-0.6,9.6-1.3,14.2-1.8c1.4,1.6,3,3.2,4.5,4.8
			c-0.3,0.3-0.4,0.6-0.6,1.2c-6.7-0.8-6.7-0.8-10.6-0.3c7.6,3.4,7.6,3.4,10.6,5.8C479.5,175.9,479.5,175.9,478,175.9z"/>
		<path class="st2" d="M505.9,166.4c-2.1-4.1-4.1-8.2-6.1-12c-1.2,0-2.1,0-3,0c1.4,3.9,1.4,3.9,1.6,8.7c-7.6-1.8-3.4-14.2-3.1-17.7
			c4.9,0,12.4,12.9,12.4,21.1C506.5,167.3,506.5,167.3,505.9,166.4z"/>
		<path class="st2" d="M465.9,160.7c-9.3-2.2-14.2-8.5-19.9-13.1c0-0.9,0.3-1.8,0.5-2.7c7.4-2.3,10.9-0.9,18.1,4
			c-0.9,1.2-0.9,1.2-7.8,1.7c12.2,6.2,12.2,6.2,14.5,8.3C470.4,160.1,470.4,160.1,465.9,160.7z"/>
		<path class="st2" d="M489.3,160.7c-4.7-2.2-12.4-10-13.5-9.4c1.6,2.2,3.4,4.5,5.2,6.7c-3.4,5.8-10-11.5-10.6-13.3
			c3.9,0.3,23.3,7.2,21.2,16.1C490.7,160.7,490.1,160.7,489.3,160.7z"/>
		<path class="st2" d="M146,150.6c1.4-3,7-11.5,6.6-12.7c-3.6,0.9-8.2,4-10.5,4.5c1.8-6,11.1-8.7,17.5-10.6
			C157.1,140,154.8,147.4,146,150.6z"/>
		<path class="st2" d="M464.6,146.5c-7.8-3.9-15.9-12.4-14.5-19.2c5.8,0,13.6-0.5,18.9,8.2c-0.4,0.1-0.6,0.6-0.9,1
			c-6.7-2.2-6.7-2.2-10.6-4.7C457.5,132.5,467.7,149.7,464.6,146.5z"/>
		<path class="st2" d="M489.3,145.6c-2.8-3.4-5.3-8.2-7.6-8.5c0,2.5,0.3,4.9,0.5,7.6c-1.2,0.6-1.2,0.6-3.9-0.9c0-4.7,0.3-9.4,0.4-14
			c0.8,0,1.4,0,2.3,0c3.6,4.8,7.6,7.6,10.1,15.5C490.1,146.1,490.1,146.1,489.3,145.6z"/>
		<path class="st2" d="M438,141c-2.2-1.6-4.5-3.1-6.7-4.7c0-1.2,0-2.1,0-3c4.5-3.9,9.1-3.4,15.1,0.3c-3.2,0.9-6.1,1.8-9.1,2.7
			c1.4,1,7.5,2.5,8.2,3.4C443.2,141,443.2,141,438,141z"/>
		<path class="st2" d="M441.9,129.1c-8.2-3.6-14.5-10.4-15.5-16.1c7,0,18.5,2.1,24.6,9.7c-0.5,0.3-0.6,0.6-0.9,1.2
			c-6-1.7-14.5-6.6-18.1-5.7c4.1,3.1,8.2,6.3,12.2,9.7C443.2,129.1,443.2,129.1,441.9,129.1z"/>
		<path class="st2" d="M465.9,129.1c-3.6-6.3-3.6-10.6-4.5-16.1c3.2,0.4,17.3,10.9,11.8,16.4c-2.5-3.1-5-6.1-7.2-9.1
			c-0.5,1.7-0.5,1.7,1.8,8.4C466.5,129.5,466.5,129.5,465.9,129.1z"/>
		<path class="st2" d="M456.8,120.5c-2.1-2.5-4-4.9-6.1-7.4c-0.4,1.6-0.9,3.1-1.3,4.8c-6.3-1.7-5.7-9.6-6.2-12.4
			c6.2,1.8,13.6,5.8,14.8,15C457.5,120.5,457.1,120.5,456.8,120.5z"/>
		<path class="st2" d="M277,195.3c-15.3-6.7-21.9-15.1-18.9-29.6c1.4-2.5,3.2-2.7,5.4-0.6c0.5,14.4,22,22.7,34,8.2
			c1.6-2.6,3.1-2.8,4.9-0.4c14.1,15.9,26.7,5.8,36.9-9.1c1.2,0,2.2,0.1,3.4,0.4c3.6,21.1-7.4,37.5-32.8,27.6c-3-2.2-5.3-5-7.6-5.2
			C296.8,186.4,296.9,199,277,195.3z"/>
		<path class="st2" d="M209.3,427.9c-30.9-12.4-52.9-46.5-62.4-74c-17.3-71.6,16.6-132.6,84.9-154.7c2.1-0.3,3.4-1.8,6.9,0.4
			c-70,58.3-83.4,136.4-36.6,216.8c7.4,9.7,7.4,9.7,7.9,12C209.7,428.2,209.4,427.9,209.3,427.9z"/>
	</g>
	<g>
		<path class="st1" d="M211.2,675.2c-1.7-0.6-3.2-1.3-4.8-1.8c0-2.8,1.2-3.8,1.6-6.1c-4.8-0.3-8.8-1.8-10.4-3
			c0.6-5.8,2.2-5.8,3.6-9.7c2.2,0.3,4.5,0.5,6.7,0.9c2.7-4.7,2.7-4.7,4.5-6.3c3.4,0.8,4.3-0.1,7.6,4.5c-4.3,9.3-3.6,8.7-12.2,6.3
			c-0.3,0.9-0.4,1.8-0.6,2.7c2.7,0.6,5.6,1.4,8.5,2.3c-0.6,6.1-0.6,6.1-2.2,9.8C212.7,675,211.8,675,211.2,675.2z"/>
		<path class="st1" d="M179.5,649.2c4-15.9,12.6-15.4,17.9-15c4.1,0.3,9.8-6.9,10.9-10.9c17.7,1.6,36.5,0.5,47.2-3
			c30.5-10,45.2-21.5,68.6-44.5c1.2,0,2.2,0.3,3.6,0.5c0,2.8-0.8,5.7-2.3,8.7c-14.5,6.1-39.9,48.2-89.4,51.1c-9.8,0.6-20.7,0-30.9,0
			c-4.7,19-19,7.4-23,14.8C180.8,651,180.6,649.1,179.5,649.2z"/>
		<path class="st1" d="M402.2,677.6c-3.6-3.6-4.1-4.1-4.1-6.3c1.8-1.6,5-2.3,6.3-5c1.4,0.3,3,0.5,4.5,0.8c1.2,1.8,1.4,2.8,1.8,7.1
			C406.9,676.4,405.4,677,402.2,677.6z"/>
		<path class="st1" d="M406.8,623.3c-1.7-1.8-3.2-3.4-4.5-5c5.2-4,11.7-9.8,13.1,0.9C412.2,621.8,410.4,623.3,406.8,623.3z"/>
		<path class="st1" d="M347.4,612.7c-0.9-0.3-0.9-0.3-0.9-2.5c4.3-2.1,3.6-9.7,12.2-5.4c-1.3,2.2-2.7,4.7-3.9,7.2
			C352.3,612.2,349.8,612.5,347.4,612.7z"/>
		<path class="st1" d="M383.5,648.8c-9.4-4.8-0.6-11.8,0-17.6c-17.5,9.3-91.1,5.2-67.8-24.9c1.4,0,2.7,0,4.1,0
			c0.3,19.2,47.8,21.7,62.1,18.5c4.4-0.8,9.3-9.6,16.4-14.9c10.4-7.9,22.3-11.4,31.8-12c-20.3,14.1-37.5,9.3-41,39.4
			c2.2,0,4.7,0,7.1,0C396.3,644.8,390.5,648.8,383.5,648.8z"/>
		<path class="st1" d="M413.5,661c-15.1-5.8,9.3-40.9,19-42.5c-4.4,9.3-14.2,19-12.7,30c3.6,0.3,3.6,0.3,6.5-0.6
			C426.3,652.5,418.3,661,413.5,661z"/>
	</g>
</g>
</svg>
