<?xml version="1.0" encoding="utf-8"?>
<!-- Generator: Adobe Illustrator 21.0.2, SVG Export Plug-In . SVG Version: 6.00 Build 0)  -->
<svg version="1.1" id="Layer_1" xmlns="http://www.w3.org/2000/svg" xmlns:xlink="http://www.w3.org/1999/xlink" x="0px" y="0px"
	 viewBox="0 0 612 792" style="enable-background:new 0 0 612 792;" xml:space="preserve">
<style type="text/css">
	.st0{fill:#ED3237;}
</style>
<g id="__x0023_Layer_x0020_3">
	<g id="_908020352">
		<circle class="st0" cx="473.4" cy="90.3" r="69.3"/>
		<circle class="st0" cx="305.3" cy="138.3" r="69.3"/>
		<circle class="st0" cx="152.7" cy="208.9" r="69.3"/>
		<path class="st0" d="M305.7,473.1c0.4,32.8,0,67,0.3,100.5c-147.9,7.4-215.3-45.3-208.5-156.1s267.2-237.1,500.8-252.4l-4.6,117.5
			c-117.6,11.8-259.9,42.3-342.3,97.2C169.1,434.9,225.4,482.8,305.7,473.1z"/>
		<path class="st0" d="M306.3,462.9c-0.4-32.7,0-67-0.3-100.4c147.9-7.6,215.3,45.2,208.5,156S247.3,755.7,13.7,771l4.6-117.5
			c117.6-12,259.9-42.3,342.3-97.4C442.9,501.2,386.6,453.3,306.3,462.9z"/>
	</g>
</g>
</svg>
