<?xml version="1.0" encoding="utf-8"?>
<!-- Generator: Adobe Illustrator 21.0.2, SVG Export Plug-In . SVG Version: 6.00 Build 0)  -->
<svg version="1.1" id="Layer_1" xmlns="http://www.w3.org/2000/svg" xmlns:xlink="http://www.w3.org/1999/xlink" x="0px" y="0px"
	 viewBox="0 0 612 792" style="enable-background:new 0 0 612 792;" xml:space="preserve">
<style type="text/css">
	.st0{fill:#7D99CB;}
	.st1{fill:#5F92E5;}
</style>
<g id="__x0023_Layer_x0020_3">
	<path class="st0" d="M595.4,360.2l-410.1-0.1c-6.3,0.9-6.4,2.8-12.8,2.9c-9.9,0.9-10.2-11.6,0-11.9c5.5,0,6.3,2.8,12.9,3.6l410,0.3
		V360.2z"/>
	<path class="st0" d="M595.4,341.7l-286.9-0.1c-14.2,4.8-30.7,4.3-42.4,0h-65.5c-3.4,0.4-16.1,2.4-28.4,3
		c-10.4,0.5-20.4-0.2-23.3-0.1c-9.9,0.8-10.3-11.7-0.1-12c2.6,0,12.9-0.3,23.6,0.4c12.1,0.9,24.8,2.8,28.3,3.3h65.4
		c12.2-3.6,28.6-3.8,42.3,0.1l286.9,0.2L595.4,341.7z"/>
	<path class="st0" d="M595.4,323.7l-286.9-0.1c-14.7,4.7-76.6,3.8-90-0.1l-17.9,0.1c-3.4,0.4-17.7,2.3-29.9,2.9
		c-10.4,0.5-32.4,0.1-35.3,0.1c-10.2,0.7-10.2-11.6,0-11.9c2.6,0,24.8-0.7,35.5,0.1c12.1,0.9,26.3,2.9,29.8,3.3l17.8,0.1
		c14.8-3.8,76.2-3.8,89.8,0l287,0.3V323.7z"/>
	<path class="st0" d="M595.4,305l-293.2-0.3c-14.7,4.7-87.8,4.6-101.2,0.7h-6.4c-4.8,0.9-15.3,2.6-28,2.5
		c-10.5-0.1-32.4,0.1-35.3,0.1c-10.2,0.4-10.3-11.6-0.1-11.9c2.6,0,24.8-0.2,35.5,0.1c12.1,0.4,23.4,2.1,28.1,2.9h6.3
		c14.8-3.8,87.4-3.6,101.1,0.3l293.1,0.4L595.4,305z"/>
	<path class="st0" d="M595.4,286.2H290.2c-26,4.1-48.3,4.2-78.5,3.9c-11.7-0.9-41-0.9-52.6-0.4c-11.5-0.1-13.1-0.1-24,0.2
		c-10.2,0.4-10.3-12.5-0.1-12.8c10.9,0.2,13.4,0.2,24.4,0.1c24.6,0.7,32.8,0.8,52.1-0.5c30.7-0.4,51.8-0.3,78.6,4.2l305.1,0.1
		L595.4,286.2z"/>
	<path class="st0" d="M595.4,267.5L269,268.1c-30.9,4.2-60.7,3.4-91.6,3.3c-22.9-0.1-44.9,0-67.3,0.1c-10.2,0.4-10.3-12.5-0.1-12.8
		c23.5,0,40.6-0.2,66.9,0c26.3,0.2,60-0.3,92,4.1l326.6-0.5L595.4,267.5z"/>
	<path class="st0" d="M595.4,248.7l-387.6,0.7c-30.9,4.2-46.1,3.4-76.8,3.3c-23-0.1-32,0.2-54.5,0.3c-10.2,0.4-10.3-12.5-0.1-12.8
		c23.5,0,27.2-0.4,54.1-0.2c26.9,0.1,45.3-0.3,77.3,4.1l387.6-0.5L595.4,248.7z"/>
	<path class="st0" d="M595.4,230.9l-343,0.1c-26.1,4-57.7,4.4-87.8,4.1c-11.8-1.1-23.4-0.8-34.9-0.4c-11.5-0.1-62.4-0.4-73.3-0.1
		c-10.2,0.4-10.3-12.5-0.1-12.7c10.9,0.1,62.6,0.5,73.6,0.3c24.6,0.8,15.3,1.3,34.6,0c30.8-0.3,61.1-1.2,87.8,3.4l343,0.1
		L595.4,230.9z"/>
	<path class="st0" d="M595.3,213.2h-322c-14.7,4.7-111.2,4.7-124.5,0.7l-8.2,0.1c-4.9,0.9-15.7,2.5-28.4,2.4
		c-10.4-0.1-65.9-0.7-68.8-0.5c-10.2,0.4-10.2-11.7-0.1-11.9c2.6,0,58.4,0.4,69.1,0.8c12,0.4,23.6,1.2,28.2,2.1h8.1
		c15-3.8,110.9-2.7,124.5,1.2l322.1,0.1V213.2z"/>
	<path class="st0" d="M595.3,194.4H282.6c-14.7,4.7-117.2,4.6-130.6,0.7h-21.4c-4.8,0.9-7.7,2.5-20.4,2.4c-10.4,0-73.8,0-76.7,0.1
		c-10.2,0.3-10.3-11.7-0.1-12c2.6,0,66.3-0.1,77.1,0.3c12,0.4,15.6,1.5,20.2,2.4l21.4,0.1c15-3.7,116.8-3.1,130.5,0.8l312.8,0.1
		V194.4z"/>
	<path class="st0" d="M595.3,175.9L295.5,176c-15.2,5.2-129,4.8-144.5-0.4c-16.4,0.1-16.5-0.1-33.6,0c-4.8,0.8-12.8,2.8-26.7,3.4
		c-10.4,0.5-58.1,0-61,0.1c-10.2,0.4-10.3-11.7-0.1-12c2.6,0.1,50.9-0.1,61.7,0.3c12.1,0.4,21.5,2.7,26.1,3.5
		c16.5,0.1,18.3,0.1,33.5,0.1c18.1-5.5,130.5-5.7,144.5-0.3l299.9,0.1V175.9z"/>
	<path class="st0" d="M595.3,157.3l-293.2,0.1c-15.3,5.3-122.7,5-136.6-0.3c-16.5,0.1-64.4-0.1-81.4,0c-4.9,0.8-12.8,2.6-26.8,3.1
		c-10.4,0.4-31.3,0-34.2,0.1c-10.2,0.3-10.2-11.7,0-12c2.6,0,24.1-0.1,34.8,0.2c12.1,0.4,21.7,2.5,26.2,3.3
		c16.5,0.1,66,0.4,81.3,0.4C183,146.6,288,146.6,302,152l293.3,0.1V157.3z"/>
	<path class="st0" d="M595.3,139.5l-281.9,0.1c-17,4-113.5,4.3-128.1-0.9L18,138.5v-4.7c16.5,0,151.8,0,167.1,0
		c18-5.5,114.1-6.1,128.1,0.4l282.1,0.1L595.3,139.5z"/>
	<path class="st0" d="M595.3,120.7l-281.9,0.1c-15.7,4.7-73.9,4.3-89.3-0.4l-203.6-0.5c-3,0-3.4-4.1,0-4.7
		c16.5,0,188.3,0.4,203.5,0.4c19.7-5.3,75.3-6.6,89.3-0.1l282.1,0.1L595.3,120.7z"/>
	<path class="st0" d="M595.4,101.9l-574.3-0.3c-3.7-0.7-3.7-4.9,0-5.5l575.5,0.7L595.4,101.9z"/>
	<path class="st1" d="M435.5,424.4c0-0.4,0.7-2,2.1-4.6c1.4-2.5,2.2-3.8,2.5-3.8c0.5-0.2,1.4,0.2,2.5,1.2c1.1,1.1,1.8,2,2.5,2.8
		c0.7-1.1,1.4-2.4,2.2-3.7c0.9-1.4,1.4-2.1,1.6-2.1c0.9,0,1.8,0.5,3,1.8c1.1,1.2,1.7,2.3,1.7,3.4c0,1.3-0.5,2.8-1.8,4.6
		c-1.2,1.6-2.1,2.5-2.6,2.5c-0.4,0-1.1-0.4-2-1.4c-1-1-1.8-1.7-2.6-2.3c-1.8,3.7-3.3,5.4-4.3,5.4c-0.2,0-0.7-0.2-1.1-0.7
		c-0.5-0.3-1.2-1-2.2-1.7C436,425,435.5,424.6,435.5,424.4z"/>
	<path class="st1" d="M414.7,475.8c-1.1,3.3-2.2,5.6-3.3,7.2c-1,1.5-1.7,2.5-2.3,2.8c-0.7,0.4-1.4,0.8-2.6,1.2
		c-1.1,0.4-2.8,1-5.2,1.7c-2.3,0.8-3.7,1.2-4.1,1.2c-0.2,0-0.3-0.1-0.3-0.2c-0.3-0.4,1.1-1.6,4.1-3.6c3-2.1,5-3.4,5.9-4
		c0.9-0.7,1.8-1.6,2.7-2.8s1.6-2.6,2.1-4.1c-0.5,0-1,0-1.4,0.3c-0.5,0.2-1,0.3-1.5,0.3c-1.2,0-2.3-0.4-3-1.2
		c-0.9-0.8-1.2-1.6-1.1-2.5c0.1-0.7,0.3-1.3,0.7-2.1c0.2-0.8,0.8-1.8,1.5-3.6c0.8-1.6,1.6-2.9,2.4-4c0.9-1.1,1.6-1.6,2.5-1.6
		c1.3,0,2.5,0.7,3.4,1.8c1,1.1,1.4,2.5,1.4,4.1c0,0.9,0,1.7-0.1,2.5c-0.1,0.9-0.2,1.5-0.3,2.1c-0.1,0.5-0.3,1.2-0.5,2.1
		C415.2,474.3,415,475,414.7,475.8z"/>
	<path class="st1" d="M389.9,418.8c0-0.8,0.7-2.4,1.8-4.9c1.3-2.4,2.1-3.6,2.4-3.6c0.8-0.3,1.8,0.2,3.3,1.6s2.2,2.5,2.3,3.4
		c0,1-0.7,2.6-1.7,4.6c-1.2,2-2.1,3-2.6,3c-0.2-0.1-0.9-0.5-2.1-1.4c-1.2-0.8-2.1-1.3-2.6-1.7C390.1,419.4,389.9,419.1,389.9,418.8z
		"/>
	<path class="st1" d="M360.4,505.4c0-0.4,0.7-2,2.1-4.4c1.3-2.6,2.2-3.9,2.5-3.9c0.5-0.2,1.4,0.2,2.5,1.3c1.1,1,1.8,2,2.5,2.7
		c0.7-1.1,1.3-2.4,2.2-3.7c0.9-1.4,1.4-2.1,1.6-2.1c0.9,0,1.8,0.7,3,1.8c1.1,1.2,1.7,2.4,1.7,3.4c0,1.3-0.5,2.8-1.8,4.6
		c-1.2,1.7-2.1,2.5-2.6,2.5c-0.4,0-1.1-0.4-2.1-1.4s-1.7-1.7-2.5-2.3c-1.8,3.7-3.3,5.4-4.3,5.4c-0.2,0-0.7-0.1-1.1-0.5
		c-0.5-0.4-1.2-1.1-2.2-1.8S360.4,505.6,360.4,505.4z"/>
	<path class="st1" d="M373.2,420.8c1.6-1.6,5.1-4.4,10.4-8.5c2.3-1.6,4.7-3.5,7-5.2c2.3-1.7,4.7-3.6,6.9-5.3
		c3.3-2.5,6.5-5.1,9.8-7.9c2.2-2,5.1-4.6,8.8-7.9c5.5-5,8.2-7.5,8.2-7.6c0,0.3-0.1,0.7-0.2,1c-0.2,1-1,2.4-2.2,4.3
		c-1.1,1.7-2.1,3.3-3,4.4c-1.3,1.5-2.5,2.9-3.9,4.3c-1.8,1.8-2.9,2.9-3.3,3.3c-1,0.9-2.8,2.5-5.6,4.9c-1.5,1.2-4.4,3.6-8.9,7.2
		c-2.5,2-5,3.9-7.5,5.6c-1.5,1.1-2.9,2.2-4.4,3.1c-1.4,1.1-2.9,2.1-4.3,3.1l-7.6,5.5c-1.5,1.1-2.5,1.8-3.1,2.3
		c-1.1,0.8-1.6,1-1.6,0.8c0.5-1.5,1.2-2.9,2-4.2C371.5,422.8,372.3,421.7,373.2,420.8z"/>
	<path class="st1" d="M301.5,525.4c0,0.2,0.2,0.7,0.7,1c0.4,0.4,0.9,0.8,1.3,1.2c0.5,0.5,1.1,1.1,1.6,1.6c0.3,0.4,0.7,0.7,0.9,0.7
		c0.4,0,1.2-0.8,2.3-2.4c1-1.7,1.5-3.1,1.6-4.3c0-1.1-0.4-2.2-1.3-3.3c-1-1.2-1.8-1.8-2.7-2c-0.2,0-1.1,1.2-2.4,3.5
		C302.2,523.7,301.5,525.1,301.5,525.4z"/>
	<path class="st1" d="M296.8,516c0,0.3,0.8,1,2.3,2.3c1.4,1.2,2.3,1.8,2.5,1.8c1,0,2.4-1.8,4.1-5.6c0.8,0.5,1.6,1.4,2.6,2.6
		c0.9,0.8,1.4,1.2,1.8,1.2c0.5,0,1.3-0.9,2.5-2.6c1.1-1.8,1.7-3.4,1.7-4.7c0-1.1-0.7-2.2-1.7-3.5c-1.2-1.2-2.2-1.7-2.9-1.7
		c-0.2,0-0.8,0.8-1.7,2.5c-0.7,1.1-1.3,2.3-2,3.4c-0.4-0.8-1.1-1.7-2.2-2.7c-1.2-1-2-1.4-2.5-1.4c-0.3,0-1.1,1.3-2.5,3.9
		C297.5,514.1,296.8,515.7,296.8,516z"/>
	<path class="st1" d="M316.8,459.5c-1.6,6-3.5,9.4-5.5,10.4c-2.9,1.4-4.8,2.4-5.3,2.8c-0.7,0.5-1.1,0.9-1.3,1.2
		c-0.7,0.9-1.3,2.1-2,3.6c-1.1,2.8-2,4.9-2.6,6.4c-1.1,2.3-2.8,4-4.9,4.9c-1.1,0.4-2.5,0.8-4.1,1.1c-1.8,0.3-3.1,0.5-4.1,0.5
		c-0.9,0.1-1.5-0.1-1.7-0.5c0-0.3,0.3-0.8,1.1-1.3c0.2-0.2,0.8-0.7,1.6-1.3c0.9-0.7,2.4-1.6,4.7-3c1.7-1.2,2.6-1.7,2.5-1.6
		c2-1.4,3.3-2.6,4-3.6c0.2-0.3,1-2.1,2.3-5.1c1.4-3,2.4-5,3.1-5.9c0.7-0.9,1.7-1.8,3.3-2.8c0.5-0.3,1.5-0.9,2.9-1.5
		c1.3-0.7,2.2-1.2,2.6-1.6c0.5-0.3,1.1-1.2,1.8-2.6c0.8-1.3,1.2-2,1.5-1.8C317,457.8,317,458.3,316.8,459.5z"/>
	<path class="st1" d="M277.5,460.7c0.2-0.7,0.8-0.9,1.5-0.3c4.3,2.6,6.4,6.1,6.4,10.4c-0.1,3.3-0.8,6.1-2.1,8.6
		c-1.2,2.5-2.4,4.3-3.7,5.6c-2.2,2.2-5.3,3.8-9.4,4.8c-0.4,0.1-0.9,0.2-1.2,0.2c-0.4,0-0.5-0.1-0.5-0.3c0-0.4,0.5-1,1.7-1.8
		c2.4-1.7,4.7-3.6,6.8-5.7c2-2.1,3-3.4,3-4c0-1.7-2-4.1-5.7-7.3c-0.7-0.5-0.9-1.3-0.7-2.1C274.7,466.8,276,464.1,277.5,460.7z"/>
	<path class="st1" d="M262.6,452.4c-0.1,2.4-0.2,4.6-0.2,6.4c0,2-0.1,3.6-0.3,5c-0.2,2.8-0.8,5.4-1.6,7.6c-0.8,2.2-1.5,3.7-2,4.4
		c-0.4,0.8-0.9,1.3-1.2,1.5c-0.3,0.4-0.7,0.5-0.9,0.3c-0.1,0-0.2-0.2-0.1-0.5c0,0,0.1-1.1,0.5-3s0.7-3.8,0.8-5.6
		c0.1-1.8,0.1-4.4,0-7.8c0-3.4,0.1-5.9,0.3-7.6c0.1-1.1,0.3-2.2,0.7-3.3c0.3-1.1,0.7-2.2,1.1-3.3c0.3-1.1,0.8-2.1,1.2-3
		c0.5-0.9,1-1.7,1.3-2.5c0.3-0.4,0.5-0.7,0.8-0.5c0.2,0.1,0.3,0.3,0.3,0.5c-0.1,0.2-0.1,0.9-0.2,1.8c-0.1,1-0.2,2.1-0.2,3.4
		c-0.1,1.2-0.1,2.4-0.2,3.6C262.6,450.8,262.6,451.7,262.6,452.4z"/>
	<path class="st1" d="M120.9,464c1.4-1.2,8.2-7.7,20.3-19.4s18.8-18.8,20.4-21c1.3-0.5,0.8,1.7-1.6,6.8
		c-0.5,1.8-11.5,12.8-32.9,32.6c0.8-0.1,1.3-0.1,1.6-0.1c1.8,0,3.3,0.3,4.3,1c1.7,1.1,2.6,2.9,2.6,5.5c0,2.7-0.5,5.5-1.5,8.6
		c-1.1,3.1-2.3,5.7-3.6,7.8c-1.1,1.4-2.2,2.6-3.4,3.5c-1.3,0.9-2.7,1.3-4.1,1.3c-2.3,0-4-1-5.1-2.9c-1.1-1.7-1.6-4.4-1.6-7.9
		c0-1.7,0.1-2.8,0.1-3.1c0.1-2.2,0.4-4,0.9-5.4c0.3-1.3,1-2.6,1.8-4.1c0.4-0.7,0.8-1.2,1.1-1.7C120.4,464.7,120.7,464.3,120.9,464z
		 M132.3,476.3c0-1.3-0.7-2.4-2-3.1s-2.6-1.1-3.9-1c-1.3,0-2.5,0.4-3.7,1.2c-1.2,0.8-1.8,1.7-1.8,2.7c0,1.3,0.5,2.4,1.5,3
		c1,0.9,2.2,1.2,3.6,1.2c1.8,0,3.3-0.3,4.6-1.1C131.6,478.6,132.3,477.5,132.3,476.3z"/>
	<path class="st1" d="M120.4,471.7c0,1.2-0.2,2.4-0.3,3.4c-0.2,1.1-0.5,2-0.9,2.6c-0.3,0.8-0.8,1.3-1.3,1.6
		c-0.4,0.3-1.1,0.4-1.8,0.4c0-2.6,0.3-6.3,0.9-10.9s1.3-9.8,2.3-15.4c0.5-1.6,1.6-4.6,3.3-8.7c0.2-0.3,0.3-0.5,0.5-0.4
		c0.2,0,0.3,0.2,0.3,0.4c-0.1,2.1-0.5,6-1.3,11.7c-0.8,5.7-1.2,9.6-1.3,11.8C120.6,470.2,120.4,471.4,120.4,471.7z"/>
	<path class="st1" d="M110.8,465.3c0,0.9-0.3,2.5-1,4.9c-0.7,2.4-1.5,4.9-2.5,7.7c-1.1,2.8-2.1,5-2.8,6.4c-0.9,1.4-1.7,2.5-2.6,3.3
		c-1,0.8-2.5,1.4-4.7,2.1c-2.1,0.7-3.8,1-5.1,1.2c-1.3,0.2-2.1,0.3-2.4,0.3c-0.3,0-0.5-0.1-0.7-0.3c0-0.2,0.1-0.5,0.3-1
		c0.4-0.5,1.3-1.3,2.8-2.2c1.4-1,3.1-2.1,5.1-3.5c2.1-1.4,3.4-2.6,4.2-3.6c0.9-1.1,1.8-2.6,2.8-4.7c1.1-2.1,2.1-4.2,2.9-6.3
		c0.8-2.1,1.4-3.5,1.7-4.3c0.4-0.8,0.8-1.1,1.2-1.1C110.7,464.3,110.8,464.6,110.8,465.3z"/>
	<path class="st1" d="M70.3,413.2c0-0.4,0.7-2,2.1-4.4c1.3-2.6,2.2-3.9,2.5-3.9c0.5-0.2,1.4,0.2,2.5,1.2c1.1,1.1,1.8,2.1,2.5,2.8
		c0.7-1.1,1.4-2.4,2.2-3.7c0.9-1.4,1.4-2.1,1.6-2.1c0.9,0,1.8,0.7,3,1.8c1.1,1.2,1.7,2.3,1.7,3.4c0,1.3-0.5,2.8-1.8,4.6
		c-1.2,1.6-2.1,2.5-2.6,2.5c-0.3,0-1.1-0.4-2.1-1.4s-1.7-1.7-2.5-2.3c-1.8,3.7-3.3,5.4-4.3,5.4c-0.2,0-0.7-0.1-1.1-0.7
		c-0.5-0.3-1.2-1-2.2-1.7C70.8,414,70.3,413.4,70.3,413.2z"/>
	<path class="st1" d="M75.5,466.3c1.2-2.7,1.8-4.3,2.2-5.1c1.5-3.5,2.3-5.9,2.3-7c0-0.4-0.2-1.2-0.7-2.3c-0.4-1.2-0.9-2.2-1.3-3
		c-0.2-0.3-0.4-0.7-0.7-1c-0.2-0.4-0.3-0.8-0.5-1.1c-0.4-0.5-0.5-1.1-0.4-1.4c0.2-0.9,0.5-1.7,0.8-2.5c0.2-0.7,0.4-1.3,0.7-1.8
		c0.9-2.7,1.5-4.4,2.1-5.4c1.1,0.3,2.2,1.6,3.3,3.8c1,2.2,1.5,4.4,1.5,6.6c0,2.4-0.7,5.3-2,8.8c-0.8,2-1.5,3.9-2.3,5.7
		c-0.8,2-1.5,3.9-2.2,5.7c-0.1,0.2-0.3,0.4-0.5,0.5c-0.3,0.1-0.7,0.1-0.9,0.1c-0.3,0-0.5,0-0.8-0.1
		C75.7,466.8,75.6,466.6,75.5,466.3z"/>
	<path class="st1" d="M79.9,483.6c0-0.7-1.3-1.5-3.8-2.7c-2.5-1.3-3.8-2.8-3.8-4.7c0-1.3,0.3-2.7,0.9-4.3s1.2-3.3,2-4.7
		c0.1-0.3,0.3-0.4,0.7-0.5c0.2-0.1,0.5-0.2,0.9-0.2c0.2,0,0.5,0.1,0.8,0.2c0.3,0.1,0.4,0.2,0.4,0.5c0,0.4,0.4,1,1.2,1.5
		c0.8,0.5,1.5,1.1,2.4,1.6c0.8,0.7,1.3,1.3,1.7,2.2c0.3,0.8,0.4,2.1,0.4,3.7c0,2.5-0.2,5-0.9,7.5c-0.5,2.5-1.6,5.5-3.3,9.1
		c-2.5,5.6-6,10.2-10.3,13.5c-1.6,1.1-3.1,1.8-4.7,2.4c-1.7,0.7-3.5,0.9-5.4,0.9c-4.4,0-7.9-1.7-10.3-5.2c-2.1-3-3-6.9-3-11.7
		c0-2.1,0.4-4.8,1.2-8.1c0.9-3.4,1.7-6.2,2.6-8.6c1-2.5,1.8-4.6,2.5-6.2c0.2-0.4,0.5-1.1,1-2c0.3-0.8,0.9-1.8,1.4-3.1
		c0.4-0.9,0.8-1.5,1.1-2.3c0.3-0.7,0.7-1.2,0.9-1.7c0.5-1,0.9-1.4,1.2-1.4c0.3,0.1,0.4,0.4,0.3,1.3c-0.2,0.9-0.4,1.6-0.7,2.3
		c-2.5,6.1-4.2,10.3-5.2,12.7c-1.6,4.4-2.4,7.8-2.4,10.2c0,4.6,1.3,7.8,3.9,9.6c2,1.4,4.4,2.1,7.6,2.1c5.5,0,10.2-1.6,14-4.9
		C78.3,489.6,79.9,486.7,79.9,483.6z"/>
	<path class="st1" d="M558.1,430.8c0-0.3,0.7-1.8,2-4.4c1.2-2.6,2-3.9,2.4-3.9c1,0,2,0.5,3,1.7c1.2,1.2,1.7,2.5,1.7,3.6
		c0,1.2-0.5,2.7-1.5,4.6c-1.1,2-1.8,2.9-2.4,2.9c-0.3,0-1-0.4-2-1.4c-1.1-0.9-1.8-1.5-2.4-2C558.4,431.5,558.1,431.1,558.1,430.8z"
		/>
	<path class="st1" d="M553.5,443.3c0-0.4,0.8-2,2.2-4.7c1.4-2.6,2.3-3.9,2.6-3.9c0.5,0,1.4,0.5,2.5,1.5c1.2,0.9,2,1.8,2.4,2.7
		c0.8-1.2,1.4-2.4,2.1-3.5c1-1.6,1.6-2.5,1.8-2.5c0.8,0,1.8,0.7,3,1.7c1.2,1.3,1.7,2.4,1.7,3.5c0,1.3-0.5,2.8-1.7,4.7
		c-1.2,1.7-2.2,2.6-2.7,2.6c-0.4,0-1-0.4-1.8-1.2c-1.1-1.2-2-2.1-2.7-2.6c-1.8,3.8-3.3,5.6-4.3,5.6c-0.2,0-1.1-0.7-2.6-1.8
		C554.4,444.1,553.5,443.5,553.5,443.3z"/>
	<path class="st1" d="M553.5,464.2c0.5,0.1,1.1,0,1.7-0.4c0.5-0.3,1.4-1.5,2.5-3.4c0.5,0.3,1,0.5,1.1,0.7c1.1,0.3,2.1-0.9,2.9-3.7
		c0.1,0,0.4,0,1,0.2c0.4,0.1,0.9,0,1.2-0.5c0.4-0.4,0.8-1.2,1.2-2.2c0.3-1,0.5-1.4,0.7-1.4c0.3-0.1,0.4,0.1,0.5,0.3
		c0,0.3,0,0.7-0.1,1.1c-0.2,1.5-0.8,2.9-1.4,4.4c-0.5,1.4-1.3,2.4-2.1,3.1c-0.8,0.7-1.5,1.3-2.3,2.1s-1.4,1.2-2,1.4
		c-0.8,0.2-1.4,0.5-2,0.8c-2.5,2.5-4,3.8-4.9,3.7c0-0.2-0.2-0.7-0.3-1.2c-0.1-0.5-0.2-1.1-0.2-1.7c-0.1-0.5-0.1-1.2,0-1.8
		c0.1-0.7,0.3-1.2,0.5-1.7L553.5,464.2z"/>
	<path class="st1" d="M531.1,517.6c0-0.7,0.7-2.3,1.8-4.8c1.3-2.4,2.1-3.6,2.5-3.6c0.7-0.3,1.7,0.2,3.1,1.6c1.4,1.4,2.2,2.5,2.3,3.4
		c0,1-0.5,2.6-1.7,4.6s-2.1,3-2.6,3c-0.2-0.1-0.9-0.5-2.1-1.4c-1.2-0.8-2.1-1.3-2.6-1.7C531.3,518.4,531.1,518,531.1,517.6z"/>
	<path class="st1" d="M551.7,470.5c-1-0.2-1.7-0.2-2.3,0c-1.7,0.5-3.5,2.4-5.3,5.6c-2,3.1-4.1,4.8-6.6,4.8c-2.4-0.2-4.3-1.3-5.5-3.4
		c-1.3-2.1-2-4.6-2-7.5c0.5-2,1.2-3.6,1.8-5.1c0.8-1.4,0.7-1.7,1.5-2.3c0,3.4,2.2,5.4,3.4,6.6c1.3,1.3,2.7,1.7,4.3,1.7
		c2.3,0,4.1-1.1,5.6-3c1.1-1.5,2-2.5,2.8-3.1c0.8-0.7,1.5-1,2.2-1c0.1,0.1,0.2,0.7,0.3,1.4c0.2,0.9,0.3,1.5,0.3,2.2
		c0,0.7-0.1,1.2-0.2,1.7C552,469.5,551.9,469.9,551.7,470.5z"/>
	<path class="st1" d="M531.5,476.7c-0.1-0.1-1.4,2-2.7,4.7c-0.9,1.6-1.8,3.1-3.1,4.4c-1.5,1.4-3,2.5-4.4,3c-1.5,0.7-2.9,0.9-4.2,0.7
		c-1.2-0.2-2.3-0.3-2.9-0.5c-0.4-1.4-0.5-2.8-0.7-4.1c0-1.4,0.2-2.8,0.7-4.2c1.4-0.7,2.7-1.1,3.9-1.1c0.4,0,1.1,0.1,2,0.4
		c0.4,0.1,1.3,0.2,2.6,0.4c1.3,0.2,2.5-0.2,3.6-1.1c1.1-1,1.7-2.1,2.1-3.4c0.1-0.5,0.2-1.3,0.3-2.3c0.2-1,0.4-3.9,0.7-8.9
		c0-1.2,0.1-2.3,0.2-3.4c0-1.1,0.1-2.6,0.3-4.4c0.1-1.8,0.3-3.1,0.5-3.7l2.1-5.1l2-5c0.2-0.5,0.4-0.7,0.8-0.4
		c0.2,0.1,0.2,0.5,0.1,1.2c-0.4,1.8-0.8,5-1.2,9.4c-0.1,2.2-0.2,3.9-0.3,5.3c-0.1,1.3-0.1,2.3-0.1,2.9c-0.1,1.7-0.2,3.3-0.3,4.6
		s-0.1,2.4-0.2,3.3C532.5,474.7,531.9,477.4,531.5,476.7z"/>
	<path class="st1" d="M540.5,433c1.7-1.7,5-4.4,9.9-8c2.3-1.6,4.4-3.3,6.7-5c2.3-1.6,4.6-3.3,6.8-5c3-2.4,6.1-4.9,9.2-7.6
		c1.1-0.9,2.3-2,3.7-3.3c1.4-1.2,2.9-2.6,4.8-4.2c5.2-4.7,7.9-7.2,7.9-7.3c0,0.2-0.1,0.5-0.3,1c-0.3,1.1-1,2.5-2.1,4.2
		c-1.1,1.6-2,3-2.9,4.1c-1.2,1.4-2.4,2.8-3.7,4.1c-1.7,1.7-2.8,2.8-3.1,3.1c-0.9,0.8-2.7,2.4-5.3,4.6c-1,0.8-2.2,1.8-3.6,2.9
		c-1.5,1.2-3.1,2.5-5,3.9c-2.4,1.8-4.8,3.7-7.2,5.4c-1.5,1-2.9,2-4.3,2.9s-2.7,2-4.1,2.9l-7.3,5.3c-0.5,0.3-1.1,0.8-1.5,1.1
		c-0.5,0.4-1,0.8-1.5,1.1c-0.9,0.7-1.4,0.9-1.5,0.7c0.5-1.5,1.2-2.8,2-4C538.6,435,539.4,434,540.5,433z"/>
	<path class="st1" d="M514.1,489c-3-0.2-5.6,0.4-8.1,1.8c-0.3,0.2-0.5,0.2-0.9,0.1c-0.2-0.2-0.1-0.8,0.2-1.6c0.5-1,1.5-2.4,3.1-4.2
		c1.6-1.8,3.5-3.4,5.6-4.4C515.1,483.6,515.1,486.4,514.1,489z"/>
	<path class="st1" d="M492.8,462c0,2.4-0.1,4.6-0.1,6.5s-0.1,3.6-0.3,4.9c-0.2,2.9-0.8,5.4-1.6,7.6c-0.9,2.3-1.5,3.8-2,4.4
		c-0.5,0.8-0.9,1.3-1.2,1.6c-0.3,0.3-0.7,0.4-0.9,0.3c-0.2-0.1-0.2-0.3-0.2-0.5c0-0.1,0.2-1.1,0.7-3c0.3-2,0.7-3.9,0.8-5.6
		c0.1-1.8,0.1-4.4,0-7.8c0-3.4,0-6,0.2-7.7c0.2-1,0.4-2.1,0.8-3.1c0.3-1.1,0.7-2.3,1.1-3.3c0.3-1.1,0.8-2.1,1.2-3
		c0.5-1,0.9-1.8,1.3-2.5c0.2-0.5,0.5-0.8,0.8-0.7c0.2,0.1,0.3,0.3,0.3,0.7c-0.1,0.2-0.2,0.9-0.2,1.8c-0.1,1-0.2,2.1-0.2,3.3
		c-0.1,1.2-0.1,2.4-0.2,3.6C492.9,460.6,492.8,461.5,492.8,462z"/>
	<path class="st1" d="M395.1,637.4c0,4.6-1.1,9.1-3.5,13.8c-2.3,4.7-5.7,8.6-10.5,11.9c-0.3,0.2-0.7,0.3-1.1,0.1
		c-0.3-0.3-0.2-0.9,0.2-1.5c5.6-9.1,8.5-17.2,8.6-24.4c0-7.3-2.8-15.5-8.6-24.6c-0.4-0.7-0.5-1.2-0.2-1.5c0.4-0.2,0.8-0.1,1.1,0.1
		c4.8,3.4,8.2,7.3,10.5,11.9c2.4,4.7,3.5,9.2,3.5,13.8V637.4z"/>
	<path class="st1" d="M329.6,584.8c0-0.3,0.7-2,2-4.9c1.3-2.8,2.2-4.3,2.6-4.3c1,0,2.1,0.7,3.4,2c1.2,1.4,1.7,2.7,1.7,4
		c0,1.2-0.5,2.9-1.6,5c-1.2,2.2-2,3.3-2.5,3.3c-0.3,0-1.1-0.5-2.2-1.5c-1.1-1.1-2-1.7-2.5-2.2C329.8,585.7,329.6,585.2,329.6,584.8z
		"/>
	<path class="st1" d="M324.7,598.6c0-0.4,0.8-2.2,2.3-5.1c1.4-2.8,2.4-4.3,2.8-4.3c0.5,0,1.4,0.5,2.6,1.6c1.3,1.1,2.1,2.1,2.5,3
		c0.9-1.3,1.6-2.6,2.3-3.9c1.1-1.7,1.7-2.6,2-2.6c0.9,0,2,0.7,3.3,1.8c1.3,1.4,2,2.7,2,3.9c0,1.3-0.7,3-2,5.1
		c-1.3,2-2.3,2.9-2.8,2.9c-0.4,0-1.2-0.5-2-1.4c-1.2-1.3-2.2-2.3-3-2.8c-2,4.1-3.5,6.2-4.6,6.2c-0.2,0-1.2-0.7-2.9-2.1
		C325.5,599.6,324.7,598.8,324.7,598.6z"/>
	<path class="st1" d="M322.1,639.4c0,1.3,0,2.4,0.1,3c0,0.9,0.2,2.1,0.7,3.6c0.4,1.2,1.2,2.2,2.2,2.9c1.1,0.8,2.5,1.1,4.1,1.1
		c2.4,0,4.2-0.7,5.6-1.8c1.8-1.7,3-2.7,3.7-3c0.4-0.2,0.9-0.2,1.4-0.1c0.5,0.1,1.2,0.2,1.7,0.1c0.8,0,1.4-0.8,2-2.3
		c0.7-1.6,1.1-2.4,1.3-2.6c0.2-0.1,0.4-0.1,0.8,0c0.9,0.2,1.5,0.4,1.8,0.4c0.7,0,1.2-0.4,1.7-1.3c0.1-0.3,0.4-1.1,1-2.4
		c0.3-1.1,0.7-1.7,0.9-1.7c0.3,0,0.4,0.4,0.4,1.1c0,2.6-0.8,5.1-2.2,7.5c-1.6,2.5-3.1,3.7-4.8,3.7c-1,1.5-1.6,2.3-1.7,2.4
		c-1.1,1.2-2,1.8-2.8,1.8c-0.9-0.2-1.5-0.3-2.1-0.3s-1.2,0.2-1.8,0.5c-0.7,0.3-2.2,1.8-4.2,4.7c-2.2,2.7-4.4,4.1-6.9,4.1
		c-2.7,0-4.7-1.2-6-3.6c-1.2-2.4-1.7-5.2-1.7-8.7c0.7-2.8,1.3-5.1,2.1-6.8c0.8-1.8,1.5-2.7,2.2-2.7
		C321.7,639,321.9,639.1,322.1,639.4z"/>
	<path class="st1" d="M322.1,639.3c0,1.4-0.2,2.7-0.4,3.9s-0.5,2.2-0.9,2.9c-0.4,0.9-0.9,1.5-1.5,1.8c-0.5,0.4-1.3,0.5-2.1,0.4
		c0-2.9,0.3-7,0.9-12.4c0.7-5.3,1.5-11.2,2.7-17.6c0.5-1.8,1.8-5.2,3.7-9.9c0.2-0.4,0.3-0.7,0.5-0.5c0.2,0.1,0.3,0.2,0.3,0.5
		c-0.1,2.3-0.5,6.7-1.4,13.2c-0.9,6.6-1.3,11.1-1.5,13.4C322.2,637.8,322.1,639.1,322.1,639.3z"/>
	<path class="st1" d="M301.5,690.8c0,0.3,0.2,0.8,0.8,1.2c0.4,0.4,1,0.9,1.5,1.3c0.5,0.7,1.1,1.2,1.7,1.8c0.4,0.5,0.8,0.8,1.1,0.9
		c0.4,0,1.3-1,2.5-2.8c1.2-2,1.7-3.6,1.8-4.9s-0.4-2.5-1.5-3.8c-1.1-1.4-2.1-2.1-2.9-2.2c-0.3,0-1.3,1.3-2.7,3.9
		C302.3,688.8,301.5,690.4,301.5,690.8z"/>
	<path class="st1" d="M296.1,680.2c0,0.2,0.9,1.1,2.5,2.5c1.7,1.4,2.7,2.1,2.9,2.1c1.1,0,2.7-2.1,4.7-6.4c0.8,0.7,1.8,1.6,3,2.9
		c0.9,1,1.5,1.4,2,1.4c0.7,0,1.6-1,2.9-2.9c1.3-2.2,2-3.9,2-5.3c0-1.2-0.7-2.6-2-4c-1.3-1.3-2.4-2-3.3-2c-0.3,0-1,0.9-2.1,2.8
		c-0.7,1.3-1.4,2.6-2.3,3.9c-0.4-1-1.2-2-2.5-3.1c-1.2-1.1-2.2-1.6-2.8-1.6c-0.3,0-1.2,1.5-2.8,4.6
		C296.9,677.9,296.1,679.7,296.1,680.2z"/>
	<path class="st1" d="M317.4,626.5c-2,6.7-4,10.7-6.4,11.8c-3.4,1.6-5.3,2.7-6.1,3.3c-0.7,0.5-1.2,1-1.4,1.3
		c-0.8,1.1-1.5,2.4-2.2,4.1c-1.3,3.1-2.3,4.6-3,6.3c-1.3,2.6-3.1,4.6-5.6,5.5c-1.1,0.5-2.7,0.9-4.7,1.2c-2,0.4-3.6,0.7-4.7,0.7
		c-1.1,0.1-1.7-0.1-2-0.7c-0.1-0.3,0.3-0.9,1.2-1.4c0.3-0.2,1-0.8,2-1.5s2.7-1.8,5.3-3.5c2-1.3,2.8-2,2.7-1.8c2.3-1.6,3.8-3,4.6-4.1
		c0.3-0.3,1.2-1.2,2.7-4.7s2.7-5.7,3.5-6.7c0.9-1.1,2.1-2.2,3.8-3.3c0.7-0.3,1.7-0.9,3.4-1.7c1.4-0.7,2.4-1.3,3-1.7
		c0.4-0.5,1.2-1.5,2-3c0.9-1.5,1.4-2.2,1.8-2.2C317.6,624.5,317.6,625.2,317.4,626.5z"/>
	<path class="st1" d="M285.2,610.7c-0.1,5,0.1,5.3,0.1,6.7c-0.1,4.2-0.4,8.6-1.3,13.2c-1.1,6.3-2.6,11.2-4.6,14.8
		c-2.1,3.8-4,6.6-6,8.7c-1.6,1.8-3.6,3.3-5.9,4.4c-3.6,2.2-7.9,3.3-13,3.3c-4.7,0-8-0.9-9.9-2.5c-1.5-1.5-2.3-3.6-2.3-6.2
		c0.3-4.9,1-9,1.8-12.2c0.2-0.8,0.5-1.2,0.9-1.2c0.4,0,0.7,0.3,0.7,0.9c-0.1,0.5-0.1,1.1-0.1,1.7c0,2.8,1.3,4.9,4,6
		c1.2,0.4,2.7,0.8,4.3,1.1c1.8,0.1,3.4,0.2,4.7,0.2c3.7,0,7-0.5,10-1.6c3.8-1.4,6.6-3.6,8.7-6.6c0.7-1.3,1.3-3.1,1.7-5.7
		c0.4-2.5,0.7-6.7,0.7-12.6c0.1-7-0.1-8.2,0-9.4c0.1-2.5,0.3-3.9,0.4-4.3c0.4-1.3,1.3-3.3,2.6-6.2c1.3-2.9,2.3-4.9,2.7-5.7
		c0.3-0.1,0.5-0.1,0.7,0c0.1,0.2,0.1,0.5,0.1,1.2c-0.1,0.5-0.2,1.2-0.2,2.1c-0.1,0.8-0.3,2.3-0.5,4.4
		C285.3,607.3,285.3,609.2,285.2,610.7z"/>
	<path class="st1" d="M333.2,560.1c-2.7,2.6-5.4,5.1-8,7.4c-3,2.6-6.1,5.1-9.1,7.6c-3,2.5-5.2,4.2-6.5,5.3c-1.4,1-2.8,2.2-4.3,3.4
		c-1.6,1.1-3.1,2.3-4.7,3.5l-8,6.3c-0.5,0.4-1.2,0.9-1.7,1.3c-0.5,0.5-1.1,0.9-1.6,1.3c-1.1,0.9-1.6,1.1-1.7,0.9
		c0.4-1.3,1.1-2.9,2.1-4.7c0.8-1.3,1.6-2.5,2.6-3.6c1.7-2,4.7-4.4,8.7-7.7c4-3.1,7.3-5.9,9.8-7.8c2.5-2.1,5.4-4.3,8.6-6.9
		c3.3-2.7,6.4-5.4,9.4-8.1c3-2.7,3.4-2.9,6.8-6.4c3.6-3.5,6.1-6.2,7.7-8c0.3-0.1,0.4,0.3,0.1,1.3c-1.2,3.6-3,6.7-5.3,9.5
		C335.6,557.5,336,557.3,333.2,560.1z"/>
	<path class="st1" d="M268.9,627c0,1-0.5,1.4-1.8,1.4c-1,0.1-1.7,0.3-2,0.9c-0.3,0.4-0.2,1.2,0.2,2.1c0.4,1,0.3,2-0.4,2.9
		c-0.7,1.1-2.1,1.6-4,1.6c-1.3-0.1-2-0.8-2.1-1.8c0-0.4,0.3-0.7,0.9-0.7h1.4c1.1,0,2-0.2,2.5-0.7c0.5-0.3,0.7-1.2,0.2-2.4
		c-0.4-1.2-0.1-2.2,0.8-3c0.9-1,2-1.4,3-1.4C268.5,625.9,268.9,626.3,268.9,627z"/>
	<path class="st1" d="M206.1,638.9c0-4.6,1.2-9.1,3.5-13.8s5.9-8.6,10.5-11.9c0.3-0.2,0.7-0.2,1.1-0.1c0.3,0.3,0.2,0.9-0.2,1.6
		c-5.7,9.1-8.6,17.2-8.6,24.5c0.1,7.2,2.9,15.3,8.6,24.4c0.4,0.7,0.5,1.2,0.2,1.5c-0.4,0.2-0.8,0.2-1.1-0.1
		c-4.7-3.3-8.2-7.3-10.5-11.9s-3.5-9.2-3.5-13.8V638.9z"/>
	<path class="st1" d="M465.6,443.7c0,4.9,1.4,7.3,4,7.3c2.3,0,3.6-1.3,4.1-4c0.1-0.7,0.2-1.6,0.2-3.1l0.5-8.8
		c0.1-3.4,0.4-6.5,0.9-9.3l4.2-8.2c0-0.2,0.2-0.3,0.4-0.7c0.1,0.1,0.2,0.3,0.4,0.7l-1.1,5.6c-0.1,0.8-0.5,4.9-1.1,12
		c-0.3,5.5-1.1,9.8-2.2,12.8c-3.1,9-6.4,13.4-9.9,13.4c-3.1,0-4.7-2.7-4.7-8.1v-2.1L465.6,443.7z"/>
	<path class="st1" d="M465.7,440.8c0,1.8,0.2,7.4,0.4,10.6l-0.5,7l-1.2,0.1c-0.4,0-1,0.4-1.6,1.2c-2.7,4.2-5.3,7-7.9,8.6V459
		c1.1,0,2,0.1,2.7,0.1c2.5,0,3.8-1.3,3.9-3.9l0.2-4c0.2-4.8,0.5-12,1.2-15.9c0.1-1.3,0.3-2.2,0.5-2.6l2-4.7c0.9-2.3,1.7-4.1,2.7-5.5
		c0.2,0,0.4,0,0.5,0.2c0,0.1,0,0.5-0.1,1.1l-1.7,9.1C466.1,436.5,465.7,439.1,465.7,440.8z"/>
	<path class="st1" d="M476.4,411.2c1.7-1.6,5-4.3,9.9-8.1l13.7-10.3c2.6-2.1,5.7-4.6,9.3-7.8c1-0.9,3.8-3.4,8.5-7.6
		c4.9-4.6,7.6-7,8-7.5c0,0.3-0.1,0.7-0.2,0.9c-1.1,4.1-5,9.4-11.8,15.9c-3.1,2.9-7.8,6.9-14.2,11.9c-0.2,0.1-5.5,4-15.7,11.6
		l-7.3,5.4c-3,2.2-4.6,3.1-4.7,2.9C473,415.5,474.5,413.1,476.4,411.2z"/>
	<path class="st1" d="M454.9,468.3c-0.4,0.3-1.1,0.4-2.1,0.4h-1.4c-0.5-0.1-1-0.1-1.2-0.1c-5.4,0-14.4,4.1-19.2,10.5
		c-0.5,0.7-2.2,3-4.9,6.9c-1.8,2.8-4.1,5.2-6.6,7.4c-5.3,4.4-10.3,7.7-15,9.8c-1.1,0.4-1.7,0.7-2,0.7c-0.3,0-0.4,0-0.5-0.2
		c-0.4-0.3,0.5-1.4,3-3.1c3.7-2.6,6.1-4.3,7.3-5.3c2.2-1.7,4.3-3.8,6.6-6.3c1.8-2.1,4.4-5.5,7.8-10.4c2.5-3.6,4.3-6.1,5.4-7.5
		c2.4-3,5.1-5.5,8.2-7.6c3.7-2.4,11.2-4.4,14.4-4.4c0.3,1.5,0.4,3.3,0.4,5C455.3,465.9,455.2,467.4,454.9,468.3z"/>
	<path class="st1" d="M383.8,457.5c1.4,0.2,2.7-0.5,4.1-2.4c2.1-2.7,3-5.1,3-7.4c0-0.1-0.1-0.2-0.4-0.2c-0.1,0-0.4,0.2-0.8,0.8
		c-1.6,2.5-2.9,3.7-3.6,3.7l-2.4-0.3V457.5z"/>
	<path class="st1" d="M383.8,457.5c-1.1-0.1-2-0.1-2.4,0c-1.5,0.5-3.5,2.4-6,5.9c-2.1,3-4.3,4.6-6.8,4.6c-2.7,0-4.9-1.3-6.3-3.7
		c-1.2-2-1.8-4.3-1.8-7l4.7-7.9c0,5.9,2.4,8.8,7.3,8.8c2.4,0,4.4-1,6.1-2.9c2.1-2.6,3.9-3.7,5.3-3.5c0.1,0.1,0.1,0.3,0.1,0.4
		c0.4,1.1,0.5,2,0.5,2.5C384.5,455.3,384.2,456.3,383.8,457.5z"/>
	<path class="st1" d="M365.2,449.1l-1,6.5c-0.9,5.1-1.6,7.6-2.3,7.6c-0.3,0-0.8,0.5-1.4,1.4c-1.3,2.1-2,3.4-2,3.9
		c0,0.2,0.4,0.8,1.3,1.4l1.7,1.2c2.3,1.7,3.4,3.6,3.4,5.6c0,1.6-0.5,4.1-1.5,7.5c-2.7,8.5-7,14.8-13.1,19.2
		c-3.7,2.5-7.5,3.8-11.6,3.8c-4.4,0-7.8-1.2-10.1-3.6c-2.3-2.5-3.5-5.7-3.5-9.9c0-5.5,1.7-11.8,5.3-19c0.3-0.9,2.3-4.3,5.7-10.6
		c1.4-2.5,2.3-3.8,2.6-3.7c0.2,0.1,0.3,0.4,0.3,1c0,0.8-0.3,1.7-0.8,2.8c-5.9,12-8.8,19.5-8.8,22.1c0,3.3,1.1,5.7,3.4,7.6
		c2.1,1.6,4.9,2.4,8.5,2.4c4.4,0,8.2-1,11.5-2.8c3.5-2.1,5.9-4.9,7.2-8.7c0.2-0.8-1.1-2-3.9-3.5c-0.7-0.3-1.4-0.8-2.2-1.3
		c-1.1-1-1.7-2.1-1.7-3.5c0-1.2,0.4-2.7,1.4-4.3l3.4-6.3c1-1.7,2.1-4,3.4-6.7l0.1-2.3l0.4-5.2c0.4-6.7,2.4-12.8,5.9-18.3
		c0.3-0.2,0.5-0.2,0.8-0.2c0.2,0.2,0.1,0.7-0.2,1.4c-0.2,1.3-0.5,3.5-1.1,6.5C365.5,445.7,365.2,448.3,365.2,449.1z"/>
	<path class="st1" d="M220.8,476.2l3.5,1.1c1,0.1,2.1-0.3,3.3-1.5c0.9-1,1.7-2,2.8-2.9l10.3-10.2c0.5-0.7,1.6-1.5,3.1-2.9l2.7-2.2
		c0.8-0.7,1.3-1.5,1.7-2.6c0-0.1,0.2-0.9,0.5-2.3c-0.1-0.2-0.1-0.5-0.2-0.9c-1.6,1.2-3,1.7-4.3,1.7c-0.7,0-2.1-0.4-4.1-1.3
		c-2-0.8-3.5-1.2-4.3-1.2c-2.5,0-4.4,1.2-5.9,3.8c-0.9,1.7-1.3,2.9-1.3,3.8c0,0.2,0,0.2,0,0.2c0.2,0.1,0.9-0.7,2-2.3
		c0.9-1,1.8-1.5,2.9-1.5c1.7,0,4.1,0.9,7.2,2.7c-1.2,1.5-2.7,3-4.6,4.9c-4.2,3.9-7.8,6.5-10.6,7.7c-0.3,0-1.1,0.2-2.2,0.8
		c-1.1,0.4-2,0.7-2.5,0.7V476.2z"/>
	<path class="st1" d="M246.5,417.7c0.2,1.1-0.2,2.6-1.2,4.6c-1.1,2.2-2.2,3.4-3.3,3.4c-0.7-0.7-1.7-1.4-3-2.5
		c-1.4-1-2.1-1.7-2.1-2.1l0.2-0.4c0.4-0.8,1.1-2.3,2.1-4.6c0.3-0.5,1-1.6,2-3.4l0.4-0.5c0.2,0.3,0.7,0.7,1.3,1c1.2,1,2,1.5,2.3,2
		C245.8,415.9,246.3,416.8,246.5,417.7z"/>
	<path class="st1" d="M220.7,476.2l-3.1-1.1l-3.3,4c-3.5,4.2-10.4,7.5-20.8,9.6c-8,1.7-15.7,2.6-23.3,2.6h-1.6
		c-7.7,0-12.9-1.2-15.6-3.5c-1.5-1.3-2.3-3.8-2.3-7.6c0-6.5,0.4-9.8,1.4-9.8c0.3,0,0.7,0.8,1,2.2c0.4,2.7,2,4.6,4.3,5.4
		c3.8,1.3,8.2,2.1,13.4,2.1h1.7c9.5,0,18.6-0.9,27-2.5c2.9-0.5,5-1,6.3-1.3c4.4-1.1,8-2.6,10.9-4.6c0.5-0.4,1.3-1.1,2.2-2.1
		c0.2,0,0.3,0.4,0.3,1.1c0,0.2,0,0.4-0.1,1c0.3,0.1,0.9,0,1.5-0.1c0.3,1,0.5,1.6,0.5,2.3C221.2,474.8,221,475.6,220.7,476.2z"/>
	<path class="st1" d="M182.2,453.1c0.2,1.1-0.1,2.6-1.1,4.6c-1.2,2.3-2.3,3.4-3.3,3.4c-0.8-0.5-1.7-1.4-3.1-2.4
		c-1.3-1.1-2-1.7-2-2.2l0.1-0.3c0.4-0.9,1.2-2.4,2.2-4.7c0.2-0.5,0.9-1.6,2-3.4l0.3-0.4c0.3,0.2,0.8,0.5,1.4,1
		c1.2,0.9,2,1.5,2.2,1.8C181.6,451.5,182.1,452.4,182.2,453.1z M192.2,452.6c0.1,1.1-0.2,2.6-1.2,4.6c-1.2,2.2-2.3,3.4-3.3,3.4
		c-0.8-0.7-1.7-1.4-3-2.5c-1.4-1-2.1-1.7-2.1-2.1l0.2-0.4c0.3-0.8,1.1-2.3,2.1-4.6c0.3-0.5,0.9-1.6,2-3.4l0.3-0.5
		c0.3,0.3,0.8,0.7,1.4,1c1.2,1,2,1.5,2.2,2C191.5,450.8,192,451.7,192.2,452.6z"/>
</g>
</svg>
