<?xml version="1.0" encoding="utf-8"?>
<!-- Generator: Adobe Illustrator 21.0.2, SVG Export Plug-In . SVG Version: 6.00 Build 0)  -->
<svg version="1.1" id="Layer_1" xmlns="http://www.w3.org/2000/svg" xmlns:xlink="http://www.w3.org/1999/xlink" x="0px" y="0px"
	 viewBox="0 0 612 792" style="enable-background:new 0 0 612 792;" xml:space="preserve">
<style type="text/css">
	.st0{fill:#3497FD;}
	.st1{fill:#3494FC;}
</style>
<g id="__x0023_Layer_x0020_3">
	<path class="st0" d="M60.4,151h490.9c30.8,0,55.9,25.8,55.9,57.3v26.3l-290.9-0.4c-27.5-0.7-51.7-1.7-80.2-4.4
		c-12.9-2.2-22.8-4.3-34.8-6.1c-15.5-2.3-37.3-1.8-52.6,1c-22.2,5.9-18.3,20.4,0,23.8c18.4,0.6,34.8,1.8,52.4,0
		c12.7-1.3,24.3-3.4,35.4-4.9c29.1-2.8,49-3.1,80.6-4.4h290.2v23.9l-308,0.1c-35.8-3.7-57.4-9.2-97.3-8.8
		c-36.5,0-66.3-0.7-106.3,0.9c-23.8-0.9-32.1,23.4,0.4,24.9c29.7,0.7,81.2,0.7,104.9,0.9c36.6,0.4,67.2-5.1,98.2-8.2l308.1-0.9V296
		H341.6c-39.1-2.7-86.8-8.9-157.3-8.5c-38.2,0-69.4-0.7-111,0.7c-24.4-0.7-32.5,23.3,0.5,24.5c30.9,0.7,84.6,0.7,109.4,0.9
		c39.1,1.1,125.7-7,158.2-8.2l265.9-0.6v23H345.1c-56.8-5.9-62.4-9.2-160.4-9.5c-38.2,0-81.6-0.4-123.2,1.1
		c-24.4-0.6-32.5,23.3,0.5,24.5c30.9,0.7,96.4,1.3,121.2,1.5c53.7,1.5,128.6-5.3,161.9-8.2l262.1-0.6v21.7H359.4
		c-57.9-7.8-76.7-7.9-174.7-8.3c-38.2,0-85.1-0.6-126.8,1c-24.4-0.7-32.6,23.2,0.4,24.4c30.9,0.7,100,1.6,124.8,1.7
		c58.9,1.5,137.2-3.1,176.2-8.2l247.8-0.6v23H347.6c-56.8-5.9-64.9-9.2-162.8-9.5c-38.2,0-81.6-0.4-123.2,1.1
		c-24.4-0.6-32.5,23.3,0.5,24.5c30.9,0.7,96.4,1.3,121.2,1.5c53.7,1.5,130.9-5.3,164.3-8.2l259.8-0.6v21.7H341.3
		c-38.6-3.3-115.5-8.9-157.1-8.5c-38.2,0-69.4-0.7-111,0.7c-24.4-0.7-32.5,23.3,0.5,24.5c30.9,0.7,84.6,0.7,109.4,0.9
		c44.6,2.3,124.5-6.7,158.2-8.2l265.9-0.6v23l-311.7,0.1c-35.7-3.7-53.7-9-93.7-8.7c-36.5,0-66.3-0.7-106.3,0.7
		c-23.8-0.7-32.1,23.2,0.4,24.5c29.7,0.7,81.2,0.7,104.9,0.9c36.6,0.4,63.6-5,94.7-8.1l311.7-0.7v24.5H316.8
		c-31.6-1.6-51.7-1.7-80.7-4.9c-11.1-1.6-22.7-3.9-35.3-5.4c-17.7-2-34-0.7-52.5-0.1c-18.2,3.8-22.2,19.9,0,26.3
		c15.4,3.1,37.3,3.7,52.8,1.1c11.8-2,21.9-4.3,34.7-6.6c28.6-3.2,52.8-4.2,80.2-5l291.3-0.2v25.9c0,31.5-25.2,57.3-55.9,57.3H60.4
		c-30.7,0-55.8-25.8-55.8-57.3V208.3C4.6,176.8,29.8,151,60.4,151z"/>
	<path class="st1" d="M226.3,628.7h-19.7v-6.1h1c2.3,0,3.5-1,3.5-2.8v-19.1h5.1v16.6c1.5-2,3.1-3.7,4.8-5c2.2-1.7,4.3-2.6,6.4-2.6
		c2.1,0.1,3.9,1,5.4,2.9c1.5,1.7,2.2,3.8,2.2,6c0,3.4-1.2,6.1-3.5,7.9C229.7,627.9,228,628.7,226.3,628.7z M230.2,618.6
		c0-1-0.4-1.7-1.1-2.2c-0.6-0.6-1.3-1-2.3-1c-2.2,0-5.3,2.4-8.8,7.1h8.1c1.2,0,2.2-0.4,2.9-1C229.8,620.8,230.2,619.9,230.2,618.6z"
		/>
	<path class="st1" d="M375.3,628.2h-1.2c-2.9,0-5.4-1.2-7.6-3.8c-1.3,0.5-3.3,0.9-5.6,0.9c-3.2,0-5.6-1-7-2.9
		c-1-1.2-1.3-2.7-1.3-4.3c0-2.3,1.8-4.5,5.4-6.6c0.2,0,1.1-0.5,2.6-1.3l-1.1-2.7l4-2.7l4.5,12.5c0.6,1.8,1.2,3.1,2.1,3.8
		c1,1,2.3,1.5,4.2,1.5h1.1V628.2z M364.1,620c-0.7-2.1-1.5-3.9-2.2-5.4c-2.4,1.2-3.9,2.3-4.6,3.2c-0.1,0.1-0.1,0.4-0.1,1
		c0.2,0.9,1.6,1.3,4,1.3C361.9,620.1,362.8,620,364.1,620z"/>
	<path class="st1" d="M592.3,617.6c0-5.9-2.3-11.7-7-17.7l2.7-2.8c5.5,5.9,8.3,12.8,8.3,20.8c0,7.7-2.8,14.5-8.4,20.5l-2.6-2.7
		C590,630.6,592.3,624.6,592.3,617.6z"/>
	<path class="st1" d="M564.7,613.2c0,6.1,1.2,9.2,3.9,9.2c1.6,0,2.3-0.7,2.3-2.2c0-1.3-0.7-3.4-2.2-6.1l4.2-2.7
		c2.2,3.7,3.3,6.7,3.3,8.9c0,2.4-0.6,4.4-1.7,5.7c-1.1,1.6-2.8,2.4-5,2.4c-2.7,0-4.8-1.2-6.2-3.4c-1.2,2.4-3.1,3.7-5.5,3.7
		c-1.1,0-2.2-0.4-3.2-1c-1-0.7-1.7-1.6-2.3-2.6c-1.2,2.3-3.2,3.5-5.9,3.5h-1.3v-6.1h0.9c1,0,1.7-0.1,2.1-0.5c0.6-0.5,1-1.5,1-2.9
		V613h5c0,3.2,0.1,5.4,0.6,6.7c0.5,1.7,1.5,2.6,2.9,2.6c0.9,0,1.5-0.4,2-1.2c0.4-0.7,0.5-1.5,0.5-2.4v-5.5H564.7z"/>
	<polygon class="st1" points="563.5,600.8 558.9,600.8 558.9,605.7 563.5,605.7 	"/>
	<polygon class="st1" points="560.7,606.6 556.3,606.6 556.3,611.4 560.7,611.4 	"/>
	<polygon class="st1" points="566.3,606.6 561.8,606.6 561.8,611.4 566.3,611.4 	"/>
	<path class="st1" d="M546.3,628.7h-1.1c-1.1,0-2.1-0.4-3.2-1c-1-0.7-1.7-1.6-2.1-2.6c-1.1,2.3-2.8,3.5-5.4,3.5h-2.7v-6.1h1
		c2.1,0,3.1-1.2,3.1-3.7v-6h5v3.1c0,4.4,1.5,6.6,4.4,6.6h1V628.7z"/>
	<polygon class="st1" points="539.3,610.6 534.8,610.6 534.8,605.7 539.3,605.7 	"/>
	<polygon class="st1" points="545.4,610.6 540.9,610.6 540.9,605.7 545.4,605.7 	"/>
	<path class="st1" d="M533.1,628.7h-4.4c-2.2,0-3.9-1.1-5.1-3.2c-0.9-1.7-1.3-3.9-1.3-6.5v-18.4h5v16.5c0,1.8,0.2,3.2,0.6,3.9
		c0.5,1.1,1.6,1.6,3.1,1.6h2.2V628.7z"/>
	<path class="st1" d="M487.1,628.7c-4.9,0-7.3-2.8-7.3-8.2v-3.4h5v2.4c0,1.2,0.2,2.1,0.9,2.4c0.5,0.5,1.3,0.6,2.4,0.6h23.6
		c1.1,0,1.7-0.4,1.7-1.2c0-0.4-0.1-0.9-0.4-1.5l-2.3-4.6l4.4-3.2c2.4,4.3,3.7,7.3,3.7,9.2c0,2.2-0.5,4-1.5,5.3
		c-1.1,1.5-2.7,2.2-4.8,2.2H487.1z"/>
	<polygon class="st1" points="500.4,638.2 495.2,638.2 495.2,632.7 500.4,632.7 	"/>
	<path class="st1" d="M464.5,617.6c0-5.9,2.3-11.7,7-17.7l-2.6-2.8c-5.5,5.9-8.3,12.8-8.3,20.8c0,7.7,2.8,14.5,8.4,20.5l2.4-2.7
		C466.8,630.6,464.5,624.6,464.5,617.6z"/>
	<path class="st1" d="M450.5,617.2c-1.6,0.2-2.6,1.1-3.1,2.4c-0.2,0.6-0.4,1.7-0.4,3.3h3.2v5.7h-5.6v-5c0-4.6,2-7.2,5.9-7.5V617.2z"
		/>
	<path class="st1" d="M423.7,613.4c0,5.9,1.2,8.8,3.8,8.8c1.5,0,2.2-0.7,2.2-2.1s-0.6-3.3-2.1-6l3.9-2.4c2.1,3.5,3.2,6.4,3.2,8.5
		s-0.6,4-1.6,5.5c-1.1,1.5-2.7,2.2-4.9,2.2c-2.6,0-4.5-1.1-5.9-3.3c-1.2,2.3-2.9,3.5-5.3,3.5c-1.1,0-2.1-0.4-3.1-1
		c-0.9-0.6-1.6-1.5-2.2-2.4c-1.1,2.3-3.1,3.4-5.6,3.4H405v-5.7h0.9c0.9,0,1.6-0.2,2-0.5c0.6-0.5,0.9-1.5,0.9-2.9v-5.7h4.8
		c0,3.1,0.2,5.1,0.6,6.5c0.5,1.6,1.5,2.4,2.8,2.4c0.9,0,1.3-0.4,1.8-1.2c0.4-0.6,0.5-1.3,0.5-2.3v-5.3H423.7z"/>
	<polygon class="st1" points="422.4,601.8 418,601.8 418,606.3 422.4,606.3 	"/>
	<polygon class="st1" points="419.9,607.2 415.6,607.2 415.6,611.8 419.9,611.8 	"/>
	<polygon class="st1" points="425.1,607.2 420.9,607.2 420.9,611.8 425.1,611.8 	"/>
	<path class="st1" d="M406.2,628.2h-1.1c-1.1,0-2.1-0.4-2.9-1c-1-0.6-1.7-1.3-2.1-2.4c-1.1,2.3-2.7,3.4-5.1,3.4h-2.6v-5.7h1
		c2,0,2.8-1.2,2.8-3.5v-5.6h4.9v2.9c0,4.2,1.3,6.2,4.2,6.2h1V628.2z"/>
	<polygon class="st1" points="401.2,637.1 396.3,637.1 396.3,632 401.2,632 	"/>
	<path class="st1" d="M374.1,628.2v-5.7h4.4c1.6,0,2.4-0.6,2.4-1.7c0-0.5-0.1-1.1-0.5-1.7l-3.5-7.7c-0.5-1.1-0.9-2.1-0.9-2.9
		c0-1.8,1-2.9,2.8-3.5l12.5-4.3l2,4.4l-10.9,3.3c-0.7,0.2-1.1,0.5-1.1,1c0,0.2,0.1,0.6,0.4,1l3.4,7.3c0.7,1.5,1.8,2.7,3.2,3.5
		s2.8,1.3,4.5,1.3h0.9v5.7h-1.2c-3.2,0-5.5-1.2-7-3.8c-1.2,2.6-3.5,3.8-7,3.8H374.1z"/>
	<path class="st1" d="M332.9,622.6v6.1h4.9c4,0,6.1-2.4,6.1-7.5c0-1.8-1.2-4.9-3.5-9.2l-4.6,3.2l2.4,4.6c0.2,0.5,0.4,0.9,0.4,1.2
		c0,1-0.6,1.5-1.8,1.5H332.9z"/>
	<polygon class="st1" points="340.1,610.6 335.6,610.6 335.6,605.7 340.1,605.7 	"/>
	<polygon class="st1" points="346.2,610.6 341.7,610.6 341.7,605.7 346.2,605.7 	"/>
	<path class="st1" d="M334.1,628.7H333c-1.1,0-2.2-0.4-3.2-1c-1-0.7-1.7-1.6-2.2-2.6c-1,2.3-2.8,3.5-5.3,3.5h-2.7v-6.1h1
		c2,0,3.1-1.2,3.1-3.7v-6h5v3.1c0,4.4,1.5,6.6,4.4,6.6h1V628.7z"/>
	<polygon class="st1" points="330.1,638.1 325.1,638.1 325.1,632.7 330.1,632.7 	"/>
	<path class="st1" d="M321,628.7h-4.4c-2.3,0-3.9-1.1-5.1-3.2c-0.9-1.7-1.3-3.9-1.3-6.5v-18.4h5v16.5c0,1.8,0.2,3.2,0.6,3.9
		c0.5,1.1,1.5,1.6,3.1,1.6h2.2V628.7z"/>
	<path class="st1" d="M301.2,621c0-0.6-0.1-1.1-0.6-1.6l-8.1-10.5l3.8-3.9l8.3,10.6c1.2,1.6,2,3.4,2,5.3c0,5.3-2.8,7.8-8.3,7.8h-5.4
		c-2.9,0-5.6-1.7-8.1-5l3.5-3.7c0,0.1,0.4,0.6,1.2,1.3c1,0.9,2,1.2,2.7,1.2h6.2C300.3,622.6,301.2,622.1,301.2,621z"/>
	<path class="st1" d="M281.4,625.9c0,3.8-1,7-2.8,9.4c-2.1,2.8-5.4,4.3-9.6,4.3c-3.5,0-6.2-1.2-8.3-3.9c-1.8-2.4-2.8-5.6-2.8-9.6
		c0-0.9,0.1-2.1,0.4-3.5c0.4-1.7,0.7-3.1,1.1-4c1.1,0.4,2.3,1,3.9,1.6c-0.6,3.2-1,5.1-1,5.6c0,5,2.4,7.6,7.3,7.6
		c1.7,0,3.3-0.4,4.5-1.2c1.8-1.1,2.7-2.9,2.7-5.4v-25.9h4.6V625.9z"/>
	<polygon class="st1" points="243.8,628.7 238.6,628.7 238.6,600.7 243.8,600.7 	"/>
	<path class="st1" d="M208,622.6v6.1h-1.3c-3.5,0-5.9-2-6.7-6c-2.4,4-6,6-11,6c-2.3,0-4.8-0.9-7.5-2.6v-3.5h9.9l-9.3-19.3l4.3-2.7
		l9.3,19.4c0.5-0.6,1-1.5,1.3-2.8c0.2-1.1,0.4-2.1,0.4-2.9v-13.6h5.1v13.6c0,3.5,0.5,5.9,1.5,7.1c0.6,0.9,1.7,1.2,3.2,1.2H208z"/>
	<path class="st1" d="M177.8,628.7h-20.9v-6.1h3.2c-0.7-1.2-1.1-2.9-1.1-5c0-2,0.7-3.7,2.2-5.1c1.6-1.7,3.8-2.4,6.6-2.4
		c3.1,0,6.2,1,9.3,3.1c-0.5,0.9-1.2,2.2-2.2,4c-0.7-0.5-1.8-1-3.3-1.3c-1.2-0.2-2.2-0.4-2.9-0.4c-1,0-2,0.2-2.7,0.9
		c-0.9,0.7-1.3,1.6-1.3,2.6c0,1.3,0.6,2.3,1.8,2.9c1,0.6,2.1,0.9,3.4,0.9h7.9V628.7z"/>
	<path class="st1" d="M158.1,628.7h-4.5c-2.3,0-4-1.1-5.1-3.2c-1-1.7-1.5-3.9-1.5-6.5v-18.4h5.1v16.5c0,1.8,0.2,3.2,0.6,3.9
		c0.5,1.1,1.6,1.6,3.1,1.6h2.3V628.7z"/>
	<path class="st1" d="M111.1,628.7c-5.1,0-7.6-2.8-7.6-8.2v-3.4h5.1v2.4c0,1.2,0.2,2.1,0.9,2.4c0.5,0.5,1.3,0.6,2.6,0.6h24.1
		c1.1,0,1.7-0.4,1.7-1.2c0-0.4-0.1-0.9-0.4-1.5l-2.3-4.6l4.4-3.2c2.6,4.3,3.8,7.3,3.8,9.2c0,2.2-0.5,4-1.5,5.3
		c-1.1,1.5-2.7,2.2-4.8,2.2H111.1z"/>
	<polygon class="st1" points="121.4,615.7 116.9,615.7 116.9,611 121.4,611 	"/>
	<polygon class="st1" points="127.6,615.7 123.1,615.7 123.1,611 127.6,611 	"/>
	<path class="st1" d="M85.4,622.6v6.1h4.9c4,0,6.1-2.4,6.1-7.5c0-1.8-1.2-4.9-3.7-9.2l-4.5,3.2l2.4,4.6c0.2,0.5,0.4,0.9,0.4,1.2
		c0,1-0.6,1.5-1.8,1.5H85.4z"/>
	<polygon class="st1" points="93.5,638.1 88.5,638.1 88.5,632.7 93.5,632.7 	"/>
	<path class="st1" d="M86.6,628.7h-4.4c-2.3,0-4-1.1-5.1-3.2c-0.9-1.7-1.3-3.9-1.3-6.5v-18.4h5v16.5c0,1.8,0.2,3.2,0.6,3.9
		c0.5,1.1,1.5,1.6,3.1,1.6h2.2V628.7z"/>
	<path class="st1" d="M61.2,622.6v6.1h4.9c4,0,6.1-2.4,6.1-7.5c0-1.8-1.2-4.9-3.7-9.2l-4.5,3.2l2.4,4.6c0.2,0.5,0.4,0.9,0.4,1.2
		c0,1-0.6,1.5-1.8,1.5H61.2z"/>
	<polygon class="st1" points="69,610.5 64,610.5 64,605.1 69,605.1 	"/>
	<path class="st1" d="M41.9,628.7v-6.1h4.6c1.7,0,2.6-0.6,2.6-1.7c0-0.6-0.1-1.1-0.5-1.7l-3.8-8.2c-0.5-1.2-0.7-2.2-0.7-3.1
		c0-2,1-3.2,2.9-3.8l12.9-4.4l2.1,4.5l-11.5,3.5c-0.7,0.1-1,0.5-1,1c0,0.2,0,0.6,0.2,1l3.7,7.7c0.7,1.6,1.8,2.8,3.3,3.8
		c1.5,0.9,3.1,1.3,4.6,1.3h1v6.1h-1.2c-3.4,0-5.9-1.3-7.3-4c-1.3,2.7-3.7,4-7.3,4H41.9z"/>
	<path class="st1" d="M43.2,628.7h-1.5c0,1.5-0.2,2.8-0.7,3.8c-1.2,2.8-3.5,5-7.1,6.6c-3.1,1.3-6.1,2-9.4,2
		c-7.7,0-11.5-4.4-11.5-13.1c0-2,0.5-4.3,1.3-7l4.4,1.5c-0.5,1.8-0.7,3.5-0.7,5.1c0,5,2.4,7.6,7.2,7.6c5.3,0,8.9-1.2,10.9-3.7
		c0.1-0.2,0.2-0.5,0.2-0.7s-0.2-0.5-0.6-0.6c-1.2-0.5-4.2-1.3-9-2.6l1.3-5h15.1V628.7z"/>
</g>
</svg>
