<?xml version="1.0" encoding="utf-8"?>
<!-- Generator: Adobe Illustrator 21.0.2, SVG Export Plug-In . SVG Version: 6.00 Build 0)  -->
<svg version="1.1" id="Layer_1" xmlns="http://www.w3.org/2000/svg" xmlns:xlink="http://www.w3.org/1999/xlink" x="0px" y="0px"
	 viewBox="0 0 612 792" style="enable-background:new 0 0 612 792;" xml:space="preserve">
<style type="text/css">
	.st0{fill:#FDB913;stroke:#FDB913;stroke-width:6.9449;}
	.st1{fill:#17479C;stroke:#17479C;stroke-width:6.9449;}
</style>
<g id="__x0023_Layer_x0020_3">
	<g id="_908020960">
		<circle class="st0" cx="306.4" cy="395.6" r="128.4"/>
		<path class="st1" d="M453.6,149.4L309.3,71L3.4,241.5L4,563.2c46.8,23.6,92.5,44.7,139.4,68.1c50.9-26.6,102-55.6,153-82.3
			c-46.1-25.9-96.4-50.1-142.4-76l-1-163.1L453.6,149.4z"/>
		<path class="st1" d="M158.4,642.6L302.7,721l305.9-170.5L608,228.8c-46.8-23.6-92.5-44.7-139.4-68.1c-50.9,26.6-102,55.6-153,82.3
			c46.1,25.9,96.4,50.1,142.4,76l1,163.1L158.4,642.6z"/>
	</g>
</g>
</svg>
