<?xml version="1.0" encoding="utf-8"?>
<!-- Generator: Adobe Illustrator 21.0.2, SVG Export Plug-In . SVG Version: 6.00 Build 0)  -->
<svg version="1.1" id="Layer_1" xmlns="http://www.w3.org/2000/svg" xmlns:xlink="http://www.w3.org/1999/xlink" x="0px" y="0px"
	 viewBox="0 0 612 792" style="enable-background:new 0 0 612 792;" xml:space="preserve">
<style type="text/css">
	.st0{fill:#13007C;}
	.st1{fill:none;stroke:#13007C;stroke-width:19.7244;}
	.st2{fill:none;stroke:#13007C;stroke-width:13.8898;}
	.st3{stroke:#13007C;stroke-width:13.8898;}
</style>
<g id="__x0023_Layer_x0020_3">
	<g id="_908022688">
		<path class="st0" d="M446.7,611.6l89.9-44.4c6.3-7.8,12.2-16.1,17.7-24.3l-121.2,68.9L446.7,611.6z M82.8,577.8L82.8,577.8
			c-5.7-7.4-11-14.7-15.9-21.9l107.4,56.3h-16.8L82.8,577.8z M51,531L51,531l139.8,81.1H203L38.4,507.7
			C42.2,515.4,46.5,523.2,51,531z M25.3,478L25.3,478L212,612.2h9.5L15.8,449.5C18.5,458.8,21.7,468.3,25.3,478z M9,418.1L9,418.1
			l220.9,194.1h8.1L5.9,393.3C6.6,401.6,7.6,409.7,9,418.1z M5.5,362L5.5,362l238.3,250.1h6.6L8.4,331.6
			C6.9,341.7,5.9,351.9,5.5,362z M13.9,304.4L13.9,304.4l242.3,307.8h4.2L21.7,278.2C18.6,286.8,16.1,295.6,13.9,304.4z M33,249.6
			L33,249.6l232.8,362.6h4.2L196.8,484c-1.3-0.7-2.2-2.7-2.7-4.7l-4.9-8.5c-4.3-4.3-6.8-9.6-8.7-15.2L47.1,221.5
			C41.9,230.8,37.2,240.1,33,249.6z M61.3,197.9L61.3,197.9c6.3-7.7,12.7-15.1,19.3-22.1l57,125.3c-0.8,0.7-1.5,1.3-2,1.7l-4.9,9.5
			c2.2,2.5-2.5,7.1-2.4,10.3c3.9,6.6,8.2,12.6,13.3,17.5l-0.3,4.3c6.7,3.9,12.6,8.7,17.3,14.8l6,1.7l0.6,1.3c1,2.8,2.2,5.7,3.9,8.4
			l1.5,3.5c-0.8,6.3-2.9,13.4-2.8,20.3l5,0.8c1.7,3.8-0.6,8.4,1.4,12.8c2.4,1.1,1.1,2.5,4.7,4.3c-0.8,1.4,0,2.9,1,4.3
			c-2.4-1-4.5-1.8-5.7-1.3l4.3,6.4c-0.3,0.8-0.6,1.5-1.1,2.1L61.3,197.9z M181.2,418.9L181.2,418.9L181.2,418.9L181.2,418.9z
			 M236.6,519.2L236.6,519.2l42.3,93h-4.5l-50.8-98.7C231.9,522.7,238.6,528,236.6,519.2z M101,155.8L101,155.8l15.5,39.1
			c6.8-2.2,6.4-7.5,9.6-8.2c4.5,1.4,7.4,16.8,20.5,18.7l-23.3-68.2C115.8,142.9,108.4,149.1,101,155.8z M230.1,449.1L230.1,449.1
			c0.1,0.7,0.1,1.4,0.3,2C230.2,450.5,230.2,449.8,230.1,449.1z M230.5,451.3L230.5,451.3c0,0.3,0.1,0.6,0.1,0.8
			C230.6,451.9,230.5,451.6,230.5,451.3z M230.6,452.3L230.6,452.3c0.1,0.3,0.3,0.6,0.3,0.8C230.9,452.8,230.8,452.6,230.6,452.3z
			 M231,453.2L231,453.2c0,0.1,0,0.3,0,0.4C231,453.5,231,453.4,231,453.2z M231.2,453.7L231.2,453.7l0.1,0.4c0,0-0.1,0-0.1-0.1
			C231.2,453.9,231.2,453.8,231.2,453.7z M231.3,454.2L231.3,454.2c0,0.1,0.1,0.3,0.1,0.3S231.3,454.4,231.3,454.2z M231.6,454.9
			L231.6,454.9c0,0,0,0.1,0.1,0.3C231.6,455.1,231.6,454.9,231.6,454.9z M231.7,455.5L231.7,455.5c0.1,0.1,0.1,0.3,0.3,0.4
			C231.9,455.8,231.9,455.6,231.7,455.5z M232,456.2L232,456.2c0,0,0.1,0.1,0.1,0.3C232.1,456.3,232,456.2,232,456.2z M232.1,456.5
			L232.1,456.5c0.1,0.3,0.1,0.7,0.3,1C232.3,457.2,232.3,456.7,232.1,456.5z M232.4,457.4L232.4,457.4c0,0.1,0,0.1,0.1,0.3
			L232.4,457.4z M232.6,458.1L232.6,458.1c0.1,0.1,0.1,0.1,0.1,0.3C232.7,458.3,232.7,458.3,232.6,458.1z M266.1,553.1L266.1,553.1
			l20.3,59.1h-4.1l-23.5-58.9L266.1,553.1z M253,538.3L253,538.3l-12.2-30.4c0.7-0.3,1.7-0.6,2.8-1l1,4.5l2.9,0.3
			c2.8,4.7,2.1,14.2,5.7,16.9C252.8,529.2,252.8,533.6,253,538.3z M207,415.8L207,415.8c1.1-0.6,2.2-1.1,3.5-1.4l3.1,2.9l-2-1.8
			C210.2,415.4,208.7,415.5,207,415.8z M226,442.1L226,442.1c0,0.1,0,0.1,0,0.1S226,442.2,226,442.1z M226,442.4L226,442.4
			c0,0,0,0,0.1,0C226,442.4,226,442.4,226,442.4z M226.1,442.5L226.1,442.5c0,0.1,0,0.1,0,0.1S226.1,442.6,226.1,442.5z
			 M226.3,442.9L226.3,442.9c0,0.1,0,0.1,0,0.1S226.3,443.1,226.3,442.9z M226.4,443.2L226.4,443.2L226.4,443.2L226.4,443.2z
			 M226.6,443.5L226.6,443.5c0,0,0,0.1,0.1,0.1C226.6,443.6,226.6,443.5,226.6,443.5z M226.7,443.6L226.7,443.6v0.1
			C226.7,443.8,226.7,443.8,226.7,443.6z M226.8,443.9L226.8,443.9c0,0,0,0,0.1,0.1C226.8,443.9,226.8,443.9,226.8,443.9z
			 M227.1,444.2L227.1,444.2c0,0,0.1,0.1,0.3,0.1C227.3,444.3,227.1,444.2,227.1,444.2z M227.8,444.6L227.8,444.6v0.1V444.6z
			 M228.4,445L228.4,445c0.1,0,0.1,0,0.3,0.1C228.5,445,228.5,445,228.4,445z M144.4,122.4L144.4,122.4l23.7,80
			c9.1-4.3,15.1-12.2,20.7-10.2l4.9,7.3l-4.3,4.1l3.4,4.3l-5.3,4.3c5.7,7.3,7.8,9.1,12.7,8.4l-27.5-114.4
			C163.2,110.9,153.7,116.4,144.4,122.4z M200.4,221.8L200.4,221.8l0.1,0.6c0,0.6,0,1.3,0,1.8C200.4,223.4,200.4,222.7,200.4,221.8z
			 M201.4,234.3L201.4,234.3c0.3,1,0.4,1.8,0.7,2.7c0,0.3,0,0.4,0,0.6C201.8,236.5,201.7,235.4,201.4,234.3z M202.4,238.9
			L202.4,238.9c0.1,0.3,0.4,0.7,0.8,1c-0.3-0.1-0.6-0.3-0.8-0.4C202.4,239.1,202.4,239,202.4,238.9z M279.9,553L279.9,553l-7.4,0.1
			l17.6,59.1h4.1L279.9,553z M248.1,471L248.1,471c0.3,0.1,0.4,0.4,0.6,0.6C248.5,471.4,248.3,471.1,248.1,471z M248.8,471.7
			L248.8,471.7L248.8,471.7L248.8,471.7z M249,472L249,472c0.1,0.1,0.3,0.3,0.4,0.4C249.3,472.2,249.2,472.1,249,472z M249.5,472.4
			L249.5,472.4c0.1,0.1,0.3,0.3,0.4,0.4C249.7,472.7,249.6,472.5,249.5,472.4z M250,472.8L250,472.8c0.3,0.3,0.7,0.4,1,0.7
			C250.7,473.2,250.3,473.1,250,472.8z M252.7,474.1L252.7,474.1h0.1C252.7,474.1,252.7,474.1,252.7,474.1z M260.8,485.7
			L260.8,485.7L260.8,485.7L260.8,485.7z M261.2,485.7L261.2,485.7c0,0,0,0,0.1,0C261.2,485.7,261.2,485.7,261.2,485.7z M262,485.7
			L262,485.7h0.1H262z M196.8,95.6L196.8,95.6c9.5-3.6,19-6.7,28.6-9.2l13.7,94.6l-25.6,1v0.6L196.8,95.6z M251.3,266.1L251.3,266.1
			l0.1,0.1c-0.8-0.1-1.5-0.4-2.2-0.7C249.9,265.7,250.6,266,251.3,266.1z M292.5,552.7L292.5,552.7l-7.3,0.1l11.5,59.4h4.3
			L292.5,552.7z M284,495L284,495c0.1,0,0.1,0,0.1,0S284.1,495,284,495z M253.8,80.3L253.8,80.3c9.4-1.5,18.7-2.5,28.1-3.1
			l5.7,119.7l-2.8-2.4l1.1-8.2l-6.3,2.1l-1.8,4.5c-0.4-5.4-3.8-4.7-3.9-6.1l0.8-7.3l-11.9,0.4L253.8,80.3z M287.7,199.3L287.7,199.3
			l0.4,8.7l-0.4-0.4l-1.3-2.8l-5-2c-0.3,2-0.1,3.5-2.1,3.5c-1-2-1.3-3.9-0.8-5.9l2.4-2.4l4.2,0.4l2.4,0.8
			C287.6,199.3,287.6,199.3,287.7,199.3z M289.7,242.9L289.7,242.9l0.1,2.9C289.8,244.9,289.8,243.9,289.7,242.9z M290.7,262
			L290.7,262v0.1l-2.4-0.6L290.7,262z M304.5,552.6L304.5,552.6l2.8,59.6h-4.6l-5.4-59.5L304.5,552.6z M291.8,494.5L291.8,494.5
			v-0.7c0.4,0.3,0.8,0.6,1.3,1.1C292.6,494.7,292.2,494.6,291.8,494.5z M293.6,496.3L293.6,496.3L293.6,496.3L293.6,496.3z
			 M297.9,498.5L297.9,498.5c0.1,0.1,0.4,0.3,0.6,0.3C298.3,498.8,298.1,498.6,297.9,498.5z M298.5,498.8L298.5,498.8
			c0,0.1,0.1,0.1,0.1,0.1l0,0c0.1,0,0.1,0,0.1,0.1c0-0.1,0-0.1-0.1-0.1L298.5,498.8z M299.3,499.2L299.3,499.2h0.1H299.3z
			 M299.9,499.3L299.9,499.3L299.9,499.3L299.9,499.3z M300,499.5L300,499.5c0.1,0,0.1,0,0.3,0C300.2,499.5,300.2,499.5,300,499.5z
			 M272.5,262.6L272.5,262.6c3.4-0.8,6.7-1.5,9.9-2.2l0.3,0.1L272.5,262.6z M312.6,77L312.6,77c0.3,0,0.6,0,0.8,0
			c9.4,0.3,18.6,0.8,27.5,1.7l-7.7,152.8l-1.4,1.5c-4.2-0.4-8.4-1.3-12.7-1.1c-2.7,1.1-5,3.1-7.4,5.2L312.6,77z M320.4,487.5
			L320.4,487.5v0.1c-3.1,2.1-6.4,4.7-10.2,7.7l0,0C314.4,491.2,317.8,488.7,320.4,487.5z M318,534.7L318,534.7l-3.9,77.5h-4.6
			l0.4-62C312.9,547.1,315.4,541.2,318,534.7z M369.9,82.9L369.9,82.9c10.1,1.8,19.7,4.1,29.1,6.7l-22.6,151.8l-6.7-0.3
			c-1.8-2.2-4.5-3.6-8-4.3c-2.1-1.3-4.7-1.1-7.1-1.7L369.9,82.9z M337,503.2L337,503.2c-1.7,0.6-1.7,3.4-5.6,3.6
			c-2,2.7-3.6,5.6-5.3,8.8l-9.8,96.5h4.5l13.8-92.7c-0.1-0.3-0.4-0.7-0.6-1c0.3-1,0.7-1.7,1.1-2.5l1.1-7.3c-0.3-0.4-0.4-1-0.7-1.4
			c0.3-0.3,0.7-0.6,1-0.8L337,503.2z M329.4,484.4L329.4,484.4v-0.1l1.5-0.8L329.4,484.4z M330.9,483.4L330.9,483.4l0.1-0.1
			L330.9,483.4z M331.3,483.3L331.3,483.3c0-0.1,0-0.1,0.1-0.1C331.3,483.1,331.3,483.1,331.3,483.3z M331.6,483L331.6,483
			c0.1,0,0.1,0,0.3-0.1C331.7,483,331.7,483,331.6,483z M332.3,482.7L332.3,482.7h0.1H332.3z M332.6,482.7L332.6,482.7
			c0.1-0.1,0.4-0.1,0.6-0.3C333,482.6,332.7,482.6,332.6,482.7z M334.4,482.3L334.4,482.3h0.1H334.4z M338.7,482.7L338.7,482.7
			c0,0,0,0,0.1,0C338.7,482.7,338.7,482.7,338.7,482.7z M339.7,483L339.7,483L339.7,483L339.7,483z M424,97.9L424,97.9l-30.3,155
			l8.8,1.8l6,8.1l6.8,0.4l38.3-152.1C444.2,106.3,434.4,101.9,424,97.9z M347.2,534.3L347.2,534.3l-19.6,77.9h-4.1l16.6-84.9
			c0.7,1.3,1.3,2.5,1.4,3.8l4.9-0.3L347.2,534.3z M346.7,493.9L346.7,493.9L346.7,493.9l1.7,4.9L346.7,493.9z M350.4,508.3
			L350.4,508.3c0,0,0,0.1,0,0.3C350.4,508.4,350.4,508.3,350.4,508.3z M350.4,508.6L350.4,508.6c0.1,0.1,0.1,0.3,0.1,0.4
			C350.6,508.8,350.6,508.7,350.4,508.6z M350.6,509L350.6,509c0.1,0.1,0.1,0.3,0.1,0.6C350.7,509.3,350.7,509.1,350.6,509z
			 M350.9,509.5L350.9,509.5v0.1V509.5z M350.9,509.8L350.9,509.8c0,0.1,0.1,0.1,0.1,0.3C351,510,350.9,510,350.9,509.8z M351,510.1
			L351,510.1c0,0.1,0.1,0.4,0.3,0.7C351.1,510.5,351,510.2,351,510.1z M351.3,510.9L351.3,510.9L351.3,510.9L351.3,510.9z
			 M351.4,511.2L351.4,511.2c0,0.1,0.1,0.4,0.3,0.6C351.6,511.6,351.4,511.3,351.4,511.2z M351.7,511.9L351.7,511.9
			c0.1,0.6,0.4,1.3,0.7,2C352.1,513.2,351.8,512.5,351.7,511.9z M476,124.3L476,124.3c8.1,5.2,15.9,10.9,23.3,16.9l-77.7,222.2
			c-2.7-6.1-4.6-12.4-5.3-19l5.9-9.4l-7.3-1.4c-0.1-1.3-0.1-2.5-0.3-3.8l3.5-11.7l2.7-1.7l-1.5-2.1l1.4-4.5
			c2.1-2.9,3.1-6.4,3.1-10.5L476,124.3z M366.8,520.4L366.8,520.4L366.8,520.4L366.8,520.4L366.8,520.4z M355.8,552L355.8,552
			l-20.9,60.2h-4.2l19.4-64.9l1,4.9L355.8,552z M359.8,518.3L359.8,518.3L359.8,518.3L359.8,518.3z M359.9,518.3L359.9,518.3
			l0.1,0.1L359.9,518.3z M361.5,519.2L361.5,519.2c0.1,0,0.1,0,0.3,0.1C361.6,519.2,361.6,519.2,361.5,519.2z M366.5,520.4
			L366.5,520.4h0.1H366.5z M521.3,161.1L521.3,161.1c7,7.1,13.5,14.4,19.7,22.1l-112,242c-2-2.2-3.6-4.2-3.9-6.1
			c10.3-12.7,16.1-21.9,17.2-27.8l-4.1-6.6c-2.9,0-5.4-0.1-7.5-0.6L521.3,161.1z M384.2,521.7L384.2,521.7l-0.1,0.4
			c-1-0.1-2.1-0.3-3.1-0.4c1.1-0.1,2.1-0.3,3.1-0.3C384.2,521.5,384.2,521.5,384.2,521.7z M370.3,551.9L370.3,551.9h-7.8L338,612.2
			h4.3L370.3,551.9z M374.3,522.8L374.3,522.8L374.3,522.8c0.1,0,0.1,0,0.3,0C374.5,522.8,374.5,522.8,374.3,522.8z M375.4,522.8
			L375.4,522.8c0.1,0,0.1,0,0.1,0S375.6,522.8,375.4,522.8z M378,522.4L378,522.4L378,522.4L378,522.4z M379.2,522.1L379.2,522.1
			c0,0,0.1,0,0.3,0C379.4,522.1,379.2,522.1,379.2,522.1z M379.8,522L379.8,522h0.1H379.8z M380.5,521.8L380.5,521.8c0,0,0,0,0.1,0
			C380.5,521.8,380.5,521.8,380.5,521.8z M557,205.3L557,205.3c5.9,8.7,11.2,17.7,16.1,27.1L446.4,447.9c-0.3-0.3-0.6-0.4-1-0.7
			c-4.6-3.1-6.6-6.8-8.4-10.8L557,205.3z M402.3,523.1L402.3,523.1l-0.1,0.3c-1,0-1.8-0.1-2.8-0.1
			C400.4,523.1,401.3,523.1,402.3,523.1z M385.5,551.6L385.5,551.6l-8.2,0.1l-31.4,60.5h4.1L385.5,551.6z M391.8,523.6L391.8,523.6
			L391.8,523.6c0.3,0,0.6,0,0.8,0C392.3,523.6,392.1,523.6,391.8,523.6z M392.8,523.6L392.8,523.6c0.1,0,0.3,0,0.6,0
			C393,523.6,392.9,523.6,392.8,523.6z M393.3,523.6L393.3,523.6c0.1,0,0.3-0.1,0.3-0.1S393.5,523.6,393.3,523.6z M393.7,523.5
			L393.7,523.5c0.3,0,0.4,0,0.6,0C394.2,523.5,394,523.5,393.7,523.5z M394.3,523.5L394.3,523.5h0.1H394.3z M586.2,260.9
			L586.2,260.9L458.7,454.6c1.8,0.7,3.5,1.4,5.2,2c1.7,2.2,1.4,5.6,2.4,8.1l129.2-178.2C592.6,277.8,589.5,269.3,586.2,260.9z
			 M403.4,551.3L403.4,551.3l-8.2,0.1l-39.9,60.8h4.1L403.4,551.3z M414.5,525.2L414.5,525.2c0.1,0,0.1,0,0.1,0
			S414.7,525.2,414.5,525.2z M415.1,525L415.1,525h0.1C415.1,525,415.1,525,415.1,525z M415.5,524.9L415.5,524.9c0.1,0,0.1,0,0.1,0
			S415.7,524.9,415.5,524.9z M416.1,524.9L416.1,524.9L416.1,524.9L416.1,524.9z M416.9,524.8L416.9,524.8c0.1,0,0.1,0,0.1,0
			S417.1,524.8,416.9,524.8z M419.3,525L419.3,525L419.3,525L419.3,525z M602.1,313L602.1,313L470.8,478l5.7,0.3l2,8.7
			c-7.3,4.6-17.5,8.7-25.7,13.7l-3.4,4.3c-1.3,5.9-5.3,11.5-2.7,17.2c0.8-1,1.8-1.3,3.5-0.4L607,343.8
			C605.9,333.7,604.4,323.5,602.1,313z M424.6,551L424.6,551l-53.9,61.2h-6.6l48.6-61L424.6,551z M433.8,526L433.8,526
			c0,0,0,0,0.1,0C433.8,526,433.8,526,433.8,526z M435.1,526.2L435.1,526.2L435.1,526.2L435.1,526.2z M439.3,526.4L439.3,526.4h0.1
			H439.3z M439.8,526.6L439.8,526.6c0.4,0,1,0,1.4,0.1C440.8,526.6,440.2,526.6,439.8,526.6z M441.4,526.7L441.4,526.7
			c0.1,0,0.3,0,0.4,0C441.6,526.7,441.5,526.7,441.4,526.7z M442.3,526.9L442.3,526.9h0.1H442.3z M442.9,526.7L442.9,526.7
			c0,0,0,0,0-0.1C442.9,526.7,442.9,526.7,442.9,526.7z M442.9,526.6L442.9,526.6c0.1,0,0.1,0,0.1,0S443,526.6,442.9,526.6z
			 M443.2,526.6L443.2,526.6L443.2,526.6L443.2,526.6z M443.2,526.4L443.2,526.4h0.1H443.2z M443.6,526.2L443.6,526.2L443.6,526.2
			L443.6,526.2z M443.9,525.9L443.9,525.9c0-0.1,0-0.1,0-0.1S443.9,525.7,443.9,525.9z M444.3,525L444.3,525
			c0.6-1.1,0.8-2.2,2.4-2.8c0,0,0,0-0.1,0.1c-0.4,0.6-1,1.5-1.7,2.7C444.7,525,444.6,525,444.3,525z M608.5,374.8L608.5,374.8
			L456.7,529.4c4.5,1.5,10.3,1.7,13.4,0.8l137.4-131.3C608.3,391,608.5,382.9,608.5,374.8z M448.8,550.6L448.8,550.6l-64.4,61.6
			h-8.9l60.2-61.5L448.8,550.6z M602.8,430.8L602.8,430.8c-2,9.8-4.5,19.4-7.5,28.8L400.2,612.2h-9.8l72.3-61.9h1.7l0.6-1.8
			L602.8,430.8z M583.5,490.7L583.5,490.7c-3.8,8.4-7.8,16.5-12.2,24.4l-152.5,96.8l-0.1,0.1l-11.7,0.1L583.5,490.7z"/>
	</g>
	<path class="st1" d="M210.2,415c-2.5,2.9-2.8,13.8-6.3,14.1c-5.9-0.6-8.7-14.2-8.7-14.2l-3.2,3.8l-5.9,2l-4.1-2.1
		c-0.7-2.1-3.5-4.5-2.1-6.6c-3.6-1.8-2.4-3.2-4.9-4.3c-2-4.5,0.4-9.1-1.3-12.8l-5.2-0.8c-0.1-7.1,2.2-14.5,2.9-21.1
		c-2.7-3.9-4.6-8-5.9-12.2l-6.3-1.8c-4.6-6.1-10.5-10.9-17.2-14.8l0.3-4.3c-5-4.9-9.4-10.9-13.3-17.5c-0.1-3.2,4.5-7.8,2.4-10.3
		l4.7-9.5c2.7-2.2,9.2-7.8,8.9-10.1c-1.3-2.1-1.7-4.6-1.5-7.3c1-2.1,6.7-1.7,5.9-4.2c-3.9-1.7-7.4-1.5-9.2-1
		c-2.7-2.4-5.3-4.1-8.2-6.6c-1.1-4.7-2.5-8.7-5-10.5c0-5.6-1-10.1-3.1-13.3c-0.8-2.1,1.3-5.7-0.3-7.1c-2.7-2.1-2.7-4.9-1.4-8.2
		c-2.8-0.7-4.9-3.1-6.8-5.6l4.7-10.3c-4.2-0.7-1.7-13.5-2.7-18.7c-2.2-1.8-2-4.3-1.8-4.7c8.4-2,7.8-7.8,11-8.7
		c5.4,1.5,8.4,23,29.3,18.3c16.8,1.4,25.6-15.5,33.5-12.7l4.9,7.3l-4.3,4.1l3.2,4.3l-5.2,4.3c5.9,7.4,8,9.2,13,8.2
		c-0.1,6.1,0.6,12.7,2,19c5.9,4.1,13.8,6.7,20.8,8.2c2.1,8.4,7.8,12.4,29.2,19l31.1-6.3l8.8,2.2c1.7-2.4-2.2-8.5-2.2-13.4
		c10.8,3.9,18.2-12.6,29.1-17.3c4.3-0.1,8.5,0.7,12.7,1.1l3.9-4.5l10.1,1l2.9-1.7c2.8,1.7,3.6,4.7,5.4,7.3c2.5,0.6,5.2,0.4,7.4,1.7
		c3.4,0.7,6.1,2.1,7.8,4.3l12,0.4l7.5,3.1c0.7,3.9,2.4,6.4,4.7,8.4l8.8,1.8l6,8.1l12,0.7c2.7,4.1,3.9,9.1,2.4,16.1
		c0.8,2.8,2.4,5.2,2.4,8.4l-1.8,8.4c1,6.7-0.8,12.3-5.4,16.3l2.8,3.8l-4.9,3.1c-1.4,2.4-1.7,7.5-1,14.1l7.1,1.4l-5.9,9.4
		c0.8,7.3,3.1,14.1,6.1,20.8c-1,3.9-0.6,9.2,0.8,14.8c0.8,2.9,5.9,4.5,14.9,4.6l4.1,6.7c-1.3,5.7-7,14.9-17.2,27.7
		c0.6,3.8,6.7,8.4,9.9,12.6c2.7,5.7,3.9,11.3,10.5,15.6c6.3,4.1,12.2,7.3,18.4,9.4c2,2.7,1.3,6.8,2.9,9.4l1.4,11.9l8.4,0.4l2,8.7
		c-8.2,5.3-20.3,9.6-28.8,15.8c-0.4,6.6-6.3,13.3-3.2,19.7 M201.4,220.1l1.4-9.6l1.7,1.1c0.8-2.5,0.6-7.1,2.4-7.5l2,5.3l2.4-7.1
		l2.5,0.7c0.1-2.2-1.1-4.3-1.7-6.6c1.7-2.4,1.3-7,2.7-8.4l-0.1-6.6l61-2.4l-0.8,7.1c0.3,1.5,3.8,0.8,4.1,6.3l1.8-4.5l6.3-2.1
		l-1.3,8.2l4.2,3.5c-0.4,0.7-0.8,1.1-1.4,1.3l-2.4-0.8l-4.2-0.4l-2.4,2.4c-0.4,2-0.3,3.9,0.8,5.9c2,0,1.8-1.5,2.1-3.5l5,2l1.3,2.8
		l5,4.7c-1.1,12.7-4.9,24.2-2.8,36.9 M181,416.2c-2.4-1-4.5-1.8-5.7-1.3l1.5,8.2c-1.5,5.9-5.6,0.3-9.4,5.4
		c15.4,8.4,8.9,35.2,28.4,45.7c-2.2,2-0.1,8.9,2.5,9.4l2.1-3.9c-0.1,4.6,46.8,65.9,35.9,34.5l2.7,1.5c1-7.7,0.8-7.8,5.6-9.4l0.8,4.5
		l3.1,0.3c2.8,4.7,2.1,14.2,5.7,16.9c-1.1,1.5,0.3,21.6,0.7,24.9l51.3-0.8c10.1-0.1,14.4-29.5,26.3-45.7c4.6-0.4,3.8-4.1,6.8-3.8
		c0,2-1.3,2.9-2.8,4.2c2.9,4.7,0.4,6.3-1.4,11.2c2.5,4.2,7.3,8.9,7.5,12.6l4.9-0.3l4.3,21.4l114.5-2.1 M468.9,530.6
		c-5.3,2-15.8-2.5-14.1-10.8c-2.8-1.5-5.7,1.4-7.3,2.1c-1,1.3-2.5,4.1-4.2,4.5c-7-1-13.4-1.1-19.7-0.4c-2.9-1.7-5.7-2.1-8.4-1.1
		l-2.8-1.4c-2.2-0.1-1.8,0.1-3.4-0.3c-2.9-0.1-5.9-0.3-8.8-0.4c-5.9,0.4-12.6,1-14.7-1.1c-1.3-0.1-2.5-0.3-3.6-0.4
		c-3.9,0.8-7.8,2.5-10.6-1.4c-0.1,0-0.3,0-0.4,0c-3.2,0.6-6.6,0-10.1-2c-2.8,0.4-5.3,0.3-6.8-1.1c-0.4-3.8-1.8-5.9-2.8-8.9
		c-1.3-3.5-2.2-6.3-2-9.5l-4.5-13.5c-5.6-3.6-9.6-3.8-13.1-1.8l-5.3,3.2c-1.1-0.4-2.4-0.3-4.1,0.3c-3.5,2.4-7.5,5.4-12,9.1
		c-0.4,0.4-0.8,0.8-1.1,1.1c-3.4,2.9-6.8,3.4-10.6,1.4l-4.1-2.2c-0.1-0.6-0.4-1-0.7-1.4c-1.3-0.4-2.5-1-3.9-1.5
		c-1.4,0.3-3.2,0.8-5,1.7l-4.2-0.1l-5.6-5.7l-5.7-1.3c-2.9-1.8-5.6-2.5-8.1-2.2c-1.3-7.3-5-7.7-7.7-11.6c-1.8-0.3-3.6-1.7-5.6-4.3
		c-2.7,0.7-5.4,0.8-8.4,0.6c0.3-2.8-2.7-5.6-1.7-8.9l-4.3-2.9c-1-4.2-3.1-6-2.7-12.3c-1.4-1.4-3.6-1.4-4.1-4.1l-4.1-2.1l-0.4-8.9
		c-3.5-4.2-6-8.8-8-13.7l-2-1.8c-1.4-0.1-2.9,0-4.7,0.3c-1.8,1-3.5,2.2-5.7,2.4c0.1-1.1,0.3-2.5-1.1-2.5c-2.5-0.7-3.9-0.8-5.7-0.4"
		/>
	<path class="st0" d="M393,404.9c-3.8,6.4-6.7,12.3-10.5,18.7c-21.2-7.1-33.5-21.5-35.3-44.4c-1.8-1.4-3.6-2.8-5.4-4.1l0.3-0.6
		l0.3-0.7l0.3-0.8l0.3-0.7l0.3-0.8l0.3-0.7l0.3-0.8l0.3-0.8l0.1-0.8l0.3-0.7l0.1-0.8l0.3-0.8l0.1-0.8l0.1-0.8l0.1-0.8l0.1-0.8
		l0.1-0.8l0.1-0.8v-0.3h5.9l0.1-6.6l0.1-1v-1v-1l-0.1-1v-1.1l-0.1-1v-1l-0.1-1l-0.1-1l-0.1-1l-0.1-1.1l-0.3-1l-0.1-1l-0.3-1
		l-1.5-5.9l-6,0.6l-0.1-0.3l-0.3-0.8l-0.3-0.8l-0.4-0.8l-0.4-0.8l-0.3-0.8l-0.4-0.8l-0.4-0.7l-0.4-0.8l-0.4-0.8l-0.4-0.7l-0.4-0.8
		l-0.6-0.7l-0.4-0.7l-0.6-0.8l-0.4-0.7l-0.6-0.7l-0.6-0.7l-0.6-0.7l-0.4-0.7l-0.3-0.4l3.9-4.2l-4.6-4.7l-0.7-0.7l-0.7-0.7l-0.7-0.6
		l-0.7-0.7l-0.7-0.7l-0.8-0.6l-0.8-0.7l-0.7-0.6l-0.8-0.6l-0.8-0.7l-0.8-0.6l-0.8-0.6l-1-0.6l-0.8-0.4l-5.3-3.1l-3.6,4.7l-0.4-0.1
		l-0.8-0.3l-0.7-0.3l-0.7-0.3l-0.7-0.3l-0.8-0.3l-0.7-0.3l-0.8-0.3l-0.7-0.1l-0.8-0.3l-0.7-0.1l-0.8-0.3l-0.8-0.1l-0.7-0.1l-0.8-0.3
		l-0.8-0.1l-0.7-0.1l-0.8-0.1l-0.8-0.1l0,0v-5.7l-6.6-0.3h-1h-1h-1h-1h-1l-1,0.1h-1.1l-1,0.1l-1,0.1l-1,0.1l-1,0.1l-1.1,0.1l-1,0.3
		l-1,0.3l-5.9,1.4l0.6,6l-0.8,0.3l-0.8,0.3l-0.7,0.3l-0.8,0.4l-0.7,0.3l-0.8,0.4l-0.7,0.3l-0.7,0.4l-0.8,0.4l-0.7,0.3l-0.7,0.4
		l-0.7,0.4l-0.7,0.4l-0.7,0.4L262,308l-0.7,0.4l-0.7,0.4l-0.7,0.6l-0.7,0.4l0,0c-5.6-5.7-8.7-8.9-14.2-16.9
		c28.8-19.6,58.7-22.8,90.1-1.7c26.7,17.7,37.7,44.8,33,81.1C365.7,386.3,374,397.2,393,404.9z"/>
	<path class="st0" d="M190.9,302.1c3.6-6.4,6.7-12.3,10.3-18.7c21.2,7.1,33.5,21.5,35.3,44.4c1.7,1.3,3.4,2.5,5,3.8l-0.1,0.3
		l-0.3,0.8l-0.3,0.7l-0.3,0.8l-0.3,0.8l-0.3,0.7l-0.3,0.8l-0.3,0.8l-0.3,0.7L239,339l-0.1,0.8l-0.3,0.8l-0.1,0.8l-0.3,0.8l-0.1,0.8
		l-0.1,0.8l-0.1,0.8v0.3l-5.9-0.1l-0.4,6.6v1l-0.1,1v1v1l0.1,1v1v1.1l0.1,1l0.1,1v1l0.1,1.1l0.3,1l0.1,1l0.3,1.1l1.3,5.9l6-0.4l0,0
		l0.3,0.8l0.3,0.7l0.3,0.8l0.4,0.8l0.3,0.7l0.3,0.8l0.4,0.7l0.3,0.8l0.4,0.7l0.4,0.7l0.3,0.8l0.4,0.7l0.4,0.7l0.4,0.7l0.6,0.7
		l0.4,0.8l0.4,0.7l0.4,0.6l0.6,0.7v0.1l-4.3,3.9l4.3,5l0.7,0.7l0.7,0.7l0.6,0.7l0.7,0.8l0.7,0.6l0.8,0.7l0.7,0.7l0.7,0.7l0.8,0.7
		l0.8,0.6l0.8,0.7l0.7,0.6l1,0.6l0.8,0.6l5,3.4l4.1-4.5l0.3,0.1l0.8,0.4l0.8,0.4l0.8,0.4l0.8,0.3l1,0.4l0.8,0.3l0.8,0.3l0.8,0.4
		l1,0.3l0.8,0.3l1,0.3l0.8,0.1l1,0.3l0.8,0.3l1,0.1l0.8,0.3l1,0.1l1,0.1l1,0.1l0.8,0.1h0.1l0.1,5.7l6.6,0.3h1h1h1l1-0.1h1l1-0.1
		l1-0.1h1l1-0.1l1.1-0.1l1-0.3l1-0.1l1-0.3l1.1-0.3l5.9-1.5l-0.7-6h0.1l0.8-0.3l0.8-0.4l0.7-0.3l0.8-0.4l0.8-0.3l0.7-0.4l0.8-0.4
		l0.7-0.4l0.8-0.4l0.7-0.4l0.7-0.4l0.7-0.4l0.8-0.4l0.7-0.6l0.7-0.4l0.7-0.6l0.7-0.4l0.7-0.6l0.7-0.6l0.1-0.1l3.6,3.6
		c3.4,4.6,6.6,9.2,9.8,14c-28.6,19.6-58.5,22.8-90.1,1.7c-26.7-17.7-37.7-44.8-33-81.1C218.2,320.6,209.8,309.8,190.9,302.1z"/>
	<path class="st0" d="M293.2,305.1c7.8,0.3,15.4,2.4,21.9,6l3.5-4.5c4.3,2.4,8.1,5.3,11.3,8.7l-3.9,4.2c6,5.9,10.3,13.4,12.7,21.8
		l5.6-0.7c1.4,4.9,1.8,9.5,1.5,14.2h-5.6c-0.1,8.4-2.4,16.1-6.3,22.9l4.5,3.6c-2.4,4.3-5.3,8-8.8,11.2l-4.1-3.9
		c-5.7,5.7-13,9.9-21.1,12.2l0.7,5.7c-4.9,1.3-9.5,1.7-14.2,1.5v-5.6c-9.4-0.1-18-2.8-25.4-7.5l-3.8,4.3c-4.3-2.7-7.8-5.9-10.8-9.5
		l4.1-3.8c-5.2-5.9-9.1-13.1-10.9-21.1l-5.7,0.4c-1.1-4.9-1.4-9.5-1-14.2l5.4,0.1c0.6-8.2,3.1-16.1,7.1-22.8l-4.3-3.8
		c2.5-4.2,5.7-7.7,9.2-10.8l3.9,3.9c5.7-5.3,12.8-9.2,20.7-11.2l-0.6-5.7c4.7-1.3,9.5-1.5,14.2-1.4V305.1z M300.2,323.1L300.2,323.1
		c-1.4,3.5-4.6,5.2-8,5.3c-3.1,0.3-6.6-1-8.5-4.9c-2,5,1.8,8.8,5.6,10.1l-0.1,10.3c-3.9-0.7-7.7-2.9-10.2-7.8
		c-3.2,8.7,3.6,14.9,10.2,16.5l-0.1,8.8c-6-0.6-11.9-3.8-15.6-11.2c-2.7,12.3,6.1,20.3,15.5,21.8l-0.1,7.8c-7.8-1-15.4-5.9-20-15.2
		c-3.5,16.8,9.9,27.2,22.8,27.9c19.6,1,27.8-18.3,24.4-28.8c-3.6,8.8-11.2,14.2-19.4,15.8L296,372c12-2.1,16.9-14.9,14.7-22.5
		c-2.9,7-8.9,10.6-15.4,11.7l-0.6-8.4c8.5-1.5,12-11.9,10.3-17.2c-2.1,4.9-6.4,7.5-11,8.2l-0.7-9.9
		C299,333.1,301.1,326.6,300.2,323.1z"/>
	<polygon class="st2" points="84.5,612.2 533.1,612.2 533.1,677 84.5,677 	"/>
	<path class="st3" d="M84.4,611.6l28.1-23.7L84.4,611.6z"/>
	<path class="st3" d="M533.1,612.2l-28.6-32L533.1,612.2z"/>
	<path class="st0" d="M103.4,634.3h8.4c1.5,0,2.8,0.1,3.6,0.3c0.8,0.1,1.5,0.4,2.2,0.8c0.6,0.4,1.1,1,1.5,1.7
		c0.4,0.8,0.7,1.5,0.7,2.5s-0.3,1.8-0.8,2.7c-0.6,0.8-1.3,1.4-2.1,1.8c1.3,0.4,2.2,1,2.9,2c0.7,0.8,1,2,1,3.1c0,1-0.1,2-0.7,2.8
		c-0.4,1-1,1.7-1.8,2.2c-0.7,0.6-1.7,0.8-2.8,1c-0.7,0-2.4,0.1-5,0.1h-7.1V634.3z M107.6,637.7L107.6,637.7v4.9h2.8
		c1.7,0,2.7,0,3.1-0.1c0.7,0,1.3-0.3,1.7-0.7c0.4-0.4,0.6-1,0.6-1.7c0-0.7-0.1-1.1-0.4-1.5c-0.4-0.4-1-0.7-1.7-0.7
		c-0.4-0.1-1.5-0.1-3.6-0.1H107.6z M107.6,646.1L107.6,646.1v5.6h3.9c1.5,0,2.5-0.1,2.9-0.1c0.6-0.1,1.1-0.4,1.5-0.8
		c0.3-0.4,0.6-1.1,0.6-1.8c0-0.6-0.1-1.1-0.4-1.5c-0.4-0.6-0.8-0.8-1.4-1c-0.6-0.3-1.8-0.3-3.8-0.3H107.6z M143.3,655.2L143.3,655.2
		h-4.6l-1.8-4.7h-8.4l-1.7,4.7h-4.6l8.2-20.9h4.5L143.3,655.2z M135.5,647L135.5,647l-2.9-7.8l-2.8,7.8H135.5z M145.6,655.2
		L145.6,655.2v-20.9h4.1l8.7,14v-14h3.9v20.9h-4.3l-8.4-13.7v13.7H145.6z M166.6,655.2L166.6,655.2v-20.9h4.2v9.4l8.5-9.4h5.7
		l-7.8,8.1l8.2,12.8h-5.4l-5.7-9.8l-3.5,3.5v6.3H166.6z M200.4,655.2L200.4,655.2v-17.5h-6.1v-3.5h16.6v3.5h-6.1v17.5H200.4z
		 M213.6,655.2L213.6,655.2v-20.9h15.5v3.5h-11.2v4.7h10.5v3.5h-10.5v5.7h11.6v3.5H213.6z M240.7,634.3L240.7,634.3h4.2v13.3
		c0,1.7-0.1,3.1-0.4,3.9c-0.4,1.3-1.1,2.2-2.2,2.9c-1.1,0.8-2.5,1.1-4.3,1.1c-2,0-3.6-0.6-4.7-1.7s-1.7-2.8-1.7-5l4.1-0.6
		c0,1.3,0.1,2.1,0.6,2.7c0.4,0.7,1.1,1.1,2,1.1c1,0,1.7-0.3,2.1-0.8c0.4-0.6,0.6-1.7,0.6-3.4V634.3z M268.2,655.2L268.2,655.2h-4.6
		l-1.8-4.7h-8.4l-1.7,4.7h-4.5l8.1-20.9h4.5L268.2,655.2z M260.5,647L260.5,647l-2.9-7.8l-2.8,7.8H260.5z M270.4,655.2L270.4,655.2
		v-20.9h8.9c2.2,0,3.9,0.3,4.9,0.6c1,0.4,1.8,1.1,2.4,2.1c0.7,0.8,1,2,1,3.2c0,1.5-0.6,2.9-1.4,3.9c-1,1-2.4,1.7-4.2,2
		c1,0.6,1.7,1.1,2.2,1.7c0.7,0.7,1.4,1.8,2.5,3.5l2.5,4.1h-5l-3.1-4.6c-1.1-1.5-1.8-2.7-2.2-3.1c-0.4-0.4-0.8-0.7-1.3-0.8
		s-1.1-0.3-2.1-0.3h-0.8v8.8H270.4z M274.7,643.1L274.7,643.1h3.1c2,0,3.2,0,3.8-0.1c0.6-0.3,0.8-0.6,1.3-1c0.3-0.4,0.4-0.8,0.4-1.5
		s-0.3-1.3-0.6-1.7c-0.4-0.4-1-0.7-1.7-0.8c-0.3,0-1.4-0.1-3.1-0.1h-3.2V643.1z M310.4,655.2L310.4,655.2h-4.6l-1.8-4.7h-8.4
		l-1.7,4.7h-4.5l8.1-20.9h4.5L310.4,655.2z M302.7,647L302.7,647l-2.9-7.8L297,647H302.7z M315.1,655.2L315.1,655.2h4.3v-17.5h6.1
		v-3.5H309v3.5h6.1V655.2z"/>
	<g id="_908020160">
		<path class="st0" d="M362.3,635.7l-1.8,3.1c-1.5-1.1-2.9-2-4.2-2.7l-1.8,2.7l-4.1-2.5c0.6-1.3,1.3-2.2,2-3.1l4.2,2.7l1.8-2.7
			C360.1,634.3,361.5,635.1,362.3,635.7z M369.3,646.8L369.3,646.8c0-4.6-1.1-7.5-3.2-8.7l-2.2,4.3c1.7,1.5,2.7,2.8,2.7,3.9
			c-5.4,0.7-9.2,1.1-11.3,1.1c-5.2,0-7.8-1.5-7.8-4.7v-0.8c0-0.3,0-0.4,0.1-0.7l0.3-1.1l-0.1-0.3c-0.3,0-1,1-1.8,2.7l-0.8,2.2
			c-0.1,0.7-0.3,1.3-0.3,1.7c0,1,0.3,1.8,0.7,2.7c0.3,0.7,1,1.4,1.8,1.8c1.7,1,3.9,1.5,7,1.5s8-0.6,14.5-1.7c0.1,0,0.3-0.3,0.6-1
			V646.8z M386.8,649.3L386.8,649.3c0,2.9-0.7,5.7-2.1,8.2c-1.7,3.1-3.9,4.6-6.6,4.6c-1.4,0-3.1-1-4.7-2.9c-1.5-1.8-2.4-3.1-2.4-3.8
			l0.3-0.1l0.4,0.1l1.4,0.8c1.1,0.6,2.4,1,3.5,1c3.6,0,6.3-2.2,8.1-6.7c-1.1-2.1-2.4-3.6-3.8-4.7c0.6-1.4,1.3-2.9,2.1-4.5
			c1.4,1.3,2.4,2.4,2.9,3.4C386.5,645.8,386.8,647.4,386.8,649.3z M397.7,645.8L397.7,645.8v0.1l6.1,0.3l5,0.3h2.1
			c1.7,0,3.1-0.1,3.9-0.3c-3.1-3.6-5.6-5.3-7.3-5.3c-1.1,0-2.2,0.1-3.4,0.6l-1.1,0.4c-0.3,0-0.3-0.1-0.3-0.3c0-0.8,0.7-1.7,2-2.7
			c0.3-0.3,0.6-0.6,1-0.7c0.3-0.1,0.6-0.3,0.8-0.4s0.6-0.3,0.8-0.3c0.1,0,0.4,0,1,0c2,0.4,3.8,1.1,5.6,2.5l4.5,3.8
			c1.7,1.3,3.1,2,4.3,2v0.1l3.4,0.1h3.8h1.7l1.4-0.1c0-1.3-0.8-2.8-2.4-4.5l1.5-2.8l1-1.7c1.3,1.5,2.2,3.2,2.7,5.2
			c0.1,0.6,0.3,1,0.4,1.4c0,0.4,0,0.8,0,1.3l0.1,3.8c0,1-0.3,1.7-1,2c-0.6,0.3-1.7,0.4-3.2,0.4l-3.9-0.1h-2.9h-2.5l-1.1-0.1h-0.1
			c-0.1,0-0.3,0-0.4,0h-1.5h-1.7h-0.4h-0.6h-0.7h-0.8h-0.8h-1.1h-1.3h-1.5H409h-2.2h-2.5h-3.1h-3.6c-0.3,0-0.6,0-0.8,0l0,0
			c-2,0-3.2-0.1-3.8-0.4c-1-0.4-1.5-1.4-1.7-3.1l-1-8.7c0-0.6,0-1.1,0-1.8s0-1.5-0.1-2.4l-0.1-3.8l3.5-3.1l0.8,17.5
			c0,0.4,0.4,0.7,1.3,0.8H397.7z M396.7,650.7L396.7,650.7l-0.8-0.3C396,650.6,396.3,650.7,396.7,650.7z M413.2,659L413.2,659
			l-2.1,3.5l-4.5-2.7l1-1.5l1.3-2L413.2,659z M434.8,631.7L434.8,631.7c-0.8-0.6-2-1.4-3.6-2.2l-1.5,2.4l-3.9-2.4
			c-0.7,1-1.3,1.8-1.7,2.7l3.8,2.4l1.5-2.4c1,0.4,2.2,1.3,3.8,2.4L434.8,631.7z M471.8,645.4L471.8,645.4c0,0.1,0,0.4,0,0.6l3.4,0.1
			h3.9h1.5l1.4-0.1c0-1.3-0.8-2.8-2.4-4.5l1.5-2.8l1-1.7c1.3,1.5,2.2,3.2,2.7,5.2c0.1,0.6,0.3,1,0.4,1.4c0,0.4,0.1,0.8,0.1,1.3v3.8
			c0,1-0.3,1.7-1,2c-0.6,0.3-1.7,0.4-3.2,0.4l-3.9-0.1h-2.8h-2.7l-1.1-0.1l-0.4-0.1c-0.1,0-0.3-0.1-0.3-0.3
			c-0.4,0.1-0.8,0.3-1.4,0.3l-6.3,0.7l-2.7,0.1l-2.4,0.1c-3.4,0-5.7-0.4-7.1-1.1c-1.4-0.8-2.2-2.1-2.2-3.6l0.1-1.7l0.1-0.8l0.3-1.1
			c0.3-0.8,0.6-1.3,0.8-1.3l0.1,0.1l0.1,0.7v0.7v0.6v0.4c0,0.7,0.6,1.3,1.7,1.7c1.4,0.4,3.2,0.6,5.7,0.6c2.1,0,4.5-0.1,7.3-0.4h1.1
			c0.1,0,0.4,0,0.8-0.1s0.7-0.1,1-0.1l0.4-0.1c0-0.1-2.4-2-7.3-5.4l-0.7,0.7c-1.5-1.3-2.2-2.2-2.2-3.2s0.7-1.8,2.1-2.7
			c1.4-0.7,5.3-2.4,11.7-4.9c0,0.6,0,1-0.1,1.5l-0.7,2c-1.4,0.4-2.9,1-4.9,1.7c-1.8,0.7-3.1,1.3-3.5,1.7c1,0.6,2.1,1.3,3.1,2
			c1,0.7,2.1,1.5,3.4,2.5C470.7,643.5,471.8,644.7,471.8,645.4z M481,630.2L481,630.2l-4.5-2.7l-1.3,2l-0.8,1.4l4.3,2.8L481,630.2z
			 M496.7,645.8L496.7,645.8v0.1h3.4l3.9,0.1h1.5l1.4-0.1c0-1.3-0.7-2.8-2.4-4.5l1.5-2.8l1-1.7c1.3,1.5,2.2,3.2,2.7,5.2
			c0.1,0.6,0.3,1,0.4,1.4c0,0.4,0.1,0.8,0.1,1.3v3.8c0,1-0.3,1.7-1,2c-0.6,0.3-1.7,0.4-3.2,0.4l-3.9-0.1h-2.8h-2.7l-1.1-0.1h-0.1
			c-1.8,0-2.9-0.1-3.5-0.4c-1-0.4-1.5-1.4-1.7-3.1l-1-8.7c0-0.6,0-1.1,0-1.8s-0.1-1.5-0.1-2.4l-0.3-3.8l3.6-3.1l0.8,17.5
			c0,0.4,0.4,0.7,1.3,0.8H496.7z M506.7,659.5L506.7,659.5l-2.1,3.4l-4.5-2.7l1-1.5l1.3-2L506.7,659.5z"/>
	</g>
</g>
</svg>
