<?xml version="1.0" encoding="utf-8"?>
<!-- Generator: Adobe Illustrator 21.0.2, SVG Export Plug-In . SVG Version: 6.00 Build 0)  -->
<svg version="1.1" id="Layer_1" xmlns="http://www.w3.org/2000/svg" xmlns:xlink="http://www.w3.org/1999/xlink" x="0px" y="0px"
	 viewBox="0 0 612 792" style="enable-background:new 0 0 612 792;" xml:space="preserve">
<style type="text/css">
	.st0{fill:#AE0F0A;stroke:#AE0F0A;stroke-width:3;}
	.st1{fill:#AE0F0A;stroke:#AE0F0A;stroke-width:6.9449;}
	.st2{fill:#73C8D9;stroke:#73C8D9;stroke-width:6.9449;}
	.st3{fill:#AE0F0A;}
</style>
<g id="__x0023_Layer_x0020_3">
	<g id="_908018176">
		<g>
			<path class="st0" d="M358.5,465.5l-10.3,0.3l-3-10.8l-14.8-0.1l-6.9,10.8l-7,0.1l24.4-37.8h8.2l8.3,32.4L358.5,465.5z
				 M343.5,449.5l-3-10.3l-7.2,10.2L343.5,449.5z"/>
			<path class="st0" d="M313.9,435.7c0,2.3-0.9,4.3-2.4,6c-1.8,2-4.4,3.4-7.8,4c2.5,0,4.5,0.8,6,2.1c1.5,1.4,2.3,3.1,2.3,5.3
				c0,3.3-1.4,6.2-4,8.7c-2.9,2.6-6.7,4-11.4,4h-17l1.8-7.3l4.1-25.5c0.1-0.3,0.3-1.5,0.4-3.6c0-0.3,0-0.8,0.1-1.3h17
				c3,0,5.7,0.6,7.7,2C312.8,431.6,313.9,433.5,313.9,435.7z M302.5,453.6c0-3.4-2.4-5.2-6.9-5.2h-3.3l-2.1,12.7h4.1
				c2.5,0,4.4-0.9,6-2.5C301.7,457.1,302.5,455.4,302.5,453.6z M304.1,436.6c0-1.3-0.5-2.3-1.8-2.9c-1.3-0.6-2.6-1-4.1-1h-3.1
				l-1.9,11.1h2.8c2.9,0,5-0.9,6.5-2.5C303.9,439.9,304.4,438.2,304.1,436.6z"/>
			<path class="st0" d="M159.3,436.2c0,2.5-0.9,4.9-2.9,7c-2.4,2.5-5.8,4.3-10.1,4.9l5,9.8l4.6,7.3h-12.4l-3.4-7.3l-4.3-8.3h-1.1
				l-1.6,8.3l-1,7.3h-11.3l2-7.3l4.3-22.7l0.9-7.3h18.5c3.5,0,6.7,0.8,9,2.4C158.1,431.8,159.3,433.8,159.3,436.2z M148.4,433.1
				c-1.3-3.1-8.3-2.1-10.3-2.3v13.3c0.3,0,0.6,0.1,1,0.1c0.3,0,0.9,0,1.1,0c3.3,0,5,0.5,6.8-1.5C149,440.4,149.8,436.3,148.4,433.1z
				"/>
			<path class="st0" d="M82.7,441c0,7.2-2.4,12.9-7,17.3c-5,4.8-12.2,7-21.2,7c-5.5,0-9.9-1.1-12.9-3.6c-3-2.5-4.5-5.9-4.5-10.2
				c0-6.7,2.4-12.3,7.2-16.7c5.2-4.8,12.1-7.2,20.6-7.2c5.7,0,9.9,1.1,13.2,3.5C81,433.5,82.7,436.7,82.7,441z M70.2,440
				c0-2.6-0.5-4.6-1.8-5.9c-1.1-1.4-2.9-2-5-2c-4.6,0-8.3,2.6-10.8,7.8c-2.1,4.1-3.1,8.8-3.1,13.8c0,2.4,0.6,4.1,1.8,5.4
				c1.3,1.3,2.9,1.8,5.2,1.8c4.3,0,7.7-2,10.3-6.2C69.1,450.8,70.2,445.9,70.2,440z"/>
			<polygon class="st1" points="493.6,338.8 546.2,338.8 568,378.7 558.4,394.4 548,376.8 491.7,376.8 468.6,417.4 459.3,399.5 
				481.6,360.7 537,359.9 537.1,353.4 486.6,353.5 			"/>
			<polygon class="st1" points="606.7,398.9 581.9,444.5 535.7,444.6 526.3,427.5 548.6,427.2 574.4,378.8 551.4,338.8 570.5,338.8 
				593.4,377.8 567,427.3 573.8,427.3 597.3,385.7 			"/>
			<polygon class="st1" points="495.5,465.7 471.5,422.3 495.4,382.6 514.1,382.6 503.9,402.2 531.7,450.4 579.1,450.2 571.4,465.4 
				521.9,465.4 494.1,418.9 490.7,423.9 514.7,465.2 			"/>
			<circle class="st2" cx="532.3" cy="401.4" r="18.9"/>
			<polygon class="st0" points="433.8,428.2 419.1,441.5 433.3,465.7 419,465.7 411.9,446 407.3,451.3 406.3,457.5 405.3,466 
				394.4,466 396.2,457.5 400.3,431.3 400.5,428 411.1,428 410.4,431.2 408.9,443.5 427.5,428 			"/>
			<polygon class="st0" points="395,428 389.7,465.7 381.5,465.6 366.2,439 363.3,457.5 362.4,465.5 357,465.5 362.7,428 376,428 
				386.2,446.3 389.8,428 			"/>
			<polygon class="st0" points="259,428.2 255.1,465.5 245.1,465.5 246.3,458.2 248.6,438.7 235.2,462.9 230.1,463 223.7,439 
				219.3,458.2 218,465.5 212,465.5 218.8,435.8 220.4,428.2 230.3,428.2 236.3,450.3 249.3,428.2 			"/>
			<path class="st0" d="M209.9,429.8l-1.1,6.8c-1.5-1.3-2.9-2.3-4.5-2.9c-1.5-0.8-3-1.1-4.4-1.1c-1.8,0-3.1,0.5-4.3,1.5
				c-1.1,0.9-1.8,2-1.8,3.1c0,1,0.4,1.8,0.9,2.3c0.5,0.6,1.8,1.3,3.5,2.1l3.1,1.5c2.6,1.1,4.4,2.4,5.5,3.8c1.1,1.4,1.6,3.1,1.6,5
				c0,3.1-1.5,6-4.5,8.5c-3.3,2.9-7.5,4.3-12.6,4.3c-2,0-4.4-0.4-7.3-1.3c-0.9-0.3-2.1-0.6-3.8-1.1l1.3-6.9c1.5,1.8,3.3,2.9,5.2,3.6
				c1.5,0.6,3.3,1,5.2,1s3.6-0.6,5.2-1.6c1.5-1.1,2.1-2.4,2.1-3.8c0-0.9-0.3-1.6-1-2.4c-0.8-0.6-1.8-1.4-3.1-2.3l-2.9-1.3
				c-3-1.5-5-2.9-6.2-4.1c-0.9-1.3-1.4-2.8-1.4-4.6c0-2.8,1.5-5.4,4.6-7.9c3.4-2.6,7.4-3.9,12.2-3.9c1,0,2.6,0.3,5,0.8
				C207.3,429.1,208.5,429.4,209.9,429.8z"/>
			<polygon class="st0" points="178.2,428.3 176.6,435.6 172.4,458 171.4,465.2 160.6,465.2 162.4,458 166.5,435.6 167.4,428.3 			
				"/>
			<path class="st0" d="M120.4,427.9l-1.8,7.4l-3.5,18.9c-0.8,4-2.8,6.9-5.9,8.8s-7.7,2.8-13.3,2.8c-4.1,0-7.3-0.9-9.6-2.5
				c-2.3-1.8-3.4-4.1-3.4-7c0-0.6,0-1.4,0.1-2l3.6-19.2l0.8-7h11.2l-1.8,7.4l-3.4,18.2c-0.1,0.8-0.3,1.5-0.3,2.1
				c0,3.4,2.1,5.2,6.3,5.2c2.1,0,4.1-0.5,5.9-1.5c2-1.3,3.3-3,3.8-5.5l3.5-18.5l0.8-7.4H120.4z"/>
			<path class="st0" d="M34.5,428.4l-0.9,5.5c-1.3-0.3-2.4-0.4-3.4-0.4c-1.1-0.1-1.9-0.1-2.5-0.1h-2.5l-4,24.5l-0.6,7.2h-9.4
				l1.6-7.2l3.9-24.5h-2.6L8,434l0.9-5.5H34.5z"/>
		</g>
		<g>
			<path class="st3" d="M438.6,384.1h-23.8v-49.1c0-0.8-11.8,10.1-11.8,10.1v40.8c0,0,0.9,13.2,17.7,13.2h8.2
				C430.5,399,440.6,384.1,438.6,384.1z"/>
			<path class="st3" d="M398.7,385.1h-20.4c0,0-4.5-2.1-7.8-8.9c-1.8-3.8-1.1-8-7.4-17.6c0,0-3-3.3,2-4.3l20-5.5
				c0,0,12.1-17.1,8.5-15.8c-9.2,3.4-42.4,10.3-42.4,10.3l-10.6,16.8c0,0,18.5,4.5,19.5,12.2c1.3,8.5-5.2,13.2-5.2,13.2
				s-45.9-0.4-47.1-0.4S293.4,399,295.3,399H352c0.9,0,10.7-11.9,10.7-11.9s9,13.9,21.1,13.1c0.5,0,5.9-0.4,5.9-0.4
				S400.8,385.1,398.7,385.1z"/>
			<path class="st3" d="M216.4,399.8c-1.1-0.1,11.3-14.6,11.3-14.6h18.5l12.4-16.8c0,0,2-2.6,5,0c0,0,2.9,15.3,9.8,17.1
				c0,0,4,1.8,17.7-0.5c0,0,5.5,0,5.5-10.3c0-10.2-19.6-13.9-19.6-13.9l8.5-17.2c0,0,24.6-2.5,42.7-10.6c2.3,1-4.8,15.1-6,15.6
				c-1.4,0.5-10.1,4.1-23.5,6.3c0,0,22.1,20.7-10.7,43.5c0,0-24.1,8.9-30.5-15.8c0,0-13.1,17.5-14.1,17.5
				C242.4,399.9,217.5,399.8,216.4,399.8z"/>
			<path class="st3" d="M179.8,399.9c-2.1-0.4,11.9-15.3,11.9-15.3h21.7c0,0,14.7-16.5-15-24c0,0,7.3-9.2,9-10.6
				c1.8-1.3,42.6,10.3,2.4,49.9C210,399.9,182.1,400.3,179.8,399.9z"/>
			<path class="st3" d="M185,384.8c1.5,0-10.1,15.2-10.9,15.2s-49.3,0.1-49.3,0.1s-3.6-11.1-6.9-0.3c0,0-27,5.9-32.7-15.1
				c0,0-0.9-3-2.6,0l-12.8,15.1H43.3c-0.6,0,10.8-15,11.9-15c1.1,0,18.5,0,18.5,0l13.4-16.6c0,0,3.8-1.8,4.3,2.6
				c0,0,0.3,21.4,26,13.6c15.3-17.8-10.7-23.1-12.2-24.1c-1.5-1,8.2-16.6,8.2-16.6s40.2-10.4,41.8-10.9c1.6-0.5-3,15.1-6.8,16.2
				c-3.8,1.1-21.7,4.1-21.7,4.1s-3.8,0.5-1.3,3.8c0,0,16.6,11.9,4,27.8C129.6,384.8,183.3,384.8,185,384.8z"/>
			<path class="st3" d="M11.7,368.4c0,0-18.7,20.1,7.8,30.7c7.8,3.3,17.5,0.8,17.5,0.8s12.1-11.1,16-17.3c4.6-7.4-0.6-15.6-8.8-22
				c0,0,15.2-7.3,14.1-11.1c0,0-21.1-1.9-30,16.5c0,0,2.6,3,7.5,3.8c5,0.8,15.6,9,3.3,15.3c-10.1,5.2-32.8-3.9-25.3-14.8
				C14.9,368.2,13.6,366.3,11.7,368.4z"/>
			<polygon class="st3" points="168.9,358.9 161.4,351.5 153.9,358.9 161.4,366.3 			"/>
			<polygon class="st3" points="161,370.9 153.6,363.3 146.1,370.9 153.6,378.3 			"/>
			<polygon class="st3" points="175.9,370.9 168.5,363.3 161,370.9 168.5,378.3 			"/>
			<polygon class="st3" points="396.5,368 389.1,360.6 381.5,368 389.1,375.4 			"/>
			<polygon class="st3" points="428.4,410.3 420.9,402.9 413.5,410.3 420.9,417.7 			"/>
			<path class="st3" d="M289.5,337.6c0,0,36.8-11.4,38-11.6c1.1,0-1.1,3.8-1.1,3.8s-36.6,10.6-37.5,11.2
				C288,341.6,289.5,337.6,289.5,337.6z"/>
			<path class="st3" d="M118.1,338.2c0,0,36.8-11.4,38-11.6c1,0-1.3,3.8-1.3,3.8s-36.4,10.6-37.3,11.2
				C116.6,342.2,118.1,338.2,118.1,338.2z"/>
		</g>
	</g>
</g>
</svg>
