<?xml version="1.0" encoding="utf-8"?>
<!-- Generator: Adobe Illustrator 21.0.2, SVG Export Plug-In . SVG Version: 6.00 Build 0)  -->
<svg version="1.1" id="Layer_1" xmlns="http://www.w3.org/2000/svg" xmlns:xlink="http://www.w3.org/1999/xlink" x="0px" y="0px"
	 viewBox="0 0 612 792" style="enable-background:new 0 0 612 792;" xml:space="preserve">
<style type="text/css">
	.st0{fill:#96989A;}
	.st1{fill:#50B5D1;}
</style>
<g id="__x0023_Layer_x0020_3">
	<circle class="st0" cx="307.7" cy="406.2" r="96.2"/>
	<path class="st1" d="M354.6,290.2c-31.2-8.3-58-8.6-95.6,0.1l-52.2-141.2l55.8-35.7c34.8-23.3,65.5-23.1,95.6-1.1l52.1,36.3
		C389.7,195.2,375.2,243.8,354.6,290.2z"/>
	<path class="st1" d="M427.5,372.2c-12.4-29.9-28.5-51.4-58.4-75.8l80.1-127.5l62.2,22.5c39.6,13.4,58.1,37.8,59.1,75.2l3,63.5
		C524.1,342,476.9,360.1,427.5,372.2z"/>
	<path class="st1" d="M411,480.5c15.6-28.4,22.4-54.4,23-92.8l149.5-16.8l21.3,62.7c14.3,39.4,6.6,69.1-22,93.1L535,568.5
		C494.9,537.3,451.1,511.5,411,480.5z"/>
	<path class="st1" d="M243.7,295.4C218,315,201.3,336.1,185.1,371L41.5,325.8l6-66c2.9-41.8,22-65.9,57.8-76.3l60.6-18.9
		C190.1,209.4,219.6,250.7,243.7,295.4z"/>
	<path class="st1" d="M182.6,386.2c-1.5,32.3,4,58.6,20.4,93.4L76.2,560.7l-46.7-47c-30.2-29-36.5-59.1-21.4-93.2l24.3-58.6
		C82.3,372.2,132.9,375.9,182.6,386.2z"/>
	<path class="st1" d="M316.5,532c31.8-5.8,56.2-17,86.4-41l107.7,105.2l-35.2,56.1c-21.5,36-49.3,48.9-86.1,41.9l-62.5-10.5
		C325.6,632.9,317.8,582.7,316.5,532z"/>
	<path class="st1" d="M212.9,490.3c23.9,21.6,47.7,34.2,85.1,43.6l-18,149.4l-66,6.3c-41.6,4.8-68.8-9.4-85.6-42.8l-29.7-56.1
		C138.3,558.8,173.4,522.2,212.9,490.3z"/>
</g>
</svg>
